<?xml version="1.0" encoding="utf-8" standalone="no"?>
<!DOCTYPE svg PUBLIC "-//W3C//DTD SVG 1.1//EN"
  "http://www.w3.org/Graphics/SVG/1.1/DTD/svg11.dtd">
<!-- Created with matplotlib (https://matplotlib.org/) -->
<svg height="266.990683pt" version="1.1" viewBox="0 0 432 266.990683" width="432pt" xmlns="http://www.w3.org/2000/svg" xmlns:xlink="http://www.w3.org/1999/xlink">
 <defs>
  <style type="text/css">
*{stroke-linecap:butt;stroke-linejoin:round;}
  </style>
 </defs>
 <g id="figure_1">
  <g id="patch_1">
   <path d="M 0 266.990683 
L 432 266.990683 
L 432 0 
L 0 0 
z
" style="fill:#ffffff;"/>
  </g>
  <g id="axes_1">
   <g id="patch_2">
    <path d="M 40.12 239.110683 
L 421.2 239.110683 
L 421.2 10.8 
L 40.12 10.8 
z
" style="fill:#ffffff;"/>
   </g>
   <g id="matplotlib.axis_1">
    <g id="xtick_1">
     <g id="line2d_1">
      <defs>
       <path d="M 0 0 
L 0 3.5 
" id="m93a33131fc" style="stroke:#000000;stroke-width:0.8;"/>
      </defs>
      <g>
       <use style="stroke:#000000;stroke-width:0.8;" x="57.441818" xlink:href="#m93a33131fc" y="239.110683"/>
      </g>
     </g>
     <g id="text_1">
      <!-- −4 -->
      <defs>
       <path d="M 10.59375 35.5 
L 73.1875 35.5 
L 73.1875 27.203125 
L 10.59375 27.203125 
z
" id="DejaVuSans-8722"/>
       <path d="M 37.796875 64.3125 
L 12.890625 25.390625 
L 37.796875 25.390625 
z
M 35.203125 72.90625 
L 47.609375 72.90625 
L 47.609375 25.390625 
L 58.015625 25.390625 
L 58.015625 17.1875 
L 47.609375 17.1875 
L 47.609375 0 
L 37.796875 0 
L 37.796875 17.1875 
L 4.890625 17.1875 
L 4.890625 26.703125 
z
" id="DejaVuSans-52"/>
      </defs>
      <g transform="translate(50.070724 253.709121)scale(0.1 -0.1)">
       <use xlink:href="#DejaVuSans-8722"/>
       <use x="83.789062" xlink:href="#DejaVuSans-52"/>
      </g>
     </g>
    </g>
    <g id="xtick_2">
     <g id="line2d_2">
      <g>
       <use style="stroke:#000000;stroke-width:0.8;" x="100.746364" xlink:href="#m93a33131fc" y="239.110683"/>
      </g>
     </g>
     <g id="text_2">
      <!-- −3 -->
      <defs>
       <path d="M 40.578125 39.3125 
Q 47.65625 37.796875 51.625 33 
Q 55.609375 28.21875 55.609375 21.1875 
Q 55.609375 10.40625 48.1875 4.484375 
Q 40.765625 -1.421875 27.09375 -1.421875 
Q 22.515625 -1.421875 17.65625 -0.515625 
Q 12.796875 0.390625 7.625 2.203125 
L 7.625 11.71875 
Q 11.71875 9.328125 16.59375 8.109375 
Q 21.484375 6.890625 26.8125 6.890625 
Q 36.078125 6.890625 40.9375 10.546875 
Q 45.796875 14.203125 45.796875 21.1875 
Q 45.796875 27.640625 41.28125 31.265625 
Q 36.765625 34.90625 28.71875 34.90625 
L 20.21875 34.90625 
L 20.21875 43.015625 
L 29.109375 43.015625 
Q 36.375 43.015625 40.234375 45.921875 
Q 44.09375 48.828125 44.09375 54.296875 
Q 44.09375 59.90625 40.109375 62.90625 
Q 36.140625 65.921875 28.71875 65.921875 
Q 24.65625 65.921875 20.015625 65.03125 
Q 15.375 64.15625 9.8125 62.3125 
L 9.8125 71.09375 
Q 15.4375 72.65625 20.34375 73.4375 
Q 25.25 74.21875 29.59375 74.21875 
Q 40.828125 74.21875 47.359375 69.109375 
Q 53.90625 64.015625 53.90625 55.328125 
Q 53.90625 49.265625 50.4375 45.09375 
Q 46.96875 40.921875 40.578125 39.3125 
z
" id="DejaVuSans-51"/>
      </defs>
      <g transform="translate(93.37527 253.709121)scale(0.1 -0.1)">
       <use xlink:href="#DejaVuSans-8722"/>
       <use x="83.789062" xlink:href="#DejaVuSans-51"/>
      </g>
     </g>
    </g>
    <g id="xtick_3">
     <g id="line2d_3">
      <g>
       <use style="stroke:#000000;stroke-width:0.8;" x="144.050909" xlink:href="#m93a33131fc" y="239.110683"/>
      </g>
     </g>
     <g id="text_3">
      <!-- −2 -->
      <defs>
       <path d="M 19.1875 8.296875 
L 53.609375 8.296875 
L 53.609375 0 
L 7.328125 0 
L 7.328125 8.296875 
Q 12.9375 14.109375 22.625 23.890625 
Q 32.328125 33.6875 34.8125 36.53125 
Q 39.546875 41.84375 41.421875 45.53125 
Q 43.3125 49.21875 43.3125 52.78125 
Q 43.3125 58.59375 39.234375 62.25 
Q 35.15625 65.921875 28.609375 65.921875 
Q 23.96875 65.921875 18.8125 64.3125 
Q 13.671875 62.703125 7.8125 59.421875 
L 7.8125 69.390625 
Q 13.765625 71.78125 18.9375 73 
Q 24.125 74.21875 28.421875 74.21875 
Q 39.75 74.21875 46.484375 68.546875 
Q 53.21875 62.890625 53.21875 53.421875 
Q 53.21875 48.921875 51.53125 44.890625 
Q 49.859375 40.875 45.40625 35.40625 
Q 44.1875 33.984375 37.640625 27.21875 
Q 31.109375 20.453125 19.1875 8.296875 
z
" id="DejaVuSans-50"/>
      </defs>
      <g transform="translate(136.679815 253.709121)scale(0.1 -0.1)">
       <use xlink:href="#DejaVuSans-8722"/>
       <use x="83.789062" xlink:href="#DejaVuSans-50"/>
      </g>
     </g>
    </g>
    <g id="xtick_4">
     <g id="line2d_4">
      <g>
       <use style="stroke:#000000;stroke-width:0.8;" x="187.355455" xlink:href="#m93a33131fc" y="239.110683"/>
      </g>
     </g>
     <g id="text_4">
      <!-- −1 -->
      <defs>
       <path d="M 12.40625 8.296875 
L 28.515625 8.296875 
L 28.515625 63.921875 
L 10.984375 60.40625 
L 10.984375 69.390625 
L 28.421875 72.90625 
L 38.28125 72.90625 
L 38.28125 8.296875 
L 54.390625 8.296875 
L 54.390625 0 
L 12.40625 0 
z
" id="DejaVuSans-49"/>
      </defs>
      <g transform="translate(179.984361 253.709121)scale(0.1 -0.1)">
       <use xlink:href="#DejaVuSans-8722"/>
       <use x="83.789062" xlink:href="#DejaVuSans-49"/>
      </g>
     </g>
    </g>
    <g id="xtick_5">
     <g id="line2d_5">
      <g>
       <use style="stroke:#000000;stroke-width:0.8;" x="230.66" xlink:href="#m93a33131fc" y="239.110683"/>
      </g>
     </g>
     <g id="text_5">
      <!-- 0 -->
      <defs>
       <path d="M 31.78125 66.40625 
Q 24.171875 66.40625 20.328125 58.90625 
Q 16.5 51.421875 16.5 36.375 
Q 16.5 21.390625 20.328125 13.890625 
Q 24.171875 6.390625 31.78125 6.390625 
Q 39.453125 6.390625 43.28125 13.890625 
Q 47.125 21.390625 47.125 36.375 
Q 47.125 51.421875 43.28125 58.90625 
Q 39.453125 66.40625 31.78125 66.40625 
z
M 31.78125 74.21875 
Q 44.046875 74.21875 50.515625 64.515625 
Q 56.984375 54.828125 56.984375 36.375 
Q 56.984375 17.96875 50.515625 8.265625 
Q 44.046875 -1.421875 31.78125 -1.421875 
Q 19.53125 -1.421875 13.0625 8.265625 
Q 6.59375 17.96875 6.59375 36.375 
Q 6.59375 54.828125 13.0625 64.515625 
Q 19.53125 74.21875 31.78125 74.21875 
z
" id="DejaVuSans-48"/>
      </defs>
      <g transform="translate(227.47875 253.709121)scale(0.1 -0.1)">
       <use xlink:href="#DejaVuSans-48"/>
      </g>
     </g>
    </g>
    <g id="xtick_6">
     <g id="line2d_6">
      <g>
       <use style="stroke:#000000;stroke-width:0.8;" x="273.964545" xlink:href="#m93a33131fc" y="239.110683"/>
      </g>
     </g>
     <g id="text_6">
      <!-- 1 -->
      <g transform="translate(270.783295 253.709121)scale(0.1 -0.1)">
       <use xlink:href="#DejaVuSans-49"/>
      </g>
     </g>
    </g>
    <g id="xtick_7">
     <g id="line2d_7">
      <g>
       <use style="stroke:#000000;stroke-width:0.8;" x="317.269091" xlink:href="#m93a33131fc" y="239.110683"/>
      </g>
     </g>
     <g id="text_7">
      <!-- 2 -->
      <g transform="translate(314.087841 253.709121)scale(0.1 -0.1)">
       <use xlink:href="#DejaVuSans-50"/>
      </g>
     </g>
    </g>
    <g id="xtick_8">
     <g id="line2d_8">
      <g>
       <use style="stroke:#000000;stroke-width:0.8;" x="360.573636" xlink:href="#m93a33131fc" y="239.110683"/>
      </g>
     </g>
     <g id="text_8">
      <!-- 3 -->
      <g transform="translate(357.392386 253.709121)scale(0.1 -0.1)">
       <use xlink:href="#DejaVuSans-51"/>
      </g>
     </g>
    </g>
    <g id="xtick_9">
     <g id="line2d_9">
      <g>
       <use style="stroke:#000000;stroke-width:0.8;" x="403.878182" xlink:href="#m93a33131fc" y="239.110683"/>
      </g>
     </g>
     <g id="text_9">
      <!-- 4 -->
      <g transform="translate(400.696932 253.709121)scale(0.1 -0.1)">
       <use xlink:href="#DejaVuSans-52"/>
      </g>
     </g>
    </g>
   </g>
   <g id="matplotlib.axis_2">
    <g id="ytick_1">
     <g id="line2d_10">
      <defs>
       <path d="M 0 0 
L -3.5 0 
" id="me12dba4ec1" style="stroke:#000000;stroke-width:0.8;"/>
      </defs>
      <g>
       <use style="stroke:#000000;stroke-width:0.8;" x="40.12" xlink:href="#me12dba4ec1" y="228.733698"/>
      </g>
     </g>
     <g id="text_10">
      <!-- 0.00 -->
      <defs>
       <path d="M 10.6875 12.40625 
L 21 12.40625 
L 21 0 
L 10.6875 0 
z
" id="DejaVuSans-46"/>
      </defs>
      <g transform="translate(10.854375 232.532917)scale(0.1 -0.1)">
       <use xlink:href="#DejaVuSans-48"/>
       <use x="63.623047" xlink:href="#DejaVuSans-46"/>
       <use x="95.410156" xlink:href="#DejaVuSans-48"/>
       <use x="159.033203" xlink:href="#DejaVuSans-48"/>
      </g>
     </g>
    </g>
    <g id="ytick_2">
     <g id="line2d_11">
      <g>
       <use style="stroke:#000000;stroke-width:0.8;" x="40.12" xlink:href="#me12dba4ec1" y="202.719092"/>
      </g>
     </g>
     <g id="text_11">
      <!-- 0.05 -->
      <defs>
       <path d="M 10.796875 72.90625 
L 49.515625 72.90625 
L 49.515625 64.59375 
L 19.828125 64.59375 
L 19.828125 46.734375 
Q 21.96875 47.46875 24.109375 47.828125 
Q 26.265625 48.1875 28.421875 48.1875 
Q 40.625 48.1875 47.75 41.5 
Q 54.890625 34.8125 54.890625 23.390625 
Q 54.890625 11.625 47.5625 5.09375 
Q 40.234375 -1.421875 26.90625 -1.421875 
Q 22.3125 -1.421875 17.546875 -0.640625 
Q 12.796875 0.140625 7.71875 1.703125 
L 7.71875 11.625 
Q 12.109375 9.234375 16.796875 8.0625 
Q 21.484375 6.890625 26.703125 6.890625 
Q 35.15625 6.890625 40.078125 11.328125 
Q 45.015625 15.765625 45.015625 23.390625 
Q 45.015625 31 40.078125 35.4375 
Q 35.15625 39.890625 26.703125 39.890625 
Q 22.75 39.890625 18.8125 39.015625 
Q 14.890625 38.140625 10.796875 36.28125 
z
" id="DejaVuSans-53"/>
      </defs>
      <g transform="translate(10.854375 206.518311)scale(0.1 -0.1)">
       <use xlink:href="#DejaVuSans-48"/>
       <use x="63.623047" xlink:href="#DejaVuSans-46"/>
       <use x="95.410156" xlink:href="#DejaVuSans-48"/>
       <use x="159.033203" xlink:href="#DejaVuSans-53"/>
      </g>
     </g>
    </g>
    <g id="ytick_3">
     <g id="line2d_12">
      <g>
       <use style="stroke:#000000;stroke-width:0.8;" x="40.12" xlink:href="#me12dba4ec1" y="176.704485"/>
      </g>
     </g>
     <g id="text_12">
      <!-- 0.10 -->
      <g transform="translate(10.854375 180.503704)scale(0.1 -0.1)">
       <use xlink:href="#DejaVuSans-48"/>
       <use x="63.623047" xlink:href="#DejaVuSans-46"/>
       <use x="95.410156" xlink:href="#DejaVuSans-49"/>
       <use x="159.033203" xlink:href="#DejaVuSans-48"/>
      </g>
     </g>
    </g>
    <g id="ytick_4">
     <g id="line2d_13">
      <g>
       <use style="stroke:#000000;stroke-width:0.8;" x="40.12" xlink:href="#me12dba4ec1" y="150.689879"/>
      </g>
     </g>
     <g id="text_13">
      <!-- 0.15 -->
      <g transform="translate(10.854375 154.489098)scale(0.1 -0.1)">
       <use xlink:href="#DejaVuSans-48"/>
       <use x="63.623047" xlink:href="#DejaVuSans-46"/>
       <use x="95.410156" xlink:href="#DejaVuSans-49"/>
       <use x="159.033203" xlink:href="#DejaVuSans-53"/>
      </g>
     </g>
    </g>
    <g id="ytick_5">
     <g id="line2d_14">
      <g>
       <use style="stroke:#000000;stroke-width:0.8;" x="40.12" xlink:href="#me12dba4ec1" y="124.675272"/>
      </g>
     </g>
     <g id="text_14">
      <!-- 0.20 -->
      <g transform="translate(10.854375 128.474491)scale(0.1 -0.1)">
       <use xlink:href="#DejaVuSans-48"/>
       <use x="63.623047" xlink:href="#DejaVuSans-46"/>
       <use x="95.410156" xlink:href="#DejaVuSans-50"/>
       <use x="159.033203" xlink:href="#DejaVuSans-48"/>
      </g>
     </g>
    </g>
    <g id="ytick_6">
     <g id="line2d_15">
      <g>
       <use style="stroke:#000000;stroke-width:0.8;" x="40.12" xlink:href="#me12dba4ec1" y="98.660666"/>
      </g>
     </g>
     <g id="text_15">
      <!-- 0.25 -->
      <g transform="translate(10.854375 102.459885)scale(0.1 -0.1)">
       <use xlink:href="#DejaVuSans-48"/>
       <use x="63.623047" xlink:href="#DejaVuSans-46"/>
       <use x="95.410156" xlink:href="#DejaVuSans-50"/>
       <use x="159.033203" xlink:href="#DejaVuSans-53"/>
      </g>
     </g>
    </g>
    <g id="ytick_7">
     <g id="line2d_16">
      <g>
       <use style="stroke:#000000;stroke-width:0.8;" x="40.12" xlink:href="#me12dba4ec1" y="72.646059"/>
      </g>
     </g>
     <g id="text_16">
      <!-- 0.30 -->
      <g transform="translate(10.854375 76.445278)scale(0.1 -0.1)">
       <use xlink:href="#DejaVuSans-48"/>
       <use x="63.623047" xlink:href="#DejaVuSans-46"/>
       <use x="95.410156" xlink:href="#DejaVuSans-51"/>
       <use x="159.033203" xlink:href="#DejaVuSans-48"/>
      </g>
     </g>
    </g>
    <g id="ytick_8">
     <g id="line2d_17">
      <g>
       <use style="stroke:#000000;stroke-width:0.8;" x="40.12" xlink:href="#me12dba4ec1" y="46.631453"/>
      </g>
     </g>
     <g id="text_17">
      <!-- 0.35 -->
      <g transform="translate(10.854375 50.430672)scale(0.1 -0.1)">
       <use xlink:href="#DejaVuSans-48"/>
       <use x="63.623047" xlink:href="#DejaVuSans-46"/>
       <use x="95.410156" xlink:href="#DejaVuSans-51"/>
       <use x="159.033203" xlink:href="#DejaVuSans-53"/>
      </g>
     </g>
    </g>
    <g id="ytick_9">
     <g id="line2d_18">
      <g>
       <use style="stroke:#000000;stroke-width:0.8;" x="40.12" xlink:href="#me12dba4ec1" y="20.616846"/>
      </g>
     </g>
     <g id="text_18">
      <!-- 0.40 -->
      <g transform="translate(10.854375 24.416065)scale(0.1 -0.1)">
       <use xlink:href="#DejaVuSans-48"/>
       <use x="63.623047" xlink:href="#DejaVuSans-46"/>
       <use x="95.410156" xlink:href="#DejaVuSans-52"/>
       <use x="159.033203" xlink:href="#DejaVuSans-48"/>
      </g>
     </g>
    </g>
   </g>
   <g id="line2d_19">
    <path clip-path="url(#p3ccd909a68)" d="M 57.441818 226.427842 
L 60.941175 225.804844 
L 64.440533 225.037738 
L 67.93989 224.100072 
L 71.439247 222.962329 
L 74.938604 221.592013 
L 78.437961 219.953857 
L 81.937319 218.010195 
L 85.436676 215.721496 
L 88.936033 213.047092 
L 92.43539 209.946099 
L 95.934747 206.378545 
L 99.434105 202.306685 
L 102.933462 197.696494 
L 106.432819 192.519307 
L 109.932176 186.753559 
L 113.431534 180.386576 
L 116.930891 173.416335 
L 120.430248 165.85314 
L 123.929605 157.721102 
L 127.428962 149.059359 
L 130.92832 139.922929 
L 134.427677 130.383129 
L 137.927034 120.527485 
L 141.426391 110.459067 
L 144.925748 100.29524 
L 148.425106 90.165794 
L 151.924463 80.2105 
L 155.42382 70.576116 
L 158.923177 61.41294 
L 162.422534 52.871009 
L 165.921892 45.096069 
L 169.421249 38.225476 
L 172.920606 32.384175 
L 176.419963 27.680929 
L 179.91932 24.204956 
L 183.418678 22.023113 
L 186.918035 21.177758 
L 190.417392 21.685385 
L 193.916749 23.536084 
L 197.416107 26.693866 
L 200.915464 31.097828 
L 204.414821 36.664102 
L 207.914178 43.288516 
L 211.413535 50.849828 
L 214.912893 59.213418 
L 218.41225 68.23525 
L 221.911607 77.76598 
L 225.410964 87.655005 
L 228.910321 97.754345 
L 232.409679 107.922181 
L 235.909036 118.025976 
L 239.408393 127.945061 
L 242.90775 137.57265 
L 246.407107 146.817247 
L 249.906465 155.603453 
L 253.405822 163.872195 
L 256.905179 171.58043 
L 260.404536 178.700391 
L 263.903893 185.218454 
L 267.403251 191.133708 
L 270.902608 196.45633 
L 274.401965 201.20583 
L 277.901322 205.409264 
L 281.40068 209.099474 
L 284.900037 212.313423 
L 288.399394 215.090656 
L 291.898751 217.471943 
L 295.398108 219.4981 
L 298.897466 221.209018 
L 302.396823 222.642887 
L 305.89618 223.835613 
L 309.395537 224.820412 
L 312.894894 225.627559 
L 316.394252 226.284272 
L 319.893609 226.814712 
L 323.392966 227.240067 
L 326.892323 227.578706 
L 330.39168 227.846381 
L 333.891038 228.056458 
L 337.390395 228.220163 
L 340.889752 228.34683 
L 344.389109 228.444152 
L 347.888466 228.518401 
L 351.387824 228.574652 
L 354.887181 228.616971 
L 358.386538 228.648588 
L 361.885895 228.672044 
L 365.385253 228.689327 
L 368.88461 228.701973 
L 372.383967 228.711162 
L 375.883324 228.717794 
L 379.382681 228.722548 
L 382.882039 228.725931 
L 386.381396 228.728323 
L 389.880753 228.730003 
L 393.38011 228.731174 
L 396.879467 228.731985 
L 400.378825 228.732543 
L 403.878182 228.732925 
" style="fill:none;stroke:#ff00ff;stroke-linecap:square;stroke-width:1.5;"/>
   </g>
   <g id="line2d_20">
    <path clip-path="url(#p3ccd909a68)" d="M 57.441818 228.664068 
L 60.941175 228.637811 
L 64.440533 228.602513 
L 67.93989 228.555389 
L 71.439247 228.492915 
L 74.938604 228.410669 
L 78.437961 228.303149 
L 81.937319 228.163577 
L 85.436676 227.983673 
L 88.936033 227.753421 
L 92.43539 227.460824 
L 95.934747 227.091648 
L 99.434105 226.629186 
L 102.933462 226.054034 
L 106.432819 225.343902 
L 109.932176 224.473491 
L 113.431534 223.414429 
L 116.930891 222.135318 
L 120.430248 220.601897 
L 123.929605 218.777346 
L 127.428962 216.622758 
L 130.92832 214.097795 
L 134.427677 211.161534 
L 137.927034 207.773514 
L 141.426391 203.89499 
L 144.925748 199.490357 
L 148.425106 194.528741 
L 151.924463 188.985705 
L 155.42382 182.845032 
L 158.923177 176.100502 
L 162.422534 168.757611 
L 165.921892 160.835132 
L 169.421249 152.366448 
L 172.920606 143.400547 
L 176.419963 134.002617 
L 179.91932 124.25415 
L 183.418678 114.252502 
L 186.918035 104.109863 
L 190.417392 93.951621 
L 193.916749 83.914126 
L 197.416107 74.141898 
L 200.915464 64.784336 
L 204.414821 55.992039 
L 207.914178 47.912841 
L 211.413535 40.687724 
L 214.912893 34.446745 
L 218.41225 29.305156 
L 221.911607 25.359865 
L 225.410964 22.686405 
L 228.910321 21.336525 
L 232.409679 21.336525 
L 235.909036 22.686405 
L 239.408393 25.359865 
L 242.90775 29.305156 
L 246.407107 34.446745 
L 249.906465 40.687724 
L 253.405822 47.912841 
L 256.905179 55.992039 
L 260.404536 64.784336 
L 263.903893 74.141898 
L 267.403251 83.914126 
L 270.902608 93.951621 
L 274.401965 104.109863 
L 277.901322 114.252502 
L 281.40068 124.25415 
L 284.900037 134.002617 
L 288.399394 143.400547 
L 291.898751 152.366448 
L 295.398108 160.835132 
L 298.897466 168.757611 
L 302.396823 176.100502 
L 305.89618 182.845032 
L 309.395537 188.985705 
L 312.894894 194.528741 
L 316.394252 199.490357 
L 319.893609 203.89499 
L 323.392966 207.773514 
L 326.892323 211.161534 
L 330.39168 214.097795 
L 333.891038 216.622758 
L 337.390395 218.777346 
L 340.889752 220.601897 
L 344.389109 222.135318 
L 347.888466 223.414429 
L 351.387824 224.473491 
L 354.887181 225.343902 
L 358.386538 226.054034 
L 361.885895 226.629186 
L 365.385253 227.091648 
L 368.88461 227.460824 
L 372.383967 227.753421 
L 375.883324 227.983673 
L 379.382681 228.163577 
L 382.882039 228.303149 
L 386.381396 228.410669 
L 389.880753 228.492915 
L 393.38011 228.555389 
L 396.879467 228.602513 
L 400.378825 228.637811 
L 403.878182 228.664068 
" style="fill:none;stroke:#d9a31f;stroke-linecap:square;stroke-width:1.5;"/>
   </g>
   <g id="line2d_21">
    <path clip-path="url(#p3ccd909a68)" d="M 57.441818 228.732925 
L 60.941175 228.732543 
L 64.440533 228.731985 
L 67.93989 228.731174 
L 71.439247 228.730003 
L 74.938604 228.728323 
L 78.437961 228.725931 
L 81.937319 228.722548 
L 85.436676 228.717794 
L 88.936033 228.711162 
L 92.43539 228.701973 
L 95.934747 228.689327 
L 99.434105 228.672044 
L 102.933462 228.648588 
L 106.432819 228.616971 
L 109.932176 228.574652 
L 113.431534 228.518401 
L 116.930891 228.444152 
L 120.430248 228.34683 
L 123.929605 228.220163 
L 127.428962 228.056458 
L 130.92832 227.846381 
L 134.427677 227.578706 
L 137.927034 227.240067 
L 141.426391 226.814712 
L 144.925748 226.284272 
L 148.425106 225.627559 
L 151.924463 224.820412 
L 155.42382 223.835613 
L 158.923177 222.642887 
L 162.422534 221.209018 
L 165.921892 219.4981 
L 169.421249 217.471943 
L 172.920606 215.090656 
L 176.419963 212.313423 
L 179.91932 209.099474 
L 183.418678 205.409264 
L 186.918035 201.20583 
L 190.417392 196.45633 
L 193.916749 191.133708 
L 197.416107 185.218454 
L 200.915464 178.700391 
L 204.414821 171.58043 
L 207.914178 163.872195 
L 211.413535 155.603453 
L 214.912893 146.817247 
L 218.41225 137.57265 
L 221.911607 127.945061 
L 225.410964 118.025976 
L 228.910321 107.922181 
L 232.409679 97.754345 
L 235.909036 87.655005 
L 239.408393 77.76598 
L 242.90775 68.23525 
L 246.407107 59.213418 
L 249.906465 50.849828 
L 253.405822 43.288516 
L 256.905179 36.664102 
L 260.404536 31.097828 
L 263.903893 26.693866 
L 267.403251 23.536084 
L 270.902608 21.685385 
L 274.401965 21.177758 
L 277.901322 22.023113 
L 281.40068 24.204956 
L 284.900037 27.680929 
L 288.399394 32.384175 
L 291.898751 38.225476 
L 295.398108 45.096069 
L 298.897466 52.871009 
L 302.396823 61.41294 
L 305.89618 70.576116 
L 309.395537 80.2105 
L 312.894894 90.165794 
L 316.394252 100.29524 
L 319.893609 110.459067 
L 323.392966 120.527485 
L 326.892323 130.383129 
L 330.39168 139.922929 
L 333.891038 149.059359 
L 337.390395 157.721102 
L 340.889752 165.85314 
L 344.389109 173.416335 
L 347.888466 180.386576 
L 351.387824 186.753559 
L 354.887181 192.519307 
L 358.386538 197.696494 
L 361.885895 202.306685 
L 365.385253 206.378545 
L 368.88461 209.946099 
L 372.383967 213.047092 
L 375.883324 215.721496 
L 379.382681 218.010195 
L 382.882039 219.953857 
L 386.381396 221.592013 
L 389.880753 222.962329 
L 393.38011 224.100072 
L 396.879467 225.037738 
L 400.378825 225.804844 
L 403.878182 226.427842 
" style="fill:none;stroke:#228b22;stroke-linecap:square;stroke-width:1.5;"/>
   </g>
   <g id="patch_3">
    <path d="M 40.12 239.110683 
L 40.12 10.8 
" style="fill:none;stroke:#000000;stroke-linecap:square;stroke-linejoin:miter;stroke-width:0.8;"/>
   </g>
   <g id="patch_4">
    <path d="M 421.2 239.110683 
L 421.2 10.8 
" style="fill:none;stroke:#000000;stroke-linecap:square;stroke-linejoin:miter;stroke-width:0.8;"/>
   </g>
   <g id="patch_5">
    <path d="M 40.12 239.110683 
L 421.2 239.110683 
" style="fill:none;stroke:#000000;stroke-linecap:square;stroke-linejoin:miter;stroke-width:0.8;"/>
   </g>
   <g id="patch_6">
    <path d="M 40.12 10.8 
L 421.2 10.8 
" style="fill:none;stroke:#000000;stroke-linecap:square;stroke-linejoin:miter;stroke-width:0.8;"/>
   </g>
  </g>
 </g>
 <defs>
  <clipPath id="p3ccd909a68">
   <rect height="228.310683" width="381.08" x="40.12" y="10.8"/>
  </clipPath>
 </defs>
</svg>
