<?xml version="1.0" encoding="utf-8" standalone="no"?>
<!DOCTYPE svg PUBLIC "-//W3C//DTD SVG 1.1//EN"
  "http://www.w3.org/Graphics/SVG/1.1/DTD/svg11.dtd">
<!-- Created with matplotlib (https://matplotlib.org/) -->
<svg height="369.320807pt" version="1.1" viewBox="0 0 1072.8 369.320807" width="1072.8pt" xmlns="http://www.w3.org/2000/svg" xmlns:xlink="http://www.w3.org/1999/xlink">
 <metadata>
  <rdf:RDF xmlns:cc="http://creativecommons.org/ns#" xmlns:dc="http://purl.org/dc/elements/1.1/" xmlns:rdf="http://www.w3.org/1999/02/22-rdf-syntax-ns#">
   <cc:Work>
    <dc:type rdf:resource="http://purl.org/dc/dcmitype/StillImage"/>
    <dc:date>2021-03-29T18:33:49.705468</dc:date>
    <dc:format>image/svg+xml</dc:format>
    <dc:creator>
     <cc:Agent>
      <dc:title>Matplotlib v3.3.4, https://matplotlib.org/</dc:title>
     </cc:Agent>
    </dc:creator>
   </cc:Work>
  </rdf:RDF>
 </metadata>
 <defs>
  <style type="text/css">*{stroke-linecap:butt;stroke-linejoin:round;}</style>
 </defs>
 <g id="figure_1">
  <g id="patch_1">
   <path d="M 0 369.320807 
L 1072.8 369.320807 
L 1072.8 0 
L 0 0 
z
" style="fill:#ffffff;"/>
  </g>
  <g id="axes_1">
   <g id="patch_2">
    <path d="M 26.930079 346.26513 
L 350.309332 346.26513 
L 350.309332 22.885876 
L 26.930079 22.885876 
z
" style="fill:#ffffff;"/>
   </g>
   <g id="patch_3">
    <path clip-path="url(#p66e2470e64)" d="M 164.757944 198.879977 
C 158.122216 202.981082 152.142022 207.537138 148.134432 211.544727 
C 144.126842 215.552317 142.419056 218.684238 143.387196 220.250721 
C 144.355335 221.817204 147.920355 221.690352 153.297101 219.898104 
C 158.673848 218.105856 165.423333 214.79454 172.059061 210.693436 
C 178.694789 206.592331 184.674982 202.036275 188.682573 198.028685 
C 192.690163 194.021096 194.397948 190.889175 193.429809 189.322692 
C 192.46167 187.756209 188.89665 187.883061 183.519903 189.675309 
C 178.143157 191.467557 171.393672 194.778873 164.757944 198.879977 
z
" style="fill:#ff00ff;opacity:0.2;"/>
   </g>
   <g id="patch_4">
    <path clip-path="url(#p66e2470e64)" d="M 161.107385 192.973248 
C 147.835929 201.175457 135.875542 210.287569 127.860362 218.302748 
C 119.845181 226.317928 116.42961 232.581769 118.365889 235.714735 
C 120.302168 238.847701 127.432208 238.593998 138.185701 235.009502 
C 148.939193 231.425006 162.438163 224.802374 175.70962 216.600165 
C 188.981076 208.397956 200.941462 199.285844 208.956643 191.270664 
C 216.971824 183.255485 220.387395 176.991644 218.451116 173.858678 
C 216.514837 170.725712 209.384797 170.979415 198.631304 174.563911 
C 187.877811 178.148407 174.378841 184.771039 161.107385 192.973248 
z
" style="fill:#ff00ff;opacity:0.2;"/>
   </g>
   <g id="patch_5">
    <path clip-path="url(#p66e2470e64)" d="M 157.456827 187.066519 
C 137.549642 199.369832 119.609062 213.038001 107.586291 225.060769 
C 95.56352 237.083538 90.440164 246.4793 93.344582 251.178749 
C 96.249001 255.878198 106.944061 255.497644 123.0743 250.1209 
C 139.204539 244.744155 159.452994 234.810208 179.360178 222.506894 
C 199.267362 210.203581 217.207942 196.535412 229.230713 184.512643 
C 241.253484 172.489875 246.376841 163.094112 243.472422 158.394664 
C 240.568004 153.695215 229.872944 154.075769 213.742705 159.452513 
C 197.612466 164.829258 177.364011 174.763205 157.456827 187.066519 
z
" style="fill:#ff00ff;opacity:0.2;"/>
   </g>
   <g id="patch_6">
    <path clip-path="url(#p66e2470e64)" d="M 219.50999 162.482914 
C 217.330971 150.114413 214.115691 138.449064 210.572277 130.056023 
C 207.028862 121.662983 203.446619 117.227506 200.614493 117.726455 
C 197.782368 118.225405 195.931591 123.618043 195.469775 132.716704 
C 195.007959 141.815366 195.972809 153.877185 198.151828 166.245685 
C 200.330847 178.614186 203.546127 190.279536 207.089541 198.672576 
C 210.632956 207.065617 214.215199 211.501094 217.047325 211.002144 
C 219.87945 210.503195 221.730227 205.110557 222.192043 196.011895 
C 222.653859 186.913234 221.689009 174.851415 219.50999 162.482914 
z
" style="fill:#40e0d0;opacity:0.2;"/>
   </g>
   <g id="patch_7">
    <path clip-path="url(#p66e2470e64)" d="M 230.189072 160.601529 
C 225.831034 135.864527 219.400473 112.533827 212.313644 95.747747 
C 205.226816 78.961666 198.062329 70.090712 192.398078 71.088611 
C 186.733827 72.08651 183.032273 82.871786 182.108641 101.069109 
C 181.185009 119.266431 183.114708 143.390069 187.472746 168.127071 
C 191.830784 192.864073 198.261345 216.194772 205.348174 232.980853 
C 212.435002 249.766934 219.599489 258.637887 225.26374 257.639989 
C 230.927991 256.64209 234.629545 245.856813 235.553177 227.659491 
C 236.476809 209.462168 234.54711 185.33853 230.189072 160.601529 
z
" style="fill:#40e0d0;opacity:0.2;"/>
   </g>
   <g id="patch_8">
    <path clip-path="url(#p66e2470e64)" d="M 240.868153 158.720143 
C 234.331096 121.61464 224.685254 86.618591 214.055012 61.43947 
C 203.424769 36.260349 192.678039 22.953919 184.181662 24.450767 
C 175.685286 25.947614 170.132955 42.125529 168.747507 69.421513 
C 167.362059 96.717497 170.256608 132.902954 176.793665 170.008457 
C 183.330722 207.11396 192.976564 242.110008 203.606806 267.28913 
C 214.237049 292.468251 224.983779 305.774681 233.480156 304.277833 
C 241.976532 302.780985 247.528863 286.60307 248.914311 259.307086 
C 250.299759 232.011102 247.40521 195.825646 240.868153 158.720143 
z
" style="fill:#40e0d0;opacity:0.2;"/>
   </g>
   <g id="patch_9">
    <path clip-path="url(#p66e2470e64)" d="M 219.50999 162.482914 
C 217.330971 150.114413 214.115691 138.449064 210.572277 130.056023 
C 207.028862 121.662983 203.446619 117.227506 200.614493 117.726455 
C 197.782368 118.225405 195.931591 123.618043 195.469775 132.716704 
C 195.007959 141.815366 195.972809 153.877185 198.151828 166.245685 
C 200.330847 178.614186 203.546127 190.279536 207.089541 198.672576 
C 210.632956 207.065617 214.215199 211.501094 217.047325 211.002144 
C 219.87945 210.503195 221.730227 205.110557 222.192043 196.011895 
C 222.653859 186.913234 221.689009 174.851415 219.50999 162.482914 
z
" style="fill:#40e0d0;opacity:0.1;"/>
   </g>
   <g id="patch_10">
    <path clip-path="url(#p66e2470e64)" d="M 230.189072 160.601529 
C 225.831034 135.864527 219.400473 112.533827 212.313644 95.747747 
C 205.226816 78.961666 198.062329 70.090712 192.398078 71.088611 
C 186.733827 72.08651 183.032273 82.871786 182.108641 101.069109 
C 181.185009 119.266431 183.114708 143.390069 187.472746 168.127071 
C 191.830784 192.864073 198.261345 216.194772 205.348174 232.980853 
C 212.435002 249.766934 219.599489 258.637887 225.26374 257.639989 
C 230.927991 256.64209 234.629545 245.856813 235.553177 227.659491 
C 236.476809 209.462168 234.54711 185.33853 230.189072 160.601529 
z
" style="fill:#40e0d0;opacity:0.1;"/>
   </g>
   <g id="patch_11">
    <path clip-path="url(#p66e2470e64)" d="M 240.868153 158.720143 
C 234.331096 121.61464 224.685254 86.618591 214.055012 61.43947 
C 203.424769 36.260349 192.678039 22.953919 184.181662 24.450767 
C 175.685286 25.947614 170.132955 42.125529 168.747507 69.421513 
C 167.362059 96.717497 170.256608 132.902954 176.793665 170.008457 
C 183.330722 207.11396 192.976564 242.110008 203.606806 267.28913 
C 214.237049 292.468251 224.983779 305.774681 233.480156 304.277833 
C 241.976532 302.780985 247.528863 286.60307 248.914311 259.307086 
C 250.299759 232.011102 247.40521 195.825646 240.868153 158.720143 
z
" style="fill:#40e0d0;opacity:0.1;"/>
   </g>
   <g id="patch_12">
    <path clip-path="url(#p66e2470e64)" d="M 164.757944 198.879977 
C 158.122216 202.981082 152.142022 207.537138 148.134432 211.544727 
C 144.126842 215.552317 142.419056 218.684238 143.387196 220.250721 
C 144.355335 221.817204 147.920355 221.690352 153.297101 219.898104 
C 158.673848 218.105856 165.423333 214.79454 172.059061 210.693436 
C 178.694789 206.592331 184.674982 202.036275 188.682573 198.028685 
C 192.690163 194.021096 194.397948 190.889175 193.429809 189.322692 
C 192.46167 187.756209 188.89665 187.883061 183.519903 189.675309 
C 178.143157 191.467557 171.393672 194.778873 164.757944 198.879977 
z
" style="fill:#ff00ff;opacity:0.1;"/>
   </g>
   <g id="patch_13">
    <path clip-path="url(#p66e2470e64)" d="M 161.107385 192.973248 
C 147.835929 201.175457 135.875542 210.287569 127.860362 218.302748 
C 119.845181 226.317928 116.42961 232.581769 118.365889 235.714735 
C 120.302168 238.847701 127.432208 238.593998 138.185701 235.009502 
C 148.939193 231.425006 162.438163 224.802374 175.70962 216.600165 
C 188.981076 208.397956 200.941462 199.285844 208.956643 191.270664 
C 216.971824 183.255485 220.387395 176.991644 218.451116 173.858678 
C 216.514837 170.725712 209.384797 170.979415 198.631304 174.563911 
C 187.877811 178.148407 174.378841 184.771039 161.107385 192.973248 
z
" style="fill:#ff00ff;opacity:0.1;"/>
   </g>
   <g id="patch_14">
    <path clip-path="url(#p66e2470e64)" d="M 157.456827 187.066519 
C 137.549642 199.369832 119.609062 213.038001 107.586291 225.060769 
C 95.56352 237.083538 90.440164 246.4793 93.344582 251.178749 
C 96.249001 255.878198 106.944061 255.497644 123.0743 250.1209 
C 139.204539 244.744155 159.452994 234.810208 179.360178 222.506894 
C 199.267362 210.203581 217.207942 196.535412 229.230713 184.512643 
C 241.253484 172.489875 246.376841 163.094112 243.472422 158.394664 
C 240.568004 153.695215 229.872944 154.075769 213.742705 159.452513 
C 197.612466 164.829258 177.364011 174.763205 157.456827 187.066519 
z
" style="fill:#ff00ff;opacity:0.1;"/>
   </g>
   <g id="matplotlib.axis_1">
    <g id="xtick_1">
     <g id="text_1">
      <!-- $\mathdefault{−4}$ -->
      <g transform="translate(20.565039 360.183628)scale(0.1 -0.1)">
       <defs>
        <path d="M 65.90625 23 
C 67.59375 23 69.40625 23 69.40625 25 
C 69.40625 27 67.59375 27 65.90625 27 
L 11.796875 27 
C 10.09375 27 8.296875 27 8.296875 25 
C 8.296875 23 10.09375 23 11.796875 23 
z
" id="CMSY10-0"/>
        <path d="M 33.59375 64.796875 
C 33.59375 66.890625 33.5 67 31.703125 67 
L 2 19.59375 
L 2 17 
L 27.796875 17 
L 27.796875 7.1875 
C 27.796875 3.59375 27.59375 2.59375 20.59375 2.59375 
L 18.703125 2.59375 
L 18.703125 0 
C 21.90625 0.1875 27.296875 0.1875 30.703125 0.1875 
C 34.09375 0.1875 39.5 0.1875 42.703125 0 
L 42.703125 2.59375 
L 40.796875 2.59375 
C 33.796875 2.59375 33.59375 3.59375 33.59375 7.1875 
L 33.59375 17 
L 43.796875 17 
L 43.796875 19.59375 
L 33.59375 19.59375 
z
M 28.09375 58.171875 
L 28.09375 19.59375 
L 4 19.59375 
z
" id="CMR17-52"/>
       </defs>
       <use transform="scale(0.996264)" xlink:href="#CMSY10-0"/>
       <use transform="translate(77.487468 0)scale(0.996264)" xlink:href="#CMR17-52"/>
      </g>
     </g>
    </g>
    <g id="xtick_2">
     <g id="text_2">
      <!-- $\mathdefault{−3}$ -->
      <g transform="translate(60.987446 360.183628)scale(0.1 -0.1)">
       <defs>
        <path d="M 22.09375 34 
C 31 34 34.90625 26.140625 34.90625 17.09375 
C 34.90625 5.03125 28.5 0.390625 22.703125 0.390625 
C 17.40625 0.390625 8.796875 3.015625 6.09375 10.796875 
C 6.59375 10.59375 7.09375 10.59375 7.59375 10.59375 
C 10 10.59375 11.796875 12.1875 11.796875 14.796875 
C 11.796875 17.6875 9.59375 19 7.59375 19 
C 5.90625 19 3.296875 18.1875 3.296875 14.484375 
C 3.296875 5.234375 12.296875 -2 22.90625 -2 
C 34 -2 42.5 6.75 42.5 16.984375 
C 42.5 26.84375 34.5 34 25 35.09375 
C 32.59375 36.671875 39.90625 43.375 39.90625 52.390625 
C 39.90625 60.25 32 66 23 66 
C 13.90625 66 5.90625 60.34375 5.90625 52.296875 
C 5.90625 48.796875 8.5 48.1875 9.796875 48.1875 
C 11.90625 48.1875 13.703125 49.484375 13.703125 52.09375 
C 13.703125 54.6875 11.90625 56 9.796875 56 
C 9.40625 56 8.90625 56 8.5 55.796875 
C 11.40625 62.484375 19.296875 63.6875 22.796875 63.6875 
C 26.296875 63.6875 32.90625 61.96875 32.90625 52.296875 
C 32.90625 49.484375 32.5 44.546875 29.09375 40.21875 
C 26.09375 36.390625 22.703125 36.1875 19.40625 35.890625 
C 18.90625 35.890625 16.59375 35.6875 16.203125 35.6875 
C 15.5 35.59375 15.09375 35.5 15.09375 34.796875 
C 15.09375 34.09375 15.203125 34 17.203125 34 
z
" id="CMR17-51"/>
       </defs>
       <use transform="scale(0.996264)" xlink:href="#CMSY10-0"/>
       <use transform="translate(77.487468 0)scale(0.996264)" xlink:href="#CMR17-51"/>
      </g>
     </g>
    </g>
    <g id="xtick_3">
     <g id="text_3">
      <!-- $\mathdefault{−2}$ -->
      <g transform="translate(101.409853 360.183628)scale(0.1 -0.1)">
       <defs>
        <path d="M 41.703125 15.46875 
L 39.90625 15.46875 
C 38.90625 8.390625 38.09375 7.1875 37.703125 6.59375 
C 37.203125 5.796875 30 5.796875 28.59375 5.796875 
L 9.40625 5.796875 
C 13 9.6875 20 16.765625 28.5 24.9375 
C 34.59375 30.71875 41.703125 37.5 41.703125 47.390625 
C 41.703125 59.1875 32.296875 66 21.796875 66 
C 10.796875 66 4.09375 56.296875 4.09375 47.296875 
C 4.09375 43.390625 7 42.890625 8.203125 42.890625 
C 9.203125 42.890625 12.203125 43.484375 12.203125 46.984375 
C 12.203125 50.09375 9.59375 51 8.203125 51 
C 7.59375 51 7 50.890625 6.59375 50.6875 
C 8.5 59.1875 14.296875 63.390625 20.40625 63.390625 
C 29.09375 63.390625 34.796875 56.5 34.796875 47.390625 
C 34.796875 38.703125 29.703125 31.21875 24 24.734375 
L 4.09375 2.296875 
L 4.09375 0 
L 39.296875 0 
z
" id="CMR17-50"/>
       </defs>
       <use transform="scale(0.996264)" xlink:href="#CMSY10-0"/>
       <use transform="translate(77.487468 0)scale(0.996264)" xlink:href="#CMR17-50"/>
      </g>
     </g>
    </g>
    <g id="xtick_4">
     <g id="text_4">
      <!-- $\mathdefault{−1}$ -->
      <g transform="translate(141.83226 360.183628)scale(0.1 -0.1)">
       <defs>
        <path d="M 26.59375 63.796875 
C 26.59375 65.890625 26.5 66 25.09375 66 
C 21.203125 61.359375 15.296875 59.890625 9.703125 59.6875 
C 9.40625 59.6875 8.90625 59.6875 8.796875 59.5 
C 8.703125 59.296875 8.703125 59.09375 8.703125 57 
C 11.796875 57 17 57.59375 21 59.984375 
L 21 7.296875 
C 21 3.796875 20.796875 2.59375 12.203125 2.59375 
L 9.203125 2.59375 
L 9.203125 0 
C 14 0.09375 19 0.1875 23.796875 0.1875 
C 28.59375 0.1875 33.59375 0.09375 38.40625 0 
L 38.40625 2.59375 
L 35.40625 2.59375 
C 26.796875 2.59375 26.59375 3.6875 26.59375 7.296875 
z
" id="CMR17-49"/>
       </defs>
       <use transform="scale(0.996264)" xlink:href="#CMSY10-0"/>
       <use transform="translate(77.487468 0)scale(0.996264)" xlink:href="#CMR17-49"/>
      </g>
     </g>
    </g>
    <g id="xtick_5">
     <g id="text_5">
      <!-- $\mathdefault{0}$ -->
      <g transform="translate(186.129038 360.183628)scale(0.1 -0.1)">
       <defs>
        <path d="M 42 31.84375 
C 42 37.96875 41.90625 48.421875 37.703125 56.453125 
C 34 63.484375 28.09375 66 22.90625 66 
C 18.09375 66 12 63.78125 8.203125 56.5625 
C 4.203125 49.015625 3.796875 39.671875 3.796875 31.84375 
C 3.796875 26.109375 3.90625 17.375 7 9.734375 
C 11.296875 -0.609375 19 -2 22.90625 -2 
C 27.5 -2 34.5 -0.109375 38.59375 9.4375 
C 41.59375 16.375 42 24.5 42 31.84375 
z
M 22.90625 -0.40625 
C 16.5 -0.40625 12.703125 5.125 11.296875 12.75 
C 10.203125 18.6875 10.203125 27.328125 10.203125 32.953125 
C 10.203125 40.6875 10.203125 47.109375 11.5 53.234375 
C 13.40625 61.78125 19 64.390625 22.90625 64.390625 
C 27 64.390625 32.296875 61.671875 34.203125 53.4375 
C 35.5 47.71875 35.59375 40.984375 35.59375 32.953125 
C 35.59375 26.421875 35.59375 18.375 34.40625 12.453125 
C 32.296875 1.5 26.40625 -0.40625 22.90625 -0.40625 
z
" id="CMR17-48"/>
       </defs>
       <use transform="scale(0.996264)" xlink:href="#CMR17-48"/>
      </g>
     </g>
    </g>
    <g id="xtick_6">
     <g id="text_6">
      <!-- $\mathdefault{1}$ -->
      <g transform="translate(226.551445 360.183628)scale(0.1 -0.1)">
       <use transform="scale(0.996264)" xlink:href="#CMR17-49"/>
      </g>
     </g>
    </g>
    <g id="xtick_7">
     <g id="text_7">
      <!-- $\mathdefault{2}$ -->
      <g transform="translate(266.973851 360.183628)scale(0.1 -0.1)">
       <use transform="scale(0.996264)" xlink:href="#CMR17-50"/>
      </g>
     </g>
    </g>
    <g id="xtick_8">
     <g id="text_8">
      <!-- $\mathdefault{3}$ -->
      <g transform="translate(307.396258 360.183628)scale(0.1 -0.1)">
       <use transform="scale(0.996264)" xlink:href="#CMR17-51"/>
      </g>
     </g>
    </g>
    <g id="xtick_9">
     <g id="text_9">
      <!-- $\mathdefault{4}$ -->
      <g transform="translate(347.818665 360.183628)scale(0.1 -0.1)">
       <use transform="scale(0.996264)" xlink:href="#CMR17-52"/>
      </g>
     </g>
    </g>
   </g>
   <g id="matplotlib.axis_2">
    <g id="ytick_1">
     <g id="text_10">
      <!-- $\mathdefault{−4}$ -->
      <g transform="translate(7.2 349.724379)scale(0.1 -0.1)">
       <use transform="scale(0.996264)" xlink:href="#CMSY10-0"/>
       <use transform="translate(77.487468 0)scale(0.996264)" xlink:href="#CMR17-52"/>
      </g>
     </g>
    </g>
    <g id="ytick_2">
     <g id="text_11">
      <!-- $\mathdefault{−3}$ -->
      <g transform="translate(7.2 309.301972)scale(0.1 -0.1)">
       <use transform="scale(0.996264)" xlink:href="#CMSY10-0"/>
       <use transform="translate(77.487468 0)scale(0.996264)" xlink:href="#CMR17-51"/>
      </g>
     </g>
    </g>
    <g id="ytick_3">
     <g id="text_12">
      <!-- $\mathdefault{−2}$ -->
      <g transform="translate(7.2 268.879566)scale(0.1 -0.1)">
       <use transform="scale(0.996264)" xlink:href="#CMSY10-0"/>
       <use transform="translate(77.487468 0)scale(0.996264)" xlink:href="#CMR17-50"/>
      </g>
     </g>
    </g>
    <g id="ytick_4">
     <g id="text_13">
      <!-- $\mathdefault{−1}$ -->
      <g transform="translate(7.2 228.457159)scale(0.1 -0.1)">
       <use transform="scale(0.996264)" xlink:href="#CMSY10-0"/>
       <use transform="translate(77.487468 0)scale(0.996264)" xlink:href="#CMR17-49"/>
      </g>
     </g>
    </g>
    <g id="ytick_5">
     <g id="text_14">
      <!-- $\mathdefault{0}$ -->
      <g transform="translate(14.948744 188.034752)scale(0.1 -0.1)">
       <use transform="scale(0.996264)" xlink:href="#CMR17-48"/>
      </g>
     </g>
    </g>
    <g id="ytick_6">
     <g id="text_15">
      <!-- $\mathdefault{1}$ -->
      <g transform="translate(14.948744 147.612346)scale(0.1 -0.1)">
       <use transform="scale(0.996264)" xlink:href="#CMR17-49"/>
      </g>
     </g>
    </g>
    <g id="ytick_7">
     <g id="text_16">
      <!-- $\mathdefault{2}$ -->
      <g transform="translate(14.948744 107.189939)scale(0.1 -0.1)">
       <use transform="scale(0.996264)" xlink:href="#CMR17-50"/>
      </g>
     </g>
    </g>
    <g id="ytick_8">
     <g id="text_17">
      <!-- $\mathdefault{3}$ -->
      <g transform="translate(14.948744 66.767532)scale(0.1 -0.1)">
       <use transform="scale(0.996264)" xlink:href="#CMR17-51"/>
      </g>
     </g>
    </g>
    <g id="ytick_9">
     <g id="text_18">
      <!-- $\mathdefault{4}$ -->
      <g transform="translate(14.948744 26.345126)scale(0.1 -0.1)">
       <use transform="scale(0.996264)" xlink:href="#CMR17-52"/>
      </g>
     </g>
    </g>
   </g>
   <g id="patch_15">
    <path d="M 26.930079 346.26513 
L 26.930079 22.885876 
" style="fill:none;stroke:#000000;stroke-linecap:square;stroke-linejoin:miter;stroke-width:0.8;"/>
   </g>
   <g id="patch_16">
    <path d="M 350.309332 346.26513 
L 350.309332 22.885876 
" style="fill:none;stroke:#000000;stroke-linecap:square;stroke-linejoin:miter;stroke-width:0.8;"/>
   </g>
   <g id="patch_17">
    <path d="M 26.930079 346.26513 
L 350.309332 346.26513 
" style="fill:none;stroke:#000000;stroke-linecap:square;stroke-linejoin:miter;stroke-width:0.8;"/>
   </g>
   <g id="patch_18">
    <path d="M 26.930079 22.885876 
L 350.309332 22.885876 
" style="fill:none;stroke:#000000;stroke-linecap:square;stroke-linejoin:miter;stroke-width:0.8;"/>
   </g>
   <g id="text_19">
    <!-- Different covariance matrices -->
    <g transform="translate(102.183625 16.885876)scale(0.14 -0.14)">
     <defs>
      <path d="M 5.203125 68 
L 5.203125 65.390625 
C 12.09375 65.390625 13.203125 65.390625 13.203125 60.90625 
L 13.203125 7.078125 
C 13.203125 2.59375 12.09375 2.59375 5.203125 2.59375 
L 5.203125 0 
L 37 0 
C 53.09375 0 66 14.734375 66 33.4375 
C 66 52.25 53.296875 68 37 68 
z
M 23.796875 2.59375 
C 19.796875 2.59375 19.59375 3.09375 19.59375 6.46875 
L 19.59375 61.5 
C 19.59375 64.890625 19.796875 65.390625 23.796875 65.390625 
L 35 65.390625 
C 43.296875 65.390625 58.59375 60.515625 58.59375 33.4375 
C 58.59375 19.40625 54.5 13.734375 52.59375 11.046875 
C 50.203125 7.96875 44.5 2.59375 35 2.59375 
z
" id="CMR17-68"/>
      <path d="M 15.5 61.890625 
C 15.5 64.09375 13.703125 66 11.40625 66 
C 9.203125 66 7.296875 64.1875 7.296875 61.890625 
C 7.296875 59.6875 9.09375 57.796875 11.40625 57.796875 
C 13.59375 57.796875 15.5 59.59375 15.5 61.890625 
z
M 3.796875 42.890625 
L 3.796875 40.296875 
C 9.40625 40.296875 10.203125 39.6875 10.203125 34.859375 
L 10.203125 6.921875 
C 10.203125 3.09375 9.796875 2.59375 3.40625 2.59375 
L 3.40625 0 
C 5.796875 0.1875 10.09375 0.1875 12.59375 0.1875 
C 15 0.1875 19.09375 0.1875 21.40625 0 
L 21.40625 2.59375 
C 15.5 2.59375 15.296875 3.203125 15.296875 6.8125 
L 15.296875 44 
z
" id="CMR17-105"/>
      <path d="M 39.90625 40.390625 
L 51.296875 40.390625 
L 51.296875 43 
L 39.703125 43 
L 39.703125 55 
C 39.703125 63.234375 43.90625 68.390625 48.203125 68.390625 
C 49.5 68.390625 51 68 52 67.296875 
C 51.203125 67.09375 49.09375 66.40625 49.09375 63.921875 
C 49.09375 61.34375 51.09375 60.546875 52.5 60.546875 
C 53.90625 60.546875 55.90625 61.34375 55.90625 63.921875 
C 55.90625 67.703125 52.296875 70 48.296875 70 
C 44.40625 70 41.203125 68.09375 38.703125 65.71875 
C 36.40625 68.984375 32.59375 70 28.703125 70 
C 20.90625 70 9.90625 65.515625 9.90625 54.59375 
L 9.90625 43 
L 1.90625 43 
L 1.90625 40.390625 
L 9.90625 40.390625 
L 9.90625 6.890625 
C 9.90625 3.09375 9.5 2.59375 3.09375 2.59375 
L 3.09375 0 
C 5.5 0.1875 9.90625 0.1875 12.40625 0.1875 
C 15 0.1875 19.40625 0.1875 21.796875 0 
L 21.796875 2.59375 
C 15.40625 2.59375 15 3 15 6.890625 
L 15 40.390625 
L 34.796875 40.390625 
L 34.796875 6.890625 
C 34.796875 3.09375 34.40625 2.59375 28 2.59375 
L 28 0 
C 30.40625 0.1875 35 0.1875 37.59375 0.1875 
C 40.5 0.1875 45.59375 0.1875 48.296875 0 
L 48.296875 2.59375 
C 41.09375 2.59375 39.90625 2.59375 39.90625 7.09375 
z
M 14.796875 43 
L 14.796875 54.59375 
C 14.796875 63.625 21.796875 68.390625 28.5 68.390625 
C 30 68.390625 33.90625 68.09375 36.296875 65.90625 
C 34.5 65.8125 32.796875 65.015625 32.796875 62.53125 
C 32.796875 59.953125 35.09375 59.265625 35.296875 59.265625 
C 34.796875 57.484375 34.796875 55.5 34.796875 54.796875 
L 34.796875 43 
z
" id="CMR17-11"/>
      <path d="M 38.09375 23.484375 
C 38.5 23.890625 38.5 24.09375 38.5 25.09375 
C 38.5 35.171875 33.09375 44 21.703125 44 
C 11.09375 44 2.703125 33.984375 2.703125 21.78125 
C 2.703125 8.65625 12.203125 -1 22.796875 -1 
C 34 -1 38.40625 9.671875 38.40625 11.796875 
C 38.40625 12.5 37.796875 12.5 37.59375 12.5 
C 36.90625 12.5 36.796875 12.296875 36.40625 11.078125 
C 34.203125 4.21875 28.703125 0.796875 23.5 0.796875 
C 19.203125 0.796875 14.90625 3.21875 12.203125 7.65625 
C 9.09375 12.796875 9.09375 18.75 9.09375 23.484375 
z
M 9.203125 25 
C 9.90625 39.234375 17.59375 42.390625 21.59375 42.390625 
C 28.40625 42.390625 33 36.0625 33.09375 25 
z
" id="CMR17-101"/>
      <path d="M 15 23.703125 
C 15 33.34375 19.09375 42.390625 26.59375 42.390625 
C 27.296875 42.390625 28 42.296875 28.703125 41.984375 
C 28.703125 41.984375 26.5 41.28125 26.5 38.671875 
C 26.5 36.265625 28.40625 35.265625 29.90625 35.265625 
C 31.09375 35.265625 33.296875 35.96875 33.296875 38.78125 
C 33.296875 41.984375 30.09375 44 26.703125 44 
C 19.09375 44 15.796875 36.5625 14.796875 33.046875 
L 14.703125 33.046875 
L 14.703125 44 
L 3.09375 42.890625 
L 3.09375 40.28125 
C 9 40.28125 9.90625 39.6875 9.90625 34.859375 
L 9.90625 6.921875 
C 9.90625 3.09375 9.5 2.59375 3.09375 2.59375 
L 3.09375 0 
C 5.5 0.1875 10.09375 0.1875 12.703125 0.1875 
C 15.59375 0.1875 20.703125 0.1875 23.40625 0 
L 23.40625 2.59375 
C 16.203125 2.59375 15 2.59375 15 7.109375 
z
" id="CMR17-114"/>
      <path d="M 41.5 30.53125 
C 41.5 35.65625 40.5 44 28.703125 44 
C 20.796875 44 16.703125 37.875 15.203125 33.84375 
L 15.09375 33.84375 
L 15.09375 44 
L 3.296875 42.890625 
L 3.296875 40.28125 
C 9.203125 40.28125 10.09375 39.6875 10.09375 34.859375 
L 10.09375 6.921875 
C 10.09375 3.09375 9.703125 2.59375 3.296875 2.59375 
L 3.296875 0 
C 5.703125 0.1875 10.09375 0.1875 12.703125 0.1875 
C 15.296875 0.1875 19.796875 0.1875 22.203125 0 
L 22.203125 2.59375 
C 15.796875 2.59375 15.40625 3 15.40625 6.921875 
L 15.40625 26.21875 
C 15.40625 35.453125 21 42.390625 28 42.390625 
C 35.40625 42.390625 36.203125 35.765625 36.203125 30.9375 
L 36.203125 6.921875 
C 36.203125 3.09375 35.796875 2.59375 29.40625 2.59375 
L 29.40625 0 
C 31.796875 0.1875 36.203125 0.1875 38.796875 0.1875 
C 41.40625 0.1875 45.90625 0.1875 48.296875 0 
L 48.296875 2.59375 
C 41.90625 2.59375 41.5 3 41.5 6.921875 
z
" id="CMR17-110"/>
      <path d="M 15.09375 40.390625 
L 29.09375 40.390625 
L 29.09375 43 
L 15.09375 43 
L 15.09375 62 
L 13.296875 62 
C 13.09375 51.4375 9.59375 42.1875 1.09375 41.984375 
L 1.09375 40.390625 
L 9.796875 40.390625 
L 9.796875 12.15625 
C 9.796875 10.234375 9.796875 -1 21.40625 -1 
C 27.296875 -1 30.703125 4.8125 30.703125 12.25 
L 30.703125 17.984375 
L 28.90625 17.984375 
L 28.90625 12.34375 
C 28.90625 5.421875 26.203125 0.796875 22 0.796875 
C 19.09375 0.796875 15.09375 2.796875 15.09375 11.953125 
z
" id="CMR17-116"/>
      <path d="M 34.90625 35 
C 33 35 30.203125 35 30.203125 31.484375 
C 30.203125 28.6875 32.5 27.890625 33.796875 27.890625 
C 34.5 27.890625 37.40625 28.1875 37.40625 31.6875 
C 37.40625 38.6875 30.59375 44 22.90625 44 
C 12.296875 44 3.296875 34.390625 3.296875 21.546875 
C 3.296875 8.140625 12.703125 -1 22.90625 -1 
C 35.296875 -1 38.40625 10.5625 38.40625 11.671875 
C 38.40625 12.078125 38.296875 12.375 37.59375 12.375 
C 36.90625 12.375 36.796875 12.28125 36.40625 10.96875 
C 33.796875 2.8125 28.09375 0.796875 23.796875 0.796875 
C 17.40625 0.796875 9.703125 6.734375 9.703125 21.640625 
C 9.703125 36.84375 17.09375 42.1875 23 42.1875 
C 26.90625 42.1875 32.703125 40.34375 34.90625 35 
z
" id="CMR17-99"/>
      <path d="M 43.09375 21.1875 
C 43.09375 34 33.796875 44 22.90625 44 
C 12 44 2.703125 34 2.703125 21.1875 
C 2.703125 8.59375 12 -1 22.90625 -1 
C 33.796875 -1 43.09375 8.59375 43.09375 21.1875 
z
M 22.90625 0.796875 
C 18.203125 0.796875 14.203125 3.59375 11.90625 7.5 
C 9.40625 12 9.09375 17.59375 9.09375 22 
C 9.09375 26.1875 9.296875 31.390625 11.90625 35.890625 
C 13.90625 39.1875 17.796875 42.390625 22.90625 42.390625 
C 27.40625 42.390625 31.203125 39.890625 33.59375 36.390625 
C 36.703125 31.6875 36.703125 25.09375 36.703125 22 
C 36.703125 18.09375 36.5 12.09375 33.796875 7.296875 
C 31 2.6875 26.703125 0.796875 22.90625 0.796875 
z
" id="CMR17-111"/>
      <path d="M 39.09375 33.953125 
C 40 36.171875 41.59375 40.1875 47.40625 40.390625 
L 47.40625 43 
C 45.5 42.890625 43 42.796875 41.09375 42.796875 
C 39 42.796875 35.703125 42.796875 33.703125 43 
L 33.703125 40.390625 
C 36.203125 40.1875 37.59375 38.984375 37.59375 36.375 
C 37.59375 35.46875 37.59375 35.265625 37 33.859375 
L 26 5.921875 
L 14.09375 36.0625 
C 13.5 37.375 13.5 37.578125 13.5 37.984375 
C 13.5 40.390625 16.796875 40.390625 18.296875 40.390625 
L 18.296875 43 
C 15.90625 42.796875 11.5 42.796875 9 42.796875 
C 6.296875 42.796875 3.203125 42.796875 1 43 
L 1 40.390625 
C 4.796875 40.390625 6.90625 40.390625 8.09375 37.28125 
L 22.59375 0.6875 
C 23.203125 -0.8125 23.296875 -1 24.203125 -1 
C 25.09375 -1 25.203125 -0.8125 25.796875 0.6875 
z
" id="CMR17-118"/>
      <path d="M 36 25.875 
C 36 32 36 35.546875 31.796875 39.59375 
C 28.09375 42.984375 23.796875 44 20.40625 44 
C 12.5 44 6.796875 37.625 6.796875 30.890625 
C 6.796875 27.1875 9.796875 27 10.40625 27 
C 11.703125 27 14 27.796875 14 30.59375 
C 14 33.09375 12.09375 34.1875 10.40625 34.1875 
C 10 34.1875 9.5 34.09375 9.203125 34 
C 11.296875 40.53125 16.703125 42.390625 20.203125 42.390625 
C 25.203125 42.390625 30.703125 37.828125 30.703125 29.296875 
L 30.703125 25.5 
C 24.796875 25.296875 17.703125 24.5 12.09375 21.453125 
C 5.796875 17.921875 4 12.84375 4 9 
C 4 1.203125 13 -1 18.296875 -1 
C 23.796875 -1 28.90625 2.109375 31.09375 7.890625 
C 31.296875 3.421875 34.09375 -0.609375 38.5 -0.609375 
C 40.59375 -0.609375 45.90625 0.796875 45.90625 8.796875 
L 45.90625 14.46875 
L 44.09375 14.46875 
L 44.09375 8.703125 
C 44.09375 2.515625 41.40625 1.703125 40.09375 1.703125 
C 36 1.703125 36 6.96875 36 11.4375 
z
M 30.703125 13.859375 
C 30.703125 5.046875 24.5 0.59375 19 0.59375 
C 14 0.59375 10.09375 4.34375 10.09375 9 
C 10.09375 12.046875 11.40625 17.40625 17.203125 20.65625 
C 22 23.390625 27.5 23.796875 30.703125 24 
z
" id="CMR17-97"/>
      <path d="M 67.59375 30.53125 
C 67.59375 35.5625 66.703125 44 54.796875 44 
C 48 44 43.296875 39.375 41.5 33.953125 
L 41.40625 33.953125 
C 40.203125 42.1875 34.296875 44 28.703125 44 
C 20.796875 44 16.703125 37.875 15.203125 33.84375 
L 15.09375 33.84375 
L 15.09375 44 
L 3.296875 42.890625 
L 3.296875 40.28125 
C 9.203125 40.28125 10.09375 39.6875 10.09375 34.859375 
L 10.09375 6.921875 
C 10.09375 3.09375 9.703125 2.59375 3.296875 2.59375 
L 3.296875 0 
C 5.703125 0.1875 10.09375 0.1875 12.703125 0.1875 
C 15.296875 0.1875 19.796875 0.1875 22.203125 0 
L 22.203125 2.59375 
C 15.796875 2.59375 15.40625 3 15.40625 6.921875 
L 15.40625 26.21875 
C 15.40625 35.453125 21 42.390625 28 42.390625 
C 35.40625 42.390625 36.203125 35.765625 36.203125 30.9375 
L 36.203125 6.921875 
C 36.203125 3.09375 35.796875 2.59375 29.40625 2.59375 
L 29.40625 0 
C 31.796875 0.1875 36.203125 0.1875 38.796875 0.1875 
C 41.40625 0.1875 45.90625 0.1875 48.296875 0 
L 48.296875 2.59375 
C 41.90625 2.59375 41.5 3 41.5 6.921875 
L 41.5 26.21875 
C 41.5 35.453125 47.09375 42.390625 54.09375 42.390625 
C 61.5 42.390625 62.296875 35.765625 62.296875 30.9375 
L 62.296875 6.921875 
C 62.296875 3.09375 61.90625 2.59375 55.5 2.59375 
L 55.5 0 
C 57.90625 0.1875 62.296875 0.1875 64.90625 0.1875 
C 67.5 0.1875 72 0.1875 74.40625 0 
L 74.40625 2.59375 
C 68 2.59375 67.59375 3 67.59375 6.921875 
z
" id="CMR17-109"/>
      <path d="M 30.90625 42 
C 30.90625 43.796875 30.796875 43.890625 30.203125 43.890625 
C 29.796875 43.890625 29.703125 43.796875 28.5 42.296875 
C 28.203125 41.890625 27.296875 40.890625 27 40.5 
C 23.796875 43.890625 19.296875 44 17.59375 44 
C 6.5 44 2.5 38.1875 2.5 32.390625 
C 2.5 23.390625 12.703125 21.296875 15.59375 20.6875 
C 21.90625 19.390625 24.09375 19 26.203125 17.1875 
C 27.5 16 29.703125 13.796875 29.703125 10.1875 
C 29.703125 6 27.296875 0.59375 18.09375 0.59375 
C 9.40625 0.59375 6.296875 7.1875 4.5 16 
C 4.203125 17.390625 4.203125 17.5 3.40625 17.5 
C 2.59375 17.5 2.5 17.390625 2.5 15.390625 
L 2.5 1 
C 2.5 -0.8125 2.59375 -0.90625 3.203125 -0.90625 
C 3.703125 -0.90625 3.796875 -0.8125 4.296875 0 
C 4.90625 0.890625 6.40625 3.296875 7 4.296875 
C 9 1.59375 12.5 -1 18.09375 -1 
C 28 -1 33.296875 4.390625 33.296875 12.1875 
C 33.296875 17.296875 30.59375 20 29.296875 21.1875 
C 26.296875 24.296875 22.796875 25 18.59375 25.796875 
C 13.09375 27 6.09375 28.390625 6.09375 34.5 
C 6.09375 37.09375 7.5 42.59375 17.59375 42.59375 
C 28.296875 42.59375 28.90625 32.59375 29.09375 29.390625 
C 29.203125 28.890625 29.703125 28.796875 30 28.796875 
C 30.90625 28.796875 30.90625 29.09375 30.90625 30.796875 
z
" id="CMR17-115"/>
     </defs>
     <use transform="scale(0.996264)" xlink:href="#CMR17-68"/>
     <use transform="translate(70.393556 0)scale(0.996264)" xlink:href="#CMR17-105"/>
     <use transform="translate(95.264614 0)scale(0.996264)" xlink:href="#CMR17-11"/>
     <use transform="translate(147.609292 0)scale(0.996264)" xlink:href="#CMR17-101"/>
     <use transform="translate(188.094952 0)scale(0.996264)" xlink:href="#CMR17-114"/>
     <use transform="translate(223.37572 0)scale(0.996264)" xlink:href="#CMR17-101"/>
     <use transform="translate(263.86138 0)scale(0.996264)" xlink:href="#CMR17-110"/>
     <use transform="translate(312.154296 0)scale(0.996264)" xlink:href="#CMR17-116"/>
     <use transform="translate(377.51103 0)scale(0.996264)" xlink:href="#CMR17-99"/>
     <use transform="translate(417.996691 0)scale(0.996264)" xlink:href="#CMR17-111"/>
     <use transform="translate(461.084714 0)scale(0.996264)" xlink:href="#CMR17-118"/>
     <use transform="translate(504.172813 0)scale(0.996264)" xlink:href="#CMR17-97"/>
     <use transform="translate(549.86329 0)scale(0.996264)" xlink:href="#CMR17-114"/>
     <use transform="translate(585.144058 0)scale(0.996264)" xlink:href="#CMR17-105"/>
     <use transform="translate(610.015117 0)scale(0.996264)" xlink:href="#CMR17-97"/>
     <use transform="translate(655.705594 0)scale(0.996264)" xlink:href="#CMR17-110"/>
     <use transform="translate(706.600964 0)scale(0.996264)" xlink:href="#CMR17-99"/>
     <use transform="translate(747.086624 0)scale(0.996264)" xlink:href="#CMR17-101"/>
     <use transform="translate(817.648251 0)scale(0.996264)" xlink:href="#CMR17-109"/>
     <use transform="translate(894.567841 0)scale(0.996264)" xlink:href="#CMR17-97"/>
     <use transform="translate(940.258318 0)scale(0.996264)" xlink:href="#CMR17-116"/>
     <use transform="translate(975.539086 0)scale(0.996264)" xlink:href="#CMR17-114"/>
     <use transform="translate(1010.819853 0)scale(0.996264)" xlink:href="#CMR17-105"/>
     <use transform="translate(1035.690912 0)scale(0.996264)" xlink:href="#CMR17-99"/>
     <use transform="translate(1076.176572 0)scale(0.996264)" xlink:href="#CMR17-101"/>
     <use transform="translate(1116.662233 0)scale(0.996264)" xlink:href="#CMR17-115"/>
    </g>
   </g>
  </g>
  <g id="axes_2">
   <g id="patch_19">
    <path d="M 383.330079 346.26513 
L 706.709332 346.26513 
L 706.709332 22.885876 
L 383.330079 22.885876 
z
" style="fill:#ffffff;"/>
   </g>
   <g id="patch_20">
    <path clip-path="url(#p28c6bb1d90)" d="M 524.808502 221.289086 
C 534.594614 221.289086 543.981228 219.550291 550.901054 216.455651 
C 557.82088 213.36101 561.708943 209.163189 561.708943 204.786706 
C 561.708943 200.410224 557.82088 196.212403 550.901054 193.117762 
C 543.981228 190.023122 534.594614 188.284327 524.808502 188.284327 
C 515.022391 188.284327 505.635776 190.023122 498.715951 193.117762 
C 491.796125 196.212403 487.908062 200.410224 487.908062 204.786706 
C 487.908062 209.163189 491.796125 213.36101 498.715951 216.455651 
C 505.635776 219.550291 515.022391 221.289086 524.808502 221.289086 
z
" style="fill:#ff00ff;opacity:0.2;"/>
   </g>
   <g id="patch_21">
    <path clip-path="url(#p28c6bb1d90)" d="M 524.808502 237.791465 
C 544.380725 237.791465 563.153955 234.313875 576.993606 228.124595 
C 590.833257 221.935314 598.609383 213.539671 598.609383 204.786706 
C 598.609383 196.033742 590.833257 187.638099 576.993606 181.448818 
C 563.153955 175.259538 544.380725 171.781948 524.808502 171.781948 
C 505.23628 171.781948 486.46305 175.259538 472.623399 181.448818 
C 458.783748 187.638099 451.007621 196.033742 451.007621 204.786706 
C 451.007621 213.539671 458.783748 221.935314 472.623399 228.124595 
C 486.46305 234.313875 505.23628 237.791465 524.808502 237.791465 
z
" style="fill:#ff00ff;opacity:0.2;"/>
   </g>
   <g id="patch_22">
    <path clip-path="url(#p28c6bb1d90)" d="M 524.808502 254.293844 
C 554.166836 254.293844 582.326681 249.077459 603.086158 239.793539 
C 623.845634 230.509618 635.509824 217.916153 635.509824 204.786706 
C 635.509824 191.65726 623.845634 179.063795 603.086158 169.779874 
C 582.326681 160.495954 554.166836 155.279569 524.808502 155.279569 
C 495.450169 155.279569 467.290324 160.495954 446.530847 169.779874 
C 425.77137 179.063795 414.107181 191.65726 414.107181 204.786706 
C 414.107181 217.916153 425.77137 230.509618 446.530847 239.793539 
C 467.290324 249.077459 495.450169 254.293844 524.808502 254.293844 
z
" style="fill:#ff00ff;opacity:0.2;"/>
   </g>
   <g id="patch_23">
    <path clip-path="url(#p28c6bb1d90)" d="M 588.568796 164.3643 
C 588.568796 155.611336 586.109769 147.215692 581.733287 141.026412 
C 577.356805 134.837131 571.420189 131.359542 565.230909 131.359542 
C 559.041629 131.359542 553.105013 134.837131 548.728531 141.026412 
C 544.352049 147.215692 541.893022 155.611336 541.893022 164.3643 
C 541.893022 173.117264 544.352049 181.512908 548.728531 187.702188 
C 553.105013 193.891468 559.041629 197.369058 565.230909 197.369058 
C 571.420189 197.369058 577.356805 193.891468 581.733287 187.702188 
C 586.109769 181.512908 588.568796 173.117264 588.568796 164.3643 
z
" style="fill:#40e0d0;opacity:0.2;"/>
   </g>
   <g id="patch_24">
    <path clip-path="url(#p28c6bb1d90)" d="M 611.906683 164.3643 
C 611.906683 146.858372 606.988629 130.067084 598.235665 117.688523 
C 589.482702 105.309963 577.609469 98.354784 565.230909 98.354784 
C 552.852349 98.354784 540.979116 105.309963 532.226153 117.688523 
C 523.473189 130.067084 518.555135 146.858372 518.555135 164.3643 
C 518.555135 181.870228 523.473189 198.661516 532.226153 211.040076 
C 540.979116 223.418637 552.852349 230.373816 565.230909 230.373816 
C 577.609469 230.373816 589.482702 223.418637 598.235665 211.040076 
C 606.988629 198.661516 611.906683 181.870228 611.906683 164.3643 
z
" style="fill:#40e0d0;opacity:0.2;"/>
   </g>
   <g id="patch_25">
    <path clip-path="url(#p28c6bb1d90)" d="M 635.24457 164.3643 
C 635.24457 138.105407 627.867489 112.918476 614.738043 94.350635 
C 601.608598 75.782794 583.798749 65.350026 565.230909 65.350026 
C 546.663069 65.350026 528.85322 75.782794 515.723775 94.350635 
C 502.594329 112.918476 495.217248 138.105407 495.217248 164.3643 
C 495.217248 190.623192 502.594329 215.810124 515.723775 234.377964 
C 528.85322 252.945805 546.663069 263.378574 565.230909 263.378574 
C 583.798749 263.378574 601.608598 252.945805 614.738043 234.377964 
C 627.867489 215.810124 635.24457 190.623192 635.24457 164.3643 
z
" style="fill:#40e0d0;opacity:0.2;"/>
   </g>
   <g id="patch_26">
    <path clip-path="url(#p28c6bb1d90)" d="M 588.568796 164.3643 
C 588.568796 155.611336 586.109769 147.215692 581.733287 141.026412 
C 577.356805 134.837131 571.420189 131.359542 565.230909 131.359542 
C 559.041629 131.359542 553.105013 134.837131 548.728531 141.026412 
C 544.352049 147.215692 541.893022 155.611336 541.893022 164.3643 
C 541.893022 173.117264 544.352049 181.512908 548.728531 187.702188 
C 553.105013 193.891468 559.041629 197.369058 565.230909 197.369058 
C 571.420189 197.369058 577.356805 193.891468 581.733287 187.702188 
C 586.109769 181.512908 588.568796 173.117264 588.568796 164.3643 
z
" style="fill:#40e0d0;opacity:0.1;"/>
   </g>
   <g id="patch_27">
    <path clip-path="url(#p28c6bb1d90)" d="M 611.906683 164.3643 
C 611.906683 146.858372 606.988629 130.067084 598.235665 117.688523 
C 589.482702 105.309963 577.609469 98.354784 565.230909 98.354784 
C 552.852349 98.354784 540.979116 105.309963 532.226153 117.688523 
C 523.473189 130.067084 518.555135 146.858372 518.555135 164.3643 
C 518.555135 181.870228 523.473189 198.661516 532.226153 211.040076 
C 540.979116 223.418637 552.852349 230.373816 565.230909 230.373816 
C 577.609469 230.373816 589.482702 223.418637 598.235665 211.040076 
C 606.988629 198.661516 611.906683 181.870228 611.906683 164.3643 
z
" style="fill:#40e0d0;opacity:0.1;"/>
   </g>
   <g id="patch_28">
    <path clip-path="url(#p28c6bb1d90)" d="M 635.24457 164.3643 
C 635.24457 138.105407 627.867489 112.918476 614.738043 94.350635 
C 601.608598 75.782794 583.798749 65.350026 565.230909 65.350026 
C 546.663069 65.350026 528.85322 75.782794 515.723775 94.350635 
C 502.594329 112.918476 495.217248 138.105407 495.217248 164.3643 
C 495.217248 190.623192 502.594329 215.810124 515.723775 234.377964 
C 528.85322 252.945805 546.663069 263.378574 565.230909 263.378574 
C 583.798749 263.378574 601.608598 252.945805 614.738043 234.377964 
C 627.867489 215.810124 635.24457 190.623192 635.24457 164.3643 
z
" style="fill:#40e0d0;opacity:0.1;"/>
   </g>
   <g id="patch_29">
    <path clip-path="url(#p28c6bb1d90)" d="M 524.808502 221.289086 
C 534.594614 221.289086 543.981228 219.550291 550.901054 216.455651 
C 557.82088 213.36101 561.708943 209.163189 561.708943 204.786706 
C 561.708943 200.410224 557.82088 196.212403 550.901054 193.117762 
C 543.981228 190.023122 534.594614 188.284327 524.808502 188.284327 
C 515.022391 188.284327 505.635776 190.023122 498.715951 193.117762 
C 491.796125 196.212403 487.908062 200.410224 487.908062 204.786706 
C 487.908062 209.163189 491.796125 213.36101 498.715951 216.455651 
C 505.635776 219.550291 515.022391 221.289086 524.808502 221.289086 
z
" style="fill:#ff00ff;opacity:0.1;"/>
   </g>
   <g id="patch_30">
    <path clip-path="url(#p28c6bb1d90)" d="M 524.808502 237.791465 
C 544.380725 237.791465 563.153955 234.313875 576.993606 228.124595 
C 590.833257 221.935314 598.609383 213.539671 598.609383 204.786706 
C 598.609383 196.033742 590.833257 187.638099 576.993606 181.448818 
C 563.153955 175.259538 544.380725 171.781948 524.808502 171.781948 
C 505.23628 171.781948 486.46305 175.259538 472.623399 181.448818 
C 458.783748 187.638099 451.007621 196.033742 451.007621 204.786706 
C 451.007621 213.539671 458.783748 221.935314 472.623399 228.124595 
C 486.46305 234.313875 505.23628 237.791465 524.808502 237.791465 
z
" style="fill:#ff00ff;opacity:0.1;"/>
   </g>
   <g id="patch_31">
    <path clip-path="url(#p28c6bb1d90)" d="M 524.808502 254.293844 
C 554.166836 254.293844 582.326681 249.077459 603.086158 239.793539 
C 623.845634 230.509618 635.509824 217.916153 635.509824 204.786706 
C 635.509824 191.65726 623.845634 179.063795 603.086158 169.779874 
C 582.326681 160.495954 554.166836 155.279569 524.808502 155.279569 
C 495.450169 155.279569 467.290324 160.495954 446.530847 169.779874 
C 425.77137 179.063795 414.107181 191.65726 414.107181 204.786706 
C 414.107181 217.916153 425.77137 230.509618 446.530847 239.793539 
C 467.290324 249.077459 495.450169 254.293844 524.808502 254.293844 
z
" style="fill:#ff00ff;opacity:0.1;"/>
   </g>
   <g id="matplotlib.axis_3">
    <g id="xtick_10">
     <g id="text_20">
      <!-- $\mathdefault{−4}$ -->
      <g transform="translate(376.965039 360.183628)scale(0.1 -0.1)">
       <use transform="scale(0.996264)" xlink:href="#CMSY10-0"/>
       <use transform="translate(77.487468 0)scale(0.996264)" xlink:href="#CMR17-52"/>
      </g>
     </g>
    </g>
    <g id="xtick_11">
     <g id="text_21">
      <!-- $\mathdefault{−3}$ -->
      <g transform="translate(417.387446 360.183628)scale(0.1 -0.1)">
       <use transform="scale(0.996264)" xlink:href="#CMSY10-0"/>
       <use transform="translate(77.487468 0)scale(0.996264)" xlink:href="#CMR17-51"/>
      </g>
     </g>
    </g>
    <g id="xtick_12">
     <g id="text_22">
      <!-- $\mathdefault{−2}$ -->
      <g transform="translate(457.809853 360.183628)scale(0.1 -0.1)">
       <use transform="scale(0.996264)" xlink:href="#CMSY10-0"/>
       <use transform="translate(77.487468 0)scale(0.996264)" xlink:href="#CMR17-50"/>
      </g>
     </g>
    </g>
    <g id="xtick_13">
     <g id="text_23">
      <!-- $\mathdefault{−1}$ -->
      <g transform="translate(498.23226 360.183628)scale(0.1 -0.1)">
       <use transform="scale(0.996264)" xlink:href="#CMSY10-0"/>
       <use transform="translate(77.487468 0)scale(0.996264)" xlink:href="#CMR17-49"/>
      </g>
     </g>
    </g>
    <g id="xtick_14">
     <g id="text_24">
      <!-- $\mathdefault{0}$ -->
      <g transform="translate(542.529038 360.183628)scale(0.1 -0.1)">
       <use transform="scale(0.996264)" xlink:href="#CMR17-48"/>
      </g>
     </g>
    </g>
    <g id="xtick_15">
     <g id="text_25">
      <!-- $\mathdefault{1}$ -->
      <g transform="translate(582.951445 360.183628)scale(0.1 -0.1)">
       <use transform="scale(0.996264)" xlink:href="#CMR17-49"/>
      </g>
     </g>
    </g>
    <g id="xtick_16">
     <g id="text_26">
      <!-- $\mathdefault{2}$ -->
      <g transform="translate(623.373851 360.183628)scale(0.1 -0.1)">
       <use transform="scale(0.996264)" xlink:href="#CMR17-50"/>
      </g>
     </g>
    </g>
    <g id="xtick_17">
     <g id="text_27">
      <!-- $\mathdefault{3}$ -->
      <g transform="translate(663.796258 360.183628)scale(0.1 -0.1)">
       <use transform="scale(0.996264)" xlink:href="#CMR17-51"/>
      </g>
     </g>
    </g>
    <g id="xtick_18">
     <g id="text_28">
      <!-- $\mathdefault{4}$ -->
      <g transform="translate(704.218665 360.183628)scale(0.1 -0.1)">
       <use transform="scale(0.996264)" xlink:href="#CMR17-52"/>
      </g>
     </g>
    </g>
   </g>
   <g id="matplotlib.axis_4">
    <g id="ytick_10">
     <g id="text_29">
      <!-- $\mathdefault{−4}$ -->
      <g transform="translate(363.6 349.724379)scale(0.1 -0.1)">
       <use transform="scale(0.996264)" xlink:href="#CMSY10-0"/>
       <use transform="translate(77.487468 0)scale(0.996264)" xlink:href="#CMR17-52"/>
      </g>
     </g>
    </g>
    <g id="ytick_11">
     <g id="text_30">
      <!-- $\mathdefault{−3}$ -->
      <g transform="translate(363.6 309.301972)scale(0.1 -0.1)">
       <use transform="scale(0.996264)" xlink:href="#CMSY10-0"/>
       <use transform="translate(77.487468 0)scale(0.996264)" xlink:href="#CMR17-51"/>
      </g>
     </g>
    </g>
    <g id="ytick_12">
     <g id="text_31">
      <!-- $\mathdefault{−2}$ -->
      <g transform="translate(363.6 268.879566)scale(0.1 -0.1)">
       <use transform="scale(0.996264)" xlink:href="#CMSY10-0"/>
       <use transform="translate(77.487468 0)scale(0.996264)" xlink:href="#CMR17-50"/>
      </g>
     </g>
    </g>
    <g id="ytick_13">
     <g id="text_32">
      <!-- $\mathdefault{−1}$ -->
      <g transform="translate(363.6 228.457159)scale(0.1 -0.1)">
       <use transform="scale(0.996264)" xlink:href="#CMSY10-0"/>
       <use transform="translate(77.487468 0)scale(0.996264)" xlink:href="#CMR17-49"/>
      </g>
     </g>
    </g>
    <g id="ytick_14">
     <g id="text_33">
      <!-- $\mathdefault{0}$ -->
      <g transform="translate(371.348744 188.034752)scale(0.1 -0.1)">
       <use transform="scale(0.996264)" xlink:href="#CMR17-48"/>
      </g>
     </g>
    </g>
    <g id="ytick_15">
     <g id="text_34">
      <!-- $\mathdefault{1}$ -->
      <g transform="translate(371.348744 147.612346)scale(0.1 -0.1)">
       <use transform="scale(0.996264)" xlink:href="#CMR17-49"/>
      </g>
     </g>
    </g>
    <g id="ytick_16">
     <g id="text_35">
      <!-- $\mathdefault{2}$ -->
      <g transform="translate(371.348744 107.189939)scale(0.1 -0.1)">
       <use transform="scale(0.996264)" xlink:href="#CMR17-50"/>
      </g>
     </g>
    </g>
    <g id="ytick_17">
     <g id="text_36">
      <!-- $\mathdefault{3}$ -->
      <g transform="translate(371.348744 66.767532)scale(0.1 -0.1)">
       <use transform="scale(0.996264)" xlink:href="#CMR17-51"/>
      </g>
     </g>
    </g>
    <g id="ytick_18">
     <g id="text_37">
      <!-- $\mathdefault{4}$ -->
      <g transform="translate(371.348744 26.345126)scale(0.1 -0.1)">
       <use transform="scale(0.996264)" xlink:href="#CMR17-52"/>
      </g>
     </g>
    </g>
   </g>
   <g id="patch_32">
    <path d="M 383.330079 346.26513 
L 383.330079 22.885876 
" style="fill:none;stroke:#000000;stroke-linecap:square;stroke-linejoin:miter;stroke-width:0.8;"/>
   </g>
   <g id="patch_33">
    <path d="M 706.709332 346.26513 
L 706.709332 22.885876 
" style="fill:none;stroke:#000000;stroke-linecap:square;stroke-linejoin:miter;stroke-width:0.8;"/>
   </g>
   <g id="patch_34">
    <path d="M 383.330079 346.26513 
L 706.709332 346.26513 
" style="fill:none;stroke:#000000;stroke-linecap:square;stroke-linejoin:miter;stroke-width:0.8;"/>
   </g>
   <g id="patch_35">
    <path d="M 383.330079 22.885876 
L 706.709332 22.885876 
" style="fill:none;stroke:#000000;stroke-linecap:square;stroke-linejoin:miter;stroke-width:0.8;"/>
   </g>
   <g id="text_38">
    <!-- Diagonal covariance matrices -->
    <g transform="translate(458.204265 16.885876)scale(0.14 -0.14)">
     <defs>
      <path d="M 11.09375 18.203125 
C 13 16.6875 16.296875 15 20.296875 15 
C 28.203125 15 35 21.234375 35 29.609375 
C 35 32.234375 34.203125 36.265625 31.203125 39.390625 
C 34 42.390625 38.09375 43.390625 40.40625 43.390625 
C 40.796875 43.390625 41.40625 43.390625 41.90625 43.09375 
C 41.5 42.984375 40.59375 42.59375 40.59375 40.984375 
C 40.59375 39.6875 41.5 38.796875 42.796875 38.796875 
C 44.296875 38.796875 45.09375 39.796875 45.09375 41.09375 
C 45.09375 42.984375 43.59375 45 40.40625 45 
C 36.40625 45 32.90625 43.09375 30.09375 40.484375 
C 27.09375 43.1875 23.5 44.1875 20.296875 44.1875 
C 12.40625 44.1875 5.59375 37.984375 5.59375 29.609375 
C 5.59375 23.859375 8.90625 20.21875 9.90625 19.21875 
C 6.90625 15.6875 6.90625 11.59375 6.90625 11.09375 
C 6.90625 8.5 7.90625 4.6875 11.296875 2.59375 
C 6.09375 1.28125 2 -2.875 2 -8.078125 
C 2 -15.5625 11.5 -21 22.90625 -21 
C 33.90625 -21 43.796875 -15.765625 43.796875 -7.96875 
C 43.796875 6 29 6 21.296875 6 
C 19 6 14.90625 6 14.40625 6.09375 
C 11.296875 6.59375 9.203125 9.390625 9.203125 12.890625 
C 9.203125 13.796875 9.203125 16 11.09375 18.203125 
z
M 20.296875 16.6875 
C 11.5 16.6875 11.5 27.59375 11.5 29.609375 
C 11.5 31.625 11.5 42.484375 20.296875 42.484375 
C 29.09375 42.484375 29.09375 31.625 29.09375 29.609375 
C 29.09375 27.59375 29.09375 16.6875 20.296875 16.6875 
z
M 22.90625 -19.3125 
C 12.90625 -19.3125 6 -13.796875 6 -8.078125 
C 6 -4.859375 7.703125 -1.84375 9.90625 -0.171875 
C 12.40625 1.59375 13.40625 1.59375 20.203125 1.59375 
C 28.40625 1.59375 39.796875 1.59375 39.796875 -8.078125 
C 39.796875 -13.796875 32.90625 -19.3125 22.90625 -19.3125 
z
" id="CMR17-103"/>
      <path d="M 15.296875 69 
L 3.40625 67.890625 
L 3.40625 65.296875 
C 9.296875 65.296875 10.203125 64.703125 10.203125 59.921875 
L 10.203125 6.859375 
C 10.203125 3.09375 9.796875 2.59375 3.40625 2.59375 
L 3.40625 0 
C 5.796875 0.1875 10.203125 0.1875 12.703125 0.1875 
C 15.296875 0.1875 19.703125 0.1875 22.09375 0 
L 22.09375 2.59375 
C 15.703125 2.59375 15.296875 2.984375 15.296875 6.859375 
z
" id="CMR17-108"/>
     </defs>
     <use transform="scale(0.996264)" xlink:href="#CMR17-68"/>
     <use transform="translate(70.393556 0)scale(0.996264)" xlink:href="#CMR17-105"/>
     <use transform="translate(95.264614 0)scale(0.996264)" xlink:href="#CMR17-97"/>
     <use transform="translate(140.955092 0)scale(0.996264)" xlink:href="#CMR17-103"/>
     <use transform="translate(186.645569 0)scale(0.996264)" xlink:href="#CMR17-111"/>
     <use transform="translate(232.336046 0)scale(0.996264)" xlink:href="#CMR17-110"/>
     <use transform="translate(283.231416 0)scale(0.996264)" xlink:href="#CMR17-97"/>
     <use transform="translate(328.921893 0)scale(0.996264)" xlink:href="#CMR17-108"/>
     <use transform="translate(383.868917 0)scale(0.996264)" xlink:href="#CMR17-99"/>
     <use transform="translate(424.354578 0)scale(0.996264)" xlink:href="#CMR17-111"/>
     <use transform="translate(467.442601 0)scale(0.996264)" xlink:href="#CMR17-118"/>
     <use transform="translate(510.5307 0)scale(0.996264)" xlink:href="#CMR17-97"/>
     <use transform="translate(556.221177 0)scale(0.996264)" xlink:href="#CMR17-114"/>
     <use transform="translate(591.501945 0)scale(0.996264)" xlink:href="#CMR17-105"/>
     <use transform="translate(616.373004 0)scale(0.996264)" xlink:href="#CMR17-97"/>
     <use transform="translate(662.063481 0)scale(0.996264)" xlink:href="#CMR17-110"/>
     <use transform="translate(712.958851 0)scale(0.996264)" xlink:href="#CMR17-99"/>
     <use transform="translate(753.444511 0)scale(0.996264)" xlink:href="#CMR17-101"/>
     <use transform="translate(824.006138 0)scale(0.996264)" xlink:href="#CMR17-109"/>
     <use transform="translate(900.925728 0)scale(0.996264)" xlink:href="#CMR17-97"/>
     <use transform="translate(946.616205 0)scale(0.996264)" xlink:href="#CMR17-116"/>
     <use transform="translate(981.896973 0)scale(0.996264)" xlink:href="#CMR17-114"/>
     <use transform="translate(1017.17774 0)scale(0.996264)" xlink:href="#CMR17-105"/>
     <use transform="translate(1042.048799 0)scale(0.996264)" xlink:href="#CMR17-99"/>
     <use transform="translate(1082.534459 0)scale(0.996264)" xlink:href="#CMR17-101"/>
     <use transform="translate(1123.02012 0)scale(0.996264)" xlink:href="#CMR17-115"/>
    </g>
   </g>
  </g>
  <g id="axes_3">
   <g id="patch_36">
    <path d="M 739.730079 346.26513 
L 1063.109332 346.26513 
L 1063.109332 22.885876 
L 739.730079 22.885876 
z
" style="fill:#ffffff;"/>
   </g>
   <g id="patch_37">
    <path clip-path="url(#p7f41198e68)" d="M 881.208502 233.369664 
C 888.788791 233.369664 896.059632 230.357983 901.419705 224.997909 
C 906.779779 219.637836 909.79146 212.366995 909.79146 204.786706 
C 909.79146 197.206418 906.779779 189.935577 901.419705 184.575503 
C 896.059632 179.21543 888.788791 176.203749 881.208502 176.203749 
C 873.628213 176.203749 866.357373 179.21543 860.997299 184.575503 
C 855.637226 189.935577 852.625545 197.206418 852.625545 204.786706 
C 852.625545 212.366995 855.637226 219.637836 860.997299 224.997909 
C 866.357373 230.357983 873.628213 233.369664 881.208502 233.369664 
z
" style="fill:#ff00ff;opacity:0.2;"/>
   </g>
   <g id="patch_38">
    <path clip-path="url(#p7f41198e68)" d="M 881.208502 261.952621 
C 896.36908 261.952621 910.910761 255.92926 921.630908 245.209112 
C 932.351056 234.488965 938.374417 219.947284 938.374417 204.786706 
C 938.374417 189.626129 932.351056 175.084448 921.630908 164.364301 
C 910.910761 153.644153 896.36908 147.620792 881.208502 147.620792 
C 866.047925 147.620792 851.506244 153.644153 840.786096 164.364301 
C 830.065949 175.084448 824.042588 189.626129 824.042588 204.786706 
C 824.042588 219.947284 830.065949 234.488965 840.786096 245.209112 
C 851.506244 255.92926 866.047925 261.952621 881.208502 261.952621 
z
" style="fill:#ff00ff;opacity:0.2;"/>
   </g>
   <g id="patch_39">
    <path clip-path="url(#p7f41198e68)" d="M 881.208502 290.535579 
C 903.949369 290.535579 925.76189 281.500537 941.842111 265.420315 
C 957.922332 249.340094 966.957374 227.527573 966.957374 204.786706 
C 966.957374 182.04584 957.922332 160.233319 941.842111 144.153098 
C 925.76189 128.072876 903.949369 119.037834 881.208502 119.037834 
C 858.467636 119.037834 836.655114 128.072876 820.574893 144.153098 
C 804.494672 160.233319 795.45963 182.04584 795.45963 204.786706 
C 795.45963 227.527573 804.494672 249.340094 820.574893 265.420315 
C 836.655114 281.500537 858.467636 290.535579 881.208502 290.535579 
z
" style="fill:#ff00ff;opacity:0.2;"/>
   </g>
   <g id="patch_40">
    <path clip-path="url(#p7f41198e68)" d="M 921.630909 192.947257 
C 929.211198 192.947257 936.482038 189.935576 941.842112 184.575503 
C 947.202186 179.215429 950.213866 171.944589 950.213866 164.3643 
C 950.213866 156.784011 947.202186 149.513171 941.842112 144.153097 
C 936.482038 138.793023 929.211198 135.781342 921.630909 135.781342 
C 914.05062 135.781342 906.77978 138.793023 901.419706 144.153097 
C 896.059632 149.513171 893.047952 156.784011 893.047952 164.3643 
C 893.047952 171.944589 896.059632 179.215429 901.419706 184.575503 
C 906.77978 189.935576 914.05062 192.947257 921.630909 192.947257 
z
" style="fill:#40e0d0;opacity:0.2;"/>
   </g>
   <g id="patch_41">
    <path clip-path="url(#p7f41198e68)" d="M 921.630909 221.530215 
C 936.791487 221.530215 951.333168 215.506853 962.053315 204.786706 
C 972.773462 194.066558 978.796824 179.524878 978.796824 164.3643 
C 978.796824 149.203722 972.773462 134.662041 962.053315 123.941894 
C 951.333168 113.221746 936.791487 107.198385 921.630909 107.198385 
C 906.470331 107.198385 891.92865 113.221746 881.208503 123.941894 
C 870.488356 134.662041 864.464994 149.203722 864.464994 164.3643 
C 864.464994 179.524878 870.488356 194.066558 881.208503 204.786706 
C 891.92865 215.506853 906.470331 221.530215 921.630909 221.530215 
z
" style="fill:#40e0d0;opacity:0.2;"/>
   </g>
   <g id="patch_42">
    <path clip-path="url(#p7f41198e68)" d="M 921.630909 250.113172 
C 944.371776 250.113172 966.184297 241.07813 982.264518 224.997909 
C 998.344739 208.917688 1007.379781 187.105167 1007.379781 164.3643 
C 1007.379781 141.623433 998.344739 119.810912 982.264518 103.730691 
C 966.184297 87.65047 944.371776 78.615428 921.630909 78.615428 
C 898.890042 78.615428 877.077521 87.65047 860.9973 103.730691 
C 844.917079 119.810912 835.882037 141.623433 835.882037 164.3643 
C 835.882037 187.105167 844.917079 208.917688 860.9973 224.997909 
C 877.077521 241.07813 898.890042 250.113172 921.630909 250.113172 
z
" style="fill:#40e0d0;opacity:0.2;"/>
   </g>
   <g id="patch_43">
    <path clip-path="url(#p7f41198e68)" d="M 921.630909 192.947257 
C 929.211198 192.947257 936.482038 189.935576 941.842112 184.575503 
C 947.202186 179.215429 950.213866 171.944589 950.213866 164.3643 
C 950.213866 156.784011 947.202186 149.513171 941.842112 144.153097 
C 936.482038 138.793023 929.211198 135.781342 921.630909 135.781342 
C 914.05062 135.781342 906.77978 138.793023 901.419706 144.153097 
C 896.059632 149.513171 893.047952 156.784011 893.047952 164.3643 
C 893.047952 171.944589 896.059632 179.215429 901.419706 184.575503 
C 906.77978 189.935576 914.05062 192.947257 921.630909 192.947257 
z
" style="fill:#40e0d0;opacity:0.1;"/>
   </g>
   <g id="patch_44">
    <path clip-path="url(#p7f41198e68)" d="M 921.630909 221.530215 
C 936.791487 221.530215 951.333168 215.506853 962.053315 204.786706 
C 972.773462 194.066558 978.796824 179.524878 978.796824 164.3643 
C 978.796824 149.203722 972.773462 134.662041 962.053315 123.941894 
C 951.333168 113.221746 936.791487 107.198385 921.630909 107.198385 
C 906.470331 107.198385 891.92865 113.221746 881.208503 123.941894 
C 870.488356 134.662041 864.464994 149.203722 864.464994 164.3643 
C 864.464994 179.524878 870.488356 194.066558 881.208503 204.786706 
C 891.92865 215.506853 906.470331 221.530215 921.630909 221.530215 
z
" style="fill:#40e0d0;opacity:0.1;"/>
   </g>
   <g id="patch_45">
    <path clip-path="url(#p7f41198e68)" d="M 921.630909 250.113172 
C 944.371776 250.113172 966.184297 241.07813 982.264518 224.997909 
C 998.344739 208.917688 1007.379781 187.105167 1007.379781 164.3643 
C 1007.379781 141.623433 998.344739 119.810912 982.264518 103.730691 
C 966.184297 87.65047 944.371776 78.615428 921.630909 78.615428 
C 898.890042 78.615428 877.077521 87.65047 860.9973 103.730691 
C 844.917079 119.810912 835.882037 141.623433 835.882037 164.3643 
C 835.882037 187.105167 844.917079 208.917688 860.9973 224.997909 
C 877.077521 241.07813 898.890042 250.113172 921.630909 250.113172 
z
" style="fill:#40e0d0;opacity:0.1;"/>
   </g>
   <g id="patch_46">
    <path clip-path="url(#p7f41198e68)" d="M 881.208502 233.369664 
C 888.788791 233.369664 896.059632 230.357983 901.419705 224.997909 
C 906.779779 219.637836 909.79146 212.366995 909.79146 204.786706 
C 909.79146 197.206418 906.779779 189.935577 901.419705 184.575503 
C 896.059632 179.21543 888.788791 176.203749 881.208502 176.203749 
C 873.628213 176.203749 866.357373 179.21543 860.997299 184.575503 
C 855.637226 189.935577 852.625545 197.206418 852.625545 204.786706 
C 852.625545 212.366995 855.637226 219.637836 860.997299 224.997909 
C 866.357373 230.357983 873.628213 233.369664 881.208502 233.369664 
z
" style="fill:#ff00ff;opacity:0.1;"/>
   </g>
   <g id="patch_47">
    <path clip-path="url(#p7f41198e68)" d="M 881.208502 261.952621 
C 896.36908 261.952621 910.910761 255.92926 921.630908 245.209112 
C 932.351056 234.488965 938.374417 219.947284 938.374417 204.786706 
C 938.374417 189.626129 932.351056 175.084448 921.630908 164.364301 
C 910.910761 153.644153 896.36908 147.620792 881.208502 147.620792 
C 866.047925 147.620792 851.506244 153.644153 840.786096 164.364301 
C 830.065949 175.084448 824.042588 189.626129 824.042588 204.786706 
C 824.042588 219.947284 830.065949 234.488965 840.786096 245.209112 
C 851.506244 255.92926 866.047925 261.952621 881.208502 261.952621 
z
" style="fill:#ff00ff;opacity:0.1;"/>
   </g>
   <g id="patch_48">
    <path clip-path="url(#p7f41198e68)" d="M 881.208502 290.535579 
C 903.949369 290.535579 925.76189 281.500537 941.842111 265.420315 
C 957.922332 249.340094 966.957374 227.527573 966.957374 204.786706 
C 966.957374 182.04584 957.922332 160.233319 941.842111 144.153098 
C 925.76189 128.072876 903.949369 119.037834 881.208502 119.037834 
C 858.467636 119.037834 836.655114 128.072876 820.574893 144.153098 
C 804.494672 160.233319 795.45963 182.04584 795.45963 204.786706 
C 795.45963 227.527573 804.494672 249.340094 820.574893 265.420315 
C 836.655114 281.500537 858.467636 290.535579 881.208502 290.535579 
z
" style="fill:#ff00ff;opacity:0.1;"/>
   </g>
   <g id="matplotlib.axis_5">
    <g id="xtick_19">
     <g id="text_39">
      <!-- $\mathdefault{−4}$ -->
      <g transform="translate(733.365039 360.183628)scale(0.1 -0.1)">
       <use transform="scale(0.996264)" xlink:href="#CMSY10-0"/>
       <use transform="translate(77.487468 0)scale(0.996264)" xlink:href="#CMR17-52"/>
      </g>
     </g>
    </g>
    <g id="xtick_20">
     <g id="text_40">
      <!-- $\mathdefault{−3}$ -->
      <g transform="translate(773.787446 360.183628)scale(0.1 -0.1)">
       <use transform="scale(0.996264)" xlink:href="#CMSY10-0"/>
       <use transform="translate(77.487468 0)scale(0.996264)" xlink:href="#CMR17-51"/>
      </g>
     </g>
    </g>
    <g id="xtick_21">
     <g id="text_41">
      <!-- $\mathdefault{−2}$ -->
      <g transform="translate(814.209853 360.183628)scale(0.1 -0.1)">
       <use transform="scale(0.996264)" xlink:href="#CMSY10-0"/>
       <use transform="translate(77.487468 0)scale(0.996264)" xlink:href="#CMR17-50"/>
      </g>
     </g>
    </g>
    <g id="xtick_22">
     <g id="text_42">
      <!-- $\mathdefault{−1}$ -->
      <g transform="translate(854.63226 360.183628)scale(0.1 -0.1)">
       <use transform="scale(0.996264)" xlink:href="#CMSY10-0"/>
       <use transform="translate(77.487468 0)scale(0.996264)" xlink:href="#CMR17-49"/>
      </g>
     </g>
    </g>
    <g id="xtick_23">
     <g id="text_43">
      <!-- $\mathdefault{0}$ -->
      <g transform="translate(898.929038 360.183628)scale(0.1 -0.1)">
       <use transform="scale(0.996264)" xlink:href="#CMR17-48"/>
      </g>
     </g>
    </g>
    <g id="xtick_24">
     <g id="text_44">
      <!-- $\mathdefault{1}$ -->
      <g transform="translate(939.351445 360.183628)scale(0.1 -0.1)">
       <use transform="scale(0.996264)" xlink:href="#CMR17-49"/>
      </g>
     </g>
    </g>
    <g id="xtick_25">
     <g id="text_45">
      <!-- $\mathdefault{2}$ -->
      <g transform="translate(979.773851 360.183628)scale(0.1 -0.1)">
       <use transform="scale(0.996264)" xlink:href="#CMR17-50"/>
      </g>
     </g>
    </g>
    <g id="xtick_26">
     <g id="text_46">
      <!-- $\mathdefault{3}$ -->
      <g transform="translate(1020.196258 360.183628)scale(0.1 -0.1)">
       <use transform="scale(0.996264)" xlink:href="#CMR17-51"/>
      </g>
     </g>
    </g>
    <g id="xtick_27">
     <g id="text_47">
      <!-- $\mathdefault{4}$ -->
      <g transform="translate(1060.618665 360.183628)scale(0.1 -0.1)">
       <use transform="scale(0.996264)" xlink:href="#CMR17-52"/>
      </g>
     </g>
    </g>
   </g>
   <g id="matplotlib.axis_6">
    <g id="ytick_19">
     <g id="text_48">
      <!-- $\mathdefault{−4}$ -->
      <g transform="translate(720 349.724379)scale(0.1 -0.1)">
       <use transform="scale(0.996264)" xlink:href="#CMSY10-0"/>
       <use transform="translate(77.487468 0)scale(0.996264)" xlink:href="#CMR17-52"/>
      </g>
     </g>
    </g>
    <g id="ytick_20">
     <g id="text_49">
      <!-- $\mathdefault{−3}$ -->
      <g transform="translate(720 309.301972)scale(0.1 -0.1)">
       <use transform="scale(0.996264)" xlink:href="#CMSY10-0"/>
       <use transform="translate(77.487468 0)scale(0.996264)" xlink:href="#CMR17-51"/>
      </g>
     </g>
    </g>
    <g id="ytick_21">
     <g id="text_50">
      <!-- $\mathdefault{−2}$ -->
      <g transform="translate(720 268.879566)scale(0.1 -0.1)">
       <use transform="scale(0.996264)" xlink:href="#CMSY10-0"/>
       <use transform="translate(77.487468 0)scale(0.996264)" xlink:href="#CMR17-50"/>
      </g>
     </g>
    </g>
    <g id="ytick_22">
     <g id="text_51">
      <!-- $\mathdefault{−1}$ -->
      <g transform="translate(720 228.457159)scale(0.1 -0.1)">
       <use transform="scale(0.996264)" xlink:href="#CMSY10-0"/>
       <use transform="translate(77.487468 0)scale(0.996264)" xlink:href="#CMR17-49"/>
      </g>
     </g>
    </g>
    <g id="ytick_23">
     <g id="text_52">
      <!-- $\mathdefault{0}$ -->
      <g transform="translate(727.748744 188.034752)scale(0.1 -0.1)">
       <use transform="scale(0.996264)" xlink:href="#CMR17-48"/>
      </g>
     </g>
    </g>
    <g id="ytick_24">
     <g id="text_53">
      <!-- $\mathdefault{1}$ -->
      <g transform="translate(727.748744 147.612346)scale(0.1 -0.1)">
       <use transform="scale(0.996264)" xlink:href="#CMR17-49"/>
      </g>
     </g>
    </g>
    <g id="ytick_25">
     <g id="text_54">
      <!-- $\mathdefault{2}$ -->
      <g transform="translate(727.748744 107.189939)scale(0.1 -0.1)">
       <use transform="scale(0.996264)" xlink:href="#CMR17-50"/>
      </g>
     </g>
    </g>
    <g id="ytick_26">
     <g id="text_55">
      <!-- $\mathdefault{3}$ -->
      <g transform="translate(727.748744 66.767532)scale(0.1 -0.1)">
       <use transform="scale(0.996264)" xlink:href="#CMR17-51"/>
      </g>
     </g>
    </g>
    <g id="ytick_27">
     <g id="text_56">
      <!-- $\mathdefault{4}$ -->
      <g transform="translate(727.748744 26.345126)scale(0.1 -0.1)">
       <use transform="scale(0.996264)" xlink:href="#CMR17-52"/>
      </g>
     </g>
    </g>
   </g>
   <g id="patch_49">
    <path d="M 739.730079 346.26513 
L 739.730079 22.885876 
" style="fill:none;stroke:#000000;stroke-linecap:square;stroke-linejoin:miter;stroke-width:0.8;"/>
   </g>
   <g id="patch_50">
    <path d="M 1063.109332 346.26513 
L 1063.109332 22.885876 
" style="fill:none;stroke:#000000;stroke-linecap:square;stroke-linejoin:miter;stroke-width:0.8;"/>
   </g>
   <g id="patch_51">
    <path d="M 739.730079 346.26513 
L 1063.109332 346.26513 
" style="fill:none;stroke:#000000;stroke-linecap:square;stroke-linejoin:miter;stroke-width:0.8;"/>
   </g>
   <g id="patch_52">
    <path d="M 739.730079 22.885876 
L 1063.109332 22.885876 
" style="fill:none;stroke:#000000;stroke-linecap:square;stroke-linejoin:miter;stroke-width:0.8;"/>
   </g>
   <g id="text_57">
    <!-- Diagonal with equal variance -->
    <g transform="translate(814.642201 16.885876)scale(0.14 -0.14)">
     <defs>
      <path d="M 58.203125 34.15625 
C 60.203125 40.09375 64.203125 40.296875 65.703125 40.390625 
L 65.703125 43 
C 63.703125 42.890625 61.703125 42.796875 59.703125 42.796875 
C 57.796875 42.796875 53.5 42.796875 51.796875 43 
L 51.796875 40.390625 
C 54.90625 40.1875 56.59375 38.375 56.59375 35.875 
C 56.59375 35.171875 56.40625 34.265625 56.203125 33.5625 
L 46.796875 6.21875 
L 36.59375 35.875 
C 36.40625 36.578125 36.09375 37.375 36.09375 37.78125 
C 36.09375 40.390625 39.5 40.390625 41.09375 40.390625 
L 41.09375 43 
C 38.796875 42.796875 34.59375 42.796875 32.203125 42.796875 
C 29.703125 42.796875 27.09375 42.796875 24.796875 43 
L 24.796875 40.390625 
C 30.296875 40.390625 30.296875 40.1875 32.40625 33.859375 
L 23.203125 6.921875 
L 13.296875 35.96875 
C 12.796875 37.28125 12.796875 37.484375 12.796875 37.78125 
C 12.796875 40.390625 16.203125 40.390625 17.796875 40.390625 
L 17.796875 43 
C 15.40625 42.796875 11.203125 42.796875 8.703125 42.796875 
C 6.5 42.796875 3.09375 42.796875 1 43 
L 1 40.390625 
C 5.40625 40.390625 6.5 40.09375 7.59375 36.765625 
L 19.90625 0.59375 
C 20.296875 -0.703125 20.59375 -1 21.40625 -1 
C 22.09375 -1 22.5 -0.8125 23 0.6875 
L 33.296875 31.046875 
L 43.703125 0.6875 
C 44.203125 -0.8125 44.59375 -1 45.296875 -1 
C 46.09375 -1 46.40625 -0.703125 46.796875 0.59375 
z
" id="CMR17-119"/>
      <path d="M 41.5 30.53125 
C 41.5 35.65625 40.5 44 28.703125 44 
C 20.5 44 16.5 37.375 15.296875 34.046875 
L 15.203125 34.046875 
L 15.203125 69 
L 3.296875 67.890625 
L 3.296875 65.296875 
C 9.203125 65.296875 10.09375 64.703125 10.09375 60.046875 
L 10.09375 6.921875 
C 10.09375 3.09375 9.703125 2.59375 3.296875 2.59375 
L 3.296875 0 
C 5.703125 0.1875 10.09375 0.1875 12.703125 0.1875 
C 15.296875 0.1875 19.796875 0.1875 22.203125 0 
L 22.203125 2.59375 
C 15.796875 2.59375 15.40625 3 15.40625 6.921875 
L 15.40625 26.21875 
C 15.40625 35.453125 21 42.390625 28 42.390625 
C 35.40625 42.390625 36.203125 35.765625 36.203125 30.9375 
L 36.203125 6.921875 
C 36.203125 3.09375 35.796875 2.59375 29.40625 2.59375 
L 29.40625 0 
C 31.796875 0.1875 36.203125 0.1875 38.796875 0.1875 
C 41.40625 0.1875 45.90625 0.1875 48.296875 0 
L 48.296875 2.59375 
C 41.90625 2.59375 41.5 3 41.5 6.921875 
z
" id="CMR17-104"/>
      <path d="M 41.09375 44 
L 39.5 44 
L 36.5 34.015625 
C 34.203125 39.359375 30 44 23.296875 44 
C 13.09375 44 3.296875 34.8125 3.296875 21.5 
C 3.296875 8.265625 12.5 -1 22.5 -1 
C 30.203125 -1 34.5 4.9375 35.796875 7.15625 
L 35.796875 -13.03125 
C 35.796875 -16.890625 35.40625 -17.40625 29 -17.40625 
L 29 -20 
C 31.40625 -19.8125 35.796875 -19.8125 38.40625 -19.8125 
C 41 -19.8125 45.5 -19.8125 47.90625 -20 
L 47.90625 -17.40625 
C 41.5 -17.40625 41.09375 -17 41.09375 -13.03125 
z
M 36 13.609375 
C 36 9.28125 32.40625 5.234375 32.09375 4.9375 
C 29 1.40625 25.40625 0.59375 23 0.59375 
C 15.5 0.59375 9.703125 10.1875 9.703125 21.390625 
C 9.703125 33.203125 16.296875 42.1875 24 42.1875 
C 32 42.1875 36 33 36 27.75 
z
" id="CMR17-113"/>
      <path d="M 29.40625 42.890625 
L 29.40625 40.296875 
C 35.296875 40.296875 36.203125 39.6875 36.203125 34.828125 
L 36.203125 16.453125 
C 36.203125 7.96875 31.703125 0.59375 24.296875 0.59375 
C 16.09375 0.59375 15.40625 5.546875 15.40625 10.796875 
L 15.40625 44 
L 3.296875 42.890625 
L 3.296875 40.296875 
C 7.296875 40.296875 10 40.296875 10.09375 36.25 
L 10.09375 16.859375 
C 10.09375 10.09375 10.09375 5.75 12.703125 2.921875 
C 14 1.609375 16.5 -1 23.703125 -1 
C 32.203125 -1 35.5 6.25 36.296875 8.375 
L 36.40625 8.375 
L 36.40625 -1 
L 48.296875 -0.203125 
L 48.296875 2.40625 
C 42.40625 2.40625 41.5 3.015625 41.5 7.859375 
L 41.5 44 
z
" id="CMR17-117"/>
     </defs>
     <use transform="scale(0.996264)" xlink:href="#CMR17-68"/>
     <use transform="translate(70.393556 0)scale(0.996264)" xlink:href="#CMR17-105"/>
     <use transform="translate(95.264614 0)scale(0.996264)" xlink:href="#CMR17-97"/>
     <use transform="translate(140.955092 0)scale(0.996264)" xlink:href="#CMR17-103"/>
     <use transform="translate(186.645569 0)scale(0.996264)" xlink:href="#CMR17-111"/>
     <use transform="translate(232.336046 0)scale(0.996264)" xlink:href="#CMR17-110"/>
     <use transform="translate(283.231416 0)scale(0.996264)" xlink:href="#CMR17-97"/>
     <use transform="translate(328.921893 0)scale(0.996264)" xlink:href="#CMR17-108"/>
     <use transform="translate(383.868917 0)scale(0.996264)" xlink:href="#CMR17-119"/>
     <use transform="translate(450.378798 0)scale(0.996264)" xlink:href="#CMR17-105"/>
     <use transform="translate(475.249856 0)scale(0.996264)" xlink:href="#CMR17-116"/>
     <use transform="translate(510.530624 0)scale(0.996264)" xlink:href="#CMR17-104"/>
     <use transform="translate(591.50196 0)scale(0.996264)" xlink:href="#CMR17-101"/>
     <use transform="translate(631.987621 0)scale(0.996264)" xlink:href="#CMR17-113"/>
     <use transform="translate(680.280537 0)scale(0.996264)" xlink:href="#CMR17-117"/>
     <use transform="translate(731.175907 0)scale(0.996264)" xlink:href="#CMR17-97"/>
     <use transform="translate(776.866384 0)scale(0.996264)" xlink:href="#CMR17-108"/>
     <use transform="translate(831.813408 0)scale(0.996264)" xlink:href="#CMR17-118"/>
     <use transform="translate(874.901508 0)scale(0.996264)" xlink:href="#CMR17-97"/>
     <use transform="translate(920.591985 0)scale(0.996264)" xlink:href="#CMR17-114"/>
     <use transform="translate(955.872753 0)scale(0.996264)" xlink:href="#CMR17-105"/>
     <use transform="translate(980.743811 0)scale(0.996264)" xlink:href="#CMR17-97"/>
     <use transform="translate(1026.434288 0)scale(0.996264)" xlink:href="#CMR17-110"/>
     <use transform="translate(1077.329658 0)scale(0.996264)" xlink:href="#CMR17-99"/>
     <use transform="translate(1117.815318 0)scale(0.996264)" xlink:href="#CMR17-101"/>
    </g>
   </g>
  </g>
 </g>
 <defs>
  <clipPath id="p66e2470e64">
   <rect height="323.379253" width="323.379253" x="26.930079" y="22.885876"/>
  </clipPath>
  <clipPath id="p28c6bb1d90">
   <rect height="323.379253" width="323.379253" x="383.330079" y="22.885876"/>
  </clipPath>
  <clipPath id="p7f41198e68">
   <rect height="323.379253" width="323.379253" x="739.730079" y="22.885876"/>
  </clipPath>
 </defs>
</svg>
