<?xml version="1.0" encoding="utf-8" standalone="no"?>
<!DOCTYPE svg PUBLIC "-//W3C//DTD SVG 1.1//EN"
  "http://www.w3.org/Graphics/SVG/1.1/DTD/svg11.dtd">
<!-- Created with matplotlib (https://matplotlib.org/) -->
<svg height="357.094179pt" version="1.1" viewBox="0 0 1072.8 357.094179" width="1072.8pt" xmlns="http://www.w3.org/2000/svg" xmlns:xlink="http://www.w3.org/1999/xlink">
 <metadata>
  <rdf:RDF xmlns:cc="http://creativecommons.org/ns#" xmlns:dc="http://purl.org/dc/elements/1.1/" xmlns:rdf="http://www.w3.org/1999/02/22-rdf-syntax-ns#">
   <cc:Work>
    <dc:type rdf:resource="http://purl.org/dc/dcmitype/StillImage"/>
    <dc:date>2021-03-23T18:41:15.236767</dc:date>
    <dc:format>image/svg+xml</dc:format>
    <dc:creator>
     <cc:Agent>
      <dc:title>Matplotlib v3.3.4, https://matplotlib.org/</dc:title>
     </cc:Agent>
    </dc:creator>
   </cc:Work>
  </rdf:RDF>
 </metadata>
 <defs>
  <style type="text/css">*{stroke-linecap:butt;stroke-linejoin:round;}</style>
 </defs>
 <g id="figure_1">
  <g id="patch_1">
   <path d="M 0 357.094179 
L 1072.8 357.094179 
L 1072.8 0 
L 0 0 
z
" style="fill:#ffffff;"/>
  </g>
  <g id="axes_1">
   <g id="patch_2">
    <path d="M 26.930079 334.038503 
L 350.309332 334.038503 
L 350.309332 10.659249 
L 26.930079 10.659249 
z
" style="fill:#ffffff;"/>
   </g>
   <g id="patch_3">
    <path clip-path="url(#p839d428139)" d="M 164.757944 186.65335 
C 158.122216 190.754454 152.142022 195.310511 148.134432 199.3181 
C 144.126842 203.32569 142.419056 206.457611 143.387196 208.024093 
C 144.355335 209.590576 147.920355 209.463725 153.297101 207.671477 
C 158.673848 205.879229 165.423333 202.567913 172.059061 198.466809 
C 178.694789 194.365704 184.674982 189.809648 188.682573 185.802058 
C 192.690163 181.794469 194.397948 178.662548 193.429809 177.096065 
C 192.46167 175.529582 188.89665 175.656433 183.519903 177.448682 
C 178.143157 179.24093 171.393672 182.552245 164.757944 186.65335 
z
" style="fill:#ff00ff;opacity:0.2;"/>
   </g>
   <g id="patch_4">
    <path clip-path="url(#p839d428139)" d="M 161.107385 180.746621 
C 147.835929 188.94883 135.875542 198.060942 127.860362 206.076121 
C 119.845181 214.0913 116.42961 220.355142 118.365889 223.488108 
C 120.302168 226.621074 127.432208 226.367371 138.185701 222.782875 
C 148.939193 219.198378 162.438163 212.575747 175.70962 204.373538 
C 188.981076 196.171329 200.941462 187.059216 208.956643 179.044037 
C 216.971824 171.028858 220.387395 164.765017 218.451116 161.632051 
C 216.514837 158.499085 209.384797 158.752788 198.631304 162.337284 
C 187.877811 165.92178 174.378841 172.544412 161.107385 180.746621 
z
" style="fill:#ff00ff;opacity:0.2;"/>
   </g>
   <g id="patch_5">
    <path clip-path="url(#p839d428139)" d="M 157.456827 174.839891 
C 137.549642 187.143205 119.609062 200.811374 107.586291 212.834142 
C 95.56352 224.856911 90.440164 234.252673 93.344582 238.952122 
C 96.249001 243.651571 106.944061 243.271017 123.0743 237.894272 
C 139.204539 232.517528 159.452994 222.583581 179.360178 210.280267 
C 199.267362 197.976954 217.207942 184.308785 229.230713 172.286016 
C 241.253484 160.263248 246.376841 150.867485 243.472422 146.168036 
C 240.568004 141.468588 229.872944 141.849142 213.742705 147.225886 
C 197.612466 152.602631 177.364011 162.536578 157.456827 174.839891 
z
" style="fill:#ff00ff;opacity:0.2;"/>
   </g>
   <g id="patch_6">
    <path clip-path="url(#p839d428139)" d="M 219.50999 150.256287 
C 217.330971 137.887786 214.115691 126.222436 210.572277 117.829396 
C 207.028862 109.436356 203.446619 105.000879 200.614493 105.499828 
C 197.782368 105.998777 195.931591 111.391416 195.469775 120.490077 
C 195.007959 129.588738 195.972809 141.650557 198.151828 154.019058 
C 200.330847 166.387559 203.546127 178.052909 207.089541 186.445949 
C 210.632956 194.83899 214.215199 199.274466 217.047325 198.775517 
C 219.87945 198.276568 221.730227 192.883929 222.192043 183.785268 
C 222.653859 174.686607 221.689009 162.624788 219.50999 150.256287 
z
" style="fill:#40e0d0;opacity:0.2;"/>
   </g>
   <g id="patch_7">
    <path clip-path="url(#p839d428139)" d="M 230.189072 148.374901 
C 225.831034 123.637899 219.400473 100.3072 212.313644 83.521119 
C 205.226816 66.735038 198.062329 57.864085 192.398078 58.861984 
C 186.733827 59.859882 183.032273 70.645159 182.108641 88.842482 
C 181.185009 107.039804 183.114708 131.163442 187.472746 155.900444 
C 191.830784 180.637446 198.261345 203.968145 205.348174 220.754226 
C 212.435002 237.540307 219.599489 246.41126 225.26374 245.413361 
C 230.927991 244.415463 234.629545 233.630186 235.553177 215.432864 
C 236.476809 197.235541 234.54711 173.111903 230.189072 148.374901 
z
" style="fill:#40e0d0;opacity:0.2;"/>
   </g>
   <g id="patch_8">
    <path clip-path="url(#p839d428139)" d="M 240.868153 146.493516 
C 234.331096 109.388013 224.685254 74.391964 214.055012 49.212843 
C 203.424769 24.033721 192.678039 10.727291 184.181662 12.224139 
C 175.685286 13.720987 170.132955 29.898902 168.747507 57.194886 
C 167.362059 84.49087 170.256608 120.676327 176.793665 157.781829 
C 183.330722 194.887332 192.976564 229.883381 203.606806 255.062502 
C 214.237049 280.241624 224.983779 293.548054 233.480156 292.051206 
C 241.976532 290.554358 247.528863 274.376443 248.914311 247.080459 
C 250.299759 219.784475 247.40521 183.599018 240.868153 146.493516 
z
" style="fill:#40e0d0;opacity:0.2;"/>
   </g>
   <g id="patch_9">
    <path clip-path="url(#p839d428139)" d="M 219.50999 150.256287 
C 217.330971 137.887786 214.115691 126.222436 210.572277 117.829396 
C 207.028862 109.436356 203.446619 105.000879 200.614493 105.499828 
C 197.782368 105.998777 195.931591 111.391416 195.469775 120.490077 
C 195.007959 129.588738 195.972809 141.650557 198.151828 154.019058 
C 200.330847 166.387559 203.546127 178.052909 207.089541 186.445949 
C 210.632956 194.83899 214.215199 199.274466 217.047325 198.775517 
C 219.87945 198.276568 221.730227 192.883929 222.192043 183.785268 
C 222.653859 174.686607 221.689009 162.624788 219.50999 150.256287 
z
" style="fill:#40e0d0;opacity:0.1;"/>
   </g>
   <g id="patch_10">
    <path clip-path="url(#p839d428139)" d="M 230.189072 148.374901 
C 225.831034 123.637899 219.400473 100.3072 212.313644 83.521119 
C 205.226816 66.735038 198.062329 57.864085 192.398078 58.861984 
C 186.733827 59.859882 183.032273 70.645159 182.108641 88.842482 
C 181.185009 107.039804 183.114708 131.163442 187.472746 155.900444 
C 191.830784 180.637446 198.261345 203.968145 205.348174 220.754226 
C 212.435002 237.540307 219.599489 246.41126 225.26374 245.413361 
C 230.927991 244.415463 234.629545 233.630186 235.553177 215.432864 
C 236.476809 197.235541 234.54711 173.111903 230.189072 148.374901 
z
" style="fill:#40e0d0;opacity:0.1;"/>
   </g>
   <g id="patch_11">
    <path clip-path="url(#p839d428139)" d="M 240.868153 146.493516 
C 234.331096 109.388013 224.685254 74.391964 214.055012 49.212843 
C 203.424769 24.033721 192.678039 10.727291 184.181662 12.224139 
C 175.685286 13.720987 170.132955 29.898902 168.747507 57.194886 
C 167.362059 84.49087 170.256608 120.676327 176.793665 157.781829 
C 183.330722 194.887332 192.976564 229.883381 203.606806 255.062502 
C 214.237049 280.241624 224.983779 293.548054 233.480156 292.051206 
C 241.976532 290.554358 247.528863 274.376443 248.914311 247.080459 
C 250.299759 219.784475 247.40521 183.599018 240.868153 146.493516 
z
" style="fill:#40e0d0;opacity:0.1;"/>
   </g>
   <g id="patch_12">
    <path clip-path="url(#p839d428139)" d="M 164.757944 186.65335 
C 158.122216 190.754454 152.142022 195.310511 148.134432 199.3181 
C 144.126842 203.32569 142.419056 206.457611 143.387196 208.024093 
C 144.355335 209.590576 147.920355 209.463725 153.297101 207.671477 
C 158.673848 205.879229 165.423333 202.567913 172.059061 198.466809 
C 178.694789 194.365704 184.674982 189.809648 188.682573 185.802058 
C 192.690163 181.794469 194.397948 178.662548 193.429809 177.096065 
C 192.46167 175.529582 188.89665 175.656433 183.519903 177.448682 
C 178.143157 179.24093 171.393672 182.552245 164.757944 186.65335 
z
" style="fill:#ff00ff;opacity:0.1;"/>
   </g>
   <g id="patch_13">
    <path clip-path="url(#p839d428139)" d="M 161.107385 180.746621 
C 147.835929 188.94883 135.875542 198.060942 127.860362 206.076121 
C 119.845181 214.0913 116.42961 220.355142 118.365889 223.488108 
C 120.302168 226.621074 127.432208 226.367371 138.185701 222.782875 
C 148.939193 219.198378 162.438163 212.575747 175.70962 204.373538 
C 188.981076 196.171329 200.941462 187.059216 208.956643 179.044037 
C 216.971824 171.028858 220.387395 164.765017 218.451116 161.632051 
C 216.514837 158.499085 209.384797 158.752788 198.631304 162.337284 
C 187.877811 165.92178 174.378841 172.544412 161.107385 180.746621 
z
" style="fill:#ff00ff;opacity:0.1;"/>
   </g>
   <g id="patch_14">
    <path clip-path="url(#p839d428139)" d="M 157.456827 174.839891 
C 137.549642 187.143205 119.609062 200.811374 107.586291 212.834142 
C 95.56352 224.856911 90.440164 234.252673 93.344582 238.952122 
C 96.249001 243.651571 106.944061 243.271017 123.0743 237.894272 
C 139.204539 232.517528 159.452994 222.583581 179.360178 210.280267 
C 199.267362 197.976954 217.207942 184.308785 229.230713 172.286016 
C 241.253484 160.263248 246.376841 150.867485 243.472422 146.168036 
C 240.568004 141.468588 229.872944 141.849142 213.742705 147.225886 
C 197.612466 152.602631 177.364011 162.536578 157.456827 174.839891 
z
" style="fill:#ff00ff;opacity:0.1;"/>
   </g>
   <g id="matplotlib.axis_1">
    <g id="xtick_1">
     <g id="text_1">
      <!-- $\mathdefault{−4}$ -->
      <g transform="translate(20.565039 347.957001)scale(0.1 -0.1)">
       <defs>
        <path d="M 65.90625 23 
C 67.59375 23 69.40625 23 69.40625 25 
C 69.40625 27 67.59375 27 65.90625 27 
L 11.796875 27 
C 10.09375 27 8.296875 27 8.296875 25 
C 8.296875 23 10.09375 23 11.796875 23 
z
" id="CMSY10-0"/>
        <path d="M 33.59375 64.796875 
C 33.59375 66.890625 33.5 67 31.703125 67 
L 2 19.59375 
L 2 17 
L 27.796875 17 
L 27.796875 7.1875 
C 27.796875 3.59375 27.59375 2.59375 20.59375 2.59375 
L 18.703125 2.59375 
L 18.703125 0 
C 21.90625 0.1875 27.296875 0.1875 30.703125 0.1875 
C 34.09375 0.1875 39.5 0.1875 42.703125 0 
L 42.703125 2.59375 
L 40.796875 2.59375 
C 33.796875 2.59375 33.59375 3.59375 33.59375 7.1875 
L 33.59375 17 
L 43.796875 17 
L 43.796875 19.59375 
L 33.59375 19.59375 
z
M 28.09375 58.171875 
L 28.09375 19.59375 
L 4 19.59375 
z
" id="CMR17-52"/>
       </defs>
       <use transform="scale(0.996264)" xlink:href="#CMSY10-0"/>
       <use transform="translate(77.487468 0)scale(0.996264)" xlink:href="#CMR17-52"/>
      </g>
     </g>
    </g>
    <g id="xtick_2">
     <g id="text_2">
      <!-- $\mathdefault{−3}$ -->
      <g transform="translate(60.987446 347.957001)scale(0.1 -0.1)">
       <defs>
        <path d="M 22.09375 34 
C 31 34 34.90625 26.140625 34.90625 17.09375 
C 34.90625 5.03125 28.5 0.390625 22.703125 0.390625 
C 17.40625 0.390625 8.796875 3.015625 6.09375 10.796875 
C 6.59375 10.59375 7.09375 10.59375 7.59375 10.59375 
C 10 10.59375 11.796875 12.1875 11.796875 14.796875 
C 11.796875 17.6875 9.59375 19 7.59375 19 
C 5.90625 19 3.296875 18.1875 3.296875 14.484375 
C 3.296875 5.234375 12.296875 -2 22.90625 -2 
C 34 -2 42.5 6.75 42.5 16.984375 
C 42.5 26.84375 34.5 34 25 35.09375 
C 32.59375 36.671875 39.90625 43.375 39.90625 52.390625 
C 39.90625 60.25 32 66 23 66 
C 13.90625 66 5.90625 60.34375 5.90625 52.296875 
C 5.90625 48.796875 8.5 48.1875 9.796875 48.1875 
C 11.90625 48.1875 13.703125 49.484375 13.703125 52.09375 
C 13.703125 54.6875 11.90625 56 9.796875 56 
C 9.40625 56 8.90625 56 8.5 55.796875 
C 11.40625 62.484375 19.296875 63.6875 22.796875 63.6875 
C 26.296875 63.6875 32.90625 61.96875 32.90625 52.296875 
C 32.90625 49.484375 32.5 44.546875 29.09375 40.21875 
C 26.09375 36.390625 22.703125 36.1875 19.40625 35.890625 
C 18.90625 35.890625 16.59375 35.6875 16.203125 35.6875 
C 15.5 35.59375 15.09375 35.5 15.09375 34.796875 
C 15.09375 34.09375 15.203125 34 17.203125 34 
z
" id="CMR17-51"/>
       </defs>
       <use transform="scale(0.996264)" xlink:href="#CMSY10-0"/>
       <use transform="translate(77.487468 0)scale(0.996264)" xlink:href="#CMR17-51"/>
      </g>
     </g>
    </g>
    <g id="xtick_3">
     <g id="text_3">
      <!-- $\mathdefault{−2}$ -->
      <g transform="translate(101.409853 347.957001)scale(0.1 -0.1)">
       <defs>
        <path d="M 41.703125 15.46875 
L 39.90625 15.46875 
C 38.90625 8.390625 38.09375 7.1875 37.703125 6.59375 
C 37.203125 5.796875 30 5.796875 28.59375 5.796875 
L 9.40625 5.796875 
C 13 9.6875 20 16.765625 28.5 24.9375 
C 34.59375 30.71875 41.703125 37.5 41.703125 47.390625 
C 41.703125 59.1875 32.296875 66 21.796875 66 
C 10.796875 66 4.09375 56.296875 4.09375 47.296875 
C 4.09375 43.390625 7 42.890625 8.203125 42.890625 
C 9.203125 42.890625 12.203125 43.484375 12.203125 46.984375 
C 12.203125 50.09375 9.59375 51 8.203125 51 
C 7.59375 51 7 50.890625 6.59375 50.6875 
C 8.5 59.1875 14.296875 63.390625 20.40625 63.390625 
C 29.09375 63.390625 34.796875 56.5 34.796875 47.390625 
C 34.796875 38.703125 29.703125 31.21875 24 24.734375 
L 4.09375 2.296875 
L 4.09375 0 
L 39.296875 0 
z
" id="CMR17-50"/>
       </defs>
       <use transform="scale(0.996264)" xlink:href="#CMSY10-0"/>
       <use transform="translate(77.487468 0)scale(0.996264)" xlink:href="#CMR17-50"/>
      </g>
     </g>
    </g>
    <g id="xtick_4">
     <g id="text_4">
      <!-- $\mathdefault{−1}$ -->
      <g transform="translate(141.83226 347.957001)scale(0.1 -0.1)">
       <defs>
        <path d="M 26.59375 63.796875 
C 26.59375 65.890625 26.5 66 25.09375 66 
C 21.203125 61.359375 15.296875 59.890625 9.703125 59.6875 
C 9.40625 59.6875 8.90625 59.6875 8.796875 59.5 
C 8.703125 59.296875 8.703125 59.09375 8.703125 57 
C 11.796875 57 17 57.59375 21 59.984375 
L 21 7.296875 
C 21 3.796875 20.796875 2.59375 12.203125 2.59375 
L 9.203125 2.59375 
L 9.203125 0 
C 14 0.09375 19 0.1875 23.796875 0.1875 
C 28.59375 0.1875 33.59375 0.09375 38.40625 0 
L 38.40625 2.59375 
L 35.40625 2.59375 
C 26.796875 2.59375 26.59375 3.6875 26.59375 7.296875 
z
" id="CMR17-49"/>
       </defs>
       <use transform="scale(0.996264)" xlink:href="#CMSY10-0"/>
       <use transform="translate(77.487468 0)scale(0.996264)" xlink:href="#CMR17-49"/>
      </g>
     </g>
    </g>
    <g id="xtick_5">
     <g id="text_5">
      <!-- $\mathdefault{0}$ -->
      <g transform="translate(186.129038 347.957001)scale(0.1 -0.1)">
       <defs>
        <path d="M 42 31.84375 
C 42 37.96875 41.90625 48.421875 37.703125 56.453125 
C 34 63.484375 28.09375 66 22.90625 66 
C 18.09375 66 12 63.78125 8.203125 56.5625 
C 4.203125 49.015625 3.796875 39.671875 3.796875 31.84375 
C 3.796875 26.109375 3.90625 17.375 7 9.734375 
C 11.296875 -0.609375 19 -2 22.90625 -2 
C 27.5 -2 34.5 -0.109375 38.59375 9.4375 
C 41.59375 16.375 42 24.5 42 31.84375 
z
M 22.90625 -0.40625 
C 16.5 -0.40625 12.703125 5.125 11.296875 12.75 
C 10.203125 18.6875 10.203125 27.328125 10.203125 32.953125 
C 10.203125 40.6875 10.203125 47.109375 11.5 53.234375 
C 13.40625 61.78125 19 64.390625 22.90625 64.390625 
C 27 64.390625 32.296875 61.671875 34.203125 53.4375 
C 35.5 47.71875 35.59375 40.984375 35.59375 32.953125 
C 35.59375 26.421875 35.59375 18.375 34.40625 12.453125 
C 32.296875 1.5 26.40625 -0.40625 22.90625 -0.40625 
z
" id="CMR17-48"/>
       </defs>
       <use transform="scale(0.996264)" xlink:href="#CMR17-48"/>
      </g>
     </g>
    </g>
    <g id="xtick_6">
     <g id="text_6">
      <!-- $\mathdefault{1}$ -->
      <g transform="translate(226.551445 347.957001)scale(0.1 -0.1)">
       <use transform="scale(0.996264)" xlink:href="#CMR17-49"/>
      </g>
     </g>
    </g>
    <g id="xtick_7">
     <g id="text_7">
      <!-- $\mathdefault{2}$ -->
      <g transform="translate(266.973851 347.957001)scale(0.1 -0.1)">
       <use transform="scale(0.996264)" xlink:href="#CMR17-50"/>
      </g>
     </g>
    </g>
    <g id="xtick_8">
     <g id="text_8">
      <!-- $\mathdefault{3}$ -->
      <g transform="translate(307.396258 347.957001)scale(0.1 -0.1)">
       <use transform="scale(0.996264)" xlink:href="#CMR17-51"/>
      </g>
     </g>
    </g>
    <g id="xtick_9">
     <g id="text_9">
      <!-- $\mathdefault{4}$ -->
      <g transform="translate(347.818665 347.957001)scale(0.1 -0.1)">
       <use transform="scale(0.996264)" xlink:href="#CMR17-52"/>
      </g>
     </g>
    </g>
   </g>
   <g id="matplotlib.axis_2">
    <g id="ytick_1">
     <g id="text_10">
      <!-- $\mathdefault{−4}$ -->
      <g transform="translate(7.2 337.497752)scale(0.1 -0.1)">
       <use transform="scale(0.996264)" xlink:href="#CMSY10-0"/>
       <use transform="translate(77.487468 0)scale(0.996264)" xlink:href="#CMR17-52"/>
      </g>
     </g>
    </g>
    <g id="ytick_2">
     <g id="text_11">
      <!-- $\mathdefault{−3}$ -->
      <g transform="translate(7.2 297.075345)scale(0.1 -0.1)">
       <use transform="scale(0.996264)" xlink:href="#CMSY10-0"/>
       <use transform="translate(77.487468 0)scale(0.996264)" xlink:href="#CMR17-51"/>
      </g>
     </g>
    </g>
    <g id="ytick_3">
     <g id="text_12">
      <!-- $\mathdefault{−2}$ -->
      <g transform="translate(7.2 256.652938)scale(0.1 -0.1)">
       <use transform="scale(0.996264)" xlink:href="#CMSY10-0"/>
       <use transform="translate(77.487468 0)scale(0.996264)" xlink:href="#CMR17-50"/>
      </g>
     </g>
    </g>
    <g id="ytick_4">
     <g id="text_13">
      <!-- $\mathdefault{−1}$ -->
      <g transform="translate(7.2 216.230532)scale(0.1 -0.1)">
       <use transform="scale(0.996264)" xlink:href="#CMSY10-0"/>
       <use transform="translate(77.487468 0)scale(0.996264)" xlink:href="#CMR17-49"/>
      </g>
     </g>
    </g>
    <g id="ytick_5">
     <g id="text_14">
      <!-- $\mathdefault{0}$ -->
      <g transform="translate(14.948744 175.808125)scale(0.1 -0.1)">
       <use transform="scale(0.996264)" xlink:href="#CMR17-48"/>
      </g>
     </g>
    </g>
    <g id="ytick_6">
     <g id="text_15">
      <!-- $\mathdefault{1}$ -->
      <g transform="translate(14.948744 135.385718)scale(0.1 -0.1)">
       <use transform="scale(0.996264)" xlink:href="#CMR17-49"/>
      </g>
     </g>
    </g>
    <g id="ytick_7">
     <g id="text_16">
      <!-- $\mathdefault{2}$ -->
      <g transform="translate(14.948744 94.963312)scale(0.1 -0.1)">
       <use transform="scale(0.996264)" xlink:href="#CMR17-50"/>
      </g>
     </g>
    </g>
    <g id="ytick_8">
     <g id="text_17">
      <!-- $\mathdefault{3}$ -->
      <g transform="translate(14.948744 54.540905)scale(0.1 -0.1)">
       <use transform="scale(0.996264)" xlink:href="#CMR17-51"/>
      </g>
     </g>
    </g>
    <g id="ytick_9">
     <g id="text_18">
      <!-- $\mathdefault{4}$ -->
      <g transform="translate(14.948744 14.118498)scale(0.1 -0.1)">
       <use transform="scale(0.996264)" xlink:href="#CMR17-52"/>
      </g>
     </g>
    </g>
   </g>
   <g id="patch_15">
    <path d="M 26.930079 334.038503 
L 26.930079 10.659249 
" style="fill:none;stroke:#000000;stroke-linecap:square;stroke-linejoin:miter;stroke-width:0.8;"/>
   </g>
   <g id="patch_16">
    <path d="M 350.309332 334.038503 
L 350.309332 10.659249 
" style="fill:none;stroke:#000000;stroke-linecap:square;stroke-linejoin:miter;stroke-width:0.8;"/>
   </g>
   <g id="patch_17">
    <path d="M 26.930079 334.038503 
L 350.309332 334.038503 
" style="fill:none;stroke:#000000;stroke-linecap:square;stroke-linejoin:miter;stroke-width:0.8;"/>
   </g>
   <g id="patch_18">
    <path d="M 26.930079 10.659249 
L 350.309332 10.659249 
" style="fill:none;stroke:#000000;stroke-linecap:square;stroke-linejoin:miter;stroke-width:0.8;"/>
   </g>
  </g>
  <g id="axes_2">
   <g id="patch_19">
    <path d="M 383.330079 334.038503 
L 706.709332 334.038503 
L 706.709332 10.659249 
L 383.330079 10.659249 
z
" style="fill:#ffffff;"/>
   </g>
   <g id="patch_20">
    <path clip-path="url(#p79ce46e337)" d="M 524.808502 209.062458 
C 534.594614 209.062458 543.981228 207.323663 550.901054 204.229023 
C 557.82088 201.134383 561.708943 196.936561 561.708943 192.560079 
C 561.708943 188.183597 557.82088 183.985775 550.901054 180.891135 
C 543.981228 177.796495 534.594614 176.0577 524.808502 176.0577 
C 515.022391 176.0577 505.635776 177.796495 498.715951 180.891135 
C 491.796125 183.985775 487.908062 188.183597 487.908062 192.560079 
C 487.908062 196.936561 491.796125 201.134383 498.715951 204.229023 
C 505.635776 207.323663 515.022391 209.062458 524.808502 209.062458 
z
" style="fill:#ff00ff;opacity:0.2;"/>
   </g>
   <g id="patch_21">
    <path clip-path="url(#p79ce46e337)" d="M 524.808502 225.564837 
C 544.380725 225.564837 563.153955 222.087248 576.993606 215.897967 
C 590.833257 209.708687 598.609383 201.313043 598.609383 192.560079 
C 598.609383 183.807115 590.833257 175.411471 576.993606 169.222191 
C 563.153955 163.032911 544.380725 159.555321 524.808502 159.555321 
C 505.23628 159.555321 486.46305 163.032911 472.623399 169.222191 
C 458.783748 175.411471 451.007621 183.807115 451.007621 192.560079 
C 451.007621 201.313043 458.783748 209.708687 472.623399 215.897967 
C 486.46305 222.087248 505.23628 225.564837 524.808502 225.564837 
z
" style="fill:#ff00ff;opacity:0.2;"/>
   </g>
   <g id="patch_22">
    <path clip-path="url(#p79ce46e337)" d="M 524.808502 242.067216 
C 554.166836 242.067216 582.326681 236.850832 603.086158 227.566912 
C 623.845634 218.282991 635.509824 205.689525 635.509824 192.560079 
C 635.509824 179.430633 623.845634 166.837167 603.086158 157.553247 
C 582.326681 148.269326 554.166836 143.052942 524.808502 143.052942 
C 495.450169 143.052942 467.290324 148.269326 446.530847 157.553247 
C 425.77137 166.837167 414.107181 179.430633 414.107181 192.560079 
C 414.107181 205.689525 425.77137 218.282991 446.530847 227.566912 
C 467.290324 236.850832 495.450169 242.067216 524.808502 242.067216 
z
" style="fill:#ff00ff;opacity:0.2;"/>
   </g>
   <g id="patch_23">
    <path clip-path="url(#p79ce46e337)" d="M 588.568796 152.137673 
C 588.568796 143.384708 586.109769 134.989065 581.733287 128.799784 
C 577.356805 122.610504 571.420189 119.132915 565.230909 119.132915 
C 559.041629 119.132915 553.105013 122.610504 548.728531 128.799784 
C 544.352049 134.989065 541.893022 143.384708 541.893022 152.137673 
C 541.893022 160.890637 544.352049 169.28628 548.728531 175.475561 
C 553.105013 181.664841 559.041629 185.142431 565.230909 185.142431 
C 571.420189 185.142431 577.356805 181.664841 581.733287 175.475561 
C 586.109769 169.28628 588.568796 160.890637 588.568796 152.137673 
z
" style="fill:#40e0d0;opacity:0.2;"/>
   </g>
   <g id="patch_24">
    <path clip-path="url(#p79ce46e337)" d="M 611.906683 152.137673 
C 611.906683 134.631744 606.988629 117.840457 598.235665 105.461896 
C 589.482702 93.083335 577.609469 86.128156 565.230909 86.128156 
C 552.852349 86.128156 540.979116 93.083335 532.226153 105.461896 
C 523.473189 117.840457 518.555135 134.631744 518.555135 152.137673 
C 518.555135 169.643601 523.473189 186.434888 532.226153 198.813449 
C 540.979116 211.19201 552.852349 218.147189 565.230909 218.147189 
C 577.609469 218.147189 589.482702 211.19201 598.235665 198.813449 
C 606.988629 186.434888 611.906683 169.643601 611.906683 152.137673 
z
" style="fill:#40e0d0;opacity:0.2;"/>
   </g>
   <g id="patch_25">
    <path clip-path="url(#p79ce46e337)" d="M 635.24457 152.137673 
C 635.24457 125.87878 627.867489 100.691849 614.738043 82.124008 
C 601.608598 63.556167 583.798749 53.123398 565.230909 53.123398 
C 546.663069 53.123398 528.85322 63.556167 515.723775 82.124008 
C 502.594329 100.691849 495.217248 125.87878 495.217248 152.137673 
C 495.217248 178.396565 502.594329 203.583496 515.723775 222.151337 
C 528.85322 240.719178 546.663069 251.151947 565.230909 251.151947 
C 583.798749 251.151947 601.608598 240.719178 614.738043 222.151337 
C 627.867489 203.583496 635.24457 178.396565 635.24457 152.137673 
z
" style="fill:#40e0d0;opacity:0.2;"/>
   </g>
   <g id="patch_26">
    <path clip-path="url(#p79ce46e337)" d="M 588.568796 152.137673 
C 588.568796 143.384708 586.109769 134.989065 581.733287 128.799784 
C 577.356805 122.610504 571.420189 119.132915 565.230909 119.132915 
C 559.041629 119.132915 553.105013 122.610504 548.728531 128.799784 
C 544.352049 134.989065 541.893022 143.384708 541.893022 152.137673 
C 541.893022 160.890637 544.352049 169.28628 548.728531 175.475561 
C 553.105013 181.664841 559.041629 185.142431 565.230909 185.142431 
C 571.420189 185.142431 577.356805 181.664841 581.733287 175.475561 
C 586.109769 169.28628 588.568796 160.890637 588.568796 152.137673 
z
" style="fill:#40e0d0;opacity:0.1;"/>
   </g>
   <g id="patch_27">
    <path clip-path="url(#p79ce46e337)" d="M 611.906683 152.137673 
C 611.906683 134.631744 606.988629 117.840457 598.235665 105.461896 
C 589.482702 93.083335 577.609469 86.128156 565.230909 86.128156 
C 552.852349 86.128156 540.979116 93.083335 532.226153 105.461896 
C 523.473189 117.840457 518.555135 134.631744 518.555135 152.137673 
C 518.555135 169.643601 523.473189 186.434888 532.226153 198.813449 
C 540.979116 211.19201 552.852349 218.147189 565.230909 218.147189 
C 577.609469 218.147189 589.482702 211.19201 598.235665 198.813449 
C 606.988629 186.434888 611.906683 169.643601 611.906683 152.137673 
z
" style="fill:#40e0d0;opacity:0.1;"/>
   </g>
   <g id="patch_28">
    <path clip-path="url(#p79ce46e337)" d="M 635.24457 152.137673 
C 635.24457 125.87878 627.867489 100.691849 614.738043 82.124008 
C 601.608598 63.556167 583.798749 53.123398 565.230909 53.123398 
C 546.663069 53.123398 528.85322 63.556167 515.723775 82.124008 
C 502.594329 100.691849 495.217248 125.87878 495.217248 152.137673 
C 495.217248 178.396565 502.594329 203.583496 515.723775 222.151337 
C 528.85322 240.719178 546.663069 251.151947 565.230909 251.151947 
C 583.798749 251.151947 601.608598 240.719178 614.738043 222.151337 
C 627.867489 203.583496 635.24457 178.396565 635.24457 152.137673 
z
" style="fill:#40e0d0;opacity:0.1;"/>
   </g>
   <g id="patch_29">
    <path clip-path="url(#p79ce46e337)" d="M 524.808502 209.062458 
C 534.594614 209.062458 543.981228 207.323663 550.901054 204.229023 
C 557.82088 201.134383 561.708943 196.936561 561.708943 192.560079 
C 561.708943 188.183597 557.82088 183.985775 550.901054 180.891135 
C 543.981228 177.796495 534.594614 176.0577 524.808502 176.0577 
C 515.022391 176.0577 505.635776 177.796495 498.715951 180.891135 
C 491.796125 183.985775 487.908062 188.183597 487.908062 192.560079 
C 487.908062 196.936561 491.796125 201.134383 498.715951 204.229023 
C 505.635776 207.323663 515.022391 209.062458 524.808502 209.062458 
z
" style="fill:#ff00ff;opacity:0.1;"/>
   </g>
   <g id="patch_30">
    <path clip-path="url(#p79ce46e337)" d="M 524.808502 225.564837 
C 544.380725 225.564837 563.153955 222.087248 576.993606 215.897967 
C 590.833257 209.708687 598.609383 201.313043 598.609383 192.560079 
C 598.609383 183.807115 590.833257 175.411471 576.993606 169.222191 
C 563.153955 163.032911 544.380725 159.555321 524.808502 159.555321 
C 505.23628 159.555321 486.46305 163.032911 472.623399 169.222191 
C 458.783748 175.411471 451.007621 183.807115 451.007621 192.560079 
C 451.007621 201.313043 458.783748 209.708687 472.623399 215.897967 
C 486.46305 222.087248 505.23628 225.564837 524.808502 225.564837 
z
" style="fill:#ff00ff;opacity:0.1;"/>
   </g>
   <g id="patch_31">
    <path clip-path="url(#p79ce46e337)" d="M 524.808502 242.067216 
C 554.166836 242.067216 582.326681 236.850832 603.086158 227.566912 
C 623.845634 218.282991 635.509824 205.689525 635.509824 192.560079 
C 635.509824 179.430633 623.845634 166.837167 603.086158 157.553247 
C 582.326681 148.269326 554.166836 143.052942 524.808502 143.052942 
C 495.450169 143.052942 467.290324 148.269326 446.530847 157.553247 
C 425.77137 166.837167 414.107181 179.430633 414.107181 192.560079 
C 414.107181 205.689525 425.77137 218.282991 446.530847 227.566912 
C 467.290324 236.850832 495.450169 242.067216 524.808502 242.067216 
z
" style="fill:#ff00ff;opacity:0.1;"/>
   </g>
   <g id="matplotlib.axis_3">
    <g id="xtick_10">
     <g id="text_19">
      <!-- $\mathdefault{−4}$ -->
      <g transform="translate(376.965039 347.957001)scale(0.1 -0.1)">
       <use transform="scale(0.996264)" xlink:href="#CMSY10-0"/>
       <use transform="translate(77.487468 0)scale(0.996264)" xlink:href="#CMR17-52"/>
      </g>
     </g>
    </g>
    <g id="xtick_11">
     <g id="text_20">
      <!-- $\mathdefault{−3}$ -->
      <g transform="translate(417.387446 347.957001)scale(0.1 -0.1)">
       <use transform="scale(0.996264)" xlink:href="#CMSY10-0"/>
       <use transform="translate(77.487468 0)scale(0.996264)" xlink:href="#CMR17-51"/>
      </g>
     </g>
    </g>
    <g id="xtick_12">
     <g id="text_21">
      <!-- $\mathdefault{−2}$ -->
      <g transform="translate(457.809853 347.957001)scale(0.1 -0.1)">
       <use transform="scale(0.996264)" xlink:href="#CMSY10-0"/>
       <use transform="translate(77.487468 0)scale(0.996264)" xlink:href="#CMR17-50"/>
      </g>
     </g>
    </g>
    <g id="xtick_13">
     <g id="text_22">
      <!-- $\mathdefault{−1}$ -->
      <g transform="translate(498.23226 347.957001)scale(0.1 -0.1)">
       <use transform="scale(0.996264)" xlink:href="#CMSY10-0"/>
       <use transform="translate(77.487468 0)scale(0.996264)" xlink:href="#CMR17-49"/>
      </g>
     </g>
    </g>
    <g id="xtick_14">
     <g id="text_23">
      <!-- $\mathdefault{0}$ -->
      <g transform="translate(542.529038 347.957001)scale(0.1 -0.1)">
       <use transform="scale(0.996264)" xlink:href="#CMR17-48"/>
      </g>
     </g>
    </g>
    <g id="xtick_15">
     <g id="text_24">
      <!-- $\mathdefault{1}$ -->
      <g transform="translate(582.951445 347.957001)scale(0.1 -0.1)">
       <use transform="scale(0.996264)" xlink:href="#CMR17-49"/>
      </g>
     </g>
    </g>
    <g id="xtick_16">
     <g id="text_25">
      <!-- $\mathdefault{2}$ -->
      <g transform="translate(623.373851 347.957001)scale(0.1 -0.1)">
       <use transform="scale(0.996264)" xlink:href="#CMR17-50"/>
      </g>
     </g>
    </g>
    <g id="xtick_17">
     <g id="text_26">
      <!-- $\mathdefault{3}$ -->
      <g transform="translate(663.796258 347.957001)scale(0.1 -0.1)">
       <use transform="scale(0.996264)" xlink:href="#CMR17-51"/>
      </g>
     </g>
    </g>
    <g id="xtick_18">
     <g id="text_27">
      <!-- $\mathdefault{4}$ -->
      <g transform="translate(704.218665 347.957001)scale(0.1 -0.1)">
       <use transform="scale(0.996264)" xlink:href="#CMR17-52"/>
      </g>
     </g>
    </g>
   </g>
   <g id="matplotlib.axis_4">
    <g id="ytick_10">
     <g id="text_28">
      <!-- $\mathdefault{−4}$ -->
      <g transform="translate(363.6 337.497752)scale(0.1 -0.1)">
       <use transform="scale(0.996264)" xlink:href="#CMSY10-0"/>
       <use transform="translate(77.487468 0)scale(0.996264)" xlink:href="#CMR17-52"/>
      </g>
     </g>
    </g>
    <g id="ytick_11">
     <g id="text_29">
      <!-- $\mathdefault{−3}$ -->
      <g transform="translate(363.6 297.075345)scale(0.1 -0.1)">
       <use transform="scale(0.996264)" xlink:href="#CMSY10-0"/>
       <use transform="translate(77.487468 0)scale(0.996264)" xlink:href="#CMR17-51"/>
      </g>
     </g>
    </g>
    <g id="ytick_12">
     <g id="text_30">
      <!-- $\mathdefault{−2}$ -->
      <g transform="translate(363.6 256.652938)scale(0.1 -0.1)">
       <use transform="scale(0.996264)" xlink:href="#CMSY10-0"/>
       <use transform="translate(77.487468 0)scale(0.996264)" xlink:href="#CMR17-50"/>
      </g>
     </g>
    </g>
    <g id="ytick_13">
     <g id="text_31">
      <!-- $\mathdefault{−1}$ -->
      <g transform="translate(363.6 216.230532)scale(0.1 -0.1)">
       <use transform="scale(0.996264)" xlink:href="#CMSY10-0"/>
       <use transform="translate(77.487468 0)scale(0.996264)" xlink:href="#CMR17-49"/>
      </g>
     </g>
    </g>
    <g id="ytick_14">
     <g id="text_32">
      <!-- $\mathdefault{0}$ -->
      <g transform="translate(371.348744 175.808125)scale(0.1 -0.1)">
       <use transform="scale(0.996264)" xlink:href="#CMR17-48"/>
      </g>
     </g>
    </g>
    <g id="ytick_15">
     <g id="text_33">
      <!-- $\mathdefault{1}$ -->
      <g transform="translate(371.348744 135.385718)scale(0.1 -0.1)">
       <use transform="scale(0.996264)" xlink:href="#CMR17-49"/>
      </g>
     </g>
    </g>
    <g id="ytick_16">
     <g id="text_34">
      <!-- $\mathdefault{2}$ -->
      <g transform="translate(371.348744 94.963312)scale(0.1 -0.1)">
       <use transform="scale(0.996264)" xlink:href="#CMR17-50"/>
      </g>
     </g>
    </g>
    <g id="ytick_17">
     <g id="text_35">
      <!-- $\mathdefault{3}$ -->
      <g transform="translate(371.348744 54.540905)scale(0.1 -0.1)">
       <use transform="scale(0.996264)" xlink:href="#CMR17-51"/>
      </g>
     </g>
    </g>
    <g id="ytick_18">
     <g id="text_36">
      <!-- $\mathdefault{4}$ -->
      <g transform="translate(371.348744 14.118498)scale(0.1 -0.1)">
       <use transform="scale(0.996264)" xlink:href="#CMR17-52"/>
      </g>
     </g>
    </g>
   </g>
   <g id="patch_32">
    <path d="M 383.330079 334.038503 
L 383.330079 10.659249 
" style="fill:none;stroke:#000000;stroke-linecap:square;stroke-linejoin:miter;stroke-width:0.8;"/>
   </g>
   <g id="patch_33">
    <path d="M 706.709332 334.038503 
L 706.709332 10.659249 
" style="fill:none;stroke:#000000;stroke-linecap:square;stroke-linejoin:miter;stroke-width:0.8;"/>
   </g>
   <g id="patch_34">
    <path d="M 383.330079 334.038503 
L 706.709332 334.038503 
" style="fill:none;stroke:#000000;stroke-linecap:square;stroke-linejoin:miter;stroke-width:0.8;"/>
   </g>
   <g id="patch_35">
    <path d="M 383.330079 10.659249 
L 706.709332 10.659249 
" style="fill:none;stroke:#000000;stroke-linecap:square;stroke-linejoin:miter;stroke-width:0.8;"/>
   </g>
  </g>
  <g id="axes_3">
   <g id="patch_36">
    <path d="M 739.730079 334.038503 
L 1063.109332 334.038503 
L 1063.109332 10.659249 
L 739.730079 10.659249 
z
" style="fill:#ffffff;"/>
   </g>
   <g id="patch_37">
    <path clip-path="url(#pebb9ef44dd)" d="M 881.208502 221.143037 
C 888.788791 221.143037 896.059632 218.131356 901.419705 212.771282 
C 906.779779 207.411209 909.79146 200.140368 909.79146 192.560079 
C 909.79146 184.97979 906.779779 177.70895 901.419705 172.348876 
C 896.059632 166.988803 888.788791 163.977122 881.208502 163.977122 
C 873.628213 163.977122 866.357373 166.988803 860.997299 172.348876 
C 855.637226 177.70895 852.625545 184.97979 852.625545 192.560079 
C 852.625545 200.140368 855.637226 207.411209 860.997299 212.771282 
C 866.357373 218.131356 873.628213 221.143037 881.208502 221.143037 
z
" style="fill:#ff00ff;opacity:0.2;"/>
   </g>
   <g id="patch_38">
    <path clip-path="url(#pebb9ef44dd)" d="M 881.208502 249.725994 
C 896.36908 249.725994 910.910761 243.702633 921.630908 232.982485 
C 932.351056 222.262338 938.374417 207.720657 938.374417 192.560079 
C 938.374417 177.399501 932.351056 162.857821 921.630908 152.137673 
C 910.910761 141.417526 896.36908 135.394164 881.208502 135.394164 
C 866.047925 135.394164 851.506244 141.417526 840.786096 152.137673 
C 830.065949 162.857821 824.042588 177.399501 824.042588 192.560079 
C 824.042588 207.720657 830.065949 222.262338 840.786096 232.982485 
C 851.506244 243.702633 866.047925 249.725994 881.208502 249.725994 
z
" style="fill:#ff00ff;opacity:0.2;"/>
   </g>
   <g id="patch_39">
    <path clip-path="url(#pebb9ef44dd)" d="M 881.208502 278.308951 
C 903.949369 278.308951 925.76189 269.273909 941.842111 253.193688 
C 957.922332 237.113467 966.957374 215.300946 966.957374 192.560079 
C 966.957374 169.819213 957.922332 148.006691 941.842111 131.92647 
C 925.76189 115.846249 903.949369 106.811207 881.208502 106.811207 
C 858.467636 106.811207 836.655114 115.846249 820.574893 131.92647 
C 804.494672 148.006691 795.45963 169.819213 795.45963 192.560079 
C 795.45963 215.300946 804.494672 237.113467 820.574893 253.193688 
C 836.655114 269.273909 858.467636 278.308951 881.208502 278.308951 
z
" style="fill:#ff00ff;opacity:0.2;"/>
   </g>
   <g id="patch_40">
    <path clip-path="url(#pebb9ef44dd)" d="M 921.630909 180.72063 
C 929.211198 180.72063 936.482038 177.708949 941.842112 172.348876 
C 947.202186 166.988802 950.213866 159.717961 950.213866 152.137673 
C 950.213866 144.557384 947.202186 137.286543 941.842112 131.92647 
C 936.482038 126.566396 929.211198 123.554715 921.630909 123.554715 
C 914.05062 123.554715 906.77978 126.566396 901.419706 131.92647 
C 896.059632 137.286543 893.047952 144.557384 893.047952 152.137673 
C 893.047952 159.717961 896.059632 166.988802 901.419706 172.348876 
C 906.77978 177.708949 914.05062 180.72063 921.630909 180.72063 
z
" style="fill:#40e0d0;opacity:0.2;"/>
   </g>
   <g id="patch_41">
    <path clip-path="url(#pebb9ef44dd)" d="M 921.630909 209.303587 
C 936.791487 209.303587 951.333168 203.280226 962.053315 192.560079 
C 972.773462 181.839931 978.796824 167.29825 978.796824 152.137673 
C 978.796824 136.977095 972.773462 122.435414 962.053315 111.715267 
C 951.333168 100.995119 936.791487 94.971758 921.630909 94.971758 
C 906.470331 94.971758 891.92865 100.995119 881.208503 111.715267 
C 870.488356 122.435414 864.464994 136.977095 864.464994 152.137673 
C 864.464994 167.29825 870.488356 181.839931 881.208503 192.560079 
C 891.92865 203.280226 906.470331 209.303587 921.630909 209.303587 
z
" style="fill:#40e0d0;opacity:0.2;"/>
   </g>
   <g id="patch_42">
    <path clip-path="url(#pebb9ef44dd)" d="M 921.630909 237.886545 
C 944.371776 237.886545 966.184297 228.851503 982.264518 212.771282 
C 998.344739 196.69106 1007.379781 174.878539 1007.379781 152.137673 
C 1007.379781 129.396806 998.344739 107.584285 982.264518 91.504064 
C 966.184297 75.423843 944.371776 66.3888 921.630909 66.3888 
C 898.890042 66.3888 877.077521 75.423843 860.9973 91.504064 
C 844.917079 107.584285 835.882037 129.396806 835.882037 152.137673 
C 835.882037 174.878539 844.917079 196.69106 860.9973 212.771282 
C 877.077521 228.851503 898.890042 237.886545 921.630909 237.886545 
z
" style="fill:#40e0d0;opacity:0.2;"/>
   </g>
   <g id="patch_43">
    <path clip-path="url(#pebb9ef44dd)" d="M 921.630909 180.72063 
C 929.211198 180.72063 936.482038 177.708949 941.842112 172.348876 
C 947.202186 166.988802 950.213866 159.717961 950.213866 152.137673 
C 950.213866 144.557384 947.202186 137.286543 941.842112 131.92647 
C 936.482038 126.566396 929.211198 123.554715 921.630909 123.554715 
C 914.05062 123.554715 906.77978 126.566396 901.419706 131.92647 
C 896.059632 137.286543 893.047952 144.557384 893.047952 152.137673 
C 893.047952 159.717961 896.059632 166.988802 901.419706 172.348876 
C 906.77978 177.708949 914.05062 180.72063 921.630909 180.72063 
z
" style="fill:#40e0d0;opacity:0.1;"/>
   </g>
   <g id="patch_44">
    <path clip-path="url(#pebb9ef44dd)" d="M 921.630909 209.303587 
C 936.791487 209.303587 951.333168 203.280226 962.053315 192.560079 
C 972.773462 181.839931 978.796824 167.29825 978.796824 152.137673 
C 978.796824 136.977095 972.773462 122.435414 962.053315 111.715267 
C 951.333168 100.995119 936.791487 94.971758 921.630909 94.971758 
C 906.470331 94.971758 891.92865 100.995119 881.208503 111.715267 
C 870.488356 122.435414 864.464994 136.977095 864.464994 152.137673 
C 864.464994 167.29825 870.488356 181.839931 881.208503 192.560079 
C 891.92865 203.280226 906.470331 209.303587 921.630909 209.303587 
z
" style="fill:#40e0d0;opacity:0.1;"/>
   </g>
   <g id="patch_45">
    <path clip-path="url(#pebb9ef44dd)" d="M 921.630909 237.886545 
C 944.371776 237.886545 966.184297 228.851503 982.264518 212.771282 
C 998.344739 196.69106 1007.379781 174.878539 1007.379781 152.137673 
C 1007.379781 129.396806 998.344739 107.584285 982.264518 91.504064 
C 966.184297 75.423843 944.371776 66.3888 921.630909 66.3888 
C 898.890042 66.3888 877.077521 75.423843 860.9973 91.504064 
C 844.917079 107.584285 835.882037 129.396806 835.882037 152.137673 
C 835.882037 174.878539 844.917079 196.69106 860.9973 212.771282 
C 877.077521 228.851503 898.890042 237.886545 921.630909 237.886545 
z
" style="fill:#40e0d0;opacity:0.1;"/>
   </g>
   <g id="patch_46">
    <path clip-path="url(#pebb9ef44dd)" d="M 881.208502 221.143037 
C 888.788791 221.143037 896.059632 218.131356 901.419705 212.771282 
C 906.779779 207.411209 909.79146 200.140368 909.79146 192.560079 
C 909.79146 184.97979 906.779779 177.70895 901.419705 172.348876 
C 896.059632 166.988803 888.788791 163.977122 881.208502 163.977122 
C 873.628213 163.977122 866.357373 166.988803 860.997299 172.348876 
C 855.637226 177.70895 852.625545 184.97979 852.625545 192.560079 
C 852.625545 200.140368 855.637226 207.411209 860.997299 212.771282 
C 866.357373 218.131356 873.628213 221.143037 881.208502 221.143037 
z
" style="fill:#ff00ff;opacity:0.1;"/>
   </g>
   <g id="patch_47">
    <path clip-path="url(#pebb9ef44dd)" d="M 881.208502 249.725994 
C 896.36908 249.725994 910.910761 243.702633 921.630908 232.982485 
C 932.351056 222.262338 938.374417 207.720657 938.374417 192.560079 
C 938.374417 177.399501 932.351056 162.857821 921.630908 152.137673 
C 910.910761 141.417526 896.36908 135.394164 881.208502 135.394164 
C 866.047925 135.394164 851.506244 141.417526 840.786096 152.137673 
C 830.065949 162.857821 824.042588 177.399501 824.042588 192.560079 
C 824.042588 207.720657 830.065949 222.262338 840.786096 232.982485 
C 851.506244 243.702633 866.047925 249.725994 881.208502 249.725994 
z
" style="fill:#ff00ff;opacity:0.1;"/>
   </g>
   <g id="patch_48">
    <path clip-path="url(#pebb9ef44dd)" d="M 881.208502 278.308951 
C 903.949369 278.308951 925.76189 269.273909 941.842111 253.193688 
C 957.922332 237.113467 966.957374 215.300946 966.957374 192.560079 
C 966.957374 169.819213 957.922332 148.006691 941.842111 131.92647 
C 925.76189 115.846249 903.949369 106.811207 881.208502 106.811207 
C 858.467636 106.811207 836.655114 115.846249 820.574893 131.92647 
C 804.494672 148.006691 795.45963 169.819213 795.45963 192.560079 
C 795.45963 215.300946 804.494672 237.113467 820.574893 253.193688 
C 836.655114 269.273909 858.467636 278.308951 881.208502 278.308951 
z
" style="fill:#ff00ff;opacity:0.1;"/>
   </g>
   <g id="matplotlib.axis_5">
    <g id="xtick_19">
     <g id="text_37">
      <!-- $\mathdefault{−4}$ -->
      <g transform="translate(733.365039 347.957001)scale(0.1 -0.1)">
       <use transform="scale(0.996264)" xlink:href="#CMSY10-0"/>
       <use transform="translate(77.487468 0)scale(0.996264)" xlink:href="#CMR17-52"/>
      </g>
     </g>
    </g>
    <g id="xtick_20">
     <g id="text_38">
      <!-- $\mathdefault{−3}$ -->
      <g transform="translate(773.787446 347.957001)scale(0.1 -0.1)">
       <use transform="scale(0.996264)" xlink:href="#CMSY10-0"/>
       <use transform="translate(77.487468 0)scale(0.996264)" xlink:href="#CMR17-51"/>
      </g>
     </g>
    </g>
    <g id="xtick_21">
     <g id="text_39">
      <!-- $\mathdefault{−2}$ -->
      <g transform="translate(814.209853 347.957001)scale(0.1 -0.1)">
       <use transform="scale(0.996264)" xlink:href="#CMSY10-0"/>
       <use transform="translate(77.487468 0)scale(0.996264)" xlink:href="#CMR17-50"/>
      </g>
     </g>
    </g>
    <g id="xtick_22">
     <g id="text_40">
      <!-- $\mathdefault{−1}$ -->
      <g transform="translate(854.63226 347.957001)scale(0.1 -0.1)">
       <use transform="scale(0.996264)" xlink:href="#CMSY10-0"/>
       <use transform="translate(77.487468 0)scale(0.996264)" xlink:href="#CMR17-49"/>
      </g>
     </g>
    </g>
    <g id="xtick_23">
     <g id="text_41">
      <!-- $\mathdefault{0}$ -->
      <g transform="translate(898.929038 347.957001)scale(0.1 -0.1)">
       <use transform="scale(0.996264)" xlink:href="#CMR17-48"/>
      </g>
     </g>
    </g>
    <g id="xtick_24">
     <g id="text_42">
      <!-- $\mathdefault{1}$ -->
      <g transform="translate(939.351445 347.957001)scale(0.1 -0.1)">
       <use transform="scale(0.996264)" xlink:href="#CMR17-49"/>
      </g>
     </g>
    </g>
    <g id="xtick_25">
     <g id="text_43">
      <!-- $\mathdefault{2}$ -->
      <g transform="translate(979.773851 347.957001)scale(0.1 -0.1)">
       <use transform="scale(0.996264)" xlink:href="#CMR17-50"/>
      </g>
     </g>
    </g>
    <g id="xtick_26">
     <g id="text_44">
      <!-- $\mathdefault{3}$ -->
      <g transform="translate(1020.196258 347.957001)scale(0.1 -0.1)">
       <use transform="scale(0.996264)" xlink:href="#CMR17-51"/>
      </g>
     </g>
    </g>
    <g id="xtick_27">
     <g id="text_45">
      <!-- $\mathdefault{4}$ -->
      <g transform="translate(1060.618665 347.957001)scale(0.1 -0.1)">
       <use transform="scale(0.996264)" xlink:href="#CMR17-52"/>
      </g>
     </g>
    </g>
   </g>
   <g id="matplotlib.axis_6">
    <g id="ytick_19">
     <g id="text_46">
      <!-- $\mathdefault{−4}$ -->
      <g transform="translate(720 337.497752)scale(0.1 -0.1)">
       <use transform="scale(0.996264)" xlink:href="#CMSY10-0"/>
       <use transform="translate(77.487468 0)scale(0.996264)" xlink:href="#CMR17-52"/>
      </g>
     </g>
    </g>
    <g id="ytick_20">
     <g id="text_47">
      <!-- $\mathdefault{−3}$ -->
      <g transform="translate(720 297.075345)scale(0.1 -0.1)">
       <use transform="scale(0.996264)" xlink:href="#CMSY10-0"/>
       <use transform="translate(77.487468 0)scale(0.996264)" xlink:href="#CMR17-51"/>
      </g>
     </g>
    </g>
    <g id="ytick_21">
     <g id="text_48">
      <!-- $\mathdefault{−2}$ -->
      <g transform="translate(720 256.652938)scale(0.1 -0.1)">
       <use transform="scale(0.996264)" xlink:href="#CMSY10-0"/>
       <use transform="translate(77.487468 0)scale(0.996264)" xlink:href="#CMR17-50"/>
      </g>
     </g>
    </g>
    <g id="ytick_22">
     <g id="text_49">
      <!-- $\mathdefault{−1}$ -->
      <g transform="translate(720 216.230532)scale(0.1 -0.1)">
       <use transform="scale(0.996264)" xlink:href="#CMSY10-0"/>
       <use transform="translate(77.487468 0)scale(0.996264)" xlink:href="#CMR17-49"/>
      </g>
     </g>
    </g>
    <g id="ytick_23">
     <g id="text_50">
      <!-- $\mathdefault{0}$ -->
      <g transform="translate(727.748744 175.808125)scale(0.1 -0.1)">
       <use transform="scale(0.996264)" xlink:href="#CMR17-48"/>
      </g>
     </g>
    </g>
    <g id="ytick_24">
     <g id="text_51">
      <!-- $\mathdefault{1}$ -->
      <g transform="translate(727.748744 135.385718)scale(0.1 -0.1)">
       <use transform="scale(0.996264)" xlink:href="#CMR17-49"/>
      </g>
     </g>
    </g>
    <g id="ytick_25">
     <g id="text_52">
      <!-- $\mathdefault{2}$ -->
      <g transform="translate(727.748744 94.963312)scale(0.1 -0.1)">
       <use transform="scale(0.996264)" xlink:href="#CMR17-50"/>
      </g>
     </g>
    </g>
    <g id="ytick_26">
     <g id="text_53">
      <!-- $\mathdefault{3}$ -->
      <g transform="translate(727.748744 54.540905)scale(0.1 -0.1)">
       <use transform="scale(0.996264)" xlink:href="#CMR17-51"/>
      </g>
     </g>
    </g>
    <g id="ytick_27">
     <g id="text_54">
      <!-- $\mathdefault{4}$ -->
      <g transform="translate(727.748744 14.118498)scale(0.1 -0.1)">
       <use transform="scale(0.996264)" xlink:href="#CMR17-52"/>
      </g>
     </g>
    </g>
   </g>
   <g id="patch_49">
    <path d="M 739.730079 334.038503 
L 739.730079 10.659249 
" style="fill:none;stroke:#000000;stroke-linecap:square;stroke-linejoin:miter;stroke-width:0.8;"/>
   </g>
   <g id="patch_50">
    <path d="M 1063.109332 334.038503 
L 1063.109332 10.659249 
" style="fill:none;stroke:#000000;stroke-linecap:square;stroke-linejoin:miter;stroke-width:0.8;"/>
   </g>
   <g id="patch_51">
    <path d="M 739.730079 334.038503 
L 1063.109332 334.038503 
" style="fill:none;stroke:#000000;stroke-linecap:square;stroke-linejoin:miter;stroke-width:0.8;"/>
   </g>
   <g id="patch_52">
    <path d="M 739.730079 10.659249 
L 1063.109332 10.659249 
" style="fill:none;stroke:#000000;stroke-linecap:square;stroke-linejoin:miter;stroke-width:0.8;"/>
   </g>
  </g>
 </g>
 <defs>
  <clipPath id="p839d428139">
   <rect height="323.379253" width="323.379253" x="26.930079" y="10.659249"/>
  </clipPath>
  <clipPath id="p79ce46e337">
   <rect height="323.379253" width="323.379253" x="383.330079" y="10.659249"/>
  </clipPath>
  <clipPath id="pebb9ef44dd">
   <rect height="323.379253" width="323.379253" x="739.730079" y="10.659249"/>
  </clipPath>
 </defs>
</svg>
