<?xml version="1.0" encoding="utf-8" standalone="no"?>
<!DOCTYPE svg PUBLIC "-//W3C//DTD SVG 1.1//EN"
  "http://www.w3.org/Graphics/SVG/1.1/DTD/svg11.dtd">
<!-- Created with matplotlib (https://matplotlib.org/) -->
<svg height="266.990683pt" version="1.1" viewBox="0 0 432 266.990683" width="432pt" xmlns="http://www.w3.org/2000/svg" xmlns:xlink="http://www.w3.org/1999/xlink">
 <defs>
  <style type="text/css">
*{stroke-linecap:butt;stroke-linejoin:round;}
  </style>
 </defs>
 <g id="figure_1">
  <g id="patch_1">
   <path d="M 0 266.990683 
L 432 266.990683 
L 432 0 
L 0 0 
z
" style="fill:#ffffff;"/>
  </g>
  <g id="axes_1">
   <g id="patch_2">
    <path d="M 40.12 239.110683 
L 421.2 239.110683 
L 421.2 10.8 
L 40.12 10.8 
z
" style="fill:#ffffff;"/>
   </g>
   <g id="matplotlib.axis_1">
    <g id="xtick_1">
     <g id="line2d_1">
      <defs>
       <path d="M 0 0 
L 0 3.5 
" id="m7bd8606c2c" style="stroke:#000000;stroke-width:0.8;"/>
      </defs>
      <g>
       <use style="stroke:#000000;stroke-width:0.8;" x="57.441818" xlink:href="#m7bd8606c2c" y="239.110683"/>
      </g>
     </g>
     <g id="text_1">
      <!-- −2 -->
      <defs>
       <path d="M 10.59375 35.5 
L 73.1875 35.5 
L 73.1875 27.203125 
L 10.59375 27.203125 
z
" id="DejaVuSans-8722"/>
       <path d="M 19.1875 8.296875 
L 53.609375 8.296875 
L 53.609375 0 
L 7.328125 0 
L 7.328125 8.296875 
Q 12.9375 14.109375 22.625 23.890625 
Q 32.328125 33.6875 34.8125 36.53125 
Q 39.546875 41.84375 41.421875 45.53125 
Q 43.3125 49.21875 43.3125 52.78125 
Q 43.3125 58.59375 39.234375 62.25 
Q 35.15625 65.921875 28.609375 65.921875 
Q 23.96875 65.921875 18.8125 64.3125 
Q 13.671875 62.703125 7.8125 59.421875 
L 7.8125 69.390625 
Q 13.765625 71.78125 18.9375 73 
Q 24.125 74.21875 28.421875 74.21875 
Q 39.75 74.21875 46.484375 68.546875 
Q 53.21875 62.890625 53.21875 53.421875 
Q 53.21875 48.921875 51.53125 44.890625 
Q 49.859375 40.875 45.40625 35.40625 
Q 44.1875 33.984375 37.640625 27.21875 
Q 31.109375 20.453125 19.1875 8.296875 
z
" id="DejaVuSans-50"/>
      </defs>
      <g transform="translate(50.070724 253.709121)scale(0.1 -0.1)">
       <use xlink:href="#DejaVuSans-8722"/>
       <use x="83.789062" xlink:href="#DejaVuSans-50"/>
      </g>
     </g>
    </g>
    <g id="xtick_2">
     <g id="line2d_2">
      <g>
       <use style="stroke:#000000;stroke-width:0.8;" x="120.430248" xlink:href="#m7bd8606c2c" y="239.110683"/>
      </g>
     </g>
     <g id="text_2">
      <!-- 0 -->
      <defs>
       <path d="M 31.78125 66.40625 
Q 24.171875 66.40625 20.328125 58.90625 
Q 16.5 51.421875 16.5 36.375 
Q 16.5 21.390625 20.328125 13.890625 
Q 24.171875 6.390625 31.78125 6.390625 
Q 39.453125 6.390625 43.28125 13.890625 
Q 47.125 21.390625 47.125 36.375 
Q 47.125 51.421875 43.28125 58.90625 
Q 39.453125 66.40625 31.78125 66.40625 
z
M 31.78125 74.21875 
Q 44.046875 74.21875 50.515625 64.515625 
Q 56.984375 54.828125 56.984375 36.375 
Q 56.984375 17.96875 50.515625 8.265625 
Q 44.046875 -1.421875 31.78125 -1.421875 
Q 19.53125 -1.421875 13.0625 8.265625 
Q 6.59375 17.96875 6.59375 36.375 
Q 6.59375 54.828125 13.0625 64.515625 
Q 19.53125 74.21875 31.78125 74.21875 
z
" id="DejaVuSans-48"/>
      </defs>
      <g transform="translate(117.248998 253.709121)scale(0.1 -0.1)">
       <use xlink:href="#DejaVuSans-48"/>
      </g>
     </g>
    </g>
    <g id="xtick_3">
     <g id="line2d_3">
      <g>
       <use style="stroke:#000000;stroke-width:0.8;" x="183.418678" xlink:href="#m7bd8606c2c" y="239.110683"/>
      </g>
     </g>
     <g id="text_3">
      <!-- 2 -->
      <g transform="translate(180.237428 253.709121)scale(0.1 -0.1)">
       <use xlink:href="#DejaVuSans-50"/>
      </g>
     </g>
    </g>
    <g id="xtick_4">
     <g id="line2d_4">
      <g>
       <use style="stroke:#000000;stroke-width:0.8;" x="246.407107" xlink:href="#m7bd8606c2c" y="239.110683"/>
      </g>
     </g>
     <g id="text_4">
      <!-- 4 -->
      <defs>
       <path d="M 37.796875 64.3125 
L 12.890625 25.390625 
L 37.796875 25.390625 
z
M 35.203125 72.90625 
L 47.609375 72.90625 
L 47.609375 25.390625 
L 58.015625 25.390625 
L 58.015625 17.1875 
L 47.609375 17.1875 
L 47.609375 0 
L 37.796875 0 
L 37.796875 17.1875 
L 4.890625 17.1875 
L 4.890625 26.703125 
z
" id="DejaVuSans-52"/>
      </defs>
      <g transform="translate(243.225857 253.709121)scale(0.1 -0.1)">
       <use xlink:href="#DejaVuSans-52"/>
      </g>
     </g>
    </g>
    <g id="xtick_5">
     <g id="line2d_5">
      <g>
       <use style="stroke:#000000;stroke-width:0.8;" x="309.395537" xlink:href="#m7bd8606c2c" y="239.110683"/>
      </g>
     </g>
     <g id="text_5">
      <!-- 6 -->
      <defs>
       <path d="M 33.015625 40.375 
Q 26.375 40.375 22.484375 35.828125 
Q 18.609375 31.296875 18.609375 23.390625 
Q 18.609375 15.53125 22.484375 10.953125 
Q 26.375 6.390625 33.015625 6.390625 
Q 39.65625 6.390625 43.53125 10.953125 
Q 47.40625 15.53125 47.40625 23.390625 
Q 47.40625 31.296875 43.53125 35.828125 
Q 39.65625 40.375 33.015625 40.375 
z
M 52.59375 71.296875 
L 52.59375 62.3125 
Q 48.875 64.0625 45.09375 64.984375 
Q 41.3125 65.921875 37.59375 65.921875 
Q 27.828125 65.921875 22.671875 59.328125 
Q 17.53125 52.734375 16.796875 39.40625 
Q 19.671875 43.65625 24.015625 45.921875 
Q 28.375 48.1875 33.59375 48.1875 
Q 44.578125 48.1875 50.953125 41.515625 
Q 57.328125 34.859375 57.328125 23.390625 
Q 57.328125 12.15625 50.6875 5.359375 
Q 44.046875 -1.421875 33.015625 -1.421875 
Q 20.359375 -1.421875 13.671875 8.265625 
Q 6.984375 17.96875 6.984375 36.375 
Q 6.984375 53.65625 15.1875 63.9375 
Q 23.390625 74.21875 37.203125 74.21875 
Q 40.921875 74.21875 44.703125 73.484375 
Q 48.484375 72.75 52.59375 71.296875 
z
" id="DejaVuSans-54"/>
      </defs>
      <g transform="translate(306.214287 253.709121)scale(0.1 -0.1)">
       <use xlink:href="#DejaVuSans-54"/>
      </g>
     </g>
    </g>
    <g id="xtick_6">
     <g id="line2d_6">
      <g>
       <use style="stroke:#000000;stroke-width:0.8;" x="372.383967" xlink:href="#m7bd8606c2c" y="239.110683"/>
      </g>
     </g>
     <g id="text_6">
      <!-- 8 -->
      <defs>
       <path d="M 31.78125 34.625 
Q 24.75 34.625 20.71875 30.859375 
Q 16.703125 27.09375 16.703125 20.515625 
Q 16.703125 13.921875 20.71875 10.15625 
Q 24.75 6.390625 31.78125 6.390625 
Q 38.8125 6.390625 42.859375 10.171875 
Q 46.921875 13.96875 46.921875 20.515625 
Q 46.921875 27.09375 42.890625 30.859375 
Q 38.875 34.625 31.78125 34.625 
z
M 21.921875 38.8125 
Q 15.578125 40.375 12.03125 44.71875 
Q 8.5 49.078125 8.5 55.328125 
Q 8.5 64.0625 14.71875 69.140625 
Q 20.953125 74.21875 31.78125 74.21875 
Q 42.671875 74.21875 48.875 69.140625 
Q 55.078125 64.0625 55.078125 55.328125 
Q 55.078125 49.078125 51.53125 44.71875 
Q 48 40.375 41.703125 38.8125 
Q 48.828125 37.15625 52.796875 32.3125 
Q 56.78125 27.484375 56.78125 20.515625 
Q 56.78125 9.90625 50.3125 4.234375 
Q 43.84375 -1.421875 31.78125 -1.421875 
Q 19.734375 -1.421875 13.25 4.234375 
Q 6.78125 9.90625 6.78125 20.515625 
Q 6.78125 27.484375 10.78125 32.3125 
Q 14.796875 37.15625 21.921875 38.8125 
z
M 18.3125 54.390625 
Q 18.3125 48.734375 21.84375 45.5625 
Q 25.390625 42.390625 31.78125 42.390625 
Q 38.140625 42.390625 41.71875 45.5625 
Q 45.3125 48.734375 45.3125 54.390625 
Q 45.3125 60.0625 41.71875 63.234375 
Q 38.140625 66.40625 31.78125 66.40625 
Q 25.390625 66.40625 21.84375 63.234375 
Q 18.3125 60.0625 18.3125 54.390625 
z
" id="DejaVuSans-56"/>
      </defs>
      <g transform="translate(369.202717 253.709121)scale(0.1 -0.1)">
       <use xlink:href="#DejaVuSans-56"/>
      </g>
     </g>
    </g>
   </g>
   <g id="matplotlib.axis_2">
    <g id="ytick_1">
     <g id="line2d_7">
      <defs>
       <path d="M 0 0 
L -3.5 0 
" id="ma3e73d6b55" style="stroke:#000000;stroke-width:0.8;"/>
      </defs>
      <g>
       <use style="stroke:#000000;stroke-width:0.8;" x="40.12" xlink:href="#ma3e73d6b55" y="228.732925"/>
      </g>
     </g>
     <g id="text_7">
      <!-- 0.00 -->
      <defs>
       <path d="M 10.6875 12.40625 
L 21 12.40625 
L 21 0 
L 10.6875 0 
z
" id="DejaVuSans-46"/>
      </defs>
      <g transform="translate(10.854375 232.532144)scale(0.1 -0.1)">
       <use xlink:href="#DejaVuSans-48"/>
       <use x="63.623047" xlink:href="#DejaVuSans-46"/>
       <use x="95.410156" xlink:href="#DejaVuSans-48"/>
       <use x="159.033203" xlink:href="#DejaVuSans-48"/>
      </g>
     </g>
    </g>
    <g id="ytick_2">
     <g id="line2d_8">
      <g>
       <use style="stroke:#000000;stroke-width:0.8;" x="40.12" xlink:href="#ma3e73d6b55" y="202.719742"/>
      </g>
     </g>
     <g id="text_8">
      <!-- 0.05 -->
      <defs>
       <path d="M 10.796875 72.90625 
L 49.515625 72.90625 
L 49.515625 64.59375 
L 19.828125 64.59375 
L 19.828125 46.734375 
Q 21.96875 47.46875 24.109375 47.828125 
Q 26.265625 48.1875 28.421875 48.1875 
Q 40.625 48.1875 47.75 41.5 
Q 54.890625 34.8125 54.890625 23.390625 
Q 54.890625 11.625 47.5625 5.09375 
Q 40.234375 -1.421875 26.90625 -1.421875 
Q 22.3125 -1.421875 17.546875 -0.640625 
Q 12.796875 0.140625 7.71875 1.703125 
L 7.71875 11.625 
Q 12.109375 9.234375 16.796875 8.0625 
Q 21.484375 6.890625 26.703125 6.890625 
Q 35.15625 6.890625 40.078125 11.328125 
Q 45.015625 15.765625 45.015625 23.390625 
Q 45.015625 31 40.078125 35.4375 
Q 35.15625 39.890625 26.703125 39.890625 
Q 22.75 39.890625 18.8125 39.015625 
Q 14.890625 38.140625 10.796875 36.28125 
z
" id="DejaVuSans-53"/>
      </defs>
      <g transform="translate(10.854375 206.518961)scale(0.1 -0.1)">
       <use xlink:href="#DejaVuSans-48"/>
       <use x="63.623047" xlink:href="#DejaVuSans-46"/>
       <use x="95.410156" xlink:href="#DejaVuSans-48"/>
       <use x="159.033203" xlink:href="#DejaVuSans-53"/>
      </g>
     </g>
    </g>
    <g id="ytick_3">
     <g id="line2d_9">
      <g>
       <use style="stroke:#000000;stroke-width:0.8;" x="40.12" xlink:href="#ma3e73d6b55" y="176.70656"/>
      </g>
     </g>
     <g id="text_9">
      <!-- 0.10 -->
      <defs>
       <path d="M 12.40625 8.296875 
L 28.515625 8.296875 
L 28.515625 63.921875 
L 10.984375 60.40625 
L 10.984375 69.390625 
L 28.421875 72.90625 
L 38.28125 72.90625 
L 38.28125 8.296875 
L 54.390625 8.296875 
L 54.390625 0 
L 12.40625 0 
z
" id="DejaVuSans-49"/>
      </defs>
      <g transform="translate(10.854375 180.505779)scale(0.1 -0.1)">
       <use xlink:href="#DejaVuSans-48"/>
       <use x="63.623047" xlink:href="#DejaVuSans-46"/>
       <use x="95.410156" xlink:href="#DejaVuSans-49"/>
       <use x="159.033203" xlink:href="#DejaVuSans-48"/>
      </g>
     </g>
    </g>
    <g id="ytick_4">
     <g id="line2d_10">
      <g>
       <use style="stroke:#000000;stroke-width:0.8;" x="40.12" xlink:href="#ma3e73d6b55" y="150.693377"/>
      </g>
     </g>
     <g id="text_10">
      <!-- 0.15 -->
      <g transform="translate(10.854375 154.492596)scale(0.1 -0.1)">
       <use xlink:href="#DejaVuSans-48"/>
       <use x="63.623047" xlink:href="#DejaVuSans-46"/>
       <use x="95.410156" xlink:href="#DejaVuSans-49"/>
       <use x="159.033203" xlink:href="#DejaVuSans-53"/>
      </g>
     </g>
    </g>
    <g id="ytick_5">
     <g id="line2d_11">
      <g>
       <use style="stroke:#000000;stroke-width:0.8;" x="40.12" xlink:href="#ma3e73d6b55" y="124.680195"/>
      </g>
     </g>
     <g id="text_11">
      <!-- 0.20 -->
      <g transform="translate(10.854375 128.479414)scale(0.1 -0.1)">
       <use xlink:href="#DejaVuSans-48"/>
       <use x="63.623047" xlink:href="#DejaVuSans-46"/>
       <use x="95.410156" xlink:href="#DejaVuSans-50"/>
       <use x="159.033203" xlink:href="#DejaVuSans-48"/>
      </g>
     </g>
    </g>
    <g id="ytick_6">
     <g id="line2d_12">
      <g>
       <use style="stroke:#000000;stroke-width:0.8;" x="40.12" xlink:href="#ma3e73d6b55" y="98.667013"/>
      </g>
     </g>
     <g id="text_12">
      <!-- 0.25 -->
      <g transform="translate(10.854375 102.466231)scale(0.1 -0.1)">
       <use xlink:href="#DejaVuSans-48"/>
       <use x="63.623047" xlink:href="#DejaVuSans-46"/>
       <use x="95.410156" xlink:href="#DejaVuSans-50"/>
       <use x="159.033203" xlink:href="#DejaVuSans-53"/>
      </g>
     </g>
    </g>
    <g id="ytick_7">
     <g id="line2d_13">
      <g>
       <use style="stroke:#000000;stroke-width:0.8;" x="40.12" xlink:href="#ma3e73d6b55" y="72.65383"/>
      </g>
     </g>
     <g id="text_13">
      <!-- 0.30 -->
      <defs>
       <path d="M 40.578125 39.3125 
Q 47.65625 37.796875 51.625 33 
Q 55.609375 28.21875 55.609375 21.1875 
Q 55.609375 10.40625 48.1875 4.484375 
Q 40.765625 -1.421875 27.09375 -1.421875 
Q 22.515625 -1.421875 17.65625 -0.515625 
Q 12.796875 0.390625 7.625 2.203125 
L 7.625 11.71875 
Q 11.71875 9.328125 16.59375 8.109375 
Q 21.484375 6.890625 26.8125 6.890625 
Q 36.078125 6.890625 40.9375 10.546875 
Q 45.796875 14.203125 45.796875 21.1875 
Q 45.796875 27.640625 41.28125 31.265625 
Q 36.765625 34.90625 28.71875 34.90625 
L 20.21875 34.90625 
L 20.21875 43.015625 
L 29.109375 43.015625 
Q 36.375 43.015625 40.234375 45.921875 
Q 44.09375 48.828125 44.09375 54.296875 
Q 44.09375 59.90625 40.109375 62.90625 
Q 36.140625 65.921875 28.71875 65.921875 
Q 24.65625 65.921875 20.015625 65.03125 
Q 15.375 64.15625 9.8125 62.3125 
L 9.8125 71.09375 
Q 15.4375 72.65625 20.34375 73.4375 
Q 25.25 74.21875 29.59375 74.21875 
Q 40.828125 74.21875 47.359375 69.109375 
Q 53.90625 64.015625 53.90625 55.328125 
Q 53.90625 49.265625 50.4375 45.09375 
Q 46.96875 40.921875 40.578125 39.3125 
z
" id="DejaVuSans-51"/>
      </defs>
      <g transform="translate(10.854375 76.453049)scale(0.1 -0.1)">
       <use xlink:href="#DejaVuSans-48"/>
       <use x="63.623047" xlink:href="#DejaVuSans-46"/>
       <use x="95.410156" xlink:href="#DejaVuSans-51"/>
       <use x="159.033203" xlink:href="#DejaVuSans-48"/>
      </g>
     </g>
    </g>
    <g id="ytick_8">
     <g id="line2d_14">
      <g>
       <use style="stroke:#000000;stroke-width:0.8;" x="40.12" xlink:href="#ma3e73d6b55" y="46.640648"/>
      </g>
     </g>
     <g id="text_14">
      <!-- 0.35 -->
      <g transform="translate(10.854375 50.439866)scale(0.1 -0.1)">
       <use xlink:href="#DejaVuSans-48"/>
       <use x="63.623047" xlink:href="#DejaVuSans-46"/>
       <use x="95.410156" xlink:href="#DejaVuSans-51"/>
       <use x="159.033203" xlink:href="#DejaVuSans-53"/>
      </g>
     </g>
    </g>
    <g id="ytick_9">
     <g id="line2d_15">
      <g>
       <use style="stroke:#000000;stroke-width:0.8;" x="40.12" xlink:href="#ma3e73d6b55" y="20.627465"/>
      </g>
     </g>
     <g id="text_15">
      <!-- 0.40 -->
      <g transform="translate(10.854375 24.426684)scale(0.1 -0.1)">
       <use xlink:href="#DejaVuSans-48"/>
       <use x="63.623047" xlink:href="#DejaVuSans-46"/>
       <use x="95.410156" xlink:href="#DejaVuSans-52"/>
       <use x="159.033203" xlink:href="#DejaVuSans-48"/>
      </g>
     </g>
    </g>
   </g>
   <g id="line2d_16">
    <path clip-path="url(#p50d02f72ff)" d="M 57.441818 226.427195 
L 60.941175 225.534822 
L 64.440533 224.351507 
L 67.93989 222.804008 
L 71.439247 220.808379 
L 74.938604 218.270996 
L 78.437961 215.090629 
L 81.937319 211.161722 
L 85.436676 206.378996 
L 88.936033 200.643388 
L 92.43539 193.869212 
L 95.934747 185.992284 
L 99.434105 176.978586 
L 102.933462 166.832897 
L 106.432819 155.606683 
L 109.932176 143.404445 
L 113.431534 130.38774 
L 116.930891 116.77611 
L 120.430248 102.844353 
L 123.929605 88.915783 
L 127.428962 75.351463 
L 130.92832 62.53574 
L 134.427677 50.858792 
L 137.927034 40.697244 
L 141.426391 32.39415 
L 144.925748 26.239825 
L 148.425106 22.455017 
L 151.924463 21.177758 
L 155.42382 22.455017 
L 158.923177 26.239825 
L 162.422534 32.39415 
L 165.921892 40.697244 
L 169.421249 50.858792 
L 172.920606 62.53574 
L 176.419963 75.351463 
L 179.91932 88.915783 
L 183.418678 102.844353 
L 186.918035 116.77611 
L 190.417392 130.38774 
L 193.916749 143.404445 
L 197.416107 155.606683 
L 200.915464 166.832897 
L 204.414821 176.978586 
L 207.914178 185.992284 
L 211.413535 193.869212 
L 214.912893 200.643388 
L 218.41225 206.378996 
L 221.911607 211.161722 
L 225.410964 215.090629 
L 228.910321 218.270996 
L 232.409679 220.808379 
L 235.909036 222.804008 
L 239.408393 224.351507 
L 242.90775 225.534822 
L 246.407107 226.427195 
L 249.906465 227.090964 
L 253.405822 227.577996 
L 256.905179 227.930533 
L 260.404536 228.1823 
L 263.903893 228.359706 
L 267.403251 228.483057 
L 270.902608 228.567693 
L 274.401965 228.625001 
L 277.901322 228.663298 
L 281.40068 228.688556 
L 284.900037 228.704998 
L 288.399394 228.715563 
L 291.898751 228.722264 
L 295.398108 228.726458 
L 298.897466 228.729051 
L 302.396823 228.730632 
L 305.89618 228.731585 
L 309.395537 228.732151 
L 312.894894 228.732484 
L 316.394252 228.732676 
L 319.893609 228.732787 
L 323.392966 228.732849 
L 326.892323 228.732884 
L 330.39168 228.732903 
L 333.891038 228.732913 
L 337.390395 228.732919 
L 340.889752 228.732922 
L 344.389109 228.732923 
L 347.888466 228.732924 
L 351.387824 228.732924 
L 354.887181 228.732925 
L 358.386538 228.732925 
L 361.885895 228.732925 
L 365.385253 228.732925 
L 368.88461 228.732925 
L 372.383967 228.732925 
L 375.883324 228.732925 
L 379.382681 228.732925 
L 382.882039 228.732925 
L 386.381396 228.732925 
L 389.880753 228.732925 
L 393.38011 228.732925 
L 396.879467 228.732925 
L 400.378825 228.732925 
L 403.878182 228.732925 
" style="fill:none;stroke:#000000;stroke-linecap:square;stroke-width:0.5;"/>
   </g>
   <g id="line2d_17">
    <path clip-path="url(#p50d02f72ff)" d="M 57.441818 228.663298 
L 60.941175 228.625001 
L 64.440533 228.567693 
L 67.93989 228.483057 
L 71.439247 228.359706 
L 74.938604 228.1823 
L 78.437961 227.930533 
L 81.937319 227.577996 
L 85.436676 227.090964 
L 88.936033 226.427195 
L 92.43539 225.534822 
L 95.934747 224.351507 
L 99.434105 222.804008 
L 102.933462 220.808379 
L 106.432819 218.270996 
L 109.932176 215.090629 
L 113.431534 211.161722 
L 116.930891 206.378996 
L 120.430248 200.643388 
L 123.929605 193.869212 
L 127.428962 185.992284 
L 130.92832 176.978586 
L 134.427677 166.832897 
L 137.927034 155.606683 
L 141.426391 143.404445 
L 144.925748 130.38774 
L 148.425106 116.77611 
L 151.924463 102.844353 
L 155.42382 88.915783 
L 158.923177 75.351463 
L 162.422534 62.53574 
L 165.921892 50.858792 
L 169.421249 40.697244 
L 172.920606 32.39415 
L 176.419963 26.239825 
L 179.91932 22.455017 
L 183.418678 21.177758 
L 186.918035 22.455017 
L 190.417392 26.239825 
L 193.916749 32.39415 
L 197.416107 40.697244 
L 200.915464 50.858792 
L 204.414821 62.53574 
L 207.914178 75.351463 
L 211.413535 88.915783 
L 214.912893 102.844353 
L 218.41225 116.77611 
L 221.911607 130.38774 
L 225.410964 143.404445 
L 228.910321 155.606683 
L 232.409679 166.832897 
L 235.909036 176.978586 
L 239.408393 185.992284 
L 242.90775 193.869212 
L 246.407107 200.643388 
L 249.906465 206.378996 
L 253.405822 211.161722 
L 256.905179 215.090629 
L 260.404536 218.270996 
L 263.903893 220.808379 
L 267.403251 222.804008 
L 270.902608 224.351507 
L 274.401965 225.534822 
L 277.901322 226.427195 
L 281.40068 227.090964 
L 284.900037 227.577996 
L 288.399394 227.930533 
L 291.898751 228.1823 
L 295.398108 228.359706 
L 298.897466 228.483057 
L 302.396823 228.567693 
L 305.89618 228.625001 
L 309.395537 228.663298 
L 312.894894 228.688556 
L 316.394252 228.704998 
L 319.893609 228.715563 
L 323.392966 228.722264 
L 326.892323 228.726458 
L 330.39168 228.729051 
L 333.891038 228.730632 
L 337.390395 228.731585 
L 340.889752 228.732151 
L 344.389109 228.732484 
L 347.888466 228.732676 
L 351.387824 228.732787 
L 354.887181 228.732849 
L 358.386538 228.732884 
L 361.885895 228.732903 
L 365.385253 228.732913 
L 368.88461 228.732919 
L 372.383967 228.732922 
L 375.883324 228.732923 
L 379.382681 228.732924 
L 382.882039 228.732924 
L 386.381396 228.732925 
L 389.880753 228.732925 
L 393.38011 228.732925 
L 396.879467 228.732925 
L 400.378825 228.732925 
L 403.878182 228.732925 
" style="fill:none;stroke:#000000;stroke-linecap:square;"/>
   </g>
   <g id="line2d_18">
    <path clip-path="url(#p50d02f72ff)" d="M 57.441818 228.732151 
L 60.941175 228.731585 
L 64.440533 228.730632 
L 67.93989 228.729051 
L 71.439247 228.726458 
L 74.938604 228.722264 
L 78.437961 228.715563 
L 81.937319 228.704998 
L 85.436676 228.688556 
L 88.936033 228.663298 
L 92.43539 228.625001 
L 95.934747 228.567693 
L 99.434105 228.483057 
L 102.933462 228.359706 
L 106.432819 228.1823 
L 109.932176 227.930533 
L 113.431534 227.577996 
L 116.930891 227.090964 
L 120.430248 226.427195 
L 123.929605 225.534822 
L 127.428962 224.351507 
L 130.92832 222.804008 
L 134.427677 220.808379 
L 137.927034 218.270996 
L 141.426391 215.090629 
L 144.925748 211.161722 
L 148.425106 206.378996 
L 151.924463 200.643388 
L 155.42382 193.869212 
L 158.923177 185.992284 
L 162.422534 176.978586 
L 165.921892 166.832897 
L 169.421249 155.606683 
L 172.920606 143.404445 
L 176.419963 130.38774 
L 179.91932 116.77611 
L 183.418678 102.844353 
L 186.918035 88.915783 
L 190.417392 75.351463 
L 193.916749 62.53574 
L 197.416107 50.858792 
L 200.915464 40.697244 
L 204.414821 32.39415 
L 207.914178 26.239825 
L 211.413535 22.455017 
L 214.912893 21.177758 
L 218.41225 22.455017 
L 221.911607 26.239825 
L 225.410964 32.39415 
L 228.910321 40.697244 
L 232.409679 50.858792 
L 235.909036 62.53574 
L 239.408393 75.351463 
L 242.90775 88.915783 
L 246.407107 102.844353 
L 249.906465 116.77611 
L 253.405822 130.38774 
L 256.905179 143.404445 
L 260.404536 155.606683 
L 263.903893 166.832897 
L 267.403251 176.978586 
L 270.902608 185.992284 
L 274.401965 193.869212 
L 277.901322 200.643388 
L 281.40068 206.378996 
L 284.900037 211.161722 
L 288.399394 215.090629 
L 291.898751 218.270996 
L 295.398108 220.808379 
L 298.897466 222.804008 
L 302.396823 224.351507 
L 305.89618 225.534822 
L 309.395537 226.427195 
L 312.894894 227.090964 
L 316.394252 227.577996 
L 319.893609 227.930533 
L 323.392966 228.1823 
L 326.892323 228.359706 
L 330.39168 228.483057 
L 333.891038 228.567693 
L 337.390395 228.625001 
L 340.889752 228.663298 
L 344.389109 228.688556 
L 347.888466 228.704998 
L 351.387824 228.715563 
L 354.887181 228.722264 
L 358.386538 228.726458 
L 361.885895 228.729051 
L 365.385253 228.730632 
L 368.88461 228.731585 
L 372.383967 228.732151 
L 375.883324 228.732484 
L 379.382681 228.732676 
L 382.882039 228.732787 
L 386.381396 228.732849 
L 389.880753 228.732884 
L 393.38011 228.732903 
L 396.879467 228.732913 
L 400.378825 228.732919 
L 403.878182 228.732922 
" style="fill:none;stroke:#000000;stroke-linecap:square;stroke-width:1.5;"/>
   </g>
   <g id="line2d_19">
    <path clip-path="url(#p50d02f72ff)" d="M 57.441818 228.732922 
L 60.941175 228.732919 
L 64.440533 228.732913 
L 67.93989 228.732903 
L 71.439247 228.732884 
L 74.938604 228.732849 
L 78.437961 228.732787 
L 81.937319 228.732676 
L 85.436676 228.732484 
L 88.936033 228.732151 
L 92.43539 228.731585 
L 95.934747 228.730632 
L 99.434105 228.729051 
L 102.933462 228.726458 
L 106.432819 228.722264 
L 109.932176 228.715563 
L 113.431534 228.704998 
L 116.930891 228.688556 
L 120.430248 228.663298 
L 123.929605 228.625001 
L 127.428962 228.567693 
L 130.92832 228.483057 
L 134.427677 228.359706 
L 137.927034 228.1823 
L 141.426391 227.930533 
L 144.925748 227.577996 
L 148.425106 227.090964 
L 151.924463 226.427195 
L 155.42382 225.534822 
L 158.923177 224.351507 
L 162.422534 222.804008 
L 165.921892 220.808379 
L 169.421249 218.270996 
L 172.920606 215.090629 
L 176.419963 211.161722 
L 179.91932 206.378996 
L 183.418678 200.643388 
L 186.918035 193.869212 
L 190.417392 185.992284 
L 193.916749 176.978586 
L 197.416107 166.832897 
L 200.915464 155.606683 
L 204.414821 143.404445 
L 207.914178 130.38774 
L 211.413535 116.77611 
L 214.912893 102.844353 
L 218.41225 88.915783 
L 221.911607 75.351463 
L 225.410964 62.53574 
L 228.910321 50.858792 
L 232.409679 40.697244 
L 235.909036 32.39415 
L 239.408393 26.239825 
L 242.90775 22.455017 
L 246.407107 21.177758 
L 249.906465 22.455017 
L 253.405822 26.239825 
L 256.905179 32.39415 
L 260.404536 40.697244 
L 263.903893 50.858792 
L 267.403251 62.53574 
L 270.902608 75.351463 
L 274.401965 88.915783 
L 277.901322 102.844353 
L 281.40068 116.77611 
L 284.900037 130.38774 
L 288.399394 143.404445 
L 291.898751 155.606683 
L 295.398108 166.832897 
L 298.897466 176.978586 
L 302.396823 185.992284 
L 305.89618 193.869212 
L 309.395537 200.643388 
L 312.894894 206.378996 
L 316.394252 211.161722 
L 319.893609 215.090629 
L 323.392966 218.270996 
L 326.892323 220.808379 
L 330.39168 222.804008 
L 333.891038 224.351507 
L 337.390395 225.534822 
L 340.889752 226.427195 
L 344.389109 227.090964 
L 347.888466 227.577996 
L 351.387824 227.930533 
L 354.887181 228.1823 
L 358.386538 228.359706 
L 361.885895 228.483057 
L 365.385253 228.567693 
L 368.88461 228.625001 
L 372.383967 228.663298 
L 375.883324 228.688556 
L 379.382681 228.704998 
L 382.882039 228.715563 
L 386.381396 228.722264 
L 389.880753 228.726458 
L 393.38011 228.729051 
L 396.879467 228.730632 
L 400.378825 228.731585 
L 403.878182 228.732151 
" style="fill:none;stroke:#000000;stroke-linecap:square;stroke-width:2;"/>
   </g>
   <g id="line2d_20">
    <path clip-path="url(#p50d02f72ff)" d="M 57.441818 228.732925 
L 60.941175 228.732925 
L 64.440533 228.732925 
L 67.93989 228.732925 
L 71.439247 228.732925 
L 74.938604 228.732925 
L 78.437961 228.732924 
L 81.937319 228.732924 
L 85.436676 228.732923 
L 88.936033 228.732922 
L 92.43539 228.732919 
L 95.934747 228.732913 
L 99.434105 228.732903 
L 102.933462 228.732884 
L 106.432819 228.732849 
L 109.932176 228.732787 
L 113.431534 228.732676 
L 116.930891 228.732484 
L 120.430248 228.732151 
L 123.929605 228.731585 
L 127.428962 228.730632 
L 130.92832 228.729051 
L 134.427677 228.726458 
L 137.927034 228.722264 
L 141.426391 228.715563 
L 144.925748 228.704998 
L 148.425106 228.688556 
L 151.924463 228.663298 
L 155.42382 228.625001 
L 158.923177 228.567693 
L 162.422534 228.483057 
L 165.921892 228.359706 
L 169.421249 228.1823 
L 172.920606 227.930533 
L 176.419963 227.577996 
L 179.91932 227.090964 
L 183.418678 226.427195 
L 186.918035 225.534822 
L 190.417392 224.351507 
L 193.916749 222.804008 
L 197.416107 220.808379 
L 200.915464 218.270996 
L 204.414821 215.090629 
L 207.914178 211.161722 
L 211.413535 206.378996 
L 214.912893 200.643388 
L 218.41225 193.869212 
L 221.911607 185.992284 
L 225.410964 176.978586 
L 228.910321 166.832897 
L 232.409679 155.606683 
L 235.909036 143.404445 
L 239.408393 130.38774 
L 242.90775 116.77611 
L 246.407107 102.844353 
L 249.906465 88.915783 
L 253.405822 75.351463 
L 256.905179 62.53574 
L 260.404536 50.858792 
L 263.903893 40.697244 
L 267.403251 32.39415 
L 270.902608 26.239825 
L 274.401965 22.455017 
L 277.901322 21.177758 
L 281.40068 22.455017 
L 284.900037 26.239825 
L 288.399394 32.39415 
L 291.898751 40.697244 
L 295.398108 50.858792 
L 298.897466 62.53574 
L 302.396823 75.351463 
L 305.89618 88.915783 
L 309.395537 102.844353 
L 312.894894 116.77611 
L 316.394252 130.38774 
L 319.893609 143.404445 
L 323.392966 155.606683 
L 326.892323 166.832897 
L 330.39168 176.978586 
L 333.891038 185.992284 
L 337.390395 193.869212 
L 340.889752 200.643388 
L 344.389109 206.378996 
L 347.888466 211.161722 
L 351.387824 215.090629 
L 354.887181 218.270996 
L 358.386538 220.808379 
L 361.885895 222.804008 
L 365.385253 224.351507 
L 368.88461 225.534822 
L 372.383967 226.427195 
L 375.883324 227.090964 
L 379.382681 227.577996 
L 382.882039 227.930533 
L 386.381396 228.1823 
L 389.880753 228.359706 
L 393.38011 228.483057 
L 396.879467 228.567693 
L 400.378825 228.625001 
L 403.878182 228.663298 
" style="fill:none;stroke:#000000;stroke-linecap:square;stroke-width:2.5;"/>
   </g>
   <g id="line2d_21">
    <path clip-path="url(#p50d02f72ff)" d="M 57.441818 228.732925 
L 60.941175 228.732925 
L 64.440533 228.732925 
L 67.93989 228.732925 
L 71.439247 228.732925 
L 74.938604 228.732925 
L 78.437961 228.732925 
L 81.937319 228.732925 
L 85.436676 228.732925 
L 88.936033 228.732925 
L 92.43539 228.732925 
L 95.934747 228.732925 
L 99.434105 228.732925 
L 102.933462 228.732925 
L 106.432819 228.732925 
L 109.932176 228.732924 
L 113.431534 228.732924 
L 116.930891 228.732923 
L 120.430248 228.732922 
L 123.929605 228.732919 
L 127.428962 228.732913 
L 130.92832 228.732903 
L 134.427677 228.732884 
L 137.927034 228.732849 
L 141.426391 228.732787 
L 144.925748 228.732676 
L 148.425106 228.732484 
L 151.924463 228.732151 
L 155.42382 228.731585 
L 158.923177 228.730632 
L 162.422534 228.729051 
L 165.921892 228.726458 
L 169.421249 228.722264 
L 172.920606 228.715563 
L 176.419963 228.704998 
L 179.91932 228.688556 
L 183.418678 228.663298 
L 186.918035 228.625001 
L 190.417392 228.567693 
L 193.916749 228.483057 
L 197.416107 228.359706 
L 200.915464 228.1823 
L 204.414821 227.930533 
L 207.914178 227.577996 
L 211.413535 227.090964 
L 214.912893 226.427195 
L 218.41225 225.534822 
L 221.911607 224.351507 
L 225.410964 222.804008 
L 228.910321 220.808379 
L 232.409679 218.270996 
L 235.909036 215.090629 
L 239.408393 211.161722 
L 242.90775 206.378996 
L 246.407107 200.643388 
L 249.906465 193.869212 
L 253.405822 185.992284 
L 256.905179 176.978586 
L 260.404536 166.832897 
L 263.903893 155.606683 
L 267.403251 143.404445 
L 270.902608 130.38774 
L 274.401965 116.77611 
L 277.901322 102.844353 
L 281.40068 88.915783 
L 284.900037 75.351463 
L 288.399394 62.53574 
L 291.898751 50.858792 
L 295.398108 40.697244 
L 298.897466 32.39415 
L 302.396823 26.239825 
L 305.89618 22.455017 
L 309.395537 21.177758 
L 312.894894 22.455017 
L 316.394252 26.239825 
L 319.893609 32.39415 
L 323.392966 40.697244 
L 326.892323 50.858792 
L 330.39168 62.53574 
L 333.891038 75.351463 
L 337.390395 88.915783 
L 340.889752 102.844353 
L 344.389109 116.77611 
L 347.888466 130.38774 
L 351.387824 143.404445 
L 354.887181 155.606683 
L 358.386538 166.832897 
L 361.885895 176.978586 
L 365.385253 185.992284 
L 368.88461 193.869212 
L 372.383967 200.643388 
L 375.883324 206.378996 
L 379.382681 211.161722 
L 382.882039 215.090629 
L 386.381396 218.270996 
L 389.880753 220.808379 
L 393.38011 222.804008 
L 396.879467 224.351507 
L 400.378825 225.534822 
L 403.878182 226.427195 
" style="fill:none;stroke:#000000;stroke-linecap:square;stroke-width:3;"/>
   </g>
   <g id="patch_3">
    <path d="M 40.12 239.110683 
L 40.12 10.8 
" style="fill:none;stroke:#000000;stroke-linecap:square;stroke-linejoin:miter;stroke-width:0.8;"/>
   </g>
   <g id="patch_4">
    <path d="M 421.2 239.110683 
L 421.2 10.8 
" style="fill:none;stroke:#000000;stroke-linecap:square;stroke-linejoin:miter;stroke-width:0.8;"/>
   </g>
   <g id="patch_5">
    <path d="M 40.12 239.110683 
L 421.2 239.110683 
" style="fill:none;stroke:#000000;stroke-linecap:square;stroke-linejoin:miter;stroke-width:0.8;"/>
   </g>
   <g id="patch_6">
    <path d="M 40.12 10.8 
L 421.2 10.8 
" style="fill:none;stroke:#000000;stroke-linecap:square;stroke-linejoin:miter;stroke-width:0.8;"/>
   </g>
  </g>
 </g>
 <defs>
  <clipPath id="p50d02f72ff">
   <rect height="228.310683" width="381.08" x="40.12" y="10.8"/>
  </clipPath>
 </defs>
</svg>
