<?xml version="1.0" encoding="utf-8" standalone="no"?>
<!DOCTYPE svg PUBLIC "-//W3C//DTD SVG 1.1//EN"
  "http://www.w3.org/Graphics/SVG/1.1/DTD/svg11.dtd">
<!-- Created with matplotlib (https://matplotlib.org/) -->
<svg height="266.990683pt" version="1.1" viewBox="0 0 266.990683 266.990683" width="266.990683pt" xmlns="http://www.w3.org/2000/svg" xmlns:xlink="http://www.w3.org/1999/xlink">
 <defs>
  <style type="text/css">
*{stroke-linecap:butt;stroke-linejoin:round;}
  </style>
 </defs>
 <g id="figure_1">
  <g id="patch_1">
   <path d="M 0 266.990683 
L 266.990683 266.990683 
L 266.990683 0 
L 0 0 
z
" style="fill:#ffffff;"/>
  </g>
  <g id="axes_1">
   <g id="patch_2">
    <path d="M 30.530079 240.335006 
L 249.825644 240.335006 
L 249.825644 14.259249 
L 30.530079 14.259249 
z
" style="fill:#ffffff;"/>
   </g>
   <g id="PolyCollection_1">
    <defs>
     <path d="M 30.530079 -71.870828 
L 30.530079 -26.655677 
L 74.389192 -26.655677 
L 74.389192 -71.870828 
L 74.389192 -71.870828 
L 30.530079 -71.870828 
z
" id="mee5c597ace" style="stroke:#ff00ff;stroke-opacity:0.2;"/>
    </defs>
    <g clip-path="url(#p03d8103a47)">
     <use style="fill:#ff00ff;fill-opacity:0.2;stroke:#ff00ff;stroke-opacity:0.2;" x="0" xlink:href="#mee5c597ace" y="266.990683"/>
    </g>
   </g>
   <g id="PolyCollection_2">
    <defs>
     <path d="M 30.530079 -117.08598 
L 30.530079 -71.870828 
L 74.389192 -71.870828 
L 74.389192 -117.08598 
L 74.389192 -117.08598 
L 30.530079 -117.08598 
z
" id="mbddf01ae25" style="stroke:#ff00ff;stroke-opacity:0.2;"/>
    </defs>
    <g clip-path="url(#p03d8103a47)">
     <use style="fill:#ff00ff;fill-opacity:0.2;stroke:#ff00ff;stroke-opacity:0.2;" x="0" xlink:href="#mbddf01ae25" y="266.990683"/>
    </g>
   </g>
   <g id="PolyCollection_3">
    <defs>
     <path d="M 30.530079 -162.301131 
L 30.530079 -117.08598 
L 74.389192 -117.08598 
L 74.389192 -162.301131 
L 74.389192 -162.301131 
L 30.530079 -162.301131 
z
" id="m9c063258a7" style="stroke:#ff00ff;stroke-opacity:0.2;"/>
    </defs>
    <g clip-path="url(#p03d8103a47)">
     <use style="fill:#ff00ff;fill-opacity:0.2;stroke:#ff00ff;stroke-opacity:0.2;" x="0" xlink:href="#m9c063258a7" y="266.990683"/>
    </g>
   </g>
   <g id="PolyCollection_4">
    <defs>
     <path d="M 30.530079 -207.516283 
L 30.530079 -162.301131 
L 74.389192 -162.301131 
L 74.389192 -207.516283 
L 74.389192 -207.516283 
L 30.530079 -207.516283 
z
" id="md20120d8b2" style="stroke:#ff00ff;stroke-opacity:0.2;"/>
    </defs>
    <g clip-path="url(#p03d8103a47)">
     <use style="fill:#ff00ff;fill-opacity:0.2;stroke:#ff00ff;stroke-opacity:0.2;" x="0" xlink:href="#md20120d8b2" y="266.990683"/>
    </g>
   </g>
   <g id="PolyCollection_5">
    <defs>
     <path d="M 30.530079 -252.731434 
L 30.530079 -207.516283 
L 74.389192 -207.516283 
L 74.389192 -252.731434 
L 74.389192 -252.731434 
L 30.530079 -252.731434 
z
" id="mbb4cd70e12" style="stroke:#ff00ff;stroke-opacity:0.2;"/>
    </defs>
    <g clip-path="url(#p03d8103a47)">
     <use style="fill:#ff00ff;fill-opacity:0.2;stroke:#ff00ff;stroke-opacity:0.2;" x="0" xlink:href="#mbb4cd70e12" y="266.990683"/>
    </g>
   </g>
   <g id="PolyCollection_6">
    <defs>
     <path d="M 74.389192 -71.870828 
L 74.389192 -26.655677 
L 118.248305 -26.655677 
L 118.248305 -71.870828 
L 118.248305 -71.870828 
L 74.389192 -71.870828 
z
" id="m7872225bfb" style="stroke:#ff00ff;stroke-opacity:0.2;"/>
    </defs>
    <g clip-path="url(#p03d8103a47)">
     <use style="fill:#ff00ff;fill-opacity:0.2;stroke:#ff00ff;stroke-opacity:0.2;" x="0" xlink:href="#m7872225bfb" y="266.990683"/>
    </g>
   </g>
   <g id="PolyCollection_7">
    <defs>
     <path d="M 74.389192 -117.08598 
L 74.389192 -71.870828 
L 118.248305 -71.870828 
L 118.248305 -117.08598 
L 118.248305 -117.08598 
L 74.389192 -117.08598 
z
" id="mdf6e9cb5b4" style="stroke:#ff00ff;stroke-opacity:0.2;"/>
    </defs>
    <g clip-path="url(#p03d8103a47)">
     <use style="fill:#ff00ff;fill-opacity:0.2;stroke:#ff00ff;stroke-opacity:0.2;" x="0" xlink:href="#mdf6e9cb5b4" y="266.990683"/>
    </g>
   </g>
   <g id="PolyCollection_8">
    <defs>
     <path d="M 74.389192 -162.301131 
L 74.389192 -117.08598 
L 118.248305 -117.08598 
L 118.248305 -162.301131 
L 118.248305 -162.301131 
L 74.389192 -162.301131 
z
" id="mb36ab0e255" style="stroke:#ff00ff;stroke-opacity:0.2;"/>
    </defs>
    <g clip-path="url(#p03d8103a47)">
     <use style="fill:#ff00ff;fill-opacity:0.2;stroke:#ff00ff;stroke-opacity:0.2;" x="0" xlink:href="#mb36ab0e255" y="266.990683"/>
    </g>
   </g>
   <g id="PolyCollection_9">
    <defs>
     <path d="M 74.389192 -207.516283 
L 74.389192 -162.301131 
L 118.248305 -162.301131 
L 118.248305 -207.516283 
L 118.248305 -207.516283 
L 74.389192 -207.516283 
z
" id="ma4f40c9a01" style="stroke:#ff00ff;stroke-opacity:0.2;"/>
    </defs>
    <g clip-path="url(#p03d8103a47)">
     <use style="fill:#ff00ff;fill-opacity:0.2;stroke:#ff00ff;stroke-opacity:0.2;" x="0" xlink:href="#ma4f40c9a01" y="266.990683"/>
    </g>
   </g>
   <g id="PolyCollection_10">
    <defs>
     <path d="M 74.389192 -252.731434 
L 74.389192 -207.516283 
L 118.248305 -207.516283 
L 118.248305 -252.731434 
L 118.248305 -252.731434 
L 74.389192 -252.731434 
z
" id="m3b1e6098ce" style="stroke:#ff00ff;stroke-opacity:0.2;"/>
    </defs>
    <g clip-path="url(#p03d8103a47)">
     <use style="fill:#ff00ff;fill-opacity:0.2;stroke:#ff00ff;stroke-opacity:0.2;" x="0" xlink:href="#m3b1e6098ce" y="266.990683"/>
    </g>
   </g>
   <g id="PolyCollection_11">
    <defs>
     <path d="M 118.248305 -71.870828 
L 118.248305 -26.655677 
L 162.107418 -26.655677 
L 162.107418 -71.870828 
L 162.107418 -71.870828 
L 118.248305 -71.870828 
z
" id="mf00b8d1204" style="stroke:#ff00ff;stroke-opacity:0.2;"/>
    </defs>
    <g clip-path="url(#p03d8103a47)">
     <use style="fill:#ff00ff;fill-opacity:0.2;stroke:#ff00ff;stroke-opacity:0.2;" x="0" xlink:href="#mf00b8d1204" y="266.990683"/>
    </g>
   </g>
   <g id="PolyCollection_12">
    <defs>
     <path d="M 118.248305 -117.08598 
L 118.248305 -71.870828 
L 162.107418 -71.870828 
L 162.107418 -117.08598 
L 162.107418 -117.08598 
L 118.248305 -117.08598 
z
" id="mfc8f647c05" style="stroke:#ff00ff;stroke-opacity:0.2;"/>
    </defs>
    <g clip-path="url(#p03d8103a47)">
     <use style="fill:#ff00ff;fill-opacity:0.2;stroke:#ff00ff;stroke-opacity:0.2;" x="0" xlink:href="#mfc8f647c05" y="266.990683"/>
    </g>
   </g>
   <g id="PolyCollection_13">
    <defs>
     <path d="M 118.248305 -162.301131 
L 118.248305 -117.08598 
L 162.107418 -117.08598 
L 162.107418 -162.301131 
L 162.107418 -162.301131 
L 118.248305 -162.301131 
z
" id="m3afe5e78d7" style="stroke:#40e0d0;stroke-opacity:0.2;"/>
    </defs>
    <g clip-path="url(#p03d8103a47)">
     <use style="fill:#40e0d0;fill-opacity:0.2;stroke:#40e0d0;stroke-opacity:0.2;" x="0" xlink:href="#m3afe5e78d7" y="266.990683"/>
    </g>
   </g>
   <g id="PolyCollection_14">
    <defs>
     <path d="M 118.248305 -207.516283 
L 118.248305 -162.301131 
L 162.107418 -162.301131 
L 162.107418 -207.516283 
L 162.107418 -207.516283 
L 118.248305 -207.516283 
z
" id="m1ec23fb3b6" style="stroke:#40e0d0;stroke-opacity:0.2;"/>
    </defs>
    <g clip-path="url(#p03d8103a47)">
     <use style="fill:#40e0d0;fill-opacity:0.2;stroke:#40e0d0;stroke-opacity:0.2;" x="0" xlink:href="#m1ec23fb3b6" y="266.990683"/>
    </g>
   </g>
   <g id="PolyCollection_15">
    <defs>
     <path d="M 118.248305 -252.731434 
L 118.248305 -207.516283 
L 162.107418 -207.516283 
L 162.107418 -252.731434 
L 162.107418 -252.731434 
L 118.248305 -252.731434 
z
" id="ma4e61b450e" style="stroke:#40e0d0;stroke-opacity:0.2;"/>
    </defs>
    <g clip-path="url(#p03d8103a47)">
     <use style="fill:#40e0d0;fill-opacity:0.2;stroke:#40e0d0;stroke-opacity:0.2;" x="0" xlink:href="#ma4e61b450e" y="266.990683"/>
    </g>
   </g>
   <g id="PolyCollection_16">
    <defs>
     <path d="M 162.107418 -71.870828 
L 162.107418 -26.655677 
L 205.966531 -26.655677 
L 205.966531 -71.870828 
L 205.966531 -71.870828 
L 162.107418 -71.870828 
z
" id="mf587c2b673" style="stroke:#40e0d0;stroke-opacity:0.2;"/>
    </defs>
    <g clip-path="url(#p03d8103a47)">
     <use style="fill:#40e0d0;fill-opacity:0.2;stroke:#40e0d0;stroke-opacity:0.2;" x="0" xlink:href="#mf587c2b673" y="266.990683"/>
    </g>
   </g>
   <g id="PolyCollection_17">
    <defs>
     <path d="M 162.107418 -117.08598 
L 162.107418 -71.870828 
L 205.966531 -71.870828 
L 205.966531 -117.08598 
L 205.966531 -117.08598 
L 162.107418 -117.08598 
z
" id="m43539e4cc4" style="stroke:#ff00ff;stroke-opacity:0.2;"/>
    </defs>
    <g clip-path="url(#p03d8103a47)">
     <use style="fill:#ff00ff;fill-opacity:0.2;stroke:#ff00ff;stroke-opacity:0.2;" x="0" xlink:href="#m43539e4cc4" y="266.990683"/>
    </g>
   </g>
   <g id="PolyCollection_18">
    <defs>
     <path d="M 162.107418 -162.301131 
L 162.107418 -117.08598 
L 205.966531 -117.08598 
L 205.966531 -162.301131 
L 205.966531 -162.301131 
L 162.107418 -162.301131 
z
" id="m4bed9d4a40" style="stroke:#ff00ff;stroke-opacity:0.2;"/>
    </defs>
    <g clip-path="url(#p03d8103a47)">
     <use style="fill:#ff00ff;fill-opacity:0.2;stroke:#ff00ff;stroke-opacity:0.2;" x="0" xlink:href="#m4bed9d4a40" y="266.990683"/>
    </g>
   </g>
   <g id="PolyCollection_19">
    <defs>
     <path d="M 162.107418 -207.516283 
L 162.107418 -162.301131 
L 205.966531 -162.301131 
L 205.966531 -207.516283 
L 205.966531 -207.516283 
L 162.107418 -207.516283 
z
" id="m4ff357acaf" style="stroke:#ff00ff;stroke-opacity:0.2;"/>
    </defs>
    <g clip-path="url(#p03d8103a47)">
     <use style="fill:#ff00ff;fill-opacity:0.2;stroke:#ff00ff;stroke-opacity:0.2;" x="0" xlink:href="#m4ff357acaf" y="266.990683"/>
    </g>
   </g>
   <g id="PolyCollection_20">
    <defs>
     <path d="M 162.107418 -252.731434 
L 162.107418 -207.516283 
L 205.966531 -207.516283 
L 205.966531 -252.731434 
L 205.966531 -252.731434 
L 162.107418 -252.731434 
z
" id="mbad56626f4" style="stroke:#40e0d0;stroke-opacity:0.2;"/>
    </defs>
    <g clip-path="url(#p03d8103a47)">
     <use style="fill:#40e0d0;fill-opacity:0.2;stroke:#40e0d0;stroke-opacity:0.2;" x="0" xlink:href="#mbad56626f4" y="266.990683"/>
    </g>
   </g>
   <g id="PolyCollection_21">
    <defs>
     <path d="M 205.966531 -71.870828 
L 205.966531 -26.655677 
L 249.825644 -26.655677 
L 249.825644 -71.870828 
L 249.825644 -71.870828 
L 205.966531 -71.870828 
z
" id="mc157d224e5" style="stroke:#ff00ff;stroke-opacity:0.2;"/>
    </defs>
    <g clip-path="url(#p03d8103a47)">
     <use style="fill:#ff00ff;fill-opacity:0.2;stroke:#ff00ff;stroke-opacity:0.2;" x="0" xlink:href="#mc157d224e5" y="266.990683"/>
    </g>
   </g>
   <g id="PolyCollection_22">
    <defs>
     <path d="M 205.966531 -117.08598 
L 205.966531 -71.870828 
L 249.825644 -71.870828 
L 249.825644 -117.08598 
L 249.825644 -117.08598 
L 205.966531 -117.08598 
z
" id="mad900f48d0" style="stroke:#ff00ff;stroke-opacity:0.2;"/>
    </defs>
    <g clip-path="url(#p03d8103a47)">
     <use style="fill:#ff00ff;fill-opacity:0.2;stroke:#ff00ff;stroke-opacity:0.2;" x="0" xlink:href="#mad900f48d0" y="266.990683"/>
    </g>
   </g>
   <g id="PolyCollection_23">
    <defs>
     <path d="M 205.966531 -162.301131 
L 205.966531 -117.08598 
L 249.825644 -117.08598 
L 249.825644 -162.301131 
L 249.825644 -162.301131 
L 205.966531 -162.301131 
z
" id="m9d0e14afa2" style="stroke:#ff00ff;stroke-opacity:0.2;"/>
    </defs>
    <g clip-path="url(#p03d8103a47)">
     <use style="fill:#ff00ff;fill-opacity:0.2;stroke:#ff00ff;stroke-opacity:0.2;" x="0" xlink:href="#m9d0e14afa2" y="266.990683"/>
    </g>
   </g>
   <g id="PolyCollection_24">
    <defs>
     <path d="M 205.966531 -207.516283 
L 205.966531 -162.301131 
L 249.825644 -162.301131 
L 249.825644 -207.516283 
L 249.825644 -207.516283 
L 205.966531 -207.516283 
z
" id="m62a2298465" style="stroke:#40e0d0;stroke-opacity:0.2;"/>
    </defs>
    <g clip-path="url(#p03d8103a47)">
     <use style="fill:#40e0d0;fill-opacity:0.2;stroke:#40e0d0;stroke-opacity:0.2;" x="0" xlink:href="#m62a2298465" y="266.990683"/>
    </g>
   </g>
   <g id="PolyCollection_25">
    <defs>
     <path d="M 205.966531 -252.731434 
L 205.966531 -207.516283 
L 249.825644 -207.516283 
L 249.825644 -252.731434 
L 249.825644 -252.731434 
L 205.966531 -252.731434 
z
" id="mf79f5ec4b2" style="stroke:#40e0d0;stroke-opacity:0.2;"/>
    </defs>
    <g clip-path="url(#p03d8103a47)">
     <use style="fill:#40e0d0;fill-opacity:0.2;stroke:#40e0d0;stroke-opacity:0.2;" x="0" xlink:href="#mf79f5ec4b2" y="266.990683"/>
    </g>
   </g>
   <g id="matplotlib.axis_1">
    <g id="xtick_1">
     <g id="line2d_1">
      <defs>
       <path d="M 0 0 
L 0 3.5 
" id="m714429d67a" style="stroke:#000000;stroke-width:0.8;"/>
      </defs>
      <g>
       <use style="stroke:#000000;stroke-width:0.8;" x="30.530079" xlink:href="#m714429d67a" y="240.335006"/>
      </g>
     </g>
     <g id="text_1">
      <!-- $0.0$ -->
      <defs>
       <path d="M 42 31.84375 
C 42 37.96875 41.90625 48.421875 37.703125 56.453125 
C 34 63.484375 28.09375 66 22.90625 66 
C 18.09375 66 12 63.78125 8.203125 56.5625 
C 4.203125 49.015625 3.796875 39.671875 3.796875 31.84375 
C 3.796875 26.109375 3.90625 17.375 7 9.734375 
C 11.296875 -0.609375 19 -2 22.90625 -2 
C 27.5 -2 34.5 -0.109375 38.59375 9.4375 
C 41.59375 16.375 42 24.5 42 31.84375 
z
M 22.90625 -0.40625 
C 16.5 -0.40625 12.703125 5.125 11.296875 12.75 
C 10.203125 18.6875 10.203125 27.328125 10.203125 32.953125 
C 10.203125 40.6875 10.203125 47.109375 11.5 53.234375 
C 13.40625 61.78125 19 64.390625 22.90625 64.390625 
C 27 64.390625 32.296875 61.671875 34.203125 53.4375 
C 35.5 47.71875 35.59375 40.984375 35.59375 32.953125 
C 35.59375 26.421875 35.59375 18.375 34.40625 12.453125 
C 32.296875 1.5 26.40625 -0.40625 22.90625 -0.40625 
z
" id="CMR17-48"/>
       <path d="M 18.40625 4.796875 
C 18.40625 7.6875 16 9.6875 13.59375 9.6875 
C 10.703125 9.6875 8.703125 7.296875 8.703125 4.890625 
C 8.703125 2 11.09375 0 13.5 0 
C 16.40625 0 18.40625 2.390625 18.40625 4.796875 
z
" id="CMMI12-58"/>
      </defs>
      <g transform="translate(24.165039 254.253505)scale(0.1 -0.1)">
       <use transform="scale(0.996264)" xlink:href="#CMR17-48"/>
       <use transform="translate(45.690477 0)scale(0.996264)" xlink:href="#CMMI12-58"/>
       <use transform="translate(72.787654 0)scale(0.996264)" xlink:href="#CMR17-48"/>
      </g>
     </g>
    </g>
    <g id="xtick_2">
     <g id="line2d_2">
      <g>
       <use style="stroke:#000000;stroke-width:0.8;" x="74.389192" xlink:href="#m714429d67a" y="240.335006"/>
      </g>
     </g>
     <g id="text_2">
      <!-- $0.2$ -->
      <defs>
       <path d="M 41.703125 15.46875 
L 39.90625 15.46875 
C 38.90625 8.390625 38.09375 7.1875 37.703125 6.59375 
C 37.203125 5.796875 30 5.796875 28.59375 5.796875 
L 9.40625 5.796875 
C 13 9.6875 20 16.765625 28.5 24.9375 
C 34.59375 30.71875 41.703125 37.5 41.703125 47.390625 
C 41.703125 59.1875 32.296875 66 21.796875 66 
C 10.796875 66 4.09375 56.296875 4.09375 47.296875 
C 4.09375 43.390625 7 42.890625 8.203125 42.890625 
C 9.203125 42.890625 12.203125 43.484375 12.203125 46.984375 
C 12.203125 50.09375 9.59375 51 8.203125 51 
C 7.59375 51 7 50.890625 6.59375 50.6875 
C 8.5 59.1875 14.296875 63.390625 20.40625 63.390625 
C 29.09375 63.390625 34.796875 56.5 34.796875 47.390625 
C 34.796875 38.703125 29.703125 31.21875 24 24.734375 
L 4.09375 2.296875 
L 4.09375 0 
L 39.296875 0 
z
" id="CMR17-50"/>
      </defs>
      <g transform="translate(68.024152 254.253505)scale(0.1 -0.1)">
       <use transform="scale(0.996264)" xlink:href="#CMR17-48"/>
       <use transform="translate(45.690477 0)scale(0.996264)" xlink:href="#CMMI12-58"/>
       <use transform="translate(72.787654 0)scale(0.996264)" xlink:href="#CMR17-50"/>
      </g>
     </g>
    </g>
    <g id="xtick_3">
     <g id="line2d_3">
      <g>
       <use style="stroke:#000000;stroke-width:0.8;" x="118.248305" xlink:href="#m714429d67a" y="240.335006"/>
      </g>
     </g>
     <g id="text_3">
      <!-- $0.4$ -->
      <defs>
       <path d="M 33.59375 64.796875 
C 33.59375 66.890625 33.5 67 31.703125 67 
L 2 19.59375 
L 2 17 
L 27.796875 17 
L 27.796875 7.1875 
C 27.796875 3.59375 27.59375 2.59375 20.59375 2.59375 
L 18.703125 2.59375 
L 18.703125 0 
C 21.90625 0.1875 27.296875 0.1875 30.703125 0.1875 
C 34.09375 0.1875 39.5 0.1875 42.703125 0 
L 42.703125 2.59375 
L 40.796875 2.59375 
C 33.796875 2.59375 33.59375 3.59375 33.59375 7.1875 
L 33.59375 17 
L 43.796875 17 
L 43.796875 19.59375 
L 33.59375 19.59375 
z
M 28.09375 58.171875 
L 28.09375 19.59375 
L 4 19.59375 
z
" id="CMR17-52"/>
      </defs>
      <g transform="translate(111.883265 254.253505)scale(0.1 -0.1)">
       <use transform="scale(0.996264)" xlink:href="#CMR17-48"/>
       <use transform="translate(45.690477 0)scale(0.996264)" xlink:href="#CMMI12-58"/>
       <use transform="translate(72.787654 0)scale(0.996264)" xlink:href="#CMR17-52"/>
      </g>
     </g>
    </g>
    <g id="xtick_4">
     <g id="line2d_4">
      <g>
       <use style="stroke:#000000;stroke-width:0.8;" x="162.107418" xlink:href="#m714429d67a" y="240.335006"/>
      </g>
     </g>
     <g id="text_4">
      <!-- $0.6$ -->
      <defs>
       <path d="M 10.59375 34.34375 
C 10.59375 58 21.796875 63.6875 28.296875 63.6875 
C 30.40625 63.6875 35.5 63.265625 37.5 59.09375 
C 35.90625 59.09375 32.90625 59.09375 32.90625 55.59375 
C 32.90625 52.890625 35.09375 52 36.5 52 
C 37.40625 52 40.09375 52.390625 40.09375 55.796875 
C 40.09375 62.296875 35.09375 66 28.203125 66 
C 16.296875 66 3.796875 53.296875 3.796875 31.421875 
C 3.796875 4.015625 15.09375 -2 23.09375 -2 
C 32.796875 -2 42 6.734375 42 20.234375 
C 42 32.828125 33.90625 42 23.703125 42 
C 17.59375 42 13.09375 37.96875 10.59375 30.921875 
z
M 23.09375 0.390625 
C 10.796875 0.390625 10.796875 18.9375 10.796875 22.65625 
C 10.796875 29.90625 14.203125 40.390625 23.5 40.390625 
C 25.203125 40.390625 30.09375 40.390625 33.40625 33.4375 
C 35.203125 29.515625 35.203125 25.375 35.203125 20.34375 
C 35.203125 14.90625 35.203125 10.875 33.09375 6.84375 
C 30.90625 2.703125 27.703125 0.390625 23.09375 0.390625 
z
" id="CMR17-54"/>
      </defs>
      <g transform="translate(155.742378 254.253505)scale(0.1 -0.1)">
       <use transform="scale(0.996264)" xlink:href="#CMR17-48"/>
       <use transform="translate(45.690477 0)scale(0.996264)" xlink:href="#CMMI12-58"/>
       <use transform="translate(72.787654 0)scale(0.996264)" xlink:href="#CMR17-54"/>
      </g>
     </g>
    </g>
    <g id="xtick_5">
     <g id="line2d_5">
      <g>
       <use style="stroke:#000000;stroke-width:0.8;" x="205.966531" xlink:href="#m714429d67a" y="240.335006"/>
      </g>
     </g>
     <g id="text_5">
      <!-- $0.8$ -->
      <defs>
       <path d="M 27.203125 35.765625 
C 33.5 38.96875 39.90625 43.796875 39.90625 51.53125 
C 39.90625 60.6875 31.09375 66 23 66 
C 13.90625 66 5.90625 59.375 5.90625 50.234375 
C 5.90625 47.71875 6.5 43.390625 10.40625 39.578125 
C 11.40625 38.578125 15.59375 35.5625 18.296875 33.65625 
C 13.796875 31.34375 3.296875 25.8125 3.296875 14.765625 
C 3.296875 4.40625 13.09375 -2 22.796875 -2 
C 33.5 -2 42.5 5.71875 42.5 15.96875 
C 42.5 25.109375 36.40625 29.328125 32.40625 32.046875 
z
M 14.09375 44.609375 
C 13.296875 45.109375 9.296875 48.21875 9.296875 52.9375 
C 9.296875 59.078125 15.59375 63.6875 22.796875 63.6875 
C 30.703125 63.6875 36.5 58.0625 36.5 51.53125 
C 36.5 42.1875 26.09375 36.859375 25.59375 36.859375 
C 25.5 36.859375 25.40625 36.859375 24.59375 37.46875 
z
M 32.5 24 
C 34 22.90625 38.796875 19.578125 38.796875 13.453125 
C 38.796875 6.015625 31.40625 0.390625 23 0.390625 
C 13.90625 0.390625 7 6.921875 7 14.859375 
C 7 22.796875 13.09375 29.4375 20 32.546875 
z
" id="CMR17-56"/>
      </defs>
      <g transform="translate(199.601491 254.253505)scale(0.1 -0.1)">
       <use transform="scale(0.996264)" xlink:href="#CMR17-48"/>
       <use transform="translate(45.690477 0)scale(0.996264)" xlink:href="#CMMI12-58"/>
       <use transform="translate(72.787654 0)scale(0.996264)" xlink:href="#CMR17-56"/>
      </g>
     </g>
    </g>
    <g id="xtick_6">
     <g id="line2d_6">
      <g>
       <use style="stroke:#000000;stroke-width:0.8;" x="249.825644" xlink:href="#m714429d67a" y="240.335006"/>
      </g>
     </g>
     <g id="text_6">
      <!-- $1.0$ -->
      <defs>
       <path d="M 26.59375 63.796875 
C 26.59375 65.890625 26.5 66 25.09375 66 
C 21.203125 61.359375 15.296875 59.890625 9.703125 59.6875 
C 9.40625 59.6875 8.90625 59.6875 8.796875 59.5 
C 8.703125 59.296875 8.703125 59.09375 8.703125 57 
C 11.796875 57 17 57.59375 21 59.984375 
L 21 7.296875 
C 21 3.796875 20.796875 2.59375 12.203125 2.59375 
L 9.203125 2.59375 
L 9.203125 0 
C 14 0.09375 19 0.1875 23.796875 0.1875 
C 28.59375 0.1875 33.59375 0.09375 38.40625 0 
L 38.40625 2.59375 
L 35.40625 2.59375 
C 26.796875 2.59375 26.59375 3.6875 26.59375 7.296875 
z
" id="CMR17-49"/>
      </defs>
      <g transform="translate(243.460604 254.253505)scale(0.1 -0.1)">
       <use transform="scale(0.996264)" xlink:href="#CMR17-49"/>
       <use transform="translate(45.690477 0)scale(0.996264)" xlink:href="#CMMI12-58"/>
       <use transform="translate(72.787654 0)scale(0.996264)" xlink:href="#CMR17-48"/>
      </g>
     </g>
    </g>
   </g>
   <g id="matplotlib.axis_2">
    <g id="ytick_1">
     <g id="line2d_7">
      <defs>
       <path d="M 0 0 
L -3.5 0 
" id="me518eccb64" style="stroke:#000000;stroke-width:0.8;"/>
      </defs>
      <g>
       <use style="stroke:#000000;stroke-width:0.8;" x="30.530079" xlink:href="#me518eccb64" y="240.335006"/>
      </g>
     </g>
     <g id="text_7">
      <!-- $0.0$ -->
      <g transform="translate(10.8 243.794256)scale(0.1 -0.1)">
       <use transform="scale(0.996264)" xlink:href="#CMR17-48"/>
       <use transform="translate(45.690477 0)scale(0.996264)" xlink:href="#CMMI12-58"/>
       <use transform="translate(72.787654 0)scale(0.996264)" xlink:href="#CMR17-48"/>
      </g>
     </g>
    </g>
    <g id="ytick_2">
     <g id="line2d_8">
      <g>
       <use style="stroke:#000000;stroke-width:0.8;" x="30.530079" xlink:href="#me518eccb64" y="195.119855"/>
      </g>
     </g>
     <g id="text_8">
      <!-- $0.2$ -->
      <g transform="translate(10.8 198.579104)scale(0.1 -0.1)">
       <use transform="scale(0.996264)" xlink:href="#CMR17-48"/>
       <use transform="translate(45.690477 0)scale(0.996264)" xlink:href="#CMMI12-58"/>
       <use transform="translate(72.787654 0)scale(0.996264)" xlink:href="#CMR17-50"/>
      </g>
     </g>
    </g>
    <g id="ytick_3">
     <g id="line2d_9">
      <g>
       <use style="stroke:#000000;stroke-width:0.8;" x="30.530079" xlink:href="#me518eccb64" y="149.904704"/>
      </g>
     </g>
     <g id="text_9">
      <!-- $0.4$ -->
      <g transform="translate(10.8 153.363953)scale(0.1 -0.1)">
       <use transform="scale(0.996264)" xlink:href="#CMR17-48"/>
       <use transform="translate(45.690477 0)scale(0.996264)" xlink:href="#CMMI12-58"/>
       <use transform="translate(72.787654 0)scale(0.996264)" xlink:href="#CMR17-52"/>
      </g>
     </g>
    </g>
    <g id="ytick_4">
     <g id="line2d_10">
      <g>
       <use style="stroke:#000000;stroke-width:0.8;" x="30.530079" xlink:href="#me518eccb64" y="104.689552"/>
      </g>
     </g>
     <g id="text_10">
      <!-- $0.6$ -->
      <g transform="translate(10.8 108.148801)scale(0.1 -0.1)">
       <use transform="scale(0.996264)" xlink:href="#CMR17-48"/>
       <use transform="translate(45.690477 0)scale(0.996264)" xlink:href="#CMMI12-58"/>
       <use transform="translate(72.787654 0)scale(0.996264)" xlink:href="#CMR17-54"/>
      </g>
     </g>
    </g>
    <g id="ytick_5">
     <g id="line2d_11">
      <g>
       <use style="stroke:#000000;stroke-width:0.8;" x="30.530079" xlink:href="#me518eccb64" y="59.474401"/>
      </g>
     </g>
     <g id="text_11">
      <!-- $0.8$ -->
      <g transform="translate(10.8 62.93365)scale(0.1 -0.1)">
       <use transform="scale(0.996264)" xlink:href="#CMR17-48"/>
       <use transform="translate(45.690477 0)scale(0.996264)" xlink:href="#CMMI12-58"/>
       <use transform="translate(72.787654 0)scale(0.996264)" xlink:href="#CMR17-56"/>
      </g>
     </g>
    </g>
    <g id="ytick_6">
     <g id="line2d_12">
      <g>
       <use style="stroke:#000000;stroke-width:0.8;" x="30.530079" xlink:href="#me518eccb64" y="14.259249"/>
      </g>
     </g>
     <g id="text_12">
      <!-- $1.0$ -->
      <g transform="translate(10.8 17.718498)scale(0.1 -0.1)">
       <use transform="scale(0.996264)" xlink:href="#CMR17-49"/>
       <use transform="translate(45.690477 0)scale(0.996264)" xlink:href="#CMMI12-58"/>
       <use transform="translate(72.787654 0)scale(0.996264)" xlink:href="#CMR17-48"/>
      </g>
     </g>
    </g>
   </g>
   <g id="PathCollection_1">
    <defs>
     <path d="M 0 2.09165 
C 0.554712 2.09165 1.086779 1.871261 1.47902 1.47902 
C 1.871261 1.086779 2.09165 0.554712 2.09165 0 
C 2.09165 -0.554712 1.871261 -1.086779 1.47902 -1.47902 
C 1.086779 -1.871261 0.554712 -2.09165 0 -2.09165 
C -0.554712 -2.09165 -1.086779 -1.871261 -1.47902 -1.47902 
C -1.871261 -1.086779 -2.09165 -0.554712 -2.09165 0 
C -2.09165 0.554712 -1.871261 1.086779 -1.47902 1.47902 
C -1.086779 1.871261 -0.554712 2.09165 0 2.09165 
z
" id="C0_0_c478aa03b8"/>
    </defs>
    <g clip-path="url(#p03d8103a47)">
     <use style="fill:none;stroke:#ff00ff;" x="102.897615" xlink:href="#C0_0_c478aa03b8" y="41.38834"/>
    </g>
    <g clip-path="url(#p03d8103a47)">
     <use style="fill:none;stroke:#ff00ff;" x="192.808797" xlink:href="#C0_0_c478aa03b8" y="118.254098"/>
    </g>
    <g clip-path="url(#p03d8103a47)">
     <use style="fill:none;stroke:#ff00ff;" x="203.773575" xlink:href="#C0_0_c478aa03b8" y="224.509703"/>
    </g>
    <g clip-path="url(#p03d8103a47)">
     <use style="fill:none;stroke:#ff00ff;" x="212.545398" xlink:href="#C0_0_c478aa03b8" y="186.076825"/>
    </g>
    <g clip-path="url(#p03d8103a47)">
     <use style="fill:none;stroke:#ff00ff;" x="41.494857" xlink:href="#C0_0_c478aa03b8" y="145.383188"/>
    </g>
   </g>
   <g id="PathCollection_2">
    <defs>
     <path d="M 0 2.09165 
C 0.554712 2.09165 1.086779 1.871261 1.47902 1.47902 
C 1.871261 1.086779 2.09165 0.554712 2.09165 0 
C 2.09165 -0.554712 1.871261 -1.086779 1.47902 -1.47902 
C 1.086779 -1.871261 0.554712 -2.09165 0 -2.09165 
C -0.554712 -2.09165 -1.086779 -1.871261 -1.47902 -1.47902 
C -1.871261 -1.086779 -2.09165 -0.554712 -2.09165 0 
C -2.09165 0.554712 -1.871261 1.086779 -1.47902 1.47902 
C -1.086779 1.871261 -0.554712 2.09165 0 2.09165 
z
" id="C1_0_9d4e104c95"/>
    </defs>
    <g clip-path="url(#p03d8103a47)">
     <use style="fill:none;stroke:#40e0d0;" x="210.352442" xlink:href="#C1_0_9d4e104c95" y="82.081976"/>
    </g>
    <g clip-path="url(#p03d8103a47)">
     <use style="fill:none;stroke:#40e0d0;" x="142.370817" xlink:href="#C1_0_9d4e104c95" y="68.517431"/>
    </g>
    <g clip-path="url(#p03d8103a47)">
     <use style="fill:none;stroke:#40e0d0;" x="186.22993" xlink:href="#C1_0_9d4e104c95" y="32.34531"/>
    </g>
    <g clip-path="url(#p03d8103a47)">
     <use style="fill:none;stroke:#40e0d0;" x="201.580619" xlink:href="#C1_0_9d4e104c95" y="197.380613"/>
    </g>
    <g clip-path="url(#p03d8103a47)">
     <use style="fill:none;stroke:#40e0d0;" x="124.827172" xlink:href="#C1_0_9d4e104c95" y="120.514855"/>
    </g>
   </g>
   <g id="patch_3">
    <path d="M 30.530079 240.335006 
L 30.530079 14.259249 
" style="fill:none;stroke:#000000;stroke-linecap:square;stroke-linejoin:miter;stroke-width:0.8;"/>
   </g>
   <g id="patch_4">
    <path d="M 249.825644 240.335006 
L 249.825644 14.259249 
" style="fill:none;stroke:#000000;stroke-linecap:square;stroke-linejoin:miter;stroke-width:0.8;"/>
   </g>
   <g id="patch_5">
    <path d="M 30.530079 240.335006 
L 249.825644 240.335006 
" style="fill:none;stroke:#000000;stroke-linecap:square;stroke-linejoin:miter;stroke-width:0.8;"/>
   </g>
   <g id="patch_6">
    <path d="M 30.530079 14.259249 
L 249.825644 14.259249 
" style="fill:none;stroke:#000000;stroke-linecap:square;stroke-linejoin:miter;stroke-width:0.8;"/>
   </g>
  </g>
 </g>
 <defs>
  <clipPath id="p03d8103a47">
   <rect height="226.075757" width="219.295565" x="30.530079" y="14.259249"/>
  </clipPath>
 </defs>
</svg>
