<?xml version="1.0" encoding="utf-8" standalone="no"?>
<!DOCTYPE svg PUBLIC "-//W3C//DTD SVG 1.1//EN"
  "http://www.w3.org/Graphics/SVG/1.1/DTD/svg11.dtd">
<!-- Created with matplotlib (https://matplotlib.org/) -->
<svg height="266.990683pt" version="1.1" viewBox="0 0 432 266.990683" width="432pt" xmlns="http://www.w3.org/2000/svg" xmlns:xlink="http://www.w3.org/1999/xlink">
 <defs>
  <style type="text/css">
*{stroke-linecap:butt;stroke-linejoin:round;}
  </style>
 </defs>
 <g id="figure_1">
  <g id="patch_1">
   <path d="M 0 266.990683 
L 432 266.990683 
L 432 0 
L 0 0 
z
" style="fill:#ffffff;"/>
  </g>
  <g id="axes_1">
   <g id="patch_2">
    <path d="M 22.781335 112.239665 
L 203.236271 112.239665 
L 203.236271 10.8 
L 22.781335 10.8 
z
" style="fill:#ffffff;"/>
   </g>
   <g id="PathCollection_1">
    <defs>
     <path d="M 0 1.767767 
C 0.468817 1.767767 0.918496 1.581504 1.25 1.25 
C 1.581504 0.918496 1.767767 0.468817 1.767767 0 
C 1.767767 -0.468817 1.581504 -0.918496 1.25 -1.25 
C 0.918496 -1.581504 0.468817 -1.767767 0 -1.767767 
C -0.468817 -1.767767 -0.918496 -1.581504 -1.25 -1.25 
C -1.581504 -0.918496 -1.767767 -0.468817 -1.767767 0 
C -1.767767 0.468817 -1.581504 0.918496 -1.25 1.25 
C -0.918496 1.581504 -0.468817 1.767767 0 1.767767 
z
" id="C0_0_2a672090ce"/>
    </defs>
    <g clip-path="url(#p3f535d81a0)">
     <use style="fill:none;stroke:#ff00ff;" x="24.550501" xlink:href="#C0_0_2a672090ce" y="63.011592"/>
    </g>
    <g clip-path="url(#p3f535d81a0)">
     <use style="fill:none;stroke:#ff00ff;" x="42.242162" xlink:href="#C0_0_2a672090ce" y="72.260503"/>
    </g>
    <g clip-path="url(#p3f535d81a0)">
     <use style="fill:none;stroke:#ff00ff;" x="59.933822" xlink:href="#C0_0_2a672090ce" y="85.686341"/>
    </g>
    <g clip-path="url(#p3f535d81a0)">
     <use style="fill:none;stroke:#ff00ff;" x="77.625483" xlink:href="#C0_0_2a672090ce" y="93.14514"/>
    </g>
    <g clip-path="url(#p3f535d81a0)">
     <use style="fill:none;stroke:#ff00ff;" x="95.317143" xlink:href="#C0_0_2a672090ce" y="97.322067"/>
    </g>
    <g clip-path="url(#p3f535d81a0)">
     <use style="fill:none;stroke:#ff00ff;" x="113.008803" xlink:href="#C0_0_2a672090ce" y="80.614358"/>
    </g>
    <g clip-path="url(#p3f535d81a0)">
     <use style="fill:none;stroke:#ff00ff;" x="130.700464" xlink:href="#C0_0_2a672090ce" y="62.71324"/>
    </g>
    <g clip-path="url(#p3f535d81a0)">
     <use style="fill:none;stroke:#ff00ff;" x="148.392124" xlink:href="#C0_0_2a672090ce" y="65.995112"/>
    </g>
    <g clip-path="url(#p3f535d81a0)">
     <use style="fill:none;stroke:#ff00ff;" x="166.083785" xlink:href="#C0_0_2a672090ce" y="54.061034"/>
    </g>
    <g clip-path="url(#p3f535d81a0)">
     <use style="fill:none;stroke:#ff00ff;" x="183.775445" xlink:href="#C0_0_2a672090ce" y="26.01595"/>
    </g>
    <g clip-path="url(#p3f535d81a0)">
     <use style="fill:none;stroke:#ff00ff;" x="201.467105" xlink:href="#C0_0_2a672090ce" y="41.828603"/>
    </g>
   </g>
   <g id="matplotlib.axis_1">
    <g id="xtick_1">
     <g id="line2d_1">
      <defs>
       <path d="M 0 0 
L 0 3.5 
" id="m1a2c5d726a" style="stroke:#000000;stroke-width:0.8;"/>
      </defs>
      <g>
       <use style="stroke:#000000;stroke-width:0.8;" x="24.550501" xlink:href="#m1a2c5d726a" y="112.239665"/>
      </g>
     </g>
     <g id="text_1">
      <!-- $0.0$ -->
      <defs>
       <path d="M 42 31.84375 
C 42 37.96875 41.90625 48.421875 37.703125 56.453125 
C 34 63.484375 28.09375 66 22.90625 66 
C 18.09375 66 12 63.78125 8.203125 56.5625 
C 4.203125 49.015625 3.796875 39.671875 3.796875 31.84375 
C 3.796875 26.109375 3.90625 17.375 7 9.734375 
C 11.296875 -0.609375 19 -2 22.90625 -2 
C 27.5 -2 34.5 -0.109375 38.59375 9.4375 
C 41.59375 16.375 42 24.5 42 31.84375 
z
M 22.90625 -0.40625 
C 16.5 -0.40625 12.703125 5.125 11.296875 12.75 
C 10.203125 18.6875 10.203125 27.328125 10.203125 32.953125 
C 10.203125 40.6875 10.203125 47.109375 11.5 53.234375 
C 13.40625 61.78125 19 64.390625 22.90625 64.390625 
C 27 64.390625 32.296875 61.671875 34.203125 53.4375 
C 35.5 47.71875 35.59375 40.984375 35.59375 32.953125 
C 35.59375 26.421875 35.59375 18.375 34.40625 12.453125 
C 32.296875 1.5 26.40625 -0.40625 22.90625 -0.40625 
z
" id="CMR17-48"/>
       <path d="M 18.40625 4.796875 
C 18.40625 7.6875 16 9.6875 13.59375 9.6875 
C 10.703125 9.6875 8.703125 7.296875 8.703125 4.890625 
C 8.703125 2 11.09375 0 13.5 0 
C 16.40625 0 18.40625 2.390625 18.40625 4.796875 
z
" id="CMMI12-58"/>
      </defs>
      <g transform="translate(18.185462 126.158163)scale(0.1 -0.1)">
       <use transform="scale(0.996264)" xlink:href="#CMR17-48"/>
       <use transform="translate(45.690477 0)scale(0.996264)" xlink:href="#CMMI12-58"/>
       <use transform="translate(72.787654 0)scale(0.996264)" xlink:href="#CMR17-48"/>
      </g>
     </g>
    </g>
    <g id="xtick_2">
     <g id="line2d_2">
      <g>
       <use style="stroke:#000000;stroke-width:0.8;" x="59.933822" xlink:href="#m1a2c5d726a" y="112.239665"/>
      </g>
     </g>
     <g id="text_2">
      <!-- $0.2$ -->
      <defs>
       <path d="M 41.703125 15.46875 
L 39.90625 15.46875 
C 38.90625 8.390625 38.09375 7.1875 37.703125 6.59375 
C 37.203125 5.796875 30 5.796875 28.59375 5.796875 
L 9.40625 5.796875 
C 13 9.6875 20 16.765625 28.5 24.9375 
C 34.59375 30.71875 41.703125 37.5 41.703125 47.390625 
C 41.703125 59.1875 32.296875 66 21.796875 66 
C 10.796875 66 4.09375 56.296875 4.09375 47.296875 
C 4.09375 43.390625 7 42.890625 8.203125 42.890625 
C 9.203125 42.890625 12.203125 43.484375 12.203125 46.984375 
C 12.203125 50.09375 9.59375 51 8.203125 51 
C 7.59375 51 7 50.890625 6.59375 50.6875 
C 8.5 59.1875 14.296875 63.390625 20.40625 63.390625 
C 29.09375 63.390625 34.796875 56.5 34.796875 47.390625 
C 34.796875 38.703125 29.703125 31.21875 24 24.734375 
L 4.09375 2.296875 
L 4.09375 0 
L 39.296875 0 
z
" id="CMR17-50"/>
      </defs>
      <g transform="translate(53.568783 126.158163)scale(0.1 -0.1)">
       <use transform="scale(0.996264)" xlink:href="#CMR17-48"/>
       <use transform="translate(45.690477 0)scale(0.996264)" xlink:href="#CMMI12-58"/>
       <use transform="translate(72.787654 0)scale(0.996264)" xlink:href="#CMR17-50"/>
      </g>
     </g>
    </g>
    <g id="xtick_3">
     <g id="line2d_3">
      <g>
       <use style="stroke:#000000;stroke-width:0.8;" x="95.317143" xlink:href="#m1a2c5d726a" y="112.239665"/>
      </g>
     </g>
     <g id="text_3">
      <!-- $0.4$ -->
      <defs>
       <path d="M 33.59375 64.796875 
C 33.59375 66.890625 33.5 67 31.703125 67 
L 2 19.59375 
L 2 17 
L 27.796875 17 
L 27.796875 7.1875 
C 27.796875 3.59375 27.59375 2.59375 20.59375 2.59375 
L 18.703125 2.59375 
L 18.703125 0 
C 21.90625 0.1875 27.296875 0.1875 30.703125 0.1875 
C 34.09375 0.1875 39.5 0.1875 42.703125 0 
L 42.703125 2.59375 
L 40.796875 2.59375 
C 33.796875 2.59375 33.59375 3.59375 33.59375 7.1875 
L 33.59375 17 
L 43.796875 17 
L 43.796875 19.59375 
L 33.59375 19.59375 
z
M 28.09375 58.171875 
L 28.09375 19.59375 
L 4 19.59375 
z
" id="CMR17-52"/>
      </defs>
      <g transform="translate(88.952103 126.158163)scale(0.1 -0.1)">
       <use transform="scale(0.996264)" xlink:href="#CMR17-48"/>
       <use transform="translate(45.690477 0)scale(0.996264)" xlink:href="#CMMI12-58"/>
       <use transform="translate(72.787654 0)scale(0.996264)" xlink:href="#CMR17-52"/>
      </g>
     </g>
    </g>
    <g id="xtick_4">
     <g id="line2d_4">
      <g>
       <use style="stroke:#000000;stroke-width:0.8;" x="130.700464" xlink:href="#m1a2c5d726a" y="112.239665"/>
      </g>
     </g>
     <g id="text_4">
      <!-- $0.6$ -->
      <defs>
       <path d="M 10.59375 34.34375 
C 10.59375 58 21.796875 63.6875 28.296875 63.6875 
C 30.40625 63.6875 35.5 63.265625 37.5 59.09375 
C 35.90625 59.09375 32.90625 59.09375 32.90625 55.59375 
C 32.90625 52.890625 35.09375 52 36.5 52 
C 37.40625 52 40.09375 52.390625 40.09375 55.796875 
C 40.09375 62.296875 35.09375 66 28.203125 66 
C 16.296875 66 3.796875 53.296875 3.796875 31.421875 
C 3.796875 4.015625 15.09375 -2 23.09375 -2 
C 32.796875 -2 42 6.734375 42 20.234375 
C 42 32.828125 33.90625 42 23.703125 42 
C 17.59375 42 13.09375 37.96875 10.59375 30.921875 
z
M 23.09375 0.390625 
C 10.796875 0.390625 10.796875 18.9375 10.796875 22.65625 
C 10.796875 29.90625 14.203125 40.390625 23.5 40.390625 
C 25.203125 40.390625 30.09375 40.390625 33.40625 33.4375 
C 35.203125 29.515625 35.203125 25.375 35.203125 20.34375 
C 35.203125 14.90625 35.203125 10.875 33.09375 6.84375 
C 30.90625 2.703125 27.703125 0.390625 23.09375 0.390625 
z
" id="CMR17-54"/>
      </defs>
      <g transform="translate(124.335424 126.158163)scale(0.1 -0.1)">
       <use transform="scale(0.996264)" xlink:href="#CMR17-48"/>
       <use transform="translate(45.690477 0)scale(0.996264)" xlink:href="#CMMI12-58"/>
       <use transform="translate(72.787654 0)scale(0.996264)" xlink:href="#CMR17-54"/>
      </g>
     </g>
    </g>
    <g id="xtick_5">
     <g id="line2d_5">
      <g>
       <use style="stroke:#000000;stroke-width:0.8;" x="166.083785" xlink:href="#m1a2c5d726a" y="112.239665"/>
      </g>
     </g>
     <g id="text_5">
      <!-- $0.8$ -->
      <defs>
       <path d="M 27.203125 35.765625 
C 33.5 38.96875 39.90625 43.796875 39.90625 51.53125 
C 39.90625 60.6875 31.09375 66 23 66 
C 13.90625 66 5.90625 59.375 5.90625 50.234375 
C 5.90625 47.71875 6.5 43.390625 10.40625 39.578125 
C 11.40625 38.578125 15.59375 35.5625 18.296875 33.65625 
C 13.796875 31.34375 3.296875 25.8125 3.296875 14.765625 
C 3.296875 4.40625 13.09375 -2 22.796875 -2 
C 33.5 -2 42.5 5.71875 42.5 15.96875 
C 42.5 25.109375 36.40625 29.328125 32.40625 32.046875 
z
M 14.09375 44.609375 
C 13.296875 45.109375 9.296875 48.21875 9.296875 52.9375 
C 9.296875 59.078125 15.59375 63.6875 22.796875 63.6875 
C 30.703125 63.6875 36.5 58.0625 36.5 51.53125 
C 36.5 42.1875 26.09375 36.859375 25.59375 36.859375 
C 25.5 36.859375 25.40625 36.859375 24.59375 37.46875 
z
M 32.5 24 
C 34 22.90625 38.796875 19.578125 38.796875 13.453125 
C 38.796875 6.015625 31.40625 0.390625 23 0.390625 
C 13.90625 0.390625 7 6.921875 7 14.859375 
C 7 22.796875 13.09375 29.4375 20 32.546875 
z
" id="CMR17-56"/>
      </defs>
      <g transform="translate(159.718745 126.158163)scale(0.1 -0.1)">
       <use transform="scale(0.996264)" xlink:href="#CMR17-48"/>
       <use transform="translate(45.690477 0)scale(0.996264)" xlink:href="#CMMI12-58"/>
       <use transform="translate(72.787654 0)scale(0.996264)" xlink:href="#CMR17-56"/>
      </g>
     </g>
    </g>
    <g id="xtick_6">
     <g id="line2d_6">
      <g>
       <use style="stroke:#000000;stroke-width:0.8;" x="201.467105" xlink:href="#m1a2c5d726a" y="112.239665"/>
      </g>
     </g>
     <g id="text_6">
      <!-- $1.0$ -->
      <defs>
       <path d="M 26.59375 63.796875 
C 26.59375 65.890625 26.5 66 25.09375 66 
C 21.203125 61.359375 15.296875 59.890625 9.703125 59.6875 
C 9.40625 59.6875 8.90625 59.6875 8.796875 59.5 
C 8.703125 59.296875 8.703125 59.09375 8.703125 57 
C 11.796875 57 17 57.59375 21 59.984375 
L 21 7.296875 
C 21 3.796875 20.796875 2.59375 12.203125 2.59375 
L 9.203125 2.59375 
L 9.203125 0 
C 14 0.09375 19 0.1875 23.796875 0.1875 
C 28.59375 0.1875 33.59375 0.09375 38.40625 0 
L 38.40625 2.59375 
L 35.40625 2.59375 
C 26.796875 2.59375 26.59375 3.6875 26.59375 7.296875 
z
" id="CMR17-49"/>
      </defs>
      <g transform="translate(195.102066 126.158163)scale(0.1 -0.1)">
       <use transform="scale(0.996264)" xlink:href="#CMR17-49"/>
       <use transform="translate(45.690477 0)scale(0.996264)" xlink:href="#CMMI12-58"/>
       <use transform="translate(72.787654 0)scale(0.996264)" xlink:href="#CMR17-48"/>
      </g>
     </g>
    </g>
   </g>
   <g id="matplotlib.axis_2">
    <g id="ytick_1">
     <g id="line2d_7">
      <defs>
       <path d="M 0 0 
L -3.5 0 
" id="mc20517b32a" style="stroke:#000000;stroke-width:0.8;"/>
      </defs>
      <g>
       <use style="stroke:#000000;stroke-width:0.8;" x="22.781335" xlink:href="#mc20517b32a" y="97.322067"/>
      </g>
     </g>
     <g id="text_7">
      <!-- $0$ -->
      <g transform="translate(10.8 100.781316)scale(0.1 -0.1)">
       <use transform="scale(0.996264)" xlink:href="#CMR17-48"/>
      </g>
     </g>
    </g>
    <g id="ytick_2">
     <g id="line2d_8">
      <g>
       <use style="stroke:#000000;stroke-width:0.8;" x="22.781335" xlink:href="#mc20517b32a" y="67.486872"/>
      </g>
     </g>
     <g id="text_8">
      <!-- $1$ -->
      <g transform="translate(10.8 70.946121)scale(0.1 -0.1)">
       <use transform="scale(0.996264)" xlink:href="#CMR17-49"/>
      </g>
     </g>
    </g>
    <g id="ytick_3">
     <g id="line2d_9">
      <g>
       <use style="stroke:#000000;stroke-width:0.8;" x="22.781335" xlink:href="#mc20517b32a" y="37.651676"/>
      </g>
     </g>
     <g id="text_9">
      <!-- $2$ -->
      <g transform="translate(10.8 41.110925)scale(0.1 -0.1)">
       <use transform="scale(0.996264)" xlink:href="#CMR17-50"/>
      </g>
     </g>
    </g>
   </g>
   <g id="line2d_10">
    <path clip-path="url(#p3f535d81a0)" d="M 22.781335 55.759249 
L 26.404928 60.976835 
L 30.028521 65.732888 
L 33.652115 70.041897 
L 36.550989 73.176968 
L 39.449863 76.042621 
L 42.348738 78.646272 
L 45.247612 80.995342 
L 48.146487 83.097246 
L 51.045361 84.959402 
L 53.944236 86.58923 
L 56.84311 87.994146 
L 59.741985 89.181568 
L 62.640859 90.158915 
L 65.539734 90.933603 
L 68.438608 91.513051 
L 71.337483 91.904676 
L 74.961076 92.141384 
L 78.584669 92.110696 
L 82.208262 91.827103 
L 85.831855 91.305091 
L 89.455448 90.559149 
L 93.079041 89.603764 
L 97.427353 88.201236 
L 101.775665 86.54301 
L 106.123976 84.654118 
L 111.197007 82.192277 
L 116.270037 79.490307 
L 122.067786 76.159302 
L 129.314972 71.717915 
L 139.461033 65.18943 
L 155.404843 54.90215 
L 162.652029 50.499057 
L 168.449778 47.210674 
L 173.522808 44.554739 
L 178.595838 42.147091 
L 182.94415 40.311144 
L 187.292462 38.711856 
L 191.640774 37.37426 
L 195.264367 36.477564 
L 198.88796 35.794472 
L 202.511553 35.339474 
L 203.236271 35.27712 
L 203.236271 35.27712 
" style="fill:none;stroke:#40e0d0;stroke-linecap:square;"/>
   </g>
   <g id="line2d_11">
    <path clip-path="url(#p3f535d81a0)" d="M 22.781335 67.637192 
L 29.303803 67.180562 
L 31.477959 67.222446 
L 33.652115 67.45915 
L 35.82627 67.938938 
L 38.000426 68.700232 
L 40.174582 69.769998 
L 42.348738 71.162557 
L 44.522894 72.878872 
L 46.69705 74.906337 
L 48.871206 77.219072 
L 51.77008 80.678527 
L 55.393673 85.430939 
L 63.365578 96.107618 
L 66.264452 99.525015 
L 68.438608 101.762238 
L 70.612764 103.654192 
L 72.78692 105.151861 
L 74.236357 105.9122 
L 75.685794 106.47234 
L 77.135232 106.826934 
L 78.584669 106.973382 
L 80.034106 106.911867 
L 81.483543 106.645347 
L 82.932981 106.179504 
L 84.382418 105.522651 
L 85.831855 104.685587 
L 88.006011 103.121362 
L 90.180167 101.234493 
L 93.079041 98.323974 
L 96.702634 94.282043 
L 103.225102 86.884059 
L 106.123976 83.932849 
L 108.298132 81.970021 
L 110.472288 80.265758 
L 112.646444 78.846259 
L 114.8206 77.724595 
L 116.994756 76.900363 
L 119.168912 76.359835 
L 121.343067 76.076624 
L 123.517223 76.012815 
L 126.416098 76.185091 
L 136.562159 77.127348 
L 138.736314 76.977576 
L 140.91047 76.576019 
L 143.084626 75.879359 
L 145.258782 74.855097 
L 147.432938 73.48296 
L 149.607094 71.755841 
L 151.78125 69.680268 
L 153.955405 67.276348 
L 156.129561 64.577212 
L 159.028436 60.598664 
L 162.652029 55.210239 
L 169.899215 44.286918 
L 172.798089 40.352359 
L 174.972245 37.719233 
L 177.146401 35.424466 
L 179.320557 33.516737 
L 180.769994 32.478734 
L 182.219432 31.637265 
L 183.668869 30.997456 
L 185.118306 30.561679 
L 186.567743 30.329529 
L 188.01718 30.297837 
L 189.466618 30.460739 
L 190.916055 30.809777 
L 192.365492 31.33405 
L 194.539648 32.419687 
L 196.713804 33.816828 
L 198.88796 35.464528 
L 201.786834 37.935039 
L 203.236271 39.240548 
L 203.236271 39.240548 
" style="fill:none;stroke:#ff00ff;stroke-linecap:square;"/>
   </g>
   <g id="patch_3">
    <path d="M 22.781335 112.239665 
L 22.781335 10.8 
" style="fill:none;stroke:#000000;stroke-linecap:square;stroke-linejoin:miter;stroke-width:0.8;"/>
   </g>
   <g id="patch_4">
    <path d="M 203.236271 112.239665 
L 203.236271 10.8 
" style="fill:none;stroke:#000000;stroke-linecap:square;stroke-linejoin:miter;stroke-width:0.8;"/>
   </g>
   <g id="patch_5">
    <path d="M 22.781335 112.239665 
L 203.236271 112.239665 
" style="fill:none;stroke:#000000;stroke-linecap:square;stroke-linejoin:miter;stroke-width:0.8;"/>
   </g>
   <g id="patch_6">
    <path d="M 22.781335 10.8 
L 203.236271 10.8 
" style="fill:none;stroke:#000000;stroke-linecap:square;stroke-linejoin:miter;stroke-width:0.8;"/>
   </g>
   <g id="text_10">
    <!-- $M=3$ -->
    <defs>
     <path d="M 90.796875 60.71875 
C 91.703125 64.09375 91.90625 65.09375 99 65.09375 
C 100.90625 65.09375 101.796875 65.09375 101.796875 66.984375 
C 101.796875 68 101.09375 68 99.203125 68 
L 87.203125 68 
C 84.703125 68 84.59375 67.890625 83.5 66.296875 
L 47 8.859375 
L 39.5 65.796875 
C 39.203125 68 39.09375 68 36.5 68 
L 24.09375 68 
C 22.203125 68 21.296875 68 21.296875 66.09375 
C 21.296875 65.09375 22.203125 65.09375 23.703125 65.09375 
C 29.796875 65.09375 29.796875 64.296875 29.796875 63.203125 
C 29.796875 63 29.796875 62.40625 29.40625 60.90625 
L 16.59375 10.15625 
C 15.40625 5.375 13.09375 3.1875 6.40625 2.890625 
C 6.09375 2.890625 4.90625 2.796875 4.90625 1.09375 
C 4.90625 0 5.796875 0 6.203125 0 
C 8.203125 0 13.296875 0.1875 15.296875 0.1875 
L 20.09375 0.1875 
C 21.5 0.1875 23.203125 0 24.59375 0 
C 25.296875 0 26.40625 0 26.40625 1.890625 
C 26.40625 2.796875 25.40625 2.890625 25 2.890625 
C 21.703125 2.984375 18.5 3.59375 18.5 7.171875 
C 18.5 8.171875 18.5 8.265625 18.90625 9.65625 
L 32.703125 64.5 
L 32.796875 64.5 
L 41.09375 2.6875 
C 41.40625 0.296875 41.5 0 42.40625 0 
C 43.5 0 44 0.796875 44.5 1.6875 
L 84.703125 64.984375 
L 84.796875 64.984375 
L 70.296875 7.375 
C 69.40625 3.890625 69.203125 2.890625 62.203125 2.890625 
C 60.296875 2.890625 59.296875 2.890625 59.296875 1.09375 
C 59.296875 0 60.203125 0 60.796875 0 
C 62.5 0 64.5 0.1875 66.203125 0.1875 
L 78 0.1875 
C 79.703125 0.1875 81.796875 0 83.5 0 
C 84.296875 0 85.40625 0 85.40625 1.890625 
C 85.40625 2.890625 84.5 2.890625 83 2.890625 
C 76.90625 2.890625 76.90625 3.6875 76.90625 4.6875 
C 76.90625 4.78125 76.90625 5.484375 77.09375 6.28125 
z
" id="CMMI12-77"/>
     <path d="M 64.296875 32 
C 65.796875 32 67.296875 32 67.296875 33.6875 
C 67.296875 35.5 65.59375 35.5 63.90625 35.5 
L 8 35.5 
C 6.296875 35.5 4.59375 35.5 4.59375 33.6875 
C 4.59375 32 6.09375 32 7.59375 32 
z
M 63.90625 14.484375 
C 65.59375 14.484375 67.296875 14.484375 67.296875 16.296875 
C 67.296875 18 65.796875 18 64.296875 18 
L 7.59375 18 
C 6.09375 18 4.59375 18 4.59375 16.296875 
C 4.59375 14.484375 6.296875 14.484375 8 14.484375 
z
" id="CMR17-61"/>
     <path d="M 22.09375 34 
C 31 34 34.90625 26.140625 34.90625 17.09375 
C 34.90625 5.03125 28.5 0.390625 22.703125 0.390625 
C 17.40625 0.390625 8.796875 3.015625 6.09375 10.796875 
C 6.59375 10.59375 7.09375 10.59375 7.59375 10.59375 
C 10 10.59375 11.796875 12.1875 11.796875 14.796875 
C 11.796875 17.6875 9.59375 19 7.59375 19 
C 5.90625 19 3.296875 18.1875 3.296875 14.484375 
C 3.296875 5.234375 12.296875 -2 22.90625 -2 
C 34 -2 42.5 6.75 42.5 16.984375 
C 42.5 26.84375 34.5 34 25 35.09375 
C 32.59375 36.671875 39.90625 43.375 39.90625 52.390625 
C 39.90625 60.25 32 66 23 66 
C 13.90625 66 5.90625 60.34375 5.90625 52.296875 
C 5.90625 48.796875 8.5 48.1875 9.796875 48.1875 
C 11.90625 48.1875 13.703125 49.484375 13.703125 52.09375 
C 13.703125 54.6875 11.90625 56 9.796875 56 
C 9.40625 56 8.90625 56 8.5 55.796875 
C 11.40625 62.484375 19.296875 63.6875 22.796875 63.6875 
C 26.296875 63.6875 32.90625 61.96875 32.90625 52.296875 
C 32.90625 49.484375 32.5 44.546875 29.09375 40.21875 
C 26.09375 36.390625 22.703125 36.1875 19.40625 35.890625 
C 18.90625 35.890625 16.59375 35.6875 16.203125 35.6875 
C 15.5 35.59375 15.09375 35.5 15.09375 34.796875 
C 15.09375 34.09375 15.203125 34 17.203125 34 
z
" id="CMR17-51"/>
    </defs>
    <g transform="translate(166.083785 106.272626)scale(0.1 -0.1)">
     <use transform="scale(0.996264)" xlink:href="#CMMI12-77"/>
     <use transform="translate(132.454088 0)scale(0.996264)" xlink:href="#CMR17-61"/>
     <use transform="translate(231.842885 0)scale(0.996264)" xlink:href="#CMR17-51"/>
    </g>
   </g>
   <g id="legend_1">
    <g id="line2d_12">
     <path d="M 31.781335 23.3 
L 51.781335 23.3 
" style="fill:none;stroke:#40e0d0;stroke-linecap:square;"/>
    </g>
    <g id="line2d_13"/>
    <g id="text_11">
     <!-- Predicted -->
     <defs>
      <path d="M 19.796875 32 
L 35.796875 32 
C 48.703125 32 58.09375 40.359375 58.09375 49.796875 
C 58.09375 59.234375 48.90625 68 35.796875 68 
L 5.203125 68 
L 5.203125 65.390625 
C 12.09375 65.390625 13.203125 65.390625 13.203125 60.921875 
L 13.203125 7.078125 
C 13.203125 2.59375 12.09375 2.59375 5.203125 2.59375 
L 5.203125 0 
C 8.09375 0.1875 13.40625 0.1875 16.5 0.1875 
C 19.59375 0.1875 24.90625 0.1875 27.796875 0 
L 27.796875 2.59375 
C 20.90625 2.59375 19.796875 2.59375 19.796875 7.078125 
z
M 19.59375 34.09375 
L 19.59375 61.515625 
C 19.59375 64.890625 19.796875 65.390625 23.796875 65.390625 
L 33.90625 65.390625 
C 46.796875 65.390625 50.5 58.046875 50.5 49.796875 
C 50.5 40.75 46.09375 34.09375 33.90625 34.09375 
z
" id="CMR17-80"/>
      <path d="M 15 23.703125 
C 15 33.34375 19.09375 42.390625 26.59375 42.390625 
C 27.296875 42.390625 28 42.296875 28.703125 41.984375 
C 28.703125 41.984375 26.5 41.28125 26.5 38.671875 
C 26.5 36.265625 28.40625 35.265625 29.90625 35.265625 
C 31.09375 35.265625 33.296875 35.96875 33.296875 38.78125 
C 33.296875 41.984375 30.09375 44 26.703125 44 
C 19.09375 44 15.796875 36.5625 14.796875 33.046875 
L 14.703125 33.046875 
L 14.703125 44 
L 3.09375 42.890625 
L 3.09375 40.28125 
C 9 40.28125 9.90625 39.6875 9.90625 34.859375 
L 9.90625 6.921875 
C 9.90625 3.09375 9.5 2.59375 3.09375 2.59375 
L 3.09375 0 
C 5.5 0.1875 10.09375 0.1875 12.703125 0.1875 
C 15.59375 0.1875 20.703125 0.1875 23.40625 0 
L 23.40625 2.59375 
C 16.203125 2.59375 15 2.59375 15 7.109375 
z
" id="CMR17-114"/>
      <path d="M 38.09375 23.484375 
C 38.5 23.890625 38.5 24.09375 38.5 25.09375 
C 38.5 35.171875 33.09375 44 21.703125 44 
C 11.09375 44 2.703125 33.984375 2.703125 21.78125 
C 2.703125 8.65625 12.203125 -1 22.796875 -1 
C 34 -1 38.40625 9.671875 38.40625 11.796875 
C 38.40625 12.5 37.796875 12.5 37.59375 12.5 
C 36.90625 12.5 36.796875 12.296875 36.40625 11.078125 
C 34.203125 4.21875 28.703125 0.796875 23.5 0.796875 
C 19.203125 0.796875 14.90625 3.21875 12.203125 7.65625 
C 9.09375 12.796875 9.09375 18.75 9.09375 23.484375 
z
M 9.203125 25 
C 9.90625 39.234375 17.59375 42.390625 21.59375 42.390625 
C 28.40625 42.390625 33 36.0625 33.09375 25 
z
" id="CMR17-101"/>
      <path d="M 29.203125 67.890625 
L 29.203125 65.296875 
C 35.09375 65.296875 36 64.703125 36 60.046875 
L 36 37.046875 
C 35.59375 37.546875 31.5 44 23.40625 44 
C 13.203125 44 3.296875 34.8125 3.296875 21.5 
C 3.296875 8.265625 12.59375 -1 22.40625 -1 
C 30.90625 -1 35.296875 5.640625 35.796875 6.34375 
L 35.796875 -1 
L 47.90625 -0.203125 
L 47.90625 2.40625 
C 42 2.40625 41.09375 3.015625 41.09375 7.859375 
L 41.09375 69 
z
M 35.796875 11.90625 
C 35.796875 8.875 34 6.140625 31.703125 4.125 
C 28.296875 1.09375 24.90625 0.59375 23 0.59375 
C 20.09375 0.59375 9.703125 2.109375 9.703125 21.390625 
C 9.703125 41.1875 21.296875 42.390625 23.90625 42.390625 
C 28.5 42.390625 32.203125 39.765625 34.5 36.140625 
C 35.796875 34.015625 35.796875 33.703125 35.796875 31.890625 
z
" id="CMR17-100"/>
      <path d="M 15.5 61.890625 
C 15.5 64.09375 13.703125 66 11.40625 66 
C 9.203125 66 7.296875 64.1875 7.296875 61.890625 
C 7.296875 59.6875 9.09375 57.796875 11.40625 57.796875 
C 13.59375 57.796875 15.5 59.59375 15.5 61.890625 
z
M 3.796875 42.890625 
L 3.796875 40.296875 
C 9.40625 40.296875 10.203125 39.6875 10.203125 34.859375 
L 10.203125 6.921875 
C 10.203125 3.09375 9.796875 2.59375 3.40625 2.59375 
L 3.40625 0 
C 5.796875 0.1875 10.09375 0.1875 12.59375 0.1875 
C 15 0.1875 19.09375 0.1875 21.40625 0 
L 21.40625 2.59375 
C 15.5 2.59375 15.296875 3.203125 15.296875 6.8125 
L 15.296875 44 
z
" id="CMR17-105"/>
      <path d="M 34.90625 35 
C 33 35 30.203125 35 30.203125 31.484375 
C 30.203125 28.6875 32.5 27.890625 33.796875 27.890625 
C 34.5 27.890625 37.40625 28.1875 37.40625 31.6875 
C 37.40625 38.6875 30.59375 44 22.90625 44 
C 12.296875 44 3.296875 34.390625 3.296875 21.546875 
C 3.296875 8.140625 12.703125 -1 22.90625 -1 
C 35.296875 -1 38.40625 10.5625 38.40625 11.671875 
C 38.40625 12.078125 38.296875 12.375 37.59375 12.375 
C 36.90625 12.375 36.796875 12.28125 36.40625 10.96875 
C 33.796875 2.8125 28.09375 0.796875 23.796875 0.796875 
C 17.40625 0.796875 9.703125 6.734375 9.703125 21.640625 
C 9.703125 36.84375 17.09375 42.1875 23 42.1875 
C 26.90625 42.1875 32.703125 40.34375 34.90625 35 
z
" id="CMR17-99"/>
      <path d="M 15.09375 40.390625 
L 29.09375 40.390625 
L 29.09375 43 
L 15.09375 43 
L 15.09375 62 
L 13.296875 62 
C 13.09375 51.4375 9.59375 42.1875 1.09375 41.984375 
L 1.09375 40.390625 
L 9.796875 40.390625 
L 9.796875 12.15625 
C 9.796875 10.234375 9.796875 -1 21.40625 -1 
C 27.296875 -1 30.703125 4.8125 30.703125 12.25 
L 30.703125 17.984375 
L 28.90625 17.984375 
L 28.90625 12.34375 
C 28.90625 5.421875 26.203125 0.796875 22 0.796875 
C 19.09375 0.796875 15.09375 2.796875 15.09375 11.953125 
z
" id="CMR17-116"/>
     </defs>
     <g transform="translate(59.781335 26.8)scale(0.1 -0.1)">
      <use transform="scale(0.996264)" xlink:href="#CMR17-80"/>
      <use transform="translate(62.586301 0)scale(0.996264)" xlink:href="#CMR17-114"/>
      <use transform="translate(97.867068 0)scale(0.996264)" xlink:href="#CMR17-101"/>
      <use transform="translate(138.352729 0)scale(0.996264)" xlink:href="#CMR17-100"/>
      <use transform="translate(189.248099 0)scale(0.996264)" xlink:href="#CMR17-105"/>
      <use transform="translate(214.119157 0)scale(0.996264)" xlink:href="#CMR17-99"/>
      <use transform="translate(254.604818 0)scale(0.996264)" xlink:href="#CMR17-116"/>
      <use transform="translate(289.885585 0)scale(0.996264)" xlink:href="#CMR17-101"/>
      <use transform="translate(330.371246 0)scale(0.996264)" xlink:href="#CMR17-100"/>
     </g>
    </g>
    <g id="line2d_14">
     <path d="M 31.781335 37.237178 
L 51.781335 37.237178 
" style="fill:none;stroke:#ff00ff;stroke-linecap:square;"/>
    </g>
    <g id="line2d_15"/>
    <g id="text_12">
     <!-- True -->
     <defs>
      <path d="M 62.203125 67.6875 
L 4.5 67.6875 
L 2.796875 45.6875 
L 4.59375 45.6875 
C 5.90625 62.203125 7.296875 65.09375 22.703125 65.09375 
C 24.5 65.09375 27.40625 65.09375 28.203125 64.984375 
C 30.09375 64.6875 30.09375 63.5 30.09375 61.203125 
L 30.09375 7.265625 
C 30.09375 3.6875 29.796875 2.59375 21.5 2.59375 
L 18.703125 2.59375 
L 18.703125 0 
C 23.5 0.09375 28.5 0.1875 33.40625 0.1875 
C 38.296875 0.1875 43.296875 0.09375 48.09375 0 
L 48.09375 2.59375 
L 45.296875 2.59375 
C 37 2.59375 36.703125 3.6875 36.703125 7.265625 
L 36.703125 61.203125 
C 36.703125 63.390625 36.703125 64.59375 38.5 64.984375 
C 39.296875 65.09375 42.203125 65.09375 44 65.09375 
C 59.296875 65.09375 60.796875 62.203125 62.09375 45.6875 
L 63.90625 45.6875 
z
" id="CMR17-84"/>
      <path d="M 29.40625 42.890625 
L 29.40625 40.296875 
C 35.296875 40.296875 36.203125 39.6875 36.203125 34.828125 
L 36.203125 16.453125 
C 36.203125 7.96875 31.703125 0.59375 24.296875 0.59375 
C 16.09375 0.59375 15.40625 5.546875 15.40625 10.796875 
L 15.40625 44 
L 3.296875 42.890625 
L 3.296875 40.296875 
C 7.296875 40.296875 10 40.296875 10.09375 36.25 
L 10.09375 16.859375 
C 10.09375 10.09375 10.09375 5.75 12.703125 2.921875 
C 14 1.609375 16.5 -1 23.703125 -1 
C 32.203125 -1 35.5 6.25 36.296875 8.375 
L 36.40625 8.375 
L 36.40625 -1 
L 48.296875 -0.203125 
L 48.296875 2.40625 
C 42.40625 2.40625 41.5 3.015625 41.5 7.859375 
L 41.5 44 
z
" id="CMR17-117"/>
     </defs>
     <g transform="translate(59.781335 40.737178)scale(0.1 -0.1)">
      <use transform="scale(0.996264)" xlink:href="#CMR17-84"/>
      <use transform="translate(58.702625 0)scale(0.996264)" xlink:href="#CMR17-114"/>
      <use transform="translate(93.983393 0)scale(0.996264)" xlink:href="#CMR17-117"/>
      <use transform="translate(144.878763 0)scale(0.996264)" xlink:href="#CMR17-101"/>
     </g>
    </g>
   </g>
  </g>
  <g id="axes_2">
   <g id="patch_7">
    <path d="M 233.381335 112.239665 
L 413.836271 112.239665 
L 413.836271 10.8 
L 233.381335 10.8 
z
" style="fill:#ffffff;"/>
   </g>
   <g id="PathCollection_2">
    <defs>
     <path d="M 0 1.767767 
C 0.468817 1.767767 0.918496 1.581504 1.25 1.25 
C 1.581504 0.918496 1.767767 0.468817 1.767767 0 
C 1.767767 -0.468817 1.581504 -0.918496 1.25 -1.25 
C 0.918496 -1.581504 0.468817 -1.767767 0 -1.767767 
C -0.468817 -1.767767 -0.918496 -1.581504 -1.25 -1.25 
C -1.581504 -0.918496 -1.767767 -0.468817 -1.767767 0 
C -1.767767 0.468817 -1.581504 0.918496 -1.25 1.25 
C -0.918496 1.581504 -0.468817 1.767767 0 1.767767 
z
" id="C1_0_9f603a34e3"/>
    </defs>
    <g clip-path="url(#p369d1ae8c7)">
     <use style="fill:none;stroke:#ff00ff;" x="235.150501" xlink:href="#C1_0_9f603a34e3" y="63.011592"/>
    </g>
    <g clip-path="url(#p369d1ae8c7)">
     <use style="fill:none;stroke:#ff00ff;" x="252.842162" xlink:href="#C1_0_9f603a34e3" y="72.260503"/>
    </g>
    <g clip-path="url(#p369d1ae8c7)">
     <use style="fill:none;stroke:#ff00ff;" x="270.533822" xlink:href="#C1_0_9f603a34e3" y="85.686341"/>
    </g>
    <g clip-path="url(#p369d1ae8c7)">
     <use style="fill:none;stroke:#ff00ff;" x="288.225483" xlink:href="#C1_0_9f603a34e3" y="93.14514"/>
    </g>
    <g clip-path="url(#p369d1ae8c7)">
     <use style="fill:none;stroke:#ff00ff;" x="305.917143" xlink:href="#C1_0_9f603a34e3" y="97.322067"/>
    </g>
    <g clip-path="url(#p369d1ae8c7)">
     <use style="fill:none;stroke:#ff00ff;" x="323.608803" xlink:href="#C1_0_9f603a34e3" y="80.614358"/>
    </g>
    <g clip-path="url(#p369d1ae8c7)">
     <use style="fill:none;stroke:#ff00ff;" x="341.300464" xlink:href="#C1_0_9f603a34e3" y="62.71324"/>
    </g>
    <g clip-path="url(#p369d1ae8c7)">
     <use style="fill:none;stroke:#ff00ff;" x="358.992124" xlink:href="#C1_0_9f603a34e3" y="65.995112"/>
    </g>
    <g clip-path="url(#p369d1ae8c7)">
     <use style="fill:none;stroke:#ff00ff;" x="376.683785" xlink:href="#C1_0_9f603a34e3" y="54.061034"/>
    </g>
    <g clip-path="url(#p369d1ae8c7)">
     <use style="fill:none;stroke:#ff00ff;" x="394.375445" xlink:href="#C1_0_9f603a34e3" y="26.01595"/>
    </g>
    <g clip-path="url(#p369d1ae8c7)">
     <use style="fill:none;stroke:#ff00ff;" x="412.067105" xlink:href="#C1_0_9f603a34e3" y="41.828603"/>
    </g>
   </g>
   <g id="matplotlib.axis_3">
    <g id="xtick_7">
     <g id="line2d_16">
      <g>
       <use style="stroke:#000000;stroke-width:0.8;" x="235.150501" xlink:href="#m1a2c5d726a" y="112.239665"/>
      </g>
     </g>
     <g id="text_13">
      <!-- $0.0$ -->
      <g transform="translate(228.785462 126.158163)scale(0.1 -0.1)">
       <use transform="scale(0.996264)" xlink:href="#CMR17-48"/>
       <use transform="translate(45.690477 0)scale(0.996264)" xlink:href="#CMMI12-58"/>
       <use transform="translate(72.787654 0)scale(0.996264)" xlink:href="#CMR17-48"/>
      </g>
     </g>
    </g>
    <g id="xtick_8">
     <g id="line2d_17">
      <g>
       <use style="stroke:#000000;stroke-width:0.8;" x="270.533822" xlink:href="#m1a2c5d726a" y="112.239665"/>
      </g>
     </g>
     <g id="text_14">
      <!-- $0.2$ -->
      <g transform="translate(264.168783 126.158163)scale(0.1 -0.1)">
       <use transform="scale(0.996264)" xlink:href="#CMR17-48"/>
       <use transform="translate(45.690477 0)scale(0.996264)" xlink:href="#CMMI12-58"/>
       <use transform="translate(72.787654 0)scale(0.996264)" xlink:href="#CMR17-50"/>
      </g>
     </g>
    </g>
    <g id="xtick_9">
     <g id="line2d_18">
      <g>
       <use style="stroke:#000000;stroke-width:0.8;" x="305.917143" xlink:href="#m1a2c5d726a" y="112.239665"/>
      </g>
     </g>
     <g id="text_15">
      <!-- $0.4$ -->
      <g transform="translate(299.552103 126.158163)scale(0.1 -0.1)">
       <use transform="scale(0.996264)" xlink:href="#CMR17-48"/>
       <use transform="translate(45.690477 0)scale(0.996264)" xlink:href="#CMMI12-58"/>
       <use transform="translate(72.787654 0)scale(0.996264)" xlink:href="#CMR17-52"/>
      </g>
     </g>
    </g>
    <g id="xtick_10">
     <g id="line2d_19">
      <g>
       <use style="stroke:#000000;stroke-width:0.8;" x="341.300464" xlink:href="#m1a2c5d726a" y="112.239665"/>
      </g>
     </g>
     <g id="text_16">
      <!-- $0.6$ -->
      <g transform="translate(334.935424 126.158163)scale(0.1 -0.1)">
       <use transform="scale(0.996264)" xlink:href="#CMR17-48"/>
       <use transform="translate(45.690477 0)scale(0.996264)" xlink:href="#CMMI12-58"/>
       <use transform="translate(72.787654 0)scale(0.996264)" xlink:href="#CMR17-54"/>
      </g>
     </g>
    </g>
    <g id="xtick_11">
     <g id="line2d_20">
      <g>
       <use style="stroke:#000000;stroke-width:0.8;" x="376.683785" xlink:href="#m1a2c5d726a" y="112.239665"/>
      </g>
     </g>
     <g id="text_17">
      <!-- $0.8$ -->
      <g transform="translate(370.318745 126.158163)scale(0.1 -0.1)">
       <use transform="scale(0.996264)" xlink:href="#CMR17-48"/>
       <use transform="translate(45.690477 0)scale(0.996264)" xlink:href="#CMMI12-58"/>
       <use transform="translate(72.787654 0)scale(0.996264)" xlink:href="#CMR17-56"/>
      </g>
     </g>
    </g>
    <g id="xtick_12">
     <g id="line2d_21">
      <g>
       <use style="stroke:#000000;stroke-width:0.8;" x="412.067105" xlink:href="#m1a2c5d726a" y="112.239665"/>
      </g>
     </g>
     <g id="text_18">
      <!-- $1.0$ -->
      <g transform="translate(405.702066 126.158163)scale(0.1 -0.1)">
       <use transform="scale(0.996264)" xlink:href="#CMR17-49"/>
       <use transform="translate(45.690477 0)scale(0.996264)" xlink:href="#CMMI12-58"/>
       <use transform="translate(72.787654 0)scale(0.996264)" xlink:href="#CMR17-48"/>
      </g>
     </g>
    </g>
   </g>
   <g id="matplotlib.axis_4">
    <g id="ytick_4">
     <g id="line2d_22">
      <g>
       <use style="stroke:#000000;stroke-width:0.8;" x="233.381335" xlink:href="#mc20517b32a" y="97.322067"/>
      </g>
     </g>
     <g id="text_19">
      <!-- $0$ -->
      <g transform="translate(221.4 100.781316)scale(0.1 -0.1)">
       <use transform="scale(0.996264)" xlink:href="#CMR17-48"/>
      </g>
     </g>
    </g>
    <g id="ytick_5">
     <g id="line2d_23">
      <g>
       <use style="stroke:#000000;stroke-width:0.8;" x="233.381335" xlink:href="#mc20517b32a" y="67.486872"/>
      </g>
     </g>
     <g id="text_20">
      <!-- $1$ -->
      <g transform="translate(221.4 70.946121)scale(0.1 -0.1)">
       <use transform="scale(0.996264)" xlink:href="#CMR17-49"/>
      </g>
     </g>
    </g>
    <g id="ytick_6">
     <g id="line2d_24">
      <g>
       <use style="stroke:#000000;stroke-width:0.8;" x="233.381335" xlink:href="#mc20517b32a" y="37.651676"/>
      </g>
     </g>
     <g id="text_21">
      <!-- $2$ -->
      <g transform="translate(221.4 41.110925)scale(0.1 -0.1)">
       <use transform="scale(0.996264)" xlink:href="#CMR17-50"/>
      </g>
     </g>
    </g>
   </g>
   <g id="line2d_25">
    <path clip-path="url(#p369d1ae8c7)" d="M 233.381335 60.553614 
L 244.252115 68.733909 
L 252.224019 74.586605 
L 258.021768 78.554966 
L 263.094799 81.733832 
L 267.44311 84.191728 
L 271.791422 86.367949 
L 275.415015 87.945422 
L 279.038608 89.293014 
L 282.662201 90.398672 
L 286.285794 91.252506 
L 289.909388 91.846781 
L 293.532981 92.175906 
L 297.156574 92.236426 
L 300.780167 92.027006 
L 304.40376 91.548429 
L 308.027353 90.803577 
L 311.650946 89.797427 
L 315.274539 88.537036 
L 318.898132 87.031537 
L 322.521725 85.29212 
L 326.145319 83.332029 
L 330.49363 80.710293 
L 334.841942 77.823173 
L 339.914972 74.165645 
L 345.712721 69.680645 
L 352.959907 63.771907 
L 367.45428 51.865877 
L 372.52731 47.993796 
L 376.875622 44.929696 
L 380.499215 42.611922 
L 384.122808 40.555904 
L 387.021683 39.13076 
L 389.920557 37.92757 
L 392.819432 36.971779 
L 395.718306 36.289589 
L 397.892462 35.973686 
L 400.066618 35.83848 
L 402.240774 35.895858 
L 404.414929 36.157941 
L 406.589085 36.637087 
L 408.763241 37.345886 
L 410.937397 38.297164 
L 413.111553 39.503976 
L 413.836271 39.965323 
L 413.836271 39.965323 
" style="fill:none;stroke:#40e0d0;stroke-linecap:square;"/>
   </g>
   <g id="line2d_26">
    <path clip-path="url(#p369d1ae8c7)" d="M 233.381335 67.637192 
L 239.903803 67.180562 
L 242.077959 67.222446 
L 244.252115 67.45915 
L 246.42627 67.938938 
L 248.600426 68.700232 
L 250.774582 69.769998 
L 252.948738 71.162557 
L 255.122894 72.878872 
L 257.29705 74.906337 
L 259.471206 77.219072 
L 262.37008 80.678527 
L 265.993673 85.430939 
L 273.965578 96.107618 
L 276.864452 99.525015 
L 279.038608 101.762238 
L 281.212764 103.654192 
L 283.38692 105.151861 
L 284.836357 105.9122 
L 286.285794 106.47234 
L 287.735232 106.826934 
L 289.184669 106.973382 
L 290.634106 106.911867 
L 292.083543 106.645347 
L 293.532981 106.179504 
L 294.982418 105.522651 
L 296.431855 104.685587 
L 298.606011 103.121362 
L 300.780167 101.234493 
L 303.679041 98.323974 
L 307.302634 94.282043 
L 313.825102 86.884059 
L 316.723976 83.932849 
L 318.898132 81.970021 
L 321.072288 80.265758 
L 323.246444 78.846259 
L 325.4206 77.724595 
L 327.594756 76.900363 
L 329.768912 76.359835 
L 331.943067 76.076624 
L 334.117223 76.012815 
L 337.016098 76.185091 
L 347.162159 77.127348 
L 349.336314 76.977576 
L 351.51047 76.576019 
L 353.684626 75.879359 
L 355.858782 74.855097 
L 358.032938 73.48296 
L 360.207094 71.755841 
L 362.38125 69.680268 
L 364.555405 67.276348 
L 366.729561 64.577212 
L 369.628436 60.598664 
L 373.252029 55.210239 
L 380.499215 44.286918 
L 383.398089 40.352359 
L 385.572245 37.719233 
L 387.746401 35.424466 
L 389.920557 33.516737 
L 391.369994 32.478734 
L 392.819432 31.637265 
L 394.268869 30.997456 
L 395.718306 30.561679 
L 397.167743 30.329529 
L 398.61718 30.297837 
L 400.066618 30.460739 
L 401.516055 30.809777 
L 402.965492 31.33405 
L 405.139648 32.419687 
L 407.313804 33.816828 
L 409.48796 35.464528 
L 412.386834 37.935039 
L 413.836271 39.240548 
L 413.836271 39.240548 
" style="fill:none;stroke:#ff00ff;stroke-linecap:square;"/>
   </g>
   <g id="patch_8">
    <path d="M 233.381335 112.239665 
L 233.381335 10.8 
" style="fill:none;stroke:#000000;stroke-linecap:square;stroke-linejoin:miter;stroke-width:0.8;"/>
   </g>
   <g id="patch_9">
    <path d="M 413.836271 112.239665 
L 413.836271 10.8 
" style="fill:none;stroke:#000000;stroke-linecap:square;stroke-linejoin:miter;stroke-width:0.8;"/>
   </g>
   <g id="patch_10">
    <path d="M 233.381335 112.239665 
L 413.836271 112.239665 
" style="fill:none;stroke:#000000;stroke-linecap:square;stroke-linejoin:miter;stroke-width:0.8;"/>
   </g>
   <g id="patch_11">
    <path d="M 233.381335 10.8 
L 413.836271 10.8 
" style="fill:none;stroke:#000000;stroke-linecap:square;stroke-linejoin:miter;stroke-width:0.8;"/>
   </g>
   <g id="text_22">
    <!-- $M=5$ -->
    <defs>
     <path d="M 11.40625 58.59375 
C 12.40625 58.1875 16.5 56.890625 20.703125 56.890625 
C 30 56.890625 35.09375 61.890625 38 64.6875 
C 38 65.484375 38 66 37.40625 66 
C 37.296875 66 37.09375 66 36.296875 65.59375 
C 32.796875 64.09375 28.703125 63 23.703125 63 
C 20.703125 63 16.203125 63.359375 11.296875 65.484375 
C 10.203125 66 10 66 9.90625 66 
C 9.40625 66 9.296875 65.890625 9.296875 63.90625 
L 9.296875 34.859375 
C 9.296875 33.015625 9.296875 32.5 10.296875 32.5 
C 10.796875 32.5 11 32.703125 11.5 33.421875 
C 14.703125 38.046875 19.09375 40 24.09375 40 
C 27.59375 40 35.09375 37.734375 35.09375 20.203125 
C 35.09375 16.984375 35.09375 11.1875 32.09375 6.59375 
C 29.59375 2.484375 25.703125 0.390625 21.40625 0.390625 
C 14.796875 0.390625 8.09375 4.984375 6.296875 12.6875 
C 6.703125 12.59375 7.5 12.390625 7.90625 12.390625 
C 9.203125 12.390625 11.703125 13.09375 11.703125 16.1875 
C 11.703125 18.890625 9.796875 20 7.90625 20 
C 5.59375 20 4.09375 18.59375 4.09375 15.796875 
C 4.09375 7.09375 11 -2 21.59375 -2 
C 31.90625 -2 41.703125 6.890625 41.703125 19.796875 
C 41.703125 32.09375 33.90625 41.59375 24.203125 41.59375 
C 19.09375 41.59375 14.796875 39.6875 11.40625 36 
z
" id="CMR17-53"/>
    </defs>
    <g transform="translate(376.683785 106.272626)scale(0.1 -0.1)">
     <use transform="scale(0.996264)" xlink:href="#CMMI12-77"/>
     <use transform="translate(132.454088 0)scale(0.996264)" xlink:href="#CMR17-61"/>
     <use transform="translate(231.842885 0)scale(0.996264)" xlink:href="#CMR17-53"/>
    </g>
   </g>
   <g id="legend_2">
    <g id="line2d_27">
     <path d="M 242.381335 23.3 
L 262.381335 23.3 
" style="fill:none;stroke:#40e0d0;stroke-linecap:square;"/>
    </g>
    <g id="line2d_28"/>
    <g id="text_23">
     <!-- Predicted -->
     <g transform="translate(270.381335 26.8)scale(0.1 -0.1)">
      <use transform="scale(0.996264)" xlink:href="#CMR17-80"/>
      <use transform="translate(62.586301 0)scale(0.996264)" xlink:href="#CMR17-114"/>
      <use transform="translate(97.867068 0)scale(0.996264)" xlink:href="#CMR17-101"/>
      <use transform="translate(138.352729 0)scale(0.996264)" xlink:href="#CMR17-100"/>
      <use transform="translate(189.248099 0)scale(0.996264)" xlink:href="#CMR17-105"/>
      <use transform="translate(214.119157 0)scale(0.996264)" xlink:href="#CMR17-99"/>
      <use transform="translate(254.604818 0)scale(0.996264)" xlink:href="#CMR17-116"/>
      <use transform="translate(289.885585 0)scale(0.996264)" xlink:href="#CMR17-101"/>
      <use transform="translate(330.371246 0)scale(0.996264)" xlink:href="#CMR17-100"/>
     </g>
    </g>
    <g id="line2d_29">
     <path d="M 242.381335 37.237178 
L 262.381335 37.237178 
" style="fill:none;stroke:#ff00ff;stroke-linecap:square;"/>
    </g>
    <g id="line2d_30"/>
    <g id="text_24">
     <!-- True -->
     <g transform="translate(270.381335 40.737178)scale(0.1 -0.1)">
      <use transform="scale(0.996264)" xlink:href="#CMR17-84"/>
      <use transform="translate(58.702625 0)scale(0.996264)" xlink:href="#CMR17-114"/>
      <use transform="translate(93.983393 0)scale(0.996264)" xlink:href="#CMR17-117"/>
      <use transform="translate(144.878763 0)scale(0.996264)" xlink:href="#CMR17-101"/>
     </g>
    </g>
   </g>
  </g>
  <g id="axes_3">
   <g id="patch_12">
    <path d="M 22.781335 240.335006 
L 203.236271 240.335006 
L 203.236271 138.895342 
L 22.781335 138.895342 
z
" style="fill:#ffffff;"/>
   </g>
   <g id="PathCollection_3">
    <defs>
     <path d="M 0 1.767767 
C 0.468817 1.767767 0.918496 1.581504 1.25 1.25 
C 1.581504 0.918496 1.767767 0.468817 1.767767 0 
C 1.767767 -0.468817 1.581504 -0.918496 1.25 -1.25 
C 0.918496 -1.581504 0.468817 -1.767767 0 -1.767767 
C -0.468817 -1.767767 -0.918496 -1.581504 -1.25 -1.25 
C -1.581504 -0.918496 -1.767767 -0.468817 -1.767767 0 
C -1.767767 0.468817 -1.581504 0.918496 -1.25 1.25 
C -0.918496 1.581504 -0.468817 1.767767 0 1.767767 
z
" id="C2_0_71f57514e8"/>
    </defs>
    <g clip-path="url(#p8868f35857)">
     <use style="fill:none;stroke:#ff00ff;" x="24.550501" xlink:href="#C2_0_71f57514e8" y="191.106934"/>
    </g>
    <g clip-path="url(#p8868f35857)">
     <use style="fill:none;stroke:#ff00ff;" x="42.242162" xlink:href="#C2_0_71f57514e8" y="200.355844"/>
    </g>
    <g clip-path="url(#p8868f35857)">
     <use style="fill:none;stroke:#ff00ff;" x="59.933822" xlink:href="#C2_0_71f57514e8" y="213.781682"/>
    </g>
    <g clip-path="url(#p8868f35857)">
     <use style="fill:none;stroke:#ff00ff;" x="77.625483" xlink:href="#C2_0_71f57514e8" y="221.240481"/>
    </g>
    <g clip-path="url(#p8868f35857)">
     <use style="fill:none;stroke:#ff00ff;" x="95.317143" xlink:href="#C2_0_71f57514e8" y="225.417409"/>
    </g>
    <g clip-path="url(#p8868f35857)">
     <use style="fill:none;stroke:#ff00ff;" x="113.008803" xlink:href="#C2_0_71f57514e8" y="208.709699"/>
    </g>
    <g clip-path="url(#p8868f35857)">
     <use style="fill:none;stroke:#ff00ff;" x="130.700464" xlink:href="#C2_0_71f57514e8" y="190.808582"/>
    </g>
    <g clip-path="url(#p8868f35857)">
     <use style="fill:none;stroke:#ff00ff;" x="148.392124" xlink:href="#C2_0_71f57514e8" y="194.090453"/>
    </g>
    <g clip-path="url(#p8868f35857)">
     <use style="fill:none;stroke:#ff00ff;" x="166.083785" xlink:href="#C2_0_71f57514e8" y="182.156375"/>
    </g>
    <g clip-path="url(#p8868f35857)">
     <use style="fill:none;stroke:#ff00ff;" x="183.775445" xlink:href="#C2_0_71f57514e8" y="154.111291"/>
    </g>
    <g clip-path="url(#p8868f35857)">
     <use style="fill:none;stroke:#ff00ff;" x="201.467105" xlink:href="#C2_0_71f57514e8" y="169.923945"/>
    </g>
   </g>
   <g id="matplotlib.axis_5">
    <g id="xtick_13">
     <g id="line2d_31">
      <g>
       <use style="stroke:#000000;stroke-width:0.8;" x="24.550501" xlink:href="#m1a2c5d726a" y="240.335006"/>
      </g>
     </g>
     <g id="text_25">
      <!-- $0.0$ -->
      <g transform="translate(18.185462 254.253505)scale(0.1 -0.1)">
       <use transform="scale(0.996264)" xlink:href="#CMR17-48"/>
       <use transform="translate(45.690477 0)scale(0.996264)" xlink:href="#CMMI12-58"/>
       <use transform="translate(72.787654 0)scale(0.996264)" xlink:href="#CMR17-48"/>
      </g>
     </g>
    </g>
    <g id="xtick_14">
     <g id="line2d_32">
      <g>
       <use style="stroke:#000000;stroke-width:0.8;" x="59.933822" xlink:href="#m1a2c5d726a" y="240.335006"/>
      </g>
     </g>
     <g id="text_26">
      <!-- $0.2$ -->
      <g transform="translate(53.568783 254.253505)scale(0.1 -0.1)">
       <use transform="scale(0.996264)" xlink:href="#CMR17-48"/>
       <use transform="translate(45.690477 0)scale(0.996264)" xlink:href="#CMMI12-58"/>
       <use transform="translate(72.787654 0)scale(0.996264)" xlink:href="#CMR17-50"/>
      </g>
     </g>
    </g>
    <g id="xtick_15">
     <g id="line2d_33">
      <g>
       <use style="stroke:#000000;stroke-width:0.8;" x="95.317143" xlink:href="#m1a2c5d726a" y="240.335006"/>
      </g>
     </g>
     <g id="text_27">
      <!-- $0.4$ -->
      <g transform="translate(88.952103 254.253505)scale(0.1 -0.1)">
       <use transform="scale(0.996264)" xlink:href="#CMR17-48"/>
       <use transform="translate(45.690477 0)scale(0.996264)" xlink:href="#CMMI12-58"/>
       <use transform="translate(72.787654 0)scale(0.996264)" xlink:href="#CMR17-52"/>
      </g>
     </g>
    </g>
    <g id="xtick_16">
     <g id="line2d_34">
      <g>
       <use style="stroke:#000000;stroke-width:0.8;" x="130.700464" xlink:href="#m1a2c5d726a" y="240.335006"/>
      </g>
     </g>
     <g id="text_28">
      <!-- $0.6$ -->
      <g transform="translate(124.335424 254.253505)scale(0.1 -0.1)">
       <use transform="scale(0.996264)" xlink:href="#CMR17-48"/>
       <use transform="translate(45.690477 0)scale(0.996264)" xlink:href="#CMMI12-58"/>
       <use transform="translate(72.787654 0)scale(0.996264)" xlink:href="#CMR17-54"/>
      </g>
     </g>
    </g>
    <g id="xtick_17">
     <g id="line2d_35">
      <g>
       <use style="stroke:#000000;stroke-width:0.8;" x="166.083785" xlink:href="#m1a2c5d726a" y="240.335006"/>
      </g>
     </g>
     <g id="text_29">
      <!-- $0.8$ -->
      <g transform="translate(159.718745 254.253505)scale(0.1 -0.1)">
       <use transform="scale(0.996264)" xlink:href="#CMR17-48"/>
       <use transform="translate(45.690477 0)scale(0.996264)" xlink:href="#CMMI12-58"/>
       <use transform="translate(72.787654 0)scale(0.996264)" xlink:href="#CMR17-56"/>
      </g>
     </g>
    </g>
    <g id="xtick_18">
     <g id="line2d_36">
      <g>
       <use style="stroke:#000000;stroke-width:0.8;" x="201.467105" xlink:href="#m1a2c5d726a" y="240.335006"/>
      </g>
     </g>
     <g id="text_30">
      <!-- $1.0$ -->
      <g transform="translate(195.102066 254.253505)scale(0.1 -0.1)">
       <use transform="scale(0.996264)" xlink:href="#CMR17-49"/>
       <use transform="translate(45.690477 0)scale(0.996264)" xlink:href="#CMMI12-58"/>
       <use transform="translate(72.787654 0)scale(0.996264)" xlink:href="#CMR17-48"/>
      </g>
     </g>
    </g>
   </g>
   <g id="matplotlib.axis_6">
    <g id="ytick_7">
     <g id="line2d_37">
      <g>
       <use style="stroke:#000000;stroke-width:0.8;" x="22.781335" xlink:href="#mc20517b32a" y="225.417409"/>
      </g>
     </g>
     <g id="text_31">
      <!-- $0$ -->
      <g transform="translate(10.8 228.876658)scale(0.1 -0.1)">
       <use transform="scale(0.996264)" xlink:href="#CMR17-48"/>
      </g>
     </g>
    </g>
    <g id="ytick_8">
     <g id="line2d_38">
      <g>
       <use style="stroke:#000000;stroke-width:0.8;" x="22.781335" xlink:href="#mc20517b32a" y="195.582213"/>
      </g>
     </g>
     <g id="text_32">
      <!-- $1$ -->
      <g transform="translate(10.8 199.041462)scale(0.1 -0.1)">
       <use transform="scale(0.996264)" xlink:href="#CMR17-49"/>
      </g>
     </g>
    </g>
    <g id="ytick_9">
     <g id="line2d_39">
      <g>
       <use style="stroke:#000000;stroke-width:0.8;" x="22.781335" xlink:href="#mc20517b32a" y="165.747018"/>
      </g>
     </g>
     <g id="text_33">
      <!-- $2$ -->
      <g transform="translate(10.8 169.206267)scale(0.1 -0.1)">
       <use transform="scale(0.996264)" xlink:href="#CMR17-50"/>
      </g>
     </g>
    </g>
   </g>
   <g id="line2d_40">
    <path clip-path="url(#p8868f35857)" d="M 22.781335 186.713857 
L 24.230772 190.311203 
L 25.68021 193.120619 
L 27.129647 195.275136 
L 28.579084 196.893542 
L 30.028521 198.081345 
L 31.477959 198.93169 
L 32.927396 199.526239 
L 35.101552 200.091099 
L 38.000426 200.531579 
L 42.348738 201.192065 
L 44.522894 201.720934 
L 46.69705 202.452119 
L 48.871206 203.408095 
L 51.045361 204.5921 
L 53.219517 205.991689 
L 56.118392 208.148727 
L 59.741985 211.190221 
L 69.888046 220.016427 
L 72.78692 222.144157 
L 74.961076 223.512448 
L 77.135232 224.649837 
L 79.309388 225.530268 
L 81.483543 226.133873 
L 83.657699 226.447194 
L 85.831855 226.463246 
L 88.006011 226.181451 
L 90.180167 225.607439 
L 92.354323 224.752735 
L 94.528479 223.634339 
L 96.702634 222.274221 
L 99.601509 220.130799 
L 102.500383 217.677311 
L 106.123976 214.298497 
L 118.444193 202.413783 
L 121.343067 199.989015 
L 124.241942 197.840616 
L 127.140816 196.008273 
L 129.314972 194.85528 
L 131.489128 193.894771 
L 133.663284 193.122259 
L 136.562159 192.364393 
L 139.461033 191.875014 
L 143.084626 191.538743 
L 151.78125 190.91816 
L 153.955405 190.533143 
L 156.129561 189.94969 
L 158.303717 189.114934 
L 160.477873 187.979181 
L 162.652029 186.498151 
L 164.826185 184.635484 
L 167.000341 182.365538 
L 169.174496 179.67648 
L 171.348652 176.573685 
L 173.522808 173.083456 
L 176.421683 167.919922 
L 180.769994 159.539217 
L 184.393587 152.746185 
L 186.567743 149.210479 
L 188.01718 147.258431 
L 189.466618 145.752479 
L 190.191336 145.20363 
L 190.916055 144.812284 
L 191.640774 144.595663 
L 192.365492 144.571957 
L 193.090211 144.760353 
L 193.814929 145.181069 
L 194.539648 145.855389 
L 195.264367 146.805694 
L 195.989085 148.055501 
L 196.713804 149.629495 
L 197.438523 151.553566 
L 198.163241 153.854847 
L 198.88796 156.561751 
L 200.337397 163.312703 
L 201.786834 172.060781 
L 203.236271 183.083326 
L 203.236271 183.083326 
" style="fill:none;stroke:#40e0d0;stroke-linecap:square;"/>
   </g>
   <g id="line2d_41">
    <path clip-path="url(#p8868f35857)" d="M 22.781335 195.732534 
L 29.303803 195.275903 
L 31.477959 195.317788 
L 33.652115 195.554492 
L 35.82627 196.034279 
L 38.000426 196.795573 
L 40.174582 197.865339 
L 42.348738 199.257898 
L 44.522894 200.974214 
L 46.69705 203.001679 
L 48.871206 205.314413 
L 51.77008 208.773868 
L 55.393673 213.52628 
L 63.365578 224.20296 
L 66.264452 227.620357 
L 68.438608 229.85758 
L 70.612764 231.749533 
L 72.78692 233.247202 
L 74.236357 234.007542 
L 75.685794 234.567681 
L 77.135232 234.922275 
L 78.584669 235.068724 
L 80.034106 235.007209 
L 81.483543 234.740688 
L 82.932981 234.274846 
L 84.382418 233.617992 
L 85.831855 232.780929 
L 88.006011 231.216703 
L 90.180167 229.329834 
L 93.079041 226.419315 
L 96.702634 222.377385 
L 103.225102 214.9794 
L 106.123976 212.02819 
L 108.298132 210.065362 
L 110.472288 208.3611 
L 112.646444 206.9416 
L 114.8206 205.819937 
L 116.994756 204.995704 
L 119.168912 204.455177 
L 121.343067 204.171966 
L 123.517223 204.108156 
L 126.416098 204.280432 
L 136.562159 205.22269 
L 138.736314 205.072917 
L 140.91047 204.67136 
L 143.084626 203.9747 
L 145.258782 202.950439 
L 147.432938 201.578301 
L 149.607094 199.851183 
L 151.78125 197.775609 
L 153.955405 195.371689 
L 156.129561 192.672554 
L 159.028436 188.694005 
L 162.652029 183.30558 
L 169.899215 172.38226 
L 172.798089 168.4477 
L 174.972245 165.814575 
L 177.146401 163.519807 
L 179.320557 161.612079 
L 180.769994 160.574075 
L 182.219432 159.732606 
L 183.668869 159.092797 
L 185.118306 158.657021 
L 186.567743 158.424871 
L 188.01718 158.393179 
L 189.466618 158.556081 
L 190.916055 158.905119 
L 192.365492 159.429392 
L 194.539648 160.515028 
L 196.713804 161.91217 
L 198.88796 163.559869 
L 201.786834 166.030381 
L 203.236271 167.335889 
L 203.236271 167.335889 
" style="fill:none;stroke:#ff00ff;stroke-linecap:square;"/>
   </g>
   <g id="patch_13">
    <path d="M 22.781335 240.335006 
L 22.781335 138.895342 
" style="fill:none;stroke:#000000;stroke-linecap:square;stroke-linejoin:miter;stroke-width:0.8;"/>
   </g>
   <g id="patch_14">
    <path d="M 203.236271 240.335006 
L 203.236271 138.895342 
" style="fill:none;stroke:#000000;stroke-linecap:square;stroke-linejoin:miter;stroke-width:0.8;"/>
   </g>
   <g id="patch_15">
    <path d="M 22.781335 240.335006 
L 203.236271 240.335006 
" style="fill:none;stroke:#000000;stroke-linecap:square;stroke-linejoin:miter;stroke-width:0.8;"/>
   </g>
   <g id="patch_16">
    <path d="M 22.781335 138.895342 
L 203.236271 138.895342 
" style="fill:none;stroke:#000000;stroke-linecap:square;stroke-linejoin:miter;stroke-width:0.8;"/>
   </g>
   <g id="text_34">
    <!-- $M=7$ -->
    <defs>
     <path d="M 45.09375 61.796875 
L 45.09375 64 
L 21.59375 64 
C 9.90625 64 9.703125 65.09375 9.296875 67 
L 7.5 67 
L 4.59375 48.5 
L 6.40625 48.5 
C 6.703125 50.40625 7.40625 55.5 8.59375 57.390625 
C 9.203125 58.1875 16.59375 58.1875 18.296875 58.1875 
L 40.296875 58.1875 
L 29.203125 41.71875 
C 21.796875 30.640625 16.703125 15.671875 16.703125 2.59375 
C 16.703125 1.390625 16.703125 -2 20.296875 -2 
C 23.90625 -2 23.90625 1.390625 23.90625 2.6875 
L 23.90625 7.28125 
C 23.90625 23.65625 26.703125 34.4375 31.296875 41.3125 
z
" id="CMR17-55"/>
    </defs>
    <g transform="translate(166.083785 234.367967)scale(0.1 -0.1)">
     <use transform="scale(0.996264)" xlink:href="#CMMI12-77"/>
     <use transform="translate(132.454088 0)scale(0.996264)" xlink:href="#CMR17-61"/>
     <use transform="translate(231.842885 0)scale(0.996264)" xlink:href="#CMR17-55"/>
    </g>
   </g>
   <g id="legend_3">
    <g id="line2d_42">
     <path d="M 31.781335 151.395342 
L 51.781335 151.395342 
" style="fill:none;stroke:#40e0d0;stroke-linecap:square;"/>
    </g>
    <g id="line2d_43"/>
    <g id="text_35">
     <!-- Predicted -->
     <g transform="translate(59.781335 154.895342)scale(0.1 -0.1)">
      <use transform="scale(0.996264)" xlink:href="#CMR17-80"/>
      <use transform="translate(62.586301 0)scale(0.996264)" xlink:href="#CMR17-114"/>
      <use transform="translate(97.867068 0)scale(0.996264)" xlink:href="#CMR17-101"/>
      <use transform="translate(138.352729 0)scale(0.996264)" xlink:href="#CMR17-100"/>
      <use transform="translate(189.248099 0)scale(0.996264)" xlink:href="#CMR17-105"/>
      <use transform="translate(214.119157 0)scale(0.996264)" xlink:href="#CMR17-99"/>
      <use transform="translate(254.604818 0)scale(0.996264)" xlink:href="#CMR17-116"/>
      <use transform="translate(289.885585 0)scale(0.996264)" xlink:href="#CMR17-101"/>
      <use transform="translate(330.371246 0)scale(0.996264)" xlink:href="#CMR17-100"/>
     </g>
    </g>
    <g id="line2d_44">
     <path d="M 31.781335 165.33252 
L 51.781335 165.33252 
" style="fill:none;stroke:#ff00ff;stroke-linecap:square;"/>
    </g>
    <g id="line2d_45"/>
    <g id="text_36">
     <!-- True -->
     <g transform="translate(59.781335 168.83252)scale(0.1 -0.1)">
      <use transform="scale(0.996264)" xlink:href="#CMR17-84"/>
      <use transform="translate(58.702625 0)scale(0.996264)" xlink:href="#CMR17-114"/>
      <use transform="translate(93.983393 0)scale(0.996264)" xlink:href="#CMR17-117"/>
      <use transform="translate(144.878763 0)scale(0.996264)" xlink:href="#CMR17-101"/>
     </g>
    </g>
   </g>
  </g>
  <g id="axes_4">
   <g id="patch_17">
    <path d="M 233.381335 240.335006 
L 413.836271 240.335006 
L 413.836271 138.895342 
L 233.381335 138.895342 
z
" style="fill:#ffffff;"/>
   </g>
   <g id="PathCollection_4">
    <defs>
     <path d="M 0 1.767767 
C 0.468817 1.767767 0.918496 1.581504 1.25 1.25 
C 1.581504 0.918496 1.767767 0.468817 1.767767 0 
C 1.767767 -0.468817 1.581504 -0.918496 1.25 -1.25 
C 0.918496 -1.581504 0.468817 -1.767767 0 -1.767767 
C -0.468817 -1.767767 -0.918496 -1.581504 -1.25 -1.25 
C -1.581504 -0.918496 -1.767767 -0.468817 -1.767767 0 
C -1.767767 0.468817 -1.581504 0.918496 -1.25 1.25 
C -0.918496 1.581504 -0.468817 1.767767 0 1.767767 
z
" id="C3_0_89d49e36c6"/>
    </defs>
    <g clip-path="url(#pbc76a760a0)">
     <use style="fill:none;stroke:#ff00ff;" x="235.150501" xlink:href="#C3_0_89d49e36c6" y="191.106934"/>
    </g>
    <g clip-path="url(#pbc76a760a0)">
     <use style="fill:none;stroke:#ff00ff;" x="252.842162" xlink:href="#C3_0_89d49e36c6" y="200.355844"/>
    </g>
    <g clip-path="url(#pbc76a760a0)">
     <use style="fill:none;stroke:#ff00ff;" x="270.533822" xlink:href="#C3_0_89d49e36c6" y="213.781682"/>
    </g>
    <g clip-path="url(#pbc76a760a0)">
     <use style="fill:none;stroke:#ff00ff;" x="288.225483" xlink:href="#C3_0_89d49e36c6" y="221.240481"/>
    </g>
    <g clip-path="url(#pbc76a760a0)">
     <use style="fill:none;stroke:#ff00ff;" x="305.917143" xlink:href="#C3_0_89d49e36c6" y="225.417409"/>
    </g>
    <g clip-path="url(#pbc76a760a0)">
     <use style="fill:none;stroke:#ff00ff;" x="323.608803" xlink:href="#C3_0_89d49e36c6" y="208.709699"/>
    </g>
    <g clip-path="url(#pbc76a760a0)">
     <use style="fill:none;stroke:#ff00ff;" x="341.300464" xlink:href="#C3_0_89d49e36c6" y="190.808582"/>
    </g>
    <g clip-path="url(#pbc76a760a0)">
     <use style="fill:none;stroke:#ff00ff;" x="358.992124" xlink:href="#C3_0_89d49e36c6" y="194.090453"/>
    </g>
    <g clip-path="url(#pbc76a760a0)">
     <use style="fill:none;stroke:#ff00ff;" x="376.683785" xlink:href="#C3_0_89d49e36c6" y="182.156375"/>
    </g>
    <g clip-path="url(#pbc76a760a0)">
     <use style="fill:none;stroke:#ff00ff;" x="394.375445" xlink:href="#C3_0_89d49e36c6" y="154.111291"/>
    </g>
    <g clip-path="url(#pbc76a760a0)">
     <use style="fill:none;stroke:#ff00ff;" x="412.067105" xlink:href="#C3_0_89d49e36c6" y="169.923945"/>
    </g>
   </g>
   <g id="matplotlib.axis_7">
    <g id="xtick_19">
     <g id="line2d_46">
      <g>
       <use style="stroke:#000000;stroke-width:0.8;" x="235.150501" xlink:href="#m1a2c5d726a" y="240.335006"/>
      </g>
     </g>
     <g id="text_37">
      <!-- $0.0$ -->
      <g transform="translate(228.785462 254.253505)scale(0.1 -0.1)">
       <use transform="scale(0.996264)" xlink:href="#CMR17-48"/>
       <use transform="translate(45.690477 0)scale(0.996264)" xlink:href="#CMMI12-58"/>
       <use transform="translate(72.787654 0)scale(0.996264)" xlink:href="#CMR17-48"/>
      </g>
     </g>
    </g>
    <g id="xtick_20">
     <g id="line2d_47">
      <g>
       <use style="stroke:#000000;stroke-width:0.8;" x="270.533822" xlink:href="#m1a2c5d726a" y="240.335006"/>
      </g>
     </g>
     <g id="text_38">
      <!-- $0.2$ -->
      <g transform="translate(264.168783 254.253505)scale(0.1 -0.1)">
       <use transform="scale(0.996264)" xlink:href="#CMR17-48"/>
       <use transform="translate(45.690477 0)scale(0.996264)" xlink:href="#CMMI12-58"/>
       <use transform="translate(72.787654 0)scale(0.996264)" xlink:href="#CMR17-50"/>
      </g>
     </g>
    </g>
    <g id="xtick_21">
     <g id="line2d_48">
      <g>
       <use style="stroke:#000000;stroke-width:0.8;" x="305.917143" xlink:href="#m1a2c5d726a" y="240.335006"/>
      </g>
     </g>
     <g id="text_39">
      <!-- $0.4$ -->
      <g transform="translate(299.552103 254.253505)scale(0.1 -0.1)">
       <use transform="scale(0.996264)" xlink:href="#CMR17-48"/>
       <use transform="translate(45.690477 0)scale(0.996264)" xlink:href="#CMMI12-58"/>
       <use transform="translate(72.787654 0)scale(0.996264)" xlink:href="#CMR17-52"/>
      </g>
     </g>
    </g>
    <g id="xtick_22">
     <g id="line2d_49">
      <g>
       <use style="stroke:#000000;stroke-width:0.8;" x="341.300464" xlink:href="#m1a2c5d726a" y="240.335006"/>
      </g>
     </g>
     <g id="text_40">
      <!-- $0.6$ -->
      <g transform="translate(334.935424 254.253505)scale(0.1 -0.1)">
       <use transform="scale(0.996264)" xlink:href="#CMR17-48"/>
       <use transform="translate(45.690477 0)scale(0.996264)" xlink:href="#CMMI12-58"/>
       <use transform="translate(72.787654 0)scale(0.996264)" xlink:href="#CMR17-54"/>
      </g>
     </g>
    </g>
    <g id="xtick_23">
     <g id="line2d_50">
      <g>
       <use style="stroke:#000000;stroke-width:0.8;" x="376.683785" xlink:href="#m1a2c5d726a" y="240.335006"/>
      </g>
     </g>
     <g id="text_41">
      <!-- $0.8$ -->
      <g transform="translate(370.318745 254.253505)scale(0.1 -0.1)">
       <use transform="scale(0.996264)" xlink:href="#CMR17-48"/>
       <use transform="translate(45.690477 0)scale(0.996264)" xlink:href="#CMMI12-58"/>
       <use transform="translate(72.787654 0)scale(0.996264)" xlink:href="#CMR17-56"/>
      </g>
     </g>
    </g>
    <g id="xtick_24">
     <g id="line2d_51">
      <g>
       <use style="stroke:#000000;stroke-width:0.8;" x="412.067105" xlink:href="#m1a2c5d726a" y="240.335006"/>
      </g>
     </g>
     <g id="text_42">
      <!-- $1.0$ -->
      <g transform="translate(405.702066 254.253505)scale(0.1 -0.1)">
       <use transform="scale(0.996264)" xlink:href="#CMR17-49"/>
       <use transform="translate(45.690477 0)scale(0.996264)" xlink:href="#CMMI12-58"/>
       <use transform="translate(72.787654 0)scale(0.996264)" xlink:href="#CMR17-48"/>
      </g>
     </g>
    </g>
   </g>
   <g id="matplotlib.axis_8">
    <g id="ytick_10">
     <g id="line2d_52">
      <g>
       <use style="stroke:#000000;stroke-width:0.8;" x="233.381335" xlink:href="#mc20517b32a" y="225.417409"/>
      </g>
     </g>
     <g id="text_43">
      <!-- $0$ -->
      <g transform="translate(221.4 228.876658)scale(0.1 -0.1)">
       <use transform="scale(0.996264)" xlink:href="#CMR17-48"/>
      </g>
     </g>
    </g>
    <g id="ytick_11">
     <g id="line2d_53">
      <g>
       <use style="stroke:#000000;stroke-width:0.8;" x="233.381335" xlink:href="#mc20517b32a" y="195.582213"/>
      </g>
     </g>
     <g id="text_44">
      <!-- $1$ -->
      <g transform="translate(221.4 199.041462)scale(0.1 -0.1)">
       <use transform="scale(0.996264)" xlink:href="#CMR17-49"/>
      </g>
     </g>
    </g>
    <g id="ytick_12">
     <g id="line2d_54">
      <g>
       <use style="stroke:#000000;stroke-width:0.8;" x="233.381335" xlink:href="#mc20517b32a" y="165.747018"/>
      </g>
     </g>
     <g id="text_45">
      <!-- $2$ -->
      <g transform="translate(221.4 169.206267)scale(0.1 -0.1)">
       <use transform="scale(0.996264)" xlink:href="#CMR17-50"/>
      </g>
     </g>
    </g>
   </g>
   <g id="line2d_55">
    <path clip-path="url(#pbc76a760a0)" d="M 233.381335 208.769713 
L 234.106054 200.521345 
L 234.830772 193.696082 
L 235.555491 188.142384 
L 236.28021 183.720317 
L 237.004928 180.300898 
L 237.729647 177.765472 
L 238.454366 176.005111 
L 239.179084 174.92004 
L 239.903803 174.419083 
L 240.628521 174.419143 
L 241.35324 174.84469 
L 242.077959 175.627285 
L 242.802677 176.705117 
L 244.252115 179.529775 
L 245.701552 182.94055 
L 251.499301 197.45212 
L 253.673457 201.962074 
L 255.122894 204.506547 
L 256.572331 206.668255 
L 258.021768 208.457932 
L 259.471206 209.900579 
L 260.920643 211.03142 
L 262.37008 211.89243 
L 263.819517 212.529402 
L 265.993673 213.167789 
L 268.892548 213.664863 
L 273.965578 214.415032 
L 276.139734 214.928177 
L 278.31389 215.629809 
L 280.488046 216.532765 
L 283.38692 218.024639 
L 287.010513 220.217133 
L 292.808262 223.790088 
L 294.982418 224.909006 
L 297.156574 225.793627 
L 299.33073 226.38007 
L 300.780167 226.578702 
L 302.229604 226.608543 
L 303.679041 226.460045 
L 305.128479 226.126754 
L 306.577916 225.605434 
L 308.027353 224.896123 
L 309.47679 224.002131 
L 311.650946 222.329972 
L 313.825102 220.292515 
L 315.999258 217.938765 
L 318.898132 214.415673 
L 323.246444 208.662126 
L 328.319474 202.011825 
L 331.218349 198.608518 
L 333.392505 196.371257 
L 335.566661 194.464338 
L 337.740816 192.926531 
L 339.190254 192.118168 
L 340.639691 191.486446 
L 342.089128 191.029965 
L 343.538565 190.743593 
L 344.988003 190.618453 
L 347.162159 190.704593 
L 349.336314 191.067179 
L 352.235189 191.851374 
L 358.032938 193.61936 
L 360.207094 194.031151 
L 361.656531 194.143919 
L 363.105968 194.092575 
L 364.555405 193.84991 
L 366.004843 193.391815 
L 367.45428 192.698056 
L 368.903717 191.753025 
L 370.353154 190.54648 
L 371.802592 189.074225 
L 373.252029 187.338735 
L 375.426185 184.265205 
L 377.600341 180.688251 
L 380.499215 175.324677 
L 387.021683 162.750331 
L 389.195838 159.190566 
L 390.645276 157.207908 
L 392.094713 155.622691 
L 393.54415 154.501526 
L 394.268869 154.133241 
L 394.993587 153.901314 
L 395.718306 153.810614 
L 396.443025 153.864813 
L 397.167743 154.066206 
L 397.892462 154.41553 
L 398.61718 154.911755 
L 400.066618 156.330688 
L 401.516055 158.271062 
L 402.965492 160.637617 
L 408.038523 169.556595 
L 408.763241 170.41651 
L 409.48796 171.015979 
L 410.212678 171.28635 
L 410.937397 171.151387 
L 411.662116 170.526754 
L 412.386834 169.319477 
L 413.111553 167.427374 
L 413.836271 164.73847 
L 413.836271 164.73847 
" style="fill:none;stroke:#40e0d0;stroke-linecap:square;"/>
   </g>
   <g id="line2d_56">
    <path clip-path="url(#pbc76a760a0)" d="M 233.381335 195.732534 
L 239.903803 195.275903 
L 242.077959 195.317788 
L 244.252115 195.554492 
L 246.42627 196.034279 
L 248.600426 196.795573 
L 250.774582 197.865339 
L 252.948738 199.257898 
L 255.122894 200.974214 
L 257.29705 203.001679 
L 259.471206 205.314413 
L 262.37008 208.773868 
L 265.993673 213.52628 
L 273.965578 224.20296 
L 276.864452 227.620357 
L 279.038608 229.85758 
L 281.212764 231.749533 
L 283.38692 233.247202 
L 284.836357 234.007542 
L 286.285794 234.567681 
L 287.735232 234.922275 
L 289.184669 235.068724 
L 290.634106 235.007209 
L 292.083543 234.740688 
L 293.532981 234.274846 
L 294.982418 233.617992 
L 296.431855 232.780929 
L 298.606011 231.216703 
L 300.780167 229.329834 
L 303.679041 226.419315 
L 307.302634 222.377385 
L 313.825102 214.9794 
L 316.723976 212.02819 
L 318.898132 210.065362 
L 321.072288 208.3611 
L 323.246444 206.9416 
L 325.4206 205.819937 
L 327.594756 204.995704 
L 329.768912 204.455177 
L 331.943067 204.171966 
L 334.117223 204.108156 
L 337.016098 204.280432 
L 347.162159 205.22269 
L 349.336314 205.072917 
L 351.51047 204.67136 
L 353.684626 203.9747 
L 355.858782 202.950439 
L 358.032938 201.578301 
L 360.207094 199.851183 
L 362.38125 197.775609 
L 364.555405 195.371689 
L 366.729561 192.672554 
L 369.628436 188.694005 
L 373.252029 183.30558 
L 380.499215 172.38226 
L 383.398089 168.4477 
L 385.572245 165.814575 
L 387.746401 163.519807 
L 389.920557 161.612079 
L 391.369994 160.574075 
L 392.819432 159.732606 
L 394.268869 159.092797 
L 395.718306 158.657021 
L 397.167743 158.424871 
L 398.61718 158.393179 
L 400.066618 158.556081 
L 401.516055 158.905119 
L 402.965492 159.429392 
L 405.139648 160.515028 
L 407.313804 161.91217 
L 409.48796 163.559869 
L 412.386834 166.030381 
L 413.836271 167.335889 
L 413.836271 167.335889 
" style="fill:none;stroke:#ff00ff;stroke-linecap:square;"/>
   </g>
   <g id="patch_18">
    <path d="M 233.381335 240.335006 
L 233.381335 138.895342 
" style="fill:none;stroke:#000000;stroke-linecap:square;stroke-linejoin:miter;stroke-width:0.8;"/>
   </g>
   <g id="patch_19">
    <path d="M 413.836271 240.335006 
L 413.836271 138.895342 
" style="fill:none;stroke:#000000;stroke-linecap:square;stroke-linejoin:miter;stroke-width:0.8;"/>
   </g>
   <g id="patch_20">
    <path d="M 233.381335 240.335006 
L 413.836271 240.335006 
" style="fill:none;stroke:#000000;stroke-linecap:square;stroke-linejoin:miter;stroke-width:0.8;"/>
   </g>
   <g id="patch_21">
    <path d="M 233.381335 138.895342 
L 413.836271 138.895342 
" style="fill:none;stroke:#000000;stroke-linecap:square;stroke-linejoin:miter;stroke-width:0.8;"/>
   </g>
   <g id="text_46">
    <!-- $M=9$ -->
    <defs>
     <path d="M 35.203125 29.234375 
C 35.203125 7 26.09375 0.390625 18.59375 0.390625 
C 16.296875 0.390625 10.703125 0.671875 8.40625 4.390625 
C 11 4 12.90625 5.390625 12.90625 7.890625 
C 12.90625 10.59375 10.703125 11.5 9.296875 11.5 
C 8.40625 11.5 5.703125 11.09375 5.703125 7.6875 
C 5.703125 1.0625 11.59375 -2 18.796875 -2 
C 30.296875 -2 42 10.390625 42 32.65625 
C 42 60.265625 30.796875 66 23.203125 66 
C 13.296875 66 3.796875 57.25 3.796875 43.75 
C 3.796875 31.25 11.90625 22 22.09375 22 
C 30.5 22 34.203125 29.84375 35.203125 33.15625 
z
M 22.296875 23.59375 
C 19.59375 23.59375 15.796875 24.09375 12.703125 30.140625 
C 10.59375 34.078125 10.59375 38.703125 10.59375 43.640625 
C 10.59375 49.59375 10.59375 53.71875 13.40625 58.15625 
C 14.796875 60.265625 17.40625 63.6875 23.203125 63.6875 
C 35 63.6875 35 45.453125 35 41.421875 
C 35 34.265625 31.796875 23.59375 22.296875 23.59375 
z
" id="CMR17-57"/>
    </defs>
    <g transform="translate(376.683785 234.367967)scale(0.1 -0.1)">
     <use transform="scale(0.996264)" xlink:href="#CMMI12-77"/>
     <use transform="translate(132.454088 0)scale(0.996264)" xlink:href="#CMR17-61"/>
     <use transform="translate(231.842885 0)scale(0.996264)" xlink:href="#CMR17-57"/>
    </g>
   </g>
   <g id="legend_4">
    <g id="line2d_57">
     <path d="M 242.381335 151.395342 
L 262.381335 151.395342 
" style="fill:none;stroke:#40e0d0;stroke-linecap:square;"/>
    </g>
    <g id="line2d_58"/>
    <g id="text_47">
     <!-- Predicted -->
     <g transform="translate(270.381335 154.895342)scale(0.1 -0.1)">
      <use transform="scale(0.996264)" xlink:href="#CMR17-80"/>
      <use transform="translate(62.586301 0)scale(0.996264)" xlink:href="#CMR17-114"/>
      <use transform="translate(97.867068 0)scale(0.996264)" xlink:href="#CMR17-101"/>
      <use transform="translate(138.352729 0)scale(0.996264)" xlink:href="#CMR17-100"/>
      <use transform="translate(189.248099 0)scale(0.996264)" xlink:href="#CMR17-105"/>
      <use transform="translate(214.119157 0)scale(0.996264)" xlink:href="#CMR17-99"/>
      <use transform="translate(254.604818 0)scale(0.996264)" xlink:href="#CMR17-116"/>
      <use transform="translate(289.885585 0)scale(0.996264)" xlink:href="#CMR17-101"/>
      <use transform="translate(330.371246 0)scale(0.996264)" xlink:href="#CMR17-100"/>
     </g>
    </g>
    <g id="line2d_59">
     <path d="M 242.381335 165.33252 
L 262.381335 165.33252 
" style="fill:none;stroke:#ff00ff;stroke-linecap:square;"/>
    </g>
    <g id="line2d_60"/>
    <g id="text_48">
     <!-- True -->
     <g transform="translate(270.381335 168.83252)scale(0.1 -0.1)">
      <use transform="scale(0.996264)" xlink:href="#CMR17-84"/>
      <use transform="translate(58.702625 0)scale(0.996264)" xlink:href="#CMR17-114"/>
      <use transform="translate(93.983393 0)scale(0.996264)" xlink:href="#CMR17-117"/>
      <use transform="translate(144.878763 0)scale(0.996264)" xlink:href="#CMR17-101"/>
     </g>
    </g>
   </g>
  </g>
 </g>
 <defs>
  <clipPath id="p3f535d81a0">
   <rect height="101.439665" width="180.454936" x="22.781335" y="10.8"/>
  </clipPath>
  <clipPath id="p369d1ae8c7">
   <rect height="101.439665" width="180.454936" x="233.381335" y="10.8"/>
  </clipPath>
  <clipPath id="p8868f35857">
   <rect height="101.439665" width="180.454936" x="22.781335" y="138.895342"/>
  </clipPath>
  <clipPath id="pbc76a760a0">
   <rect height="101.439665" width="180.454936" x="233.381335" y="138.895342"/>
  </clipPath>
 </defs>
</svg>
