<?xml version="1.0" encoding="utf-8" standalone="no"?>
<!DOCTYPE svg PUBLIC "-//W3C//DTD SVG 1.1//EN"
  "http://www.w3.org/Graphics/SVG/1.1/DTD/svg11.dtd">
<!-- Created with matplotlib (https://matplotlib.org/) -->
<svg height="266.990683pt" version="1.1" viewBox="0 0 432 266.990683" width="432pt" xmlns="http://www.w3.org/2000/svg" xmlns:xlink="http://www.w3.org/1999/xlink">
 <defs>
  <style type="text/css">
*{stroke-linecap:butt;stroke-linejoin:round;}
  </style>
 </defs>
 <g id="figure_1">
  <g id="patch_1">
   <path d="M 0 266.990683 
L 432 266.990683 
L 432 0 
L 0 0 
z
" style="fill:#ffffff;"/>
  </g>
  <g id="axes_1">
   <g id="patch_2">
    <path d="M 30.530079 112.239665 
L 207.858337 112.239665 
L 207.858337 10.8 
L 30.530079 10.8 
z
" style="fill:#ffffff;"/>
   </g>
   <g id="PathCollection_1">
    <defs>
     <path d="M 0 1.767767 
C 0.468817 1.767767 0.918496 1.581504 1.25 1.25 
C 1.581504 0.918496 1.767767 0.468817 1.767767 0 
C 1.767767 -0.468817 1.581504 -0.918496 1.25 -1.25 
C 0.918496 -1.581504 0.468817 -1.767767 0 -1.767767 
C -0.468817 -1.767767 -0.918496 -1.581504 -1.25 -1.25 
C -1.581504 -0.918496 -1.767767 -0.468817 -1.767767 0 
C -1.767767 0.468817 -1.581504 0.918496 -1.25 1.25 
C -0.918496 1.581504 -0.468817 1.767767 0 1.767767 
z
" id="C0_0_7e45497558"/>
    </defs>
    <g clip-path="url(#p231952580c)">
     <use style="fill:none;stroke:#ff00ff;" x="34.75218" xlink:href="#C0_0_7e45497558" y="107.829245"/>
    </g>
    <g clip-path="url(#p231952580c)">
     <use style="fill:none;stroke:#ff00ff;" x="51.640586" xlink:href="#C0_0_7e45497558" y="95.480068"/>
    </g>
    <g clip-path="url(#p231952580c)">
     <use style="fill:none;stroke:#ff00ff;" x="68.528991" xlink:href="#C0_0_7e45497558" y="89.30548"/>
    </g>
    <g clip-path="url(#p231952580c)">
     <use style="fill:none;stroke:#ff00ff;" x="85.417397" xlink:href="#C0_0_7e45497558" y="57.550454"/>
    </g>
    <g clip-path="url(#p231952580c)">
     <use style="fill:none;stroke:#ff00ff;" x="102.305803" xlink:href="#C0_0_7e45497558" y="61.960874"/>
    </g>
    <g clip-path="url(#p231952580c)">
     <use style="fill:none;stroke:#ff00ff;" x="119.194208" xlink:href="#C0_0_7e45497558" y="78.720471"/>
    </g>
    <g clip-path="url(#p231952580c)">
     <use style="fill:none;stroke:#ff00ff;" x="136.082614" xlink:href="#C0_0_7e45497558" y="76.074219"/>
    </g>
    <g clip-path="url(#p231952580c)">
     <use style="fill:none;stroke:#ff00ff;" x="152.971019" xlink:href="#C0_0_7e45497558" y="60.196706"/>
    </g>
    <g clip-path="url(#p231952580c)">
     <use style="fill:none;stroke:#ff00ff;" x="169.859425" xlink:href="#C0_0_7e45497558" y="46.083362"/>
    </g>
    <g clip-path="url(#p231952580c)">
     <use style="fill:none;stroke:#ff00ff;" x="186.74783" xlink:href="#C0_0_7e45497558" y="39.026689"/>
    </g>
    <g clip-path="url(#p231952580c)">
     <use style="fill:none;stroke:#ff00ff;" x="203.636236" xlink:href="#C0_0_7e45497558" y="15.21042"/>
    </g>
   </g>
   <g id="matplotlib.axis_1">
    <g id="xtick_1">
     <g id="line2d_1">
      <defs>
       <path d="M 0 0 
L 0 3.5 
" id="mc601405e8b" style="stroke:#000000;stroke-width:0.8;"/>
      </defs>
      <g>
       <use style="stroke:#000000;stroke-width:0.8;" x="34.75218" xlink:href="#mc601405e8b" y="112.239665"/>
      </g>
     </g>
     <g id="text_1">
      <!-- $-1.0$ -->
      <defs>
       <path d="M 65.90625 23 
C 67.59375 23 69.40625 23 69.40625 25 
C 69.40625 27 67.59375 27 65.90625 27 
L 11.796875 27 
C 10.09375 27 8.296875 27 8.296875 25 
C 8.296875 23 10.09375 23 11.796875 23 
z
" id="CMSY10-0"/>
       <path d="M 26.59375 63.796875 
C 26.59375 65.890625 26.5 66 25.09375 66 
C 21.203125 61.359375 15.296875 59.890625 9.703125 59.6875 
C 9.40625 59.6875 8.90625 59.6875 8.796875 59.5 
C 8.703125 59.296875 8.703125 59.09375 8.703125 57 
C 11.796875 57 17 57.59375 21 59.984375 
L 21 7.296875 
C 21 3.796875 20.796875 2.59375 12.203125 2.59375 
L 9.203125 2.59375 
L 9.203125 0 
C 14 0.09375 19 0.1875 23.796875 0.1875 
C 28.59375 0.1875 33.59375 0.09375 38.40625 0 
L 38.40625 2.59375 
L 35.40625 2.59375 
C 26.796875 2.59375 26.59375 3.6875 26.59375 7.296875 
z
" id="CMR17-49"/>
       <path d="M 18.40625 4.796875 
C 18.40625 7.6875 16 9.6875 13.59375 9.6875 
C 10.703125 9.6875 8.703125 7.296875 8.703125 4.890625 
C 8.703125 2 11.09375 0 13.5 0 
C 16.40625 0 18.40625 2.390625 18.40625 4.796875 
z
" id="CMMI12-58"/>
       <path d="M 42 31.84375 
C 42 37.96875 41.90625 48.421875 37.703125 56.453125 
C 34 63.484375 28.09375 66 22.90625 66 
C 18.09375 66 12 63.78125 8.203125 56.5625 
C 4.203125 49.015625 3.796875 39.671875 3.796875 31.84375 
C 3.796875 26.109375 3.90625 17.375 7 9.734375 
C 11.296875 -0.609375 19 -2 22.90625 -2 
C 27.5 -2 34.5 -0.109375 38.59375 9.4375 
C 41.59375 16.375 42 24.5 42 31.84375 
z
M 22.90625 -0.40625 
C 16.5 -0.40625 12.703125 5.125 11.296875 12.75 
C 10.203125 18.6875 10.203125 27.328125 10.203125 32.953125 
C 10.203125 40.6875 10.203125 47.109375 11.5 53.234375 
C 13.40625 61.78125 19 64.390625 22.90625 64.390625 
C 27 64.390625 32.296875 61.671875 34.203125 53.4375 
C 35.5 47.71875 35.59375 40.984375 35.59375 32.953125 
C 35.59375 26.421875 35.59375 18.375 34.40625 12.453125 
C 32.296875 1.5 26.40625 -0.40625 22.90625 -0.40625 
z
" id="CMR17-48"/>
      </defs>
      <g transform="translate(24.512769 126.158163)scale(0.1 -0.1)">
       <use transform="scale(0.996264)" xlink:href="#CMSY10-0"/>
       <use transform="translate(77.487468 0)scale(0.996264)" xlink:href="#CMR17-49"/>
       <use transform="translate(123.177945 0)scale(0.996264)" xlink:href="#CMMI12-58"/>
       <use transform="translate(150.275122 0)scale(0.996264)" xlink:href="#CMR17-48"/>
      </g>
     </g>
    </g>
    <g id="xtick_2">
     <g id="line2d_2">
      <g>
       <use style="stroke:#000000;stroke-width:0.8;" x="76.973194" xlink:href="#mc601405e8b" y="112.239665"/>
      </g>
     </g>
     <g id="text_2">
      <!-- $-0.5$ -->
      <defs>
       <path d="M 11.40625 58.59375 
C 12.40625 58.1875 16.5 56.890625 20.703125 56.890625 
C 30 56.890625 35.09375 61.890625 38 64.6875 
C 38 65.484375 38 66 37.40625 66 
C 37.296875 66 37.09375 66 36.296875 65.59375 
C 32.796875 64.09375 28.703125 63 23.703125 63 
C 20.703125 63 16.203125 63.359375 11.296875 65.484375 
C 10.203125 66 10 66 9.90625 66 
C 9.40625 66 9.296875 65.890625 9.296875 63.90625 
L 9.296875 34.859375 
C 9.296875 33.015625 9.296875 32.5 10.296875 32.5 
C 10.796875 32.5 11 32.703125 11.5 33.421875 
C 14.703125 38.046875 19.09375 40 24.09375 40 
C 27.59375 40 35.09375 37.734375 35.09375 20.203125 
C 35.09375 16.984375 35.09375 11.1875 32.09375 6.59375 
C 29.59375 2.484375 25.703125 0.390625 21.40625 0.390625 
C 14.796875 0.390625 8.09375 4.984375 6.296875 12.6875 
C 6.703125 12.59375 7.5 12.390625 7.90625 12.390625 
C 9.203125 12.390625 11.703125 13.09375 11.703125 16.1875 
C 11.703125 18.890625 9.796875 20 7.90625 20 
C 5.59375 20 4.09375 18.59375 4.09375 15.796875 
C 4.09375 7.09375 11 -2 21.59375 -2 
C 31.90625 -2 41.703125 6.890625 41.703125 19.796875 
C 41.703125 32.09375 33.90625 41.59375 24.203125 41.59375 
C 19.09375 41.59375 14.796875 39.6875 11.40625 36 
z
" id="CMR17-53"/>
      </defs>
      <g transform="translate(66.733783 126.158163)scale(0.1 -0.1)">
       <use transform="scale(0.996264)" xlink:href="#CMSY10-0"/>
       <use transform="translate(77.487468 0)scale(0.996264)" xlink:href="#CMR17-48"/>
       <use transform="translate(123.177945 0)scale(0.996264)" xlink:href="#CMMI12-58"/>
       <use transform="translate(150.275122 0)scale(0.996264)" xlink:href="#CMR17-53"/>
      </g>
     </g>
    </g>
    <g id="xtick_3">
     <g id="line2d_3">
      <g>
       <use style="stroke:#000000;stroke-width:0.8;" x="119.194208" xlink:href="#mc601405e8b" y="112.239665"/>
      </g>
     </g>
     <g id="text_3">
      <!-- $0.0$ -->
      <g transform="translate(112.829169 126.158163)scale(0.1 -0.1)">
       <use transform="scale(0.996264)" xlink:href="#CMR17-48"/>
       <use transform="translate(45.690477 0)scale(0.996264)" xlink:href="#CMMI12-58"/>
       <use transform="translate(72.787654 0)scale(0.996264)" xlink:href="#CMR17-48"/>
      </g>
     </g>
    </g>
    <g id="xtick_4">
     <g id="line2d_4">
      <g>
       <use style="stroke:#000000;stroke-width:0.8;" x="161.415222" xlink:href="#mc601405e8b" y="112.239665"/>
      </g>
     </g>
     <g id="text_4">
      <!-- $0.5$ -->
      <g transform="translate(155.050182 126.158163)scale(0.1 -0.1)">
       <use transform="scale(0.996264)" xlink:href="#CMR17-48"/>
       <use transform="translate(45.690477 0)scale(0.996264)" xlink:href="#CMMI12-58"/>
       <use transform="translate(72.787654 0)scale(0.996264)" xlink:href="#CMR17-53"/>
      </g>
     </g>
    </g>
    <g id="xtick_5">
     <g id="line2d_5">
      <g>
       <use style="stroke:#000000;stroke-width:0.8;" x="203.636236" xlink:href="#mc601405e8b" y="112.239665"/>
      </g>
     </g>
     <g id="text_5">
      <!-- $1.0$ -->
      <g transform="translate(197.271196 126.158163)scale(0.1 -0.1)">
       <use transform="scale(0.996264)" xlink:href="#CMR17-49"/>
       <use transform="translate(45.690477 0)scale(0.996264)" xlink:href="#CMMI12-58"/>
       <use transform="translate(72.787654 0)scale(0.996264)" xlink:href="#CMR17-48"/>
      </g>
     </g>
    </g>
   </g>
   <g id="matplotlib.axis_2">
    <g id="ytick_1">
     <g id="line2d_6">
      <defs>
       <path d="M 0 0 
L -3.5 0 
" id="md567fcf8bd" style="stroke:#000000;stroke-width:0.8;"/>
      </defs>
      <g>
       <use style="stroke:#000000;stroke-width:0.8;" x="30.530079" xlink:href="#md567fcf8bd" y="108.711329"/>
      </g>
     </g>
     <g id="text_6">
      <!-- $-5.0$ -->
      <g transform="translate(3.051256 112.170578)scale(0.1 -0.1)">
       <use transform="scale(0.996264)" xlink:href="#CMSY10-0"/>
       <use transform="translate(77.487468 0)scale(0.996264)" xlink:href="#CMR17-53"/>
       <use transform="translate(123.177945 0)scale(0.996264)" xlink:href="#CMMI12-58"/>
       <use transform="translate(150.275122 0)scale(0.996264)" xlink:href="#CMR17-48"/>
      </g>
     </g>
    </g>
    <g id="ytick_2">
     <g id="line2d_7">
      <g>
       <use style="stroke:#000000;stroke-width:0.8;" x="30.530079" xlink:href="#md567fcf8bd" y="86.659228"/>
      </g>
     </g>
     <g id="text_7">
      <!-- $-2.5$ -->
      <defs>
       <path d="M 41.703125 15.46875 
L 39.90625 15.46875 
C 38.90625 8.390625 38.09375 7.1875 37.703125 6.59375 
C 37.203125 5.796875 30 5.796875 28.59375 5.796875 
L 9.40625 5.796875 
C 13 9.6875 20 16.765625 28.5 24.9375 
C 34.59375 30.71875 41.703125 37.5 41.703125 47.390625 
C 41.703125 59.1875 32.296875 66 21.796875 66 
C 10.796875 66 4.09375 56.296875 4.09375 47.296875 
C 4.09375 43.390625 7 42.890625 8.203125 42.890625 
C 9.203125 42.890625 12.203125 43.484375 12.203125 46.984375 
C 12.203125 50.09375 9.59375 51 8.203125 51 
C 7.59375 51 7 50.890625 6.59375 50.6875 
C 8.5 59.1875 14.296875 63.390625 20.40625 63.390625 
C 29.09375 63.390625 34.796875 56.5 34.796875 47.390625 
C 34.796875 38.703125 29.703125 31.21875 24 24.734375 
L 4.09375 2.296875 
L 4.09375 0 
L 39.296875 0 
z
" id="CMR17-50"/>
      </defs>
      <g transform="translate(3.051256 90.118477)scale(0.1 -0.1)">
       <use transform="scale(0.996264)" xlink:href="#CMSY10-0"/>
       <use transform="translate(77.487468 0)scale(0.996264)" xlink:href="#CMR17-50"/>
       <use transform="translate(123.177945 0)scale(0.996264)" xlink:href="#CMMI12-58"/>
       <use transform="translate(150.275122 0)scale(0.996264)" xlink:href="#CMR17-53"/>
      </g>
     </g>
    </g>
    <g id="ytick_3">
     <g id="line2d_8">
      <g>
       <use style="stroke:#000000;stroke-width:0.8;" x="30.530079" xlink:href="#md567fcf8bd" y="64.607127"/>
      </g>
     </g>
     <g id="text_8">
      <!-- $0.0$ -->
      <g transform="translate(10.8 68.066376)scale(0.1 -0.1)">
       <use transform="scale(0.996264)" xlink:href="#CMR17-48"/>
       <use transform="translate(45.690477 0)scale(0.996264)" xlink:href="#CMMI12-58"/>
       <use transform="translate(72.787654 0)scale(0.996264)" xlink:href="#CMR17-48"/>
      </g>
     </g>
    </g>
    <g id="ytick_4">
     <g id="line2d_9">
      <g>
       <use style="stroke:#000000;stroke-width:0.8;" x="30.530079" xlink:href="#md567fcf8bd" y="42.555026"/>
      </g>
     </g>
     <g id="text_9">
      <!-- $2.5$ -->
      <g transform="translate(10.8 46.014275)scale(0.1 -0.1)">
       <use transform="scale(0.996264)" xlink:href="#CMR17-50"/>
       <use transform="translate(45.690477 0)scale(0.996264)" xlink:href="#CMMI12-58"/>
       <use transform="translate(72.787654 0)scale(0.996264)" xlink:href="#CMR17-53"/>
      </g>
     </g>
    </g>
    <g id="ytick_5">
     <g id="line2d_10">
      <g>
       <use style="stroke:#000000;stroke-width:0.8;" x="30.530079" xlink:href="#md567fcf8bd" y="20.502924"/>
      </g>
     </g>
     <g id="text_10">
      <!-- $5.0$ -->
      <g transform="translate(10.8 23.962174)scale(0.1 -0.1)">
       <use transform="scale(0.996264)" xlink:href="#CMR17-53"/>
       <use transform="translate(45.690477 0)scale(0.996264)" xlink:href="#CMMI12-58"/>
       <use transform="translate(72.787654 0)scale(0.996264)" xlink:href="#CMR17-48"/>
      </g>
     </g>
    </g>
   </g>
   <g id="line2d_11">
    <path clip-path="url(#p231952580c)" d="M 30.530079 99.795083 
L 41.924666 96.583454 
L 53.319253 93.139699 
L 64.71384 89.463818 
L 76.108426 85.55581 
L 87.503013 81.415677 
L 98.8976 77.043417 
L 110.292187 72.43903 
L 121.686774 67.602518 
L 133.081361 62.533879 
L 144.475948 57.233114 
L 155.870535 51.700223 
L 167.977283 45.567184 
L 180.084032 39.172097 
L 192.19078 32.514961 
L 204.297529 25.595777 
L 207.858337 23.510852 
L 207.858337 23.510852 
" style="fill:none;stroke:#40e0d0;stroke-linecap:square;"/>
   </g>
   <g id="line2d_12">
    <path clip-path="url(#p231952580c)" d="M 30.530079 108.142313 
L 32.666564 108.572057 
L 34.803049 108.711246 
L 36.939534 108.558153 
L 39.076019 108.114677 
L 41.212504 107.386311 
L 43.348989 106.382068 
L 45.485474 105.114354 
L 47.621959 103.598797 
L 49.758444 101.854025 
L 52.607091 99.208401 
L 55.455738 96.250825 
L 59.016546 92.212468 
L 64.001678 86.163868 
L 72.547618 75.747933 
L 76.108426 71.75928 
L 78.957073 68.839375 
L 81.80572 66.21634 
L 84.654367 63.932744 
L 86.790852 62.463003 
L 88.927337 61.213028 
L 91.063822 60.189485 
L 93.200307 59.395547 
L 95.336792 58.830863 
L 97.473277 58.49158 
L 99.609762 58.370419 
L 101.746247 58.456797 
L 103.882732 58.736997 
L 106.731379 59.382949 
L 109.580025 60.296914 
L 113.140834 61.733721 
L 117.413804 63.733431 
L 125.247582 67.480533 
L 128.808391 68.917339 
L 131.657037 69.831304 
L 134.505684 70.477257 
L 136.642169 70.757456 
L 138.778654 70.843834 
L 140.915139 70.722673 
L 143.051624 70.38339 
L 145.188109 69.818706 
L 147.324594 69.024768 
L 149.461079 68.001225 
L 151.597564 66.75125 
L 153.73405 65.28151 
L 156.582696 62.997913 
L 159.431343 60.374879 
L 162.27999 57.454973 
L 165.840798 53.46632 
L 170.82593 47.461445 
L 180.084032 36.169401 
L 183.64484 32.198171 
L 186.493487 29.312844 
L 189.342133 26.754435 
L 191.478619 25.083823 
L 193.615104 23.648954 
L 195.751589 22.467482 
L 197.888074 21.553984 
L 200.024559 20.919751 
L 202.161044 20.572636 
L 204.297529 20.516939 
L 206.434014 20.75335 
L 207.858337 21.071941 
L 207.858337 21.071941 
" style="fill:none;stroke:#ff00ff;stroke-linecap:square;"/>
   </g>
   <g id="patch_3">
    <path d="M 30.530079 112.239665 
L 30.530079 10.8 
" style="fill:none;stroke:#000000;stroke-linecap:square;stroke-linejoin:miter;stroke-width:0.8;"/>
   </g>
   <g id="patch_4">
    <path d="M 207.858337 112.239665 
L 207.858337 10.8 
" style="fill:none;stroke:#000000;stroke-linecap:square;stroke-linejoin:miter;stroke-width:0.8;"/>
   </g>
   <g id="patch_5">
    <path d="M 30.530079 112.239665 
L 207.858337 112.239665 
" style="fill:none;stroke:#000000;stroke-linecap:square;stroke-linejoin:miter;stroke-width:0.8;"/>
   </g>
   <g id="patch_6">
    <path d="M 30.530079 10.8 
L 207.858337 10.8 
" style="fill:none;stroke:#000000;stroke-linecap:square;stroke-linejoin:miter;stroke-width:0.8;"/>
   </g>
   <g id="text_11">
    <!-- $M=2$ -->
    <defs>
     <path d="M 90.796875 60.71875 
C 91.703125 64.09375 91.90625 65.09375 99 65.09375 
C 100.90625 65.09375 101.796875 65.09375 101.796875 66.984375 
C 101.796875 68 101.09375 68 99.203125 68 
L 87.203125 68 
C 84.703125 68 84.59375 67.890625 83.5 66.296875 
L 47 8.859375 
L 39.5 65.796875 
C 39.203125 68 39.09375 68 36.5 68 
L 24.09375 68 
C 22.203125 68 21.296875 68 21.296875 66.09375 
C 21.296875 65.09375 22.203125 65.09375 23.703125 65.09375 
C 29.796875 65.09375 29.796875 64.296875 29.796875 63.203125 
C 29.796875 63 29.796875 62.40625 29.40625 60.90625 
L 16.59375 10.15625 
C 15.40625 5.375 13.09375 3.1875 6.40625 2.890625 
C 6.09375 2.890625 4.90625 2.796875 4.90625 1.09375 
C 4.90625 0 5.796875 0 6.203125 0 
C 8.203125 0 13.296875 0.1875 15.296875 0.1875 
L 20.09375 0.1875 
C 21.5 0.1875 23.203125 0 24.59375 0 
C 25.296875 0 26.40625 0 26.40625 1.890625 
C 26.40625 2.796875 25.40625 2.890625 25 2.890625 
C 21.703125 2.984375 18.5 3.59375 18.5 7.171875 
C 18.5 8.171875 18.5 8.265625 18.90625 9.65625 
L 32.703125 64.5 
L 32.796875 64.5 
L 41.09375 2.6875 
C 41.40625 0.296875 41.5 0 42.40625 0 
C 43.5 0 44 0.796875 44.5 1.6875 
L 84.703125 64.984375 
L 84.796875 64.984375 
L 70.296875 7.375 
C 69.40625 3.890625 69.203125 2.890625 62.203125 2.890625 
C 60.296875 2.890625 59.296875 2.890625 59.296875 1.09375 
C 59.296875 0 60.203125 0 60.796875 0 
C 62.5 0 64.5 0.1875 66.203125 0.1875 
L 78 0.1875 
C 79.703125 0.1875 81.796875 0 83.5 0 
C 84.296875 0 85.40625 0 85.40625 1.890625 
C 85.40625 2.890625 84.5 2.890625 83 2.890625 
C 76.90625 2.890625 76.90625 3.6875 76.90625 4.6875 
C 76.90625 4.78125 76.90625 5.484375 77.09375 6.28125 
z
" id="CMMI12-77"/>
     <path d="M 64.296875 32 
C 65.796875 32 67.296875 32 67.296875 33.6875 
C 67.296875 35.5 65.59375 35.5 63.90625 35.5 
L 8 35.5 
C 6.296875 35.5 4.59375 35.5 4.59375 33.6875 
C 4.59375 32 6.09375 32 7.59375 32 
z
M 63.90625 14.484375 
C 65.59375 14.484375 67.296875 14.484375 67.296875 16.296875 
C 67.296875 18 65.796875 18 64.296875 18 
L 7.59375 18 
C 6.09375 18 4.59375 18 4.59375 16.296875 
C 4.59375 14.484375 6.296875 14.484375 8 14.484375 
z
" id="CMR17-61"/>
    </defs>
    <g transform="translate(169.859425 108.711329)scale(0.1 -0.1)">
     <use transform="scale(0.996264)" xlink:href="#CMMI12-77"/>
     <use transform="translate(132.454088 0)scale(0.996264)" xlink:href="#CMR17-61"/>
     <use transform="translate(231.842885 0)scale(0.996264)" xlink:href="#CMR17-50"/>
    </g>
   </g>
   <g id="legend_1">
    <g id="line2d_13">
     <path d="M 39.530079 23.3 
L 59.530079 23.3 
" style="fill:none;stroke:#40e0d0;stroke-linecap:square;"/>
    </g>
    <g id="line2d_14"/>
    <g id="text_12">
     <!-- Predicted -->
     <defs>
      <path d="M 19.796875 32 
L 35.796875 32 
C 48.703125 32 58.09375 40.359375 58.09375 49.796875 
C 58.09375 59.234375 48.90625 68 35.796875 68 
L 5.203125 68 
L 5.203125 65.390625 
C 12.09375 65.390625 13.203125 65.390625 13.203125 60.921875 
L 13.203125 7.078125 
C 13.203125 2.59375 12.09375 2.59375 5.203125 2.59375 
L 5.203125 0 
C 8.09375 0.1875 13.40625 0.1875 16.5 0.1875 
C 19.59375 0.1875 24.90625 0.1875 27.796875 0 
L 27.796875 2.59375 
C 20.90625 2.59375 19.796875 2.59375 19.796875 7.078125 
z
M 19.59375 34.09375 
L 19.59375 61.515625 
C 19.59375 64.890625 19.796875 65.390625 23.796875 65.390625 
L 33.90625 65.390625 
C 46.796875 65.390625 50.5 58.046875 50.5 49.796875 
C 50.5 40.75 46.09375 34.09375 33.90625 34.09375 
z
" id="CMR17-80"/>
      <path d="M 15 23.703125 
C 15 33.34375 19.09375 42.390625 26.59375 42.390625 
C 27.296875 42.390625 28 42.296875 28.703125 41.984375 
C 28.703125 41.984375 26.5 41.28125 26.5 38.671875 
C 26.5 36.265625 28.40625 35.265625 29.90625 35.265625 
C 31.09375 35.265625 33.296875 35.96875 33.296875 38.78125 
C 33.296875 41.984375 30.09375 44 26.703125 44 
C 19.09375 44 15.796875 36.5625 14.796875 33.046875 
L 14.703125 33.046875 
L 14.703125 44 
L 3.09375 42.890625 
L 3.09375 40.28125 
C 9 40.28125 9.90625 39.6875 9.90625 34.859375 
L 9.90625 6.921875 
C 9.90625 3.09375 9.5 2.59375 3.09375 2.59375 
L 3.09375 0 
C 5.5 0.1875 10.09375 0.1875 12.703125 0.1875 
C 15.59375 0.1875 20.703125 0.1875 23.40625 0 
L 23.40625 2.59375 
C 16.203125 2.59375 15 2.59375 15 7.109375 
z
" id="CMR17-114"/>
      <path d="M 38.09375 23.484375 
C 38.5 23.890625 38.5 24.09375 38.5 25.09375 
C 38.5 35.171875 33.09375 44 21.703125 44 
C 11.09375 44 2.703125 33.984375 2.703125 21.78125 
C 2.703125 8.65625 12.203125 -1 22.796875 -1 
C 34 -1 38.40625 9.671875 38.40625 11.796875 
C 38.40625 12.5 37.796875 12.5 37.59375 12.5 
C 36.90625 12.5 36.796875 12.296875 36.40625 11.078125 
C 34.203125 4.21875 28.703125 0.796875 23.5 0.796875 
C 19.203125 0.796875 14.90625 3.21875 12.203125 7.65625 
C 9.09375 12.796875 9.09375 18.75 9.09375 23.484375 
z
M 9.203125 25 
C 9.90625 39.234375 17.59375 42.390625 21.59375 42.390625 
C 28.40625 42.390625 33 36.0625 33.09375 25 
z
" id="CMR17-101"/>
      <path d="M 29.203125 67.890625 
L 29.203125 65.296875 
C 35.09375 65.296875 36 64.703125 36 60.046875 
L 36 37.046875 
C 35.59375 37.546875 31.5 44 23.40625 44 
C 13.203125 44 3.296875 34.8125 3.296875 21.5 
C 3.296875 8.265625 12.59375 -1 22.40625 -1 
C 30.90625 -1 35.296875 5.640625 35.796875 6.34375 
L 35.796875 -1 
L 47.90625 -0.203125 
L 47.90625 2.40625 
C 42 2.40625 41.09375 3.015625 41.09375 7.859375 
L 41.09375 69 
z
M 35.796875 11.90625 
C 35.796875 8.875 34 6.140625 31.703125 4.125 
C 28.296875 1.09375 24.90625 0.59375 23 0.59375 
C 20.09375 0.59375 9.703125 2.109375 9.703125 21.390625 
C 9.703125 41.1875 21.296875 42.390625 23.90625 42.390625 
C 28.5 42.390625 32.203125 39.765625 34.5 36.140625 
C 35.796875 34.015625 35.796875 33.703125 35.796875 31.890625 
z
" id="CMR17-100"/>
      <path d="M 15.5 61.890625 
C 15.5 64.09375 13.703125 66 11.40625 66 
C 9.203125 66 7.296875 64.1875 7.296875 61.890625 
C 7.296875 59.6875 9.09375 57.796875 11.40625 57.796875 
C 13.59375 57.796875 15.5 59.59375 15.5 61.890625 
z
M 3.796875 42.890625 
L 3.796875 40.296875 
C 9.40625 40.296875 10.203125 39.6875 10.203125 34.859375 
L 10.203125 6.921875 
C 10.203125 3.09375 9.796875 2.59375 3.40625 2.59375 
L 3.40625 0 
C 5.796875 0.1875 10.09375 0.1875 12.59375 0.1875 
C 15 0.1875 19.09375 0.1875 21.40625 0 
L 21.40625 2.59375 
C 15.5 2.59375 15.296875 3.203125 15.296875 6.8125 
L 15.296875 44 
z
" id="CMR17-105"/>
      <path d="M 34.90625 35 
C 33 35 30.203125 35 30.203125 31.484375 
C 30.203125 28.6875 32.5 27.890625 33.796875 27.890625 
C 34.5 27.890625 37.40625 28.1875 37.40625 31.6875 
C 37.40625 38.6875 30.59375 44 22.90625 44 
C 12.296875 44 3.296875 34.390625 3.296875 21.546875 
C 3.296875 8.140625 12.703125 -1 22.90625 -1 
C 35.296875 -1 38.40625 10.5625 38.40625 11.671875 
C 38.40625 12.078125 38.296875 12.375 37.59375 12.375 
C 36.90625 12.375 36.796875 12.28125 36.40625 10.96875 
C 33.796875 2.8125 28.09375 0.796875 23.796875 0.796875 
C 17.40625 0.796875 9.703125 6.734375 9.703125 21.640625 
C 9.703125 36.84375 17.09375 42.1875 23 42.1875 
C 26.90625 42.1875 32.703125 40.34375 34.90625 35 
z
" id="CMR17-99"/>
      <path d="M 15.09375 40.390625 
L 29.09375 40.390625 
L 29.09375 43 
L 15.09375 43 
L 15.09375 62 
L 13.296875 62 
C 13.09375 51.4375 9.59375 42.1875 1.09375 41.984375 
L 1.09375 40.390625 
L 9.796875 40.390625 
L 9.796875 12.15625 
C 9.796875 10.234375 9.796875 -1 21.40625 -1 
C 27.296875 -1 30.703125 4.8125 30.703125 12.25 
L 30.703125 17.984375 
L 28.90625 17.984375 
L 28.90625 12.34375 
C 28.90625 5.421875 26.203125 0.796875 22 0.796875 
C 19.09375 0.796875 15.09375 2.796875 15.09375 11.953125 
z
" id="CMR17-116"/>
     </defs>
     <g transform="translate(67.530079 26.8)scale(0.1 -0.1)">
      <use transform="scale(0.996264)" xlink:href="#CMR17-80"/>
      <use transform="translate(62.586301 0)scale(0.996264)" xlink:href="#CMR17-114"/>
      <use transform="translate(97.867068 0)scale(0.996264)" xlink:href="#CMR17-101"/>
      <use transform="translate(138.352729 0)scale(0.996264)" xlink:href="#CMR17-100"/>
      <use transform="translate(189.248099 0)scale(0.996264)" xlink:href="#CMR17-105"/>
      <use transform="translate(214.119157 0)scale(0.996264)" xlink:href="#CMR17-99"/>
      <use transform="translate(254.604818 0)scale(0.996264)" xlink:href="#CMR17-116"/>
      <use transform="translate(289.885585 0)scale(0.996264)" xlink:href="#CMR17-101"/>
      <use transform="translate(330.371246 0)scale(0.996264)" xlink:href="#CMR17-100"/>
     </g>
    </g>
    <g id="line2d_15">
     <path d="M 39.530079 37.237178 
L 59.530079 37.237178 
" style="fill:none;stroke:#ff00ff;stroke-linecap:square;"/>
    </g>
    <g id="line2d_16"/>
    <g id="text_13">
     <!-- True -->
     <defs>
      <path d="M 62.203125 67.6875 
L 4.5 67.6875 
L 2.796875 45.6875 
L 4.59375 45.6875 
C 5.90625 62.203125 7.296875 65.09375 22.703125 65.09375 
C 24.5 65.09375 27.40625 65.09375 28.203125 64.984375 
C 30.09375 64.6875 30.09375 63.5 30.09375 61.203125 
L 30.09375 7.265625 
C 30.09375 3.6875 29.796875 2.59375 21.5 2.59375 
L 18.703125 2.59375 
L 18.703125 0 
C 23.5 0.09375 28.5 0.1875 33.40625 0.1875 
C 38.296875 0.1875 43.296875 0.09375 48.09375 0 
L 48.09375 2.59375 
L 45.296875 2.59375 
C 37 2.59375 36.703125 3.6875 36.703125 7.265625 
L 36.703125 61.203125 
C 36.703125 63.390625 36.703125 64.59375 38.5 64.984375 
C 39.296875 65.09375 42.203125 65.09375 44 65.09375 
C 59.296875 65.09375 60.796875 62.203125 62.09375 45.6875 
L 63.90625 45.6875 
z
" id="CMR17-84"/>
      <path d="M 29.40625 42.890625 
L 29.40625 40.296875 
C 35.296875 40.296875 36.203125 39.6875 36.203125 34.828125 
L 36.203125 16.453125 
C 36.203125 7.96875 31.703125 0.59375 24.296875 0.59375 
C 16.09375 0.59375 15.40625 5.546875 15.40625 10.796875 
L 15.40625 44 
L 3.296875 42.890625 
L 3.296875 40.296875 
C 7.296875 40.296875 10 40.296875 10.09375 36.25 
L 10.09375 16.859375 
C 10.09375 10.09375 10.09375 5.75 12.703125 2.921875 
C 14 1.609375 16.5 -1 23.703125 -1 
C 32.203125 -1 35.5 6.25 36.296875 8.375 
L 36.40625 8.375 
L 36.40625 -1 
L 48.296875 -0.203125 
L 48.296875 2.40625 
C 42.40625 2.40625 41.5 3.015625 41.5 7.859375 
L 41.5 44 
z
" id="CMR17-117"/>
     </defs>
     <g transform="translate(67.530079 40.737178)scale(0.1 -0.1)">
      <use transform="scale(0.996264)" xlink:href="#CMR17-84"/>
      <use transform="translate(58.702625 0)scale(0.996264)" xlink:href="#CMR17-114"/>
      <use transform="translate(93.983393 0)scale(0.996264)" xlink:href="#CMR17-117"/>
      <use transform="translate(144.878763 0)scale(0.996264)" xlink:href="#CMR17-101"/>
     </g>
    </g>
   </g>
  </g>
  <g id="axes_2">
   <g id="patch_7">
    <path d="M 241.130079 112.239665 
L 418.458337 112.239665 
L 418.458337 10.8 
L 241.130079 10.8 
z
" style="fill:#ffffff;"/>
   </g>
   <g id="PathCollection_2">
    <defs>
     <path d="M 0 1.767767 
C 0.468817 1.767767 0.918496 1.581504 1.25 1.25 
C 1.581504 0.918496 1.767767 0.468817 1.767767 0 
C 1.767767 -0.468817 1.581504 -0.918496 1.25 -1.25 
C 0.918496 -1.581504 0.468817 -1.767767 0 -1.767767 
C -0.468817 -1.767767 -0.918496 -1.581504 -1.25 -1.25 
C -1.581504 -0.918496 -1.767767 -0.468817 -1.767767 0 
C -1.767767 0.468817 -1.581504 0.918496 -1.25 1.25 
C -0.918496 1.581504 -0.468817 1.767767 0 1.767767 
z
" id="C1_0_1144bb27e3"/>
    </defs>
    <g clip-path="url(#p0de0043bba)">
     <use style="fill:none;stroke:#ff00ff;" x="245.35218" xlink:href="#C1_0_1144bb27e3" y="107.829245"/>
    </g>
    <g clip-path="url(#p0de0043bba)">
     <use style="fill:none;stroke:#ff00ff;" x="262.240586" xlink:href="#C1_0_1144bb27e3" y="95.480068"/>
    </g>
    <g clip-path="url(#p0de0043bba)">
     <use style="fill:none;stroke:#ff00ff;" x="279.128991" xlink:href="#C1_0_1144bb27e3" y="89.30548"/>
    </g>
    <g clip-path="url(#p0de0043bba)">
     <use style="fill:none;stroke:#ff00ff;" x="296.017397" xlink:href="#C1_0_1144bb27e3" y="57.550454"/>
    </g>
    <g clip-path="url(#p0de0043bba)">
     <use style="fill:none;stroke:#ff00ff;" x="312.905803" xlink:href="#C1_0_1144bb27e3" y="61.960874"/>
    </g>
    <g clip-path="url(#p0de0043bba)">
     <use style="fill:none;stroke:#ff00ff;" x="329.794208" xlink:href="#C1_0_1144bb27e3" y="78.720471"/>
    </g>
    <g clip-path="url(#p0de0043bba)">
     <use style="fill:none;stroke:#ff00ff;" x="346.682614" xlink:href="#C1_0_1144bb27e3" y="76.074219"/>
    </g>
    <g clip-path="url(#p0de0043bba)">
     <use style="fill:none;stroke:#ff00ff;" x="363.571019" xlink:href="#C1_0_1144bb27e3" y="60.196706"/>
    </g>
    <g clip-path="url(#p0de0043bba)">
     <use style="fill:none;stroke:#ff00ff;" x="380.459425" xlink:href="#C1_0_1144bb27e3" y="46.083362"/>
    </g>
    <g clip-path="url(#p0de0043bba)">
     <use style="fill:none;stroke:#ff00ff;" x="397.34783" xlink:href="#C1_0_1144bb27e3" y="39.026689"/>
    </g>
    <g clip-path="url(#p0de0043bba)">
     <use style="fill:none;stroke:#ff00ff;" x="414.236236" xlink:href="#C1_0_1144bb27e3" y="15.21042"/>
    </g>
   </g>
   <g id="matplotlib.axis_3">
    <g id="xtick_6">
     <g id="line2d_17">
      <g>
       <use style="stroke:#000000;stroke-width:0.8;" x="245.35218" xlink:href="#mc601405e8b" y="112.239665"/>
      </g>
     </g>
     <g id="text_14">
      <!-- $-1.0$ -->
      <g transform="translate(235.112769 126.158163)scale(0.1 -0.1)">
       <use transform="scale(0.996264)" xlink:href="#CMSY10-0"/>
       <use transform="translate(77.487468 0)scale(0.996264)" xlink:href="#CMR17-49"/>
       <use transform="translate(123.177945 0)scale(0.996264)" xlink:href="#CMMI12-58"/>
       <use transform="translate(150.275122 0)scale(0.996264)" xlink:href="#CMR17-48"/>
      </g>
     </g>
    </g>
    <g id="xtick_7">
     <g id="line2d_18">
      <g>
       <use style="stroke:#000000;stroke-width:0.8;" x="287.573194" xlink:href="#mc601405e8b" y="112.239665"/>
      </g>
     </g>
     <g id="text_15">
      <!-- $-0.5$ -->
      <g transform="translate(277.333783 126.158163)scale(0.1 -0.1)">
       <use transform="scale(0.996264)" xlink:href="#CMSY10-0"/>
       <use transform="translate(77.487468 0)scale(0.996264)" xlink:href="#CMR17-48"/>
       <use transform="translate(123.177945 0)scale(0.996264)" xlink:href="#CMMI12-58"/>
       <use transform="translate(150.275122 0)scale(0.996264)" xlink:href="#CMR17-53"/>
      </g>
     </g>
    </g>
    <g id="xtick_8">
     <g id="line2d_19">
      <g>
       <use style="stroke:#000000;stroke-width:0.8;" x="329.794208" xlink:href="#mc601405e8b" y="112.239665"/>
      </g>
     </g>
     <g id="text_16">
      <!-- $0.0$ -->
      <g transform="translate(323.429169 126.158163)scale(0.1 -0.1)">
       <use transform="scale(0.996264)" xlink:href="#CMR17-48"/>
       <use transform="translate(45.690477 0)scale(0.996264)" xlink:href="#CMMI12-58"/>
       <use transform="translate(72.787654 0)scale(0.996264)" xlink:href="#CMR17-48"/>
      </g>
     </g>
    </g>
    <g id="xtick_9">
     <g id="line2d_20">
      <g>
       <use style="stroke:#000000;stroke-width:0.8;" x="372.015222" xlink:href="#mc601405e8b" y="112.239665"/>
      </g>
     </g>
     <g id="text_17">
      <!-- $0.5$ -->
      <g transform="translate(365.650182 126.158163)scale(0.1 -0.1)">
       <use transform="scale(0.996264)" xlink:href="#CMR17-48"/>
       <use transform="translate(45.690477 0)scale(0.996264)" xlink:href="#CMMI12-58"/>
       <use transform="translate(72.787654 0)scale(0.996264)" xlink:href="#CMR17-53"/>
      </g>
     </g>
    </g>
    <g id="xtick_10">
     <g id="line2d_21">
      <g>
       <use style="stroke:#000000;stroke-width:0.8;" x="414.236236" xlink:href="#mc601405e8b" y="112.239665"/>
      </g>
     </g>
     <g id="text_18">
      <!-- $1.0$ -->
      <g transform="translate(407.871196 126.158163)scale(0.1 -0.1)">
       <use transform="scale(0.996264)" xlink:href="#CMR17-49"/>
       <use transform="translate(45.690477 0)scale(0.996264)" xlink:href="#CMMI12-58"/>
       <use transform="translate(72.787654 0)scale(0.996264)" xlink:href="#CMR17-48"/>
      </g>
     </g>
    </g>
   </g>
   <g id="matplotlib.axis_4">
    <g id="ytick_6">
     <g id="line2d_22">
      <g>
       <use style="stroke:#000000;stroke-width:0.8;" x="241.130079" xlink:href="#md567fcf8bd" y="108.711329"/>
      </g>
     </g>
     <g id="text_19">
      <!-- $-5.0$ -->
      <g transform="translate(213.651256 112.170578)scale(0.1 -0.1)">
       <use transform="scale(0.996264)" xlink:href="#CMSY10-0"/>
       <use transform="translate(77.487468 0)scale(0.996264)" xlink:href="#CMR17-53"/>
       <use transform="translate(123.177945 0)scale(0.996264)" xlink:href="#CMMI12-58"/>
       <use transform="translate(150.275122 0)scale(0.996264)" xlink:href="#CMR17-48"/>
      </g>
     </g>
    </g>
    <g id="ytick_7">
     <g id="line2d_23">
      <g>
       <use style="stroke:#000000;stroke-width:0.8;" x="241.130079" xlink:href="#md567fcf8bd" y="86.659228"/>
      </g>
     </g>
     <g id="text_20">
      <!-- $-2.5$ -->
      <g transform="translate(213.651256 90.118477)scale(0.1 -0.1)">
       <use transform="scale(0.996264)" xlink:href="#CMSY10-0"/>
       <use transform="translate(77.487468 0)scale(0.996264)" xlink:href="#CMR17-50"/>
       <use transform="translate(123.177945 0)scale(0.996264)" xlink:href="#CMMI12-58"/>
       <use transform="translate(150.275122 0)scale(0.996264)" xlink:href="#CMR17-53"/>
      </g>
     </g>
    </g>
    <g id="ytick_8">
     <g id="line2d_24">
      <g>
       <use style="stroke:#000000;stroke-width:0.8;" x="241.130079" xlink:href="#md567fcf8bd" y="64.607127"/>
      </g>
     </g>
     <g id="text_21">
      <!-- $0.0$ -->
      <g transform="translate(221.4 68.066376)scale(0.1 -0.1)">
       <use transform="scale(0.996264)" xlink:href="#CMR17-48"/>
       <use transform="translate(45.690477 0)scale(0.996264)" xlink:href="#CMMI12-58"/>
       <use transform="translate(72.787654 0)scale(0.996264)" xlink:href="#CMR17-48"/>
      </g>
     </g>
    </g>
    <g id="ytick_9">
     <g id="line2d_25">
      <g>
       <use style="stroke:#000000;stroke-width:0.8;" x="241.130079" xlink:href="#md567fcf8bd" y="42.555026"/>
      </g>
     </g>
     <g id="text_22">
      <!-- $2.5$ -->
      <g transform="translate(221.4 46.014275)scale(0.1 -0.1)">
       <use transform="scale(0.996264)" xlink:href="#CMR17-50"/>
       <use transform="translate(45.690477 0)scale(0.996264)" xlink:href="#CMMI12-58"/>
       <use transform="translate(72.787654 0)scale(0.996264)" xlink:href="#CMR17-53"/>
      </g>
     </g>
    </g>
    <g id="ytick_10">
     <g id="line2d_26">
      <g>
       <use style="stroke:#000000;stroke-width:0.8;" x="241.130079" xlink:href="#md567fcf8bd" y="20.502924"/>
      </g>
     </g>
     <g id="text_23">
      <!-- $5.0$ -->
      <g transform="translate(221.4 23.962174)scale(0.1 -0.1)">
       <use transform="scale(0.996264)" xlink:href="#CMR17-53"/>
       <use transform="translate(45.690477 0)scale(0.996264)" xlink:href="#CMMI12-58"/>
       <use transform="translate(72.787654 0)scale(0.996264)" xlink:href="#CMR17-48"/>
      </g>
     </g>
    </g>
   </g>
   <g id="line2d_27">
    <path clip-path="url(#p0de0043bba)" d="M 241.130079 118.255245 
L 244.690887 112.415156 
L 248.251696 107.093059 
L 251.812504 102.261592 
L 254.661151 98.731511 
L 257.509798 95.484475 
L 260.358444 92.506965 
L 263.919253 89.143735 
L 267.480061 86.154945 
L 271.04087 83.51514 
L 274.601678 81.199223 
L 278.162486 79.182449 
L 281.723295 77.440424 
L 285.284103 75.949112 
L 288.844911 74.684826 
L 293.117882 73.434532 
L 297.390852 72.437935 
L 301.663822 71.656121 
L 306.648953 70.964574 
L 312.346247 70.392522 
L 320.892187 69.789443 
L 333.711097 68.90534 
L 340.120552 68.227513 
L 345.105684 67.497325 
L 350.090816 66.535869 
L 354.363786 65.49163 
L 358.636756 64.2134 
L 362.909726 62.672776 
L 366.470535 61.168496 
L 370.031343 59.447144 
L 373.592151 57.493448 
L 377.15296 55.292491 
L 380.713768 52.829708 
L 384.274577 50.09089 
L 387.835385 47.062178 
L 391.396193 43.73007 
L 394.957002 40.081415 
L 398.51781 36.103417 
L 402.078619 31.783632 
L 405.639427 27.109971 
L 409.200235 22.070699 
L 412.761044 16.654432 
L 416.321852 10.850142 
L 418.458337 7.176862 
L 418.458337 7.176862 
" style="fill:none;stroke:#40e0d0;stroke-linecap:square;"/>
   </g>
   <g id="line2d_28">
    <path clip-path="url(#p0de0043bba)" d="M 241.130079 108.142313 
L 243.266564 108.572057 
L 245.403049 108.711246 
L 247.539534 108.558153 
L 249.676019 108.114677 
L 251.812504 107.386311 
L 253.948989 106.382068 
L 256.085474 105.114354 
L 258.221959 103.598797 
L 260.358444 101.854025 
L 263.207091 99.208401 
L 266.055738 96.250825 
L 269.616546 92.212468 
L 274.601678 86.163868 
L 283.147618 75.747933 
L 286.708426 71.75928 
L 289.557073 68.839375 
L 292.40572 66.21634 
L 295.254367 63.932744 
L 297.390852 62.463003 
L 299.527337 61.213028 
L 301.663822 60.189485 
L 303.800307 59.395547 
L 305.936792 58.830863 
L 308.073277 58.49158 
L 310.209762 58.370419 
L 312.346247 58.456797 
L 314.482732 58.736997 
L 317.331379 59.382949 
L 320.180025 60.296914 
L 323.740834 61.733721 
L 328.013804 63.733431 
L 335.847582 67.480533 
L 339.408391 68.917339 
L 342.257037 69.831304 
L 345.105684 70.477257 
L 347.242169 70.757456 
L 349.378654 70.843834 
L 351.515139 70.722673 
L 353.651624 70.38339 
L 355.788109 69.818706 
L 357.924594 69.024768 
L 360.061079 68.001225 
L 362.197564 66.75125 
L 364.33405 65.28151 
L 367.182696 62.997913 
L 370.031343 60.374879 
L 372.87999 57.454973 
L 376.440798 53.46632 
L 381.42593 47.461445 
L 390.684032 36.169401 
L 394.24484 32.198171 
L 397.093487 29.312844 
L 399.942133 26.754435 
L 402.078619 25.083823 
L 404.215104 23.648954 
L 406.351589 22.467482 
L 408.488074 21.553984 
L 410.624559 20.919751 
L 412.761044 20.572636 
L 414.897529 20.516939 
L 417.034014 20.75335 
L 418.458337 21.071941 
L 418.458337 21.071941 
" style="fill:none;stroke:#ff00ff;stroke-linecap:square;"/>
   </g>
   <g id="patch_8">
    <path d="M 241.130079 112.239665 
L 241.130079 10.8 
" style="fill:none;stroke:#000000;stroke-linecap:square;stroke-linejoin:miter;stroke-width:0.8;"/>
   </g>
   <g id="patch_9">
    <path d="M 418.458337 112.239665 
L 418.458337 10.8 
" style="fill:none;stroke:#000000;stroke-linecap:square;stroke-linejoin:miter;stroke-width:0.8;"/>
   </g>
   <g id="patch_10">
    <path d="M 241.130079 112.239665 
L 418.458337 112.239665 
" style="fill:none;stroke:#000000;stroke-linecap:square;stroke-linejoin:miter;stroke-width:0.8;"/>
   </g>
   <g id="patch_11">
    <path d="M 241.130079 10.8 
L 418.458337 10.8 
" style="fill:none;stroke:#000000;stroke-linecap:square;stroke-linejoin:miter;stroke-width:0.8;"/>
   </g>
   <g id="text_24">
    <!-- $M=4$ -->
    <defs>
     <path d="M 33.59375 64.796875 
C 33.59375 66.890625 33.5 67 31.703125 67 
L 2 19.59375 
L 2 17 
L 27.796875 17 
L 27.796875 7.1875 
C 27.796875 3.59375 27.59375 2.59375 20.59375 2.59375 
L 18.703125 2.59375 
L 18.703125 0 
C 21.90625 0.1875 27.296875 0.1875 30.703125 0.1875 
C 34.09375 0.1875 39.5 0.1875 42.703125 0 
L 42.703125 2.59375 
L 40.796875 2.59375 
C 33.796875 2.59375 33.59375 3.59375 33.59375 7.1875 
L 33.59375 17 
L 43.796875 17 
L 43.796875 19.59375 
L 33.59375 19.59375 
z
M 28.09375 58.171875 
L 28.09375 19.59375 
L 4 19.59375 
z
" id="CMR17-52"/>
    </defs>
    <g transform="translate(380.459425 108.711329)scale(0.1 -0.1)">
     <use transform="scale(0.996264)" xlink:href="#CMMI12-77"/>
     <use transform="translate(132.454088 0)scale(0.996264)" xlink:href="#CMR17-61"/>
     <use transform="translate(231.842885 0)scale(0.996264)" xlink:href="#CMR17-52"/>
    </g>
   </g>
   <g id="legend_2">
    <g id="line2d_29">
     <path d="M 250.130079 23.3 
L 270.130079 23.3 
" style="fill:none;stroke:#40e0d0;stroke-linecap:square;"/>
    </g>
    <g id="line2d_30"/>
    <g id="text_25">
     <!-- Predicted -->
     <g transform="translate(278.130079 26.8)scale(0.1 -0.1)">
      <use transform="scale(0.996264)" xlink:href="#CMR17-80"/>
      <use transform="translate(62.586301 0)scale(0.996264)" xlink:href="#CMR17-114"/>
      <use transform="translate(97.867068 0)scale(0.996264)" xlink:href="#CMR17-101"/>
      <use transform="translate(138.352729 0)scale(0.996264)" xlink:href="#CMR17-100"/>
      <use transform="translate(189.248099 0)scale(0.996264)" xlink:href="#CMR17-105"/>
      <use transform="translate(214.119157 0)scale(0.996264)" xlink:href="#CMR17-99"/>
      <use transform="translate(254.604818 0)scale(0.996264)" xlink:href="#CMR17-116"/>
      <use transform="translate(289.885585 0)scale(0.996264)" xlink:href="#CMR17-101"/>
      <use transform="translate(330.371246 0)scale(0.996264)" xlink:href="#CMR17-100"/>
     </g>
    </g>
    <g id="line2d_31">
     <path d="M 250.130079 37.237178 
L 270.130079 37.237178 
" style="fill:none;stroke:#ff00ff;stroke-linecap:square;"/>
    </g>
    <g id="line2d_32"/>
    <g id="text_26">
     <!-- True -->
     <g transform="translate(278.130079 40.737178)scale(0.1 -0.1)">
      <use transform="scale(0.996264)" xlink:href="#CMR17-84"/>
      <use transform="translate(58.702625 0)scale(0.996264)" xlink:href="#CMR17-114"/>
      <use transform="translate(93.983393 0)scale(0.996264)" xlink:href="#CMR17-117"/>
      <use transform="translate(144.878763 0)scale(0.996264)" xlink:href="#CMR17-101"/>
     </g>
    </g>
   </g>
  </g>
  <g id="axes_3">
   <g id="patch_12">
    <path d="M 30.530079 240.335006 
L 207.858337 240.335006 
L 207.858337 138.895342 
L 30.530079 138.895342 
z
" style="fill:#ffffff;"/>
   </g>
   <g id="PathCollection_3">
    <defs>
     <path d="M 0 1.767767 
C 0.468817 1.767767 0.918496 1.581504 1.25 1.25 
C 1.581504 0.918496 1.767767 0.468817 1.767767 0 
C 1.767767 -0.468817 1.581504 -0.918496 1.25 -1.25 
C 0.918496 -1.581504 0.468817 -1.767767 0 -1.767767 
C -0.468817 -1.767767 -0.918496 -1.581504 -1.25 -1.25 
C -1.581504 -0.918496 -1.767767 -0.468817 -1.767767 0 
C -1.767767 0.468817 -1.581504 0.918496 -1.25 1.25 
C -0.918496 1.581504 -0.468817 1.767767 0 1.767767 
z
" id="C2_0_8c9d27b5e0"/>
    </defs>
    <g clip-path="url(#pe7694f0781)">
     <use style="fill:none;stroke:#ff00ff;" x="34.75218" xlink:href="#C2_0_8c9d27b5e0" y="235.924586"/>
    </g>
    <g clip-path="url(#pe7694f0781)">
     <use style="fill:none;stroke:#ff00ff;" x="51.640586" xlink:href="#C2_0_8c9d27b5e0" y="223.57541"/>
    </g>
    <g clip-path="url(#pe7694f0781)">
     <use style="fill:none;stroke:#ff00ff;" x="68.528991" xlink:href="#C2_0_8c9d27b5e0" y="217.400821"/>
    </g>
    <g clip-path="url(#pe7694f0781)">
     <use style="fill:none;stroke:#ff00ff;" x="85.417397" xlink:href="#C2_0_8c9d27b5e0" y="185.645796"/>
    </g>
    <g clip-path="url(#pe7694f0781)">
     <use style="fill:none;stroke:#ff00ff;" x="102.305803" xlink:href="#C2_0_8c9d27b5e0" y="190.056216"/>
    </g>
    <g clip-path="url(#pe7694f0781)">
     <use style="fill:none;stroke:#ff00ff;" x="119.194208" xlink:href="#C2_0_8c9d27b5e0" y="206.815813"/>
    </g>
    <g clip-path="url(#pe7694f0781)">
     <use style="fill:none;stroke:#ff00ff;" x="136.082614" xlink:href="#C2_0_8c9d27b5e0" y="204.169561"/>
    </g>
    <g clip-path="url(#pe7694f0781)">
     <use style="fill:none;stroke:#ff00ff;" x="152.971019" xlink:href="#C2_0_8c9d27b5e0" y="188.292048"/>
    </g>
    <g clip-path="url(#pe7694f0781)">
     <use style="fill:none;stroke:#ff00ff;" x="169.859425" xlink:href="#C2_0_8c9d27b5e0" y="174.178703"/>
    </g>
    <g clip-path="url(#pe7694f0781)">
     <use style="fill:none;stroke:#ff00ff;" x="186.74783" xlink:href="#C2_0_8c9d27b5e0" y="167.122031"/>
    </g>
    <g clip-path="url(#pe7694f0781)">
     <use style="fill:none;stroke:#ff00ff;" x="203.636236" xlink:href="#C2_0_8c9d27b5e0" y="143.305762"/>
    </g>
   </g>
   <g id="matplotlib.axis_5">
    <g id="xtick_11">
     <g id="line2d_33">
      <g>
       <use style="stroke:#000000;stroke-width:0.8;" x="34.75218" xlink:href="#mc601405e8b" y="240.335006"/>
      </g>
     </g>
     <g id="text_27">
      <!-- $-1.0$ -->
      <g transform="translate(24.512769 254.253505)scale(0.1 -0.1)">
       <use transform="scale(0.996264)" xlink:href="#CMSY10-0"/>
       <use transform="translate(77.487468 0)scale(0.996264)" xlink:href="#CMR17-49"/>
       <use transform="translate(123.177945 0)scale(0.996264)" xlink:href="#CMMI12-58"/>
       <use transform="translate(150.275122 0)scale(0.996264)" xlink:href="#CMR17-48"/>
      </g>
     </g>
    </g>
    <g id="xtick_12">
     <g id="line2d_34">
      <g>
       <use style="stroke:#000000;stroke-width:0.8;" x="76.973194" xlink:href="#mc601405e8b" y="240.335006"/>
      </g>
     </g>
     <g id="text_28">
      <!-- $-0.5$ -->
      <g transform="translate(66.733783 254.253505)scale(0.1 -0.1)">
       <use transform="scale(0.996264)" xlink:href="#CMSY10-0"/>
       <use transform="translate(77.487468 0)scale(0.996264)" xlink:href="#CMR17-48"/>
       <use transform="translate(123.177945 0)scale(0.996264)" xlink:href="#CMMI12-58"/>
       <use transform="translate(150.275122 0)scale(0.996264)" xlink:href="#CMR17-53"/>
      </g>
     </g>
    </g>
    <g id="xtick_13">
     <g id="line2d_35">
      <g>
       <use style="stroke:#000000;stroke-width:0.8;" x="119.194208" xlink:href="#mc601405e8b" y="240.335006"/>
      </g>
     </g>
     <g id="text_29">
      <!-- $0.0$ -->
      <g transform="translate(112.829169 254.253505)scale(0.1 -0.1)">
       <use transform="scale(0.996264)" xlink:href="#CMR17-48"/>
       <use transform="translate(45.690477 0)scale(0.996264)" xlink:href="#CMMI12-58"/>
       <use transform="translate(72.787654 0)scale(0.996264)" xlink:href="#CMR17-48"/>
      </g>
     </g>
    </g>
    <g id="xtick_14">
     <g id="line2d_36">
      <g>
       <use style="stroke:#000000;stroke-width:0.8;" x="161.415222" xlink:href="#mc601405e8b" y="240.335006"/>
      </g>
     </g>
     <g id="text_30">
      <!-- $0.5$ -->
      <g transform="translate(155.050182 254.253505)scale(0.1 -0.1)">
       <use transform="scale(0.996264)" xlink:href="#CMR17-48"/>
       <use transform="translate(45.690477 0)scale(0.996264)" xlink:href="#CMMI12-58"/>
       <use transform="translate(72.787654 0)scale(0.996264)" xlink:href="#CMR17-53"/>
      </g>
     </g>
    </g>
    <g id="xtick_15">
     <g id="line2d_37">
      <g>
       <use style="stroke:#000000;stroke-width:0.8;" x="203.636236" xlink:href="#mc601405e8b" y="240.335006"/>
      </g>
     </g>
     <g id="text_31">
      <!-- $1.0$ -->
      <g transform="translate(197.271196 254.253505)scale(0.1 -0.1)">
       <use transform="scale(0.996264)" xlink:href="#CMR17-49"/>
       <use transform="translate(45.690477 0)scale(0.996264)" xlink:href="#CMMI12-58"/>
       <use transform="translate(72.787654 0)scale(0.996264)" xlink:href="#CMR17-48"/>
      </g>
     </g>
    </g>
   </g>
   <g id="matplotlib.axis_6">
    <g id="ytick_11">
     <g id="line2d_38">
      <g>
       <use style="stroke:#000000;stroke-width:0.8;" x="30.530079" xlink:href="#md567fcf8bd" y="236.80667"/>
      </g>
     </g>
     <g id="text_32">
      <!-- $-5.0$ -->
      <g transform="translate(3.051256 240.265919)scale(0.1 -0.1)">
       <use transform="scale(0.996264)" xlink:href="#CMSY10-0"/>
       <use transform="translate(77.487468 0)scale(0.996264)" xlink:href="#CMR17-53"/>
       <use transform="translate(123.177945 0)scale(0.996264)" xlink:href="#CMMI12-58"/>
       <use transform="translate(150.275122 0)scale(0.996264)" xlink:href="#CMR17-48"/>
      </g>
     </g>
    </g>
    <g id="ytick_12">
     <g id="line2d_39">
      <g>
       <use style="stroke:#000000;stroke-width:0.8;" x="30.530079" xlink:href="#md567fcf8bd" y="214.754569"/>
      </g>
     </g>
     <g id="text_33">
      <!-- $-2.5$ -->
      <g transform="translate(3.051256 218.213818)scale(0.1 -0.1)">
       <use transform="scale(0.996264)" xlink:href="#CMSY10-0"/>
       <use transform="translate(77.487468 0)scale(0.996264)" xlink:href="#CMR17-50"/>
       <use transform="translate(123.177945 0)scale(0.996264)" xlink:href="#CMMI12-58"/>
       <use transform="translate(150.275122 0)scale(0.996264)" xlink:href="#CMR17-53"/>
      </g>
     </g>
    </g>
    <g id="ytick_13">
     <g id="line2d_40">
      <g>
       <use style="stroke:#000000;stroke-width:0.8;" x="30.530079" xlink:href="#md567fcf8bd" y="192.702468"/>
      </g>
     </g>
     <g id="text_34">
      <!-- $0.0$ -->
      <g transform="translate(10.8 196.161717)scale(0.1 -0.1)">
       <use transform="scale(0.996264)" xlink:href="#CMR17-48"/>
       <use transform="translate(45.690477 0)scale(0.996264)" xlink:href="#CMMI12-58"/>
       <use transform="translate(72.787654 0)scale(0.996264)" xlink:href="#CMR17-48"/>
      </g>
     </g>
    </g>
    <g id="ytick_14">
     <g id="line2d_41">
      <g>
       <use style="stroke:#000000;stroke-width:0.8;" x="30.530079" xlink:href="#md567fcf8bd" y="170.650367"/>
      </g>
     </g>
     <g id="text_35">
      <!-- $2.5$ -->
      <g transform="translate(10.8 174.109616)scale(0.1 -0.1)">
       <use transform="scale(0.996264)" xlink:href="#CMR17-50"/>
       <use transform="translate(45.690477 0)scale(0.996264)" xlink:href="#CMMI12-58"/>
       <use transform="translate(72.787654 0)scale(0.996264)" xlink:href="#CMR17-53"/>
      </g>
     </g>
    </g>
    <g id="ytick_15">
     <g id="line2d_42">
      <g>
       <use style="stroke:#000000;stroke-width:0.8;" x="30.530079" xlink:href="#md567fcf8bd" y="148.598266"/>
      </g>
     </g>
     <g id="text_36">
      <!-- $5.0$ -->
      <g transform="translate(10.8 152.057515)scale(0.1 -0.1)">
       <use transform="scale(0.996264)" xlink:href="#CMR17-53"/>
       <use transform="translate(45.690477 0)scale(0.996264)" xlink:href="#CMMI12-58"/>
       <use transform="translate(72.787654 0)scale(0.996264)" xlink:href="#CMR17-48"/>
      </g>
     </g>
    </g>
   </g>
   <g id="line2d_43">
    <path clip-path="url(#pe7694f0781)" d="M 30.530079 222.177994 
L 31.954402 227.280816 
L 33.378726 231.398121 
L 34.803049 234.621439 
L 36.227372 237.037128 
L 37.651696 238.726539 
L 38.363857 239.322987 
L 39.076019 239.766193 
L 39.788181 240.064994 
L 40.500342 240.227946 
L 41.212504 240.263328 
L 42.636828 239.983151 
L 44.061151 239.285365 
L 45.485474 238.226772 
L 46.909798 236.860222 
L 48.334121 235.234772 
L 50.470606 232.40954 
L 53.319253 228.131322 
L 57.592223 221.174928 
L 62.577355 213.111638 
L 65.426001 208.844426 
L 68.274648 204.967257 
L 70.411133 202.362402 
L 72.547618 200.042455 
L 74.684103 198.021475 
L 76.820588 196.306414 
L 78.957073 194.897868 
L 81.093558 193.790799 
L 83.230043 192.975221 
L 85.366528 192.436864 
L 87.503013 192.157799 
L 89.639498 192.117039 
L 91.775983 192.29111 
L 93.912468 192.654586 
L 96.761115 193.387269 
L 99.609762 194.342662 
L 103.882732 196.046159 
L 113.140834 199.891754 
L 116.701642 201.0986 
L 119.550289 201.85419 
L 122.398936 202.382049 
L 125.247582 202.652296 
L 128.096229 202.64305 
L 130.232714 202.444149 
L 133.081361 201.917752 
L 135.930008 201.093786 
L 138.778654 199.980555 
L 141.627301 198.593684 
L 144.475948 196.955492 
L 148.036756 194.597788 
L 151.597564 191.957427 
L 156.582696 187.927928 
L 172.962415 174.333553 
L 177.947547 170.611432 
L 189.342133 162.313261 
L 192.19078 159.879412 
L 194.327265 157.803724 
L 196.46375 155.429704 
L 198.600235 152.668481 
L 200.73672 149.417726 
L 202.161044 146.921549 
L 203.585367 144.117834 
L 205.00969 140.965001 
L 206.434014 137.418131 
L 207.858337 133.428823 
L 207.858337 133.428823 
" style="fill:none;stroke:#40e0d0;stroke-linecap:square;"/>
   </g>
   <g id="line2d_44">
    <path clip-path="url(#pe7694f0781)" d="M 30.530079 236.237654 
L 32.666564 236.667399 
L 34.803049 236.806587 
L 36.939534 236.653495 
L 39.076019 236.210019 
L 41.212504 235.481653 
L 43.348989 234.47741 
L 45.485474 233.209696 
L 47.621959 231.694139 
L 49.758444 229.949366 
L 52.607091 227.303743 
L 55.455738 224.346166 
L 59.016546 220.30781 
L 64.001678 214.25921 
L 72.547618 203.843275 
L 76.108426 199.854622 
L 78.957073 196.934716 
L 81.80572 194.311682 
L 84.654367 192.028085 
L 86.790852 190.558345 
L 88.927337 189.308369 
L 91.063822 188.284827 
L 93.200307 187.490889 
L 95.336792 186.926205 
L 97.473277 186.586921 
L 99.609762 186.465761 
L 101.746247 186.552139 
L 103.882732 186.832338 
L 106.731379 187.47829 
L 109.580025 188.392256 
L 113.140834 189.829062 
L 117.413804 191.828773 
L 125.247582 195.575874 
L 128.808391 197.01268 
L 131.657037 197.926646 
L 134.505684 198.572598 
L 136.642169 198.852797 
L 138.778654 198.939176 
L 140.915139 198.818015 
L 143.051624 198.478732 
L 145.188109 197.914047 
L 147.324594 197.12011 
L 149.461079 196.096567 
L 151.597564 194.846591 
L 153.73405 193.376851 
L 156.582696 191.093255 
L 159.431343 188.47022 
L 162.27999 185.550314 
L 165.840798 181.561661 
L 170.82593 175.556786 
L 180.084032 164.264743 
L 183.64484 160.293513 
L 186.493487 157.408186 
L 189.342133 154.849777 
L 191.478619 153.179165 
L 193.615104 151.744295 
L 195.751589 150.562824 
L 197.888074 149.649326 
L 200.024559 149.015093 
L 202.161044 148.667978 
L 204.297529 148.61228 
L 206.434014 148.848691 
L 207.858337 149.167282 
L 207.858337 149.167282 
" style="fill:none;stroke:#ff00ff;stroke-linecap:square;"/>
   </g>
   <g id="patch_13">
    <path d="M 30.530079 240.335006 
L 30.530079 138.895342 
" style="fill:none;stroke:#000000;stroke-linecap:square;stroke-linejoin:miter;stroke-width:0.8;"/>
   </g>
   <g id="patch_14">
    <path d="M 207.858337 240.335006 
L 207.858337 138.895342 
" style="fill:none;stroke:#000000;stroke-linecap:square;stroke-linejoin:miter;stroke-width:0.8;"/>
   </g>
   <g id="patch_15">
    <path d="M 30.530079 240.335006 
L 207.858337 240.335006 
" style="fill:none;stroke:#000000;stroke-linecap:square;stroke-linejoin:miter;stroke-width:0.8;"/>
   </g>
   <g id="patch_16">
    <path d="M 30.530079 138.895342 
L 207.858337 138.895342 
" style="fill:none;stroke:#000000;stroke-linecap:square;stroke-linejoin:miter;stroke-width:0.8;"/>
   </g>
   <g id="text_37">
    <!-- $M=6$ -->
    <defs>
     <path d="M 10.59375 34.34375 
C 10.59375 58 21.796875 63.6875 28.296875 63.6875 
C 30.40625 63.6875 35.5 63.265625 37.5 59.09375 
C 35.90625 59.09375 32.90625 59.09375 32.90625 55.59375 
C 32.90625 52.890625 35.09375 52 36.5 52 
C 37.40625 52 40.09375 52.390625 40.09375 55.796875 
C 40.09375 62.296875 35.09375 66 28.203125 66 
C 16.296875 66 3.796875 53.296875 3.796875 31.421875 
C 3.796875 4.015625 15.09375 -2 23.09375 -2 
C 32.796875 -2 42 6.734375 42 20.234375 
C 42 32.828125 33.90625 42 23.703125 42 
C 17.59375 42 13.09375 37.96875 10.59375 30.921875 
z
M 23.09375 0.390625 
C 10.796875 0.390625 10.796875 18.9375 10.796875 22.65625 
C 10.796875 29.90625 14.203125 40.390625 23.5 40.390625 
C 25.203125 40.390625 30.09375 40.390625 33.40625 33.4375 
C 35.203125 29.515625 35.203125 25.375 35.203125 20.34375 
C 35.203125 14.90625 35.203125 10.875 33.09375 6.84375 
C 30.90625 2.703125 27.703125 0.390625 23.09375 0.390625 
z
" id="CMR17-54"/>
    </defs>
    <g transform="translate(169.859425 236.80667)scale(0.1 -0.1)">
     <use transform="scale(0.996264)" xlink:href="#CMMI12-77"/>
     <use transform="translate(132.454088 0)scale(0.996264)" xlink:href="#CMR17-61"/>
     <use transform="translate(231.842885 0)scale(0.996264)" xlink:href="#CMR17-54"/>
    </g>
   </g>
   <g id="legend_3">
    <g id="line2d_45">
     <path d="M 39.530079 151.395342 
L 59.530079 151.395342 
" style="fill:none;stroke:#40e0d0;stroke-linecap:square;"/>
    </g>
    <g id="line2d_46"/>
    <g id="text_38">
     <!-- Predicted -->
     <g transform="translate(67.530079 154.895342)scale(0.1 -0.1)">
      <use transform="scale(0.996264)" xlink:href="#CMR17-80"/>
      <use transform="translate(62.586301 0)scale(0.996264)" xlink:href="#CMR17-114"/>
      <use transform="translate(97.867068 0)scale(0.996264)" xlink:href="#CMR17-101"/>
      <use transform="translate(138.352729 0)scale(0.996264)" xlink:href="#CMR17-100"/>
      <use transform="translate(189.248099 0)scale(0.996264)" xlink:href="#CMR17-105"/>
      <use transform="translate(214.119157 0)scale(0.996264)" xlink:href="#CMR17-99"/>
      <use transform="translate(254.604818 0)scale(0.996264)" xlink:href="#CMR17-116"/>
      <use transform="translate(289.885585 0)scale(0.996264)" xlink:href="#CMR17-101"/>
      <use transform="translate(330.371246 0)scale(0.996264)" xlink:href="#CMR17-100"/>
     </g>
    </g>
    <g id="line2d_47">
     <path d="M 39.530079 165.33252 
L 59.530079 165.33252 
" style="fill:none;stroke:#ff00ff;stroke-linecap:square;"/>
    </g>
    <g id="line2d_48"/>
    <g id="text_39">
     <!-- True -->
     <g transform="translate(67.530079 168.83252)scale(0.1 -0.1)">
      <use transform="scale(0.996264)" xlink:href="#CMR17-84"/>
      <use transform="translate(58.702625 0)scale(0.996264)" xlink:href="#CMR17-114"/>
      <use transform="translate(93.983393 0)scale(0.996264)" xlink:href="#CMR17-117"/>
      <use transform="translate(144.878763 0)scale(0.996264)" xlink:href="#CMR17-101"/>
     </g>
    </g>
   </g>
  </g>
  <g id="axes_4">
   <g id="patch_17">
    <path d="M 241.130079 240.335006 
L 418.458337 240.335006 
L 418.458337 138.895342 
L 241.130079 138.895342 
z
" style="fill:#ffffff;"/>
   </g>
   <g id="PathCollection_4">
    <defs>
     <path d="M 0 1.767767 
C 0.468817 1.767767 0.918496 1.581504 1.25 1.25 
C 1.581504 0.918496 1.767767 0.468817 1.767767 0 
C 1.767767 -0.468817 1.581504 -0.918496 1.25 -1.25 
C 0.918496 -1.581504 0.468817 -1.767767 0 -1.767767 
C -0.468817 -1.767767 -0.918496 -1.581504 -1.25 -1.25 
C -1.581504 -0.918496 -1.767767 -0.468817 -1.767767 0 
C -1.767767 0.468817 -1.581504 0.918496 -1.25 1.25 
C -0.918496 1.581504 -0.468817 1.767767 0 1.767767 
z
" id="C3_0_be6fe91136"/>
    </defs>
    <g clip-path="url(#p152e3a75ff)">
     <use style="fill:none;stroke:#ff00ff;" x="245.35218" xlink:href="#C3_0_be6fe91136" y="235.924586"/>
    </g>
    <g clip-path="url(#p152e3a75ff)">
     <use style="fill:none;stroke:#ff00ff;" x="262.240586" xlink:href="#C3_0_be6fe91136" y="223.57541"/>
    </g>
    <g clip-path="url(#p152e3a75ff)">
     <use style="fill:none;stroke:#ff00ff;" x="279.128991" xlink:href="#C3_0_be6fe91136" y="217.400821"/>
    </g>
    <g clip-path="url(#p152e3a75ff)">
     <use style="fill:none;stroke:#ff00ff;" x="296.017397" xlink:href="#C3_0_be6fe91136" y="185.645796"/>
    </g>
    <g clip-path="url(#p152e3a75ff)">
     <use style="fill:none;stroke:#ff00ff;" x="312.905803" xlink:href="#C3_0_be6fe91136" y="190.056216"/>
    </g>
    <g clip-path="url(#p152e3a75ff)">
     <use style="fill:none;stroke:#ff00ff;" x="329.794208" xlink:href="#C3_0_be6fe91136" y="206.815813"/>
    </g>
    <g clip-path="url(#p152e3a75ff)">
     <use style="fill:none;stroke:#ff00ff;" x="346.682614" xlink:href="#C3_0_be6fe91136" y="204.169561"/>
    </g>
    <g clip-path="url(#p152e3a75ff)">
     <use style="fill:none;stroke:#ff00ff;" x="363.571019" xlink:href="#C3_0_be6fe91136" y="188.292048"/>
    </g>
    <g clip-path="url(#p152e3a75ff)">
     <use style="fill:none;stroke:#ff00ff;" x="380.459425" xlink:href="#C3_0_be6fe91136" y="174.178703"/>
    </g>
    <g clip-path="url(#p152e3a75ff)">
     <use style="fill:none;stroke:#ff00ff;" x="397.34783" xlink:href="#C3_0_be6fe91136" y="167.122031"/>
    </g>
    <g clip-path="url(#p152e3a75ff)">
     <use style="fill:none;stroke:#ff00ff;" x="414.236236" xlink:href="#C3_0_be6fe91136" y="143.305762"/>
    </g>
   </g>
   <g id="matplotlib.axis_7">
    <g id="xtick_16">
     <g id="line2d_49">
      <g>
       <use style="stroke:#000000;stroke-width:0.8;" x="245.35218" xlink:href="#mc601405e8b" y="240.335006"/>
      </g>
     </g>
     <g id="text_40">
      <!-- $-1.0$ -->
      <g transform="translate(235.112769 254.253505)scale(0.1 -0.1)">
       <use transform="scale(0.996264)" xlink:href="#CMSY10-0"/>
       <use transform="translate(77.487468 0)scale(0.996264)" xlink:href="#CMR17-49"/>
       <use transform="translate(123.177945 0)scale(0.996264)" xlink:href="#CMMI12-58"/>
       <use transform="translate(150.275122 0)scale(0.996264)" xlink:href="#CMR17-48"/>
      </g>
     </g>
    </g>
    <g id="xtick_17">
     <g id="line2d_50">
      <g>
       <use style="stroke:#000000;stroke-width:0.8;" x="287.573194" xlink:href="#mc601405e8b" y="240.335006"/>
      </g>
     </g>
     <g id="text_41">
      <!-- $-0.5$ -->
      <g transform="translate(277.333783 254.253505)scale(0.1 -0.1)">
       <use transform="scale(0.996264)" xlink:href="#CMSY10-0"/>
       <use transform="translate(77.487468 0)scale(0.996264)" xlink:href="#CMR17-48"/>
       <use transform="translate(123.177945 0)scale(0.996264)" xlink:href="#CMMI12-58"/>
       <use transform="translate(150.275122 0)scale(0.996264)" xlink:href="#CMR17-53"/>
      </g>
     </g>
    </g>
    <g id="xtick_18">
     <g id="line2d_51">
      <g>
       <use style="stroke:#000000;stroke-width:0.8;" x="329.794208" xlink:href="#mc601405e8b" y="240.335006"/>
      </g>
     </g>
     <g id="text_42">
      <!-- $0.0$ -->
      <g transform="translate(323.429169 254.253505)scale(0.1 -0.1)">
       <use transform="scale(0.996264)" xlink:href="#CMR17-48"/>
       <use transform="translate(45.690477 0)scale(0.996264)" xlink:href="#CMMI12-58"/>
       <use transform="translate(72.787654 0)scale(0.996264)" xlink:href="#CMR17-48"/>
      </g>
     </g>
    </g>
    <g id="xtick_19">
     <g id="line2d_52">
      <g>
       <use style="stroke:#000000;stroke-width:0.8;" x="372.015222" xlink:href="#mc601405e8b" y="240.335006"/>
      </g>
     </g>
     <g id="text_43">
      <!-- $0.5$ -->
      <g transform="translate(365.650182 254.253505)scale(0.1 -0.1)">
       <use transform="scale(0.996264)" xlink:href="#CMR17-48"/>
       <use transform="translate(45.690477 0)scale(0.996264)" xlink:href="#CMMI12-58"/>
       <use transform="translate(72.787654 0)scale(0.996264)" xlink:href="#CMR17-53"/>
      </g>
     </g>
    </g>
    <g id="xtick_20">
     <g id="line2d_53">
      <g>
       <use style="stroke:#000000;stroke-width:0.8;" x="414.236236" xlink:href="#mc601405e8b" y="240.335006"/>
      </g>
     </g>
     <g id="text_44">
      <!-- $1.0$ -->
      <g transform="translate(407.871196 254.253505)scale(0.1 -0.1)">
       <use transform="scale(0.996264)" xlink:href="#CMR17-49"/>
       <use transform="translate(45.690477 0)scale(0.996264)" xlink:href="#CMMI12-58"/>
       <use transform="translate(72.787654 0)scale(0.996264)" xlink:href="#CMR17-48"/>
      </g>
     </g>
    </g>
   </g>
   <g id="matplotlib.axis_8">
    <g id="ytick_16">
     <g id="line2d_54">
      <g>
       <use style="stroke:#000000;stroke-width:0.8;" x="241.130079" xlink:href="#md567fcf8bd" y="236.80667"/>
      </g>
     </g>
     <g id="text_45">
      <!-- $-5.0$ -->
      <g transform="translate(213.651256 240.265919)scale(0.1 -0.1)">
       <use transform="scale(0.996264)" xlink:href="#CMSY10-0"/>
       <use transform="translate(77.487468 0)scale(0.996264)" xlink:href="#CMR17-53"/>
       <use transform="translate(123.177945 0)scale(0.996264)" xlink:href="#CMMI12-58"/>
       <use transform="translate(150.275122 0)scale(0.996264)" xlink:href="#CMR17-48"/>
      </g>
     </g>
    </g>
    <g id="ytick_17">
     <g id="line2d_55">
      <g>
       <use style="stroke:#000000;stroke-width:0.8;" x="241.130079" xlink:href="#md567fcf8bd" y="214.754569"/>
      </g>
     </g>
     <g id="text_46">
      <!-- $-2.5$ -->
      <g transform="translate(213.651256 218.213818)scale(0.1 -0.1)">
       <use transform="scale(0.996264)" xlink:href="#CMSY10-0"/>
       <use transform="translate(77.487468 0)scale(0.996264)" xlink:href="#CMR17-50"/>
       <use transform="translate(123.177945 0)scale(0.996264)" xlink:href="#CMMI12-58"/>
       <use transform="translate(150.275122 0)scale(0.996264)" xlink:href="#CMR17-53"/>
      </g>
     </g>
    </g>
    <g id="ytick_18">
     <g id="line2d_56">
      <g>
       <use style="stroke:#000000;stroke-width:0.8;" x="241.130079" xlink:href="#md567fcf8bd" y="192.702468"/>
      </g>
     </g>
     <g id="text_47">
      <!-- $0.0$ -->
      <g transform="translate(221.4 196.161717)scale(0.1 -0.1)">
       <use transform="scale(0.996264)" xlink:href="#CMR17-48"/>
       <use transform="translate(45.690477 0)scale(0.996264)" xlink:href="#CMMI12-58"/>
       <use transform="translate(72.787654 0)scale(0.996264)" xlink:href="#CMR17-48"/>
      </g>
     </g>
    </g>
    <g id="ytick_19">
     <g id="line2d_57">
      <g>
       <use style="stroke:#000000;stroke-width:0.8;" x="241.130079" xlink:href="#md567fcf8bd" y="170.650367"/>
      </g>
     </g>
     <g id="text_48">
      <!-- $2.5$ -->
      <g transform="translate(221.4 174.109616)scale(0.1 -0.1)">
       <use transform="scale(0.996264)" xlink:href="#CMR17-50"/>
       <use transform="translate(45.690477 0)scale(0.996264)" xlink:href="#CMMI12-58"/>
       <use transform="translate(72.787654 0)scale(0.996264)" xlink:href="#CMR17-53"/>
      </g>
     </g>
    </g>
    <g id="ytick_20">
     <g id="line2d_58">
      <g>
       <use style="stroke:#000000;stroke-width:0.8;" x="241.130079" xlink:href="#md567fcf8bd" y="148.598266"/>
      </g>
     </g>
     <g id="text_49">
      <!-- $5.0$ -->
      <g transform="translate(221.4 152.057515)scale(0.1 -0.1)">
       <use transform="scale(0.996264)" xlink:href="#CMR17-53"/>
       <use transform="translate(45.690477 0)scale(0.996264)" xlink:href="#CMMI12-58"/>
       <use transform="translate(72.787654 0)scale(0.996264)" xlink:href="#CMR17-48"/>
      </g>
     </g>
    </g>
   </g>
   <g id="line2d_59">
    <path clip-path="url(#p152e3a75ff)" d="M 242.565923 267.990683 
L 243.978726 249.411685 
L 245.403049 235.464812 
L 246.115211 230.026817 
L 246.827372 225.485048 
L 247.539534 221.751348 
L 248.251696 218.743176 
L 248.963857 216.383364 
L 249.676019 214.599885 
L 250.388181 213.325619 
L 251.100342 212.498136 
L 251.812504 212.059482 
L 252.524666 211.955966 
L 253.236828 212.137961 
L 253.948989 212.559708 
L 254.661151 213.179126 
L 256.085474 214.85994 
L 258.221959 218.00321 
L 261.070606 222.29957 
L 262.494929 224.162128 
L 263.919253 225.699793 
L 265.343576 226.847067 
L 266.767899 227.562326 
L 268.192223 227.824463 
L 268.904384 227.783862 
L 270.328708 227.364106 
L 271.753031 226.508633 
L 273.177355 225.245534 
L 274.601678 223.611487 
L 276.026001 221.649741 
L 278.162486 218.198577 
L 280.298971 214.292477 
L 284.571941 205.82834 
L 288.13275 198.910992 
L 290.269235 195.125588 
L 292.40572 191.759049 
L 294.542205 188.902726 
L 295.966528 187.31591 
L 297.390852 185.999617 
L 298.815175 184.962638 
L 300.239498 184.209078 
L 301.663822 183.73854 
L 303.088145 183.546369 
L 304.512468 183.623926 
L 305.936792 183.958898 
L 307.361115 184.535645 
L 308.785439 185.335557 
L 310.209762 186.337438 
L 312.346247 188.167284 
L 314.482732 190.312434 
L 317.331379 193.503457 
L 325.165157 202.500594 
L 327.301642 204.598092 
L 329.438127 206.399484 
L 331.574612 207.84602 
L 332.998936 208.589882 
L 334.423259 209.144853 
L 335.847582 209.503318 
L 337.271906 209.660472 
L 338.696229 209.614325 
L 340.120552 209.365689 
L 341.544876 208.918116 
L 342.969199 208.277814 
L 344.393522 207.453519 
L 346.530008 205.897005 
L 348.666493 203.998553 
L 350.802978 201.81409 
L 353.651624 198.566872 
L 358.636756 192.428729 
L 362.909726 187.282393 
L 365.758373 184.177254 
L 367.894858 182.103623 
L 370.031343 180.286561 
L 372.167828 178.74423 
L 374.304313 177.478362 
L 376.440798 176.473119 
L 378.577283 175.694557 
L 381.42593 174.917012 
L 387.835385 173.354618 
L 389.97187 172.55087 
L 392.108355 171.435008 
L 393.532678 170.470843 
L 394.957002 169.30244 
L 396.381325 167.911421 
L 397.805648 166.286269 
L 399.942133 163.406369 
L 402.078619 160.034695 
L 404.927265 154.980256 
L 408.488074 148.577322 
L 409.912397 146.363126 
L 411.33672 144.597455 
L 412.048882 143.949313 
L 412.761044 143.498306 
L 413.473205 143.278458 
L 414.185367 143.326793 
L 414.897529 143.683505 
L 415.60969 144.39212 
L 416.321852 145.499673 
L 417.034014 147.05689 
L 417.746175 149.118372 
L 418.458337 151.742788 
L 418.458337 151.742788 
" style="fill:none;stroke:#40e0d0;stroke-linecap:square;"/>
   </g>
   <g id="line2d_60">
    <path clip-path="url(#p152e3a75ff)" d="M 241.130079 236.237654 
L 243.266564 236.667399 
L 245.403049 236.806587 
L 247.539534 236.653495 
L 249.676019 236.210019 
L 251.812504 235.481653 
L 253.948989 234.47741 
L 256.085474 233.209696 
L 258.221959 231.694139 
L 260.358444 229.949366 
L 263.207091 227.303743 
L 266.055738 224.346166 
L 269.616546 220.30781 
L 274.601678 214.25921 
L 283.147618 203.843275 
L 286.708426 199.854622 
L 289.557073 196.934716 
L 292.40572 194.311682 
L 295.254367 192.028085 
L 297.390852 190.558345 
L 299.527337 189.308369 
L 301.663822 188.284827 
L 303.800307 187.490889 
L 305.936792 186.926205 
L 308.073277 186.586921 
L 310.209762 186.465761 
L 312.346247 186.552139 
L 314.482732 186.832338 
L 317.331379 187.47829 
L 320.180025 188.392256 
L 323.740834 189.829062 
L 328.013804 191.828773 
L 335.847582 195.575874 
L 339.408391 197.01268 
L 342.257037 197.926646 
L 345.105684 198.572598 
L 347.242169 198.852797 
L 349.378654 198.939176 
L 351.515139 198.818015 
L 353.651624 198.478732 
L 355.788109 197.914047 
L 357.924594 197.12011 
L 360.061079 196.096567 
L 362.197564 194.846591 
L 364.33405 193.376851 
L 367.182696 191.093255 
L 370.031343 188.47022 
L 372.87999 185.550314 
L 376.440798 181.561661 
L 381.42593 175.556786 
L 390.684032 164.264743 
L 394.24484 160.293513 
L 397.093487 157.408186 
L 399.942133 154.849777 
L 402.078619 153.179165 
L 404.215104 151.744295 
L 406.351589 150.562824 
L 408.488074 149.649326 
L 410.624559 149.015093 
L 412.761044 148.667978 
L 414.897529 148.61228 
L 417.034014 148.848691 
L 418.458337 149.167282 
L 418.458337 149.167282 
" style="fill:none;stroke:#ff00ff;stroke-linecap:square;"/>
   </g>
   <g id="patch_18">
    <path d="M 241.130079 240.335006 
L 241.130079 138.895342 
" style="fill:none;stroke:#000000;stroke-linecap:square;stroke-linejoin:miter;stroke-width:0.8;"/>
   </g>
   <g id="patch_19">
    <path d="M 418.458337 240.335006 
L 418.458337 138.895342 
" style="fill:none;stroke:#000000;stroke-linecap:square;stroke-linejoin:miter;stroke-width:0.8;"/>
   </g>
   <g id="patch_20">
    <path d="M 241.130079 240.335006 
L 418.458337 240.335006 
" style="fill:none;stroke:#000000;stroke-linecap:square;stroke-linejoin:miter;stroke-width:0.8;"/>
   </g>
   <g id="patch_21">
    <path d="M 241.130079 138.895342 
L 418.458337 138.895342 
" style="fill:none;stroke:#000000;stroke-linecap:square;stroke-linejoin:miter;stroke-width:0.8;"/>
   </g>
   <g id="text_50">
    <!-- $M=8$ -->
    <defs>
     <path d="M 27.203125 35.765625 
C 33.5 38.96875 39.90625 43.796875 39.90625 51.53125 
C 39.90625 60.6875 31.09375 66 23 66 
C 13.90625 66 5.90625 59.375 5.90625 50.234375 
C 5.90625 47.71875 6.5 43.390625 10.40625 39.578125 
C 11.40625 38.578125 15.59375 35.5625 18.296875 33.65625 
C 13.796875 31.34375 3.296875 25.8125 3.296875 14.765625 
C 3.296875 4.40625 13.09375 -2 22.796875 -2 
C 33.5 -2 42.5 5.71875 42.5 15.96875 
C 42.5 25.109375 36.40625 29.328125 32.40625 32.046875 
z
M 14.09375 44.609375 
C 13.296875 45.109375 9.296875 48.21875 9.296875 52.9375 
C 9.296875 59.078125 15.59375 63.6875 22.796875 63.6875 
C 30.703125 63.6875 36.5 58.0625 36.5 51.53125 
C 36.5 42.1875 26.09375 36.859375 25.59375 36.859375 
C 25.5 36.859375 25.40625 36.859375 24.59375 37.46875 
z
M 32.5 24 
C 34 22.90625 38.796875 19.578125 38.796875 13.453125 
C 38.796875 6.015625 31.40625 0.390625 23 0.390625 
C 13.90625 0.390625 7 6.921875 7 14.859375 
C 7 22.796875 13.09375 29.4375 20 32.546875 
z
" id="CMR17-56"/>
    </defs>
    <g transform="translate(380.459425 236.80667)scale(0.1 -0.1)">
     <use transform="scale(0.996264)" xlink:href="#CMMI12-77"/>
     <use transform="translate(132.454088 0)scale(0.996264)" xlink:href="#CMR17-61"/>
     <use transform="translate(231.842885 0)scale(0.996264)" xlink:href="#CMR17-56"/>
    </g>
   </g>
   <g id="legend_4">
    <g id="line2d_61">
     <path d="M 250.130079 151.395342 
L 270.130079 151.395342 
" style="fill:none;stroke:#40e0d0;stroke-linecap:square;"/>
    </g>
    <g id="line2d_62"/>
    <g id="text_51">
     <!-- Predicted -->
     <g transform="translate(278.130079 154.895342)scale(0.1 -0.1)">
      <use transform="scale(0.996264)" xlink:href="#CMR17-80"/>
      <use transform="translate(62.586301 0)scale(0.996264)" xlink:href="#CMR17-114"/>
      <use transform="translate(97.867068 0)scale(0.996264)" xlink:href="#CMR17-101"/>
      <use transform="translate(138.352729 0)scale(0.996264)" xlink:href="#CMR17-100"/>
      <use transform="translate(189.248099 0)scale(0.996264)" xlink:href="#CMR17-105"/>
      <use transform="translate(214.119157 0)scale(0.996264)" xlink:href="#CMR17-99"/>
      <use transform="translate(254.604818 0)scale(0.996264)" xlink:href="#CMR17-116"/>
      <use transform="translate(289.885585 0)scale(0.996264)" xlink:href="#CMR17-101"/>
      <use transform="translate(330.371246 0)scale(0.996264)" xlink:href="#CMR17-100"/>
     </g>
    </g>
    <g id="line2d_63">
     <path d="M 250.130079 165.33252 
L 270.130079 165.33252 
" style="fill:none;stroke:#ff00ff;stroke-linecap:square;"/>
    </g>
    <g id="line2d_64"/>
    <g id="text_52">
     <!-- True -->
     <g transform="translate(278.130079 168.83252)scale(0.1 -0.1)">
      <use transform="scale(0.996264)" xlink:href="#CMR17-84"/>
      <use transform="translate(58.702625 0)scale(0.996264)" xlink:href="#CMR17-114"/>
      <use transform="translate(93.983393 0)scale(0.996264)" xlink:href="#CMR17-117"/>
      <use transform="translate(144.878763 0)scale(0.996264)" xlink:href="#CMR17-101"/>
     </g>
    </g>
   </g>
  </g>
 </g>
 <defs>
  <clipPath id="p231952580c">
   <rect height="101.439665" width="177.328258" x="30.530079" y="10.8"/>
  </clipPath>
  <clipPath id="p0de0043bba">
   <rect height="101.439665" width="177.328258" x="241.130079" y="10.8"/>
  </clipPath>
  <clipPath id="pe7694f0781">
   <rect height="101.439665" width="177.328258" x="30.530079" y="138.895342"/>
  </clipPath>
  <clipPath id="p152e3a75ff">
   <rect height="101.439665" width="177.328258" x="241.130079" y="138.895342"/>
  </clipPath>
 </defs>
</svg>
