<?xml version="1.0" encoding="utf-8" standalone="no"?>
<!DOCTYPE svg PUBLIC "-//W3C//DTD SVG 1.1//EN"
  "http://www.w3.org/Graphics/SVG/1.1/DTD/svg11.dtd">
<!-- Created with matplotlib (https://matplotlib.org/) -->
<svg height="266.990683pt" version="1.1" viewBox="0 0 432 266.990683" width="432pt" xmlns="http://www.w3.org/2000/svg" xmlns:xlink="http://www.w3.org/1999/xlink">
 <defs>
  <style type="text/css">
*{stroke-linecap:butt;stroke-linejoin:round;}
  </style>
 </defs>
 <g id="figure_1">
  <g id="patch_1">
   <path d="M 0 266.990683 
L 432 266.990683 
L 432 0 
L 0 0 
z
" style="fill:#ffffff;"/>
  </g>
  <g id="axes_1">
   <g id="patch_2">
    <path d="M 40.12 239.110683 
L 421.2 239.110683 
L 421.2 10.8 
L 40.12 10.8 
z
" style="fill:#ffffff;"/>
   </g>
   <g id="matplotlib.axis_1">
    <g id="xtick_1">
     <g id="line2d_1">
      <defs>
       <path d="M 0 0 
L 0 3.5 
" id="m45acefc7dc" style="stroke:#000000;stroke-width:0.8;"/>
      </defs>
      <g>
       <use style="stroke:#000000;stroke-width:0.8;" x="57.441818" xlink:href="#m45acefc7dc" y="239.110683"/>
      </g>
     </g>
     <g id="text_1">
      <!-- −6 -->
      <defs>
       <path d="M 10.59375 35.5 
L 73.1875 35.5 
L 73.1875 27.203125 
L 10.59375 27.203125 
z
" id="DejaVuSans-8722"/>
       <path d="M 33.015625 40.375 
Q 26.375 40.375 22.484375 35.828125 
Q 18.609375 31.296875 18.609375 23.390625 
Q 18.609375 15.53125 22.484375 10.953125 
Q 26.375 6.390625 33.015625 6.390625 
Q 39.65625 6.390625 43.53125 10.953125 
Q 47.40625 15.53125 47.40625 23.390625 
Q 47.40625 31.296875 43.53125 35.828125 
Q 39.65625 40.375 33.015625 40.375 
z
M 52.59375 71.296875 
L 52.59375 62.3125 
Q 48.875 64.0625 45.09375 64.984375 
Q 41.3125 65.921875 37.59375 65.921875 
Q 27.828125 65.921875 22.671875 59.328125 
Q 17.53125 52.734375 16.796875 39.40625 
Q 19.671875 43.65625 24.015625 45.921875 
Q 28.375 48.1875 33.59375 48.1875 
Q 44.578125 48.1875 50.953125 41.515625 
Q 57.328125 34.859375 57.328125 23.390625 
Q 57.328125 12.15625 50.6875 5.359375 
Q 44.046875 -1.421875 33.015625 -1.421875 
Q 20.359375 -1.421875 13.671875 8.265625 
Q 6.984375 17.96875 6.984375 36.375 
Q 6.984375 53.65625 15.1875 63.9375 
Q 23.390625 74.21875 37.203125 74.21875 
Q 40.921875 74.21875 44.703125 73.484375 
Q 48.484375 72.75 52.59375 71.296875 
z
" id="DejaVuSans-54"/>
      </defs>
      <g transform="translate(50.070724 253.709121)scale(0.1 -0.1)">
       <use xlink:href="#DejaVuSans-8722"/>
       <use x="83.789062" xlink:href="#DejaVuSans-54"/>
      </g>
     </g>
    </g>
    <g id="xtick_2">
     <g id="line2d_2">
      <g>
       <use style="stroke:#000000;stroke-width:0.8;" x="115.181212" xlink:href="#m45acefc7dc" y="239.110683"/>
      </g>
     </g>
     <g id="text_2">
      <!-- −4 -->
      <defs>
       <path d="M 37.796875 64.3125 
L 12.890625 25.390625 
L 37.796875 25.390625 
z
M 35.203125 72.90625 
L 47.609375 72.90625 
L 47.609375 25.390625 
L 58.015625 25.390625 
L 58.015625 17.1875 
L 47.609375 17.1875 
L 47.609375 0 
L 37.796875 0 
L 37.796875 17.1875 
L 4.890625 17.1875 
L 4.890625 26.703125 
z
" id="DejaVuSans-52"/>
      </defs>
      <g transform="translate(107.810118 253.709121)scale(0.1 -0.1)">
       <use xlink:href="#DejaVuSans-8722"/>
       <use x="83.789062" xlink:href="#DejaVuSans-52"/>
      </g>
     </g>
    </g>
    <g id="xtick_3">
     <g id="line2d_3">
      <g>
       <use style="stroke:#000000;stroke-width:0.8;" x="172.920606" xlink:href="#m45acefc7dc" y="239.110683"/>
      </g>
     </g>
     <g id="text_3">
      <!-- −2 -->
      <defs>
       <path d="M 19.1875 8.296875 
L 53.609375 8.296875 
L 53.609375 0 
L 7.328125 0 
L 7.328125 8.296875 
Q 12.9375 14.109375 22.625 23.890625 
Q 32.328125 33.6875 34.8125 36.53125 
Q 39.546875 41.84375 41.421875 45.53125 
Q 43.3125 49.21875 43.3125 52.78125 
Q 43.3125 58.59375 39.234375 62.25 
Q 35.15625 65.921875 28.609375 65.921875 
Q 23.96875 65.921875 18.8125 64.3125 
Q 13.671875 62.703125 7.8125 59.421875 
L 7.8125 69.390625 
Q 13.765625 71.78125 18.9375 73 
Q 24.125 74.21875 28.421875 74.21875 
Q 39.75 74.21875 46.484375 68.546875 
Q 53.21875 62.890625 53.21875 53.421875 
Q 53.21875 48.921875 51.53125 44.890625 
Q 49.859375 40.875 45.40625 35.40625 
Q 44.1875 33.984375 37.640625 27.21875 
Q 31.109375 20.453125 19.1875 8.296875 
z
" id="DejaVuSans-50"/>
      </defs>
      <g transform="translate(165.549512 253.709121)scale(0.1 -0.1)">
       <use xlink:href="#DejaVuSans-8722"/>
       <use x="83.789062" xlink:href="#DejaVuSans-50"/>
      </g>
     </g>
    </g>
    <g id="xtick_4">
     <g id="line2d_4">
      <g>
       <use style="stroke:#000000;stroke-width:0.8;" x="230.66" xlink:href="#m45acefc7dc" y="239.110683"/>
      </g>
     </g>
     <g id="text_4">
      <!-- 0 -->
      <defs>
       <path d="M 31.78125 66.40625 
Q 24.171875 66.40625 20.328125 58.90625 
Q 16.5 51.421875 16.5 36.375 
Q 16.5 21.390625 20.328125 13.890625 
Q 24.171875 6.390625 31.78125 6.390625 
Q 39.453125 6.390625 43.28125 13.890625 
Q 47.125 21.390625 47.125 36.375 
Q 47.125 51.421875 43.28125 58.90625 
Q 39.453125 66.40625 31.78125 66.40625 
z
M 31.78125 74.21875 
Q 44.046875 74.21875 50.515625 64.515625 
Q 56.984375 54.828125 56.984375 36.375 
Q 56.984375 17.96875 50.515625 8.265625 
Q 44.046875 -1.421875 31.78125 -1.421875 
Q 19.53125 -1.421875 13.0625 8.265625 
Q 6.59375 17.96875 6.59375 36.375 
Q 6.59375 54.828125 13.0625 64.515625 
Q 19.53125 74.21875 31.78125 74.21875 
z
" id="DejaVuSans-48"/>
      </defs>
      <g transform="translate(227.47875 253.709121)scale(0.1 -0.1)">
       <use xlink:href="#DejaVuSans-48"/>
      </g>
     </g>
    </g>
    <g id="xtick_5">
     <g id="line2d_5">
      <g>
       <use style="stroke:#000000;stroke-width:0.8;" x="288.399394" xlink:href="#m45acefc7dc" y="239.110683"/>
      </g>
     </g>
     <g id="text_5">
      <!-- 2 -->
      <g transform="translate(285.218144 253.709121)scale(0.1 -0.1)">
       <use xlink:href="#DejaVuSans-50"/>
      </g>
     </g>
    </g>
    <g id="xtick_6">
     <g id="line2d_6">
      <g>
       <use style="stroke:#000000;stroke-width:0.8;" x="346.138788" xlink:href="#m45acefc7dc" y="239.110683"/>
      </g>
     </g>
     <g id="text_6">
      <!-- 4 -->
      <g transform="translate(342.957538 253.709121)scale(0.1 -0.1)">
       <use xlink:href="#DejaVuSans-52"/>
      </g>
     </g>
    </g>
    <g id="xtick_7">
     <g id="line2d_7">
      <g>
       <use style="stroke:#000000;stroke-width:0.8;" x="403.878182" xlink:href="#m45acefc7dc" y="239.110683"/>
      </g>
     </g>
     <g id="text_7">
      <!-- 6 -->
      <g transform="translate(400.696932 253.709121)scale(0.1 -0.1)">
       <use xlink:href="#DejaVuSans-54"/>
      </g>
     </g>
    </g>
   </g>
   <g id="matplotlib.axis_2">
    <g id="ytick_1">
     <g id="line2d_8">
      <defs>
       <path d="M 0 0 
L -3.5 0 
" id="m8b302cc83a" style="stroke:#000000;stroke-width:0.8;"/>
      </defs>
      <g>
       <use style="stroke:#000000;stroke-width:0.8;" x="40.12" xlink:href="#m8b302cc83a" y="228.732925"/>
      </g>
     </g>
     <g id="text_8">
      <!-- 0.00 -->
      <defs>
       <path d="M 10.6875 12.40625 
L 21 12.40625 
L 21 0 
L 10.6875 0 
z
" id="DejaVuSans-46"/>
      </defs>
      <g transform="translate(10.854375 232.532144)scale(0.1 -0.1)">
       <use xlink:href="#DejaVuSans-48"/>
       <use x="63.623047" xlink:href="#DejaVuSans-46"/>
       <use x="95.410156" xlink:href="#DejaVuSans-48"/>
       <use x="159.033203" xlink:href="#DejaVuSans-48"/>
      </g>
     </g>
    </g>
    <g id="ytick_2">
     <g id="line2d_9">
      <g>
       <use style="stroke:#000000;stroke-width:0.8;" x="40.12" xlink:href="#m8b302cc83a" y="202.707796"/>
      </g>
     </g>
     <g id="text_9">
      <!-- 0.05 -->
      <defs>
       <path d="M 10.796875 72.90625 
L 49.515625 72.90625 
L 49.515625 64.59375 
L 19.828125 64.59375 
L 19.828125 46.734375 
Q 21.96875 47.46875 24.109375 47.828125 
Q 26.265625 48.1875 28.421875 48.1875 
Q 40.625 48.1875 47.75 41.5 
Q 54.890625 34.8125 54.890625 23.390625 
Q 54.890625 11.625 47.5625 5.09375 
Q 40.234375 -1.421875 26.90625 -1.421875 
Q 22.3125 -1.421875 17.546875 -0.640625 
Q 12.796875 0.140625 7.71875 1.703125 
L 7.71875 11.625 
Q 12.109375 9.234375 16.796875 8.0625 
Q 21.484375 6.890625 26.703125 6.890625 
Q 35.15625 6.890625 40.078125 11.328125 
Q 45.015625 15.765625 45.015625 23.390625 
Q 45.015625 31 40.078125 35.4375 
Q 35.15625 39.890625 26.703125 39.890625 
Q 22.75 39.890625 18.8125 39.015625 
Q 14.890625 38.140625 10.796875 36.28125 
z
" id="DejaVuSans-53"/>
      </defs>
      <g transform="translate(10.854375 206.507015)scale(0.1 -0.1)">
       <use xlink:href="#DejaVuSans-48"/>
       <use x="63.623047" xlink:href="#DejaVuSans-46"/>
       <use x="95.410156" xlink:href="#DejaVuSans-48"/>
       <use x="159.033203" xlink:href="#DejaVuSans-53"/>
      </g>
     </g>
    </g>
    <g id="ytick_3">
     <g id="line2d_10">
      <g>
       <use style="stroke:#000000;stroke-width:0.8;" x="40.12" xlink:href="#m8b302cc83a" y="176.682667"/>
      </g>
     </g>
     <g id="text_10">
      <!-- 0.10 -->
      <defs>
       <path d="M 12.40625 8.296875 
L 28.515625 8.296875 
L 28.515625 63.921875 
L 10.984375 60.40625 
L 10.984375 69.390625 
L 28.421875 72.90625 
L 38.28125 72.90625 
L 38.28125 8.296875 
L 54.390625 8.296875 
L 54.390625 0 
L 12.40625 0 
z
" id="DejaVuSans-49"/>
      </defs>
      <g transform="translate(10.854375 180.481886)scale(0.1 -0.1)">
       <use xlink:href="#DejaVuSans-48"/>
       <use x="63.623047" xlink:href="#DejaVuSans-46"/>
       <use x="95.410156" xlink:href="#DejaVuSans-49"/>
       <use x="159.033203" xlink:href="#DejaVuSans-48"/>
      </g>
     </g>
    </g>
    <g id="ytick_4">
     <g id="line2d_11">
      <g>
       <use style="stroke:#000000;stroke-width:0.8;" x="40.12" xlink:href="#m8b302cc83a" y="150.657538"/>
      </g>
     </g>
     <g id="text_11">
      <!-- 0.15 -->
      <g transform="translate(10.854375 154.456757)scale(0.1 -0.1)">
       <use xlink:href="#DejaVuSans-48"/>
       <use x="63.623047" xlink:href="#DejaVuSans-46"/>
       <use x="95.410156" xlink:href="#DejaVuSans-49"/>
       <use x="159.033203" xlink:href="#DejaVuSans-53"/>
      </g>
     </g>
    </g>
    <g id="ytick_5">
     <g id="line2d_12">
      <g>
       <use style="stroke:#000000;stroke-width:0.8;" x="40.12" xlink:href="#m8b302cc83a" y="124.63241"/>
      </g>
     </g>
     <g id="text_12">
      <!-- 0.20 -->
      <g transform="translate(10.854375 128.431628)scale(0.1 -0.1)">
       <use xlink:href="#DejaVuSans-48"/>
       <use x="63.623047" xlink:href="#DejaVuSans-46"/>
       <use x="95.410156" xlink:href="#DejaVuSans-50"/>
       <use x="159.033203" xlink:href="#DejaVuSans-48"/>
      </g>
     </g>
    </g>
    <g id="ytick_6">
     <g id="line2d_13">
      <g>
       <use style="stroke:#000000;stroke-width:0.8;" x="40.12" xlink:href="#m8b302cc83a" y="98.607281"/>
      </g>
     </g>
     <g id="text_13">
      <!-- 0.25 -->
      <g transform="translate(10.854375 102.4065)scale(0.1 -0.1)">
       <use xlink:href="#DejaVuSans-48"/>
       <use x="63.623047" xlink:href="#DejaVuSans-46"/>
       <use x="95.410156" xlink:href="#DejaVuSans-50"/>
       <use x="159.033203" xlink:href="#DejaVuSans-53"/>
      </g>
     </g>
    </g>
    <g id="ytick_7">
     <g id="line2d_14">
      <g>
       <use style="stroke:#000000;stroke-width:0.8;" x="40.12" xlink:href="#m8b302cc83a" y="72.582152"/>
      </g>
     </g>
     <g id="text_14">
      <!-- 0.30 -->
      <defs>
       <path d="M 40.578125 39.3125 
Q 47.65625 37.796875 51.625 33 
Q 55.609375 28.21875 55.609375 21.1875 
Q 55.609375 10.40625 48.1875 4.484375 
Q 40.765625 -1.421875 27.09375 -1.421875 
Q 22.515625 -1.421875 17.65625 -0.515625 
Q 12.796875 0.390625 7.625 2.203125 
L 7.625 11.71875 
Q 11.71875 9.328125 16.59375 8.109375 
Q 21.484375 6.890625 26.8125 6.890625 
Q 36.078125 6.890625 40.9375 10.546875 
Q 45.796875 14.203125 45.796875 21.1875 
Q 45.796875 27.640625 41.28125 31.265625 
Q 36.765625 34.90625 28.71875 34.90625 
L 20.21875 34.90625 
L 20.21875 43.015625 
L 29.109375 43.015625 
Q 36.375 43.015625 40.234375 45.921875 
Q 44.09375 48.828125 44.09375 54.296875 
Q 44.09375 59.90625 40.109375 62.90625 
Q 36.140625 65.921875 28.71875 65.921875 
Q 24.65625 65.921875 20.015625 65.03125 
Q 15.375 64.15625 9.8125 62.3125 
L 9.8125 71.09375 
Q 15.4375 72.65625 20.34375 73.4375 
Q 25.25 74.21875 29.59375 74.21875 
Q 40.828125 74.21875 47.359375 69.109375 
Q 53.90625 64.015625 53.90625 55.328125 
Q 53.90625 49.265625 50.4375 45.09375 
Q 46.96875 40.921875 40.578125 39.3125 
z
" id="DejaVuSans-51"/>
      </defs>
      <g transform="translate(10.854375 76.381371)scale(0.1 -0.1)">
       <use xlink:href="#DejaVuSans-48"/>
       <use x="63.623047" xlink:href="#DejaVuSans-46"/>
       <use x="95.410156" xlink:href="#DejaVuSans-51"/>
       <use x="159.033203" xlink:href="#DejaVuSans-48"/>
      </g>
     </g>
    </g>
    <g id="ytick_8">
     <g id="line2d_15">
      <g>
       <use style="stroke:#000000;stroke-width:0.8;" x="40.12" xlink:href="#m8b302cc83a" y="46.557023"/>
      </g>
     </g>
     <g id="text_15">
      <!-- 0.35 -->
      <g transform="translate(10.854375 50.356242)scale(0.1 -0.1)">
       <use xlink:href="#DejaVuSans-48"/>
       <use x="63.623047" xlink:href="#DejaVuSans-46"/>
       <use x="95.410156" xlink:href="#DejaVuSans-51"/>
       <use x="159.033203" xlink:href="#DejaVuSans-53"/>
      </g>
     </g>
    </g>
    <g id="ytick_9">
     <g id="line2d_16">
      <g>
       <use style="stroke:#000000;stroke-width:0.8;" x="40.12" xlink:href="#m8b302cc83a" y="20.531894"/>
      </g>
     </g>
     <g id="text_16">
      <!-- 0.40 -->
      <g transform="translate(10.854375 24.331113)scale(0.1 -0.1)">
       <use xlink:href="#DejaVuSans-48"/>
       <use x="63.623047" xlink:href="#DejaVuSans-46"/>
       <use x="95.410156" xlink:href="#DejaVuSans-52"/>
       <use x="159.033203" xlink:href="#DejaVuSans-48"/>
      </g>
     </g>
    </g>
   </g>
   <g id="line2d_17">
    <path clip-path="url(#pba9fea0571)" d="M 57.441818 226.426136 
L 60.941175 225.43878 
L 64.440533 224.097424 
L 67.93989 222.305013 
L 71.439247 219.949532 
L 74.938604 216.905944 
L 78.437961 213.039973 
L 81.937319 208.214001 
L 85.436676 202.295223 
L 88.936033 195.165965 
L 92.43539 186.735806 
L 95.934747 176.954818 
L 99.434105 165.826932 
L 102.933462 153.422162 
L 106.432819 139.886233 
L 109.932176 125.446165 
L 113.431534 110.410455 
L 116.930891 95.162907 
L 120.430248 80.149652 
L 123.929605 65.859572 
L 127.428962 52.799103 
L 130.92832 41.463095 
L 134.427677 32.303983 
L 137.927034 25.701941 
L 141.426391 21.93873 
L 144.925748 21.177758 
L 148.425106 23.452313 
L 151.924463 28.663142 
L 155.42382 36.585641 
L 158.923177 46.885909 
L 162.422534 59.144077 
L 165.921892 72.882647 
L 169.421249 87.597169 
L 172.920606 102.786539 
L 176.419963 117.980424 
L 179.91932 132.761806 
L 183.418678 146.78334 
L 186.918035 159.776913 
L 190.417392 171.55654 
L 193.916749 182.015334 
L 197.416107 191.117726 
L 200.915464 198.888345 
L 204.414821 205.399056 
L 207.914178 210.755511 
L 211.413535 215.084364 
L 214.912893 218.521986 
L 218.41225 221.205201 
L 221.911607 223.264265 
L 225.410964 224.818056 
L 228.910321 225.971248 
L 232.409679 226.813162 
L 235.909036 227.417877 
L 239.408393 227.845249 
L 242.90775 228.14247 
L 246.407107 228.3459 
L 249.906465 228.482943 
L 253.405822 228.573814 
L 256.905179 228.63313 
L 260.404536 228.671246 
L 263.903893 228.69536 
L 267.403251 228.71038 
L 270.902608 228.719592 
L 274.401965 228.725154 
L 277.901322 228.728462 
L 281.40068 228.7304 
L 284.900037 228.731517 
L 288.399394 228.732151 
L 291.898751 228.732506 
L 295.398108 228.732701 
L 298.897466 228.732807 
L 302.396823 228.732864 
L 305.89618 228.732894 
L 309.395537 228.732909 
L 312.894894 228.732917 
L 316.394252 228.732921 
L 319.893609 228.732923 
L 323.392966 228.732924 
L 326.892323 228.732924 
L 330.39168 228.732925 
L 333.891038 228.732925 
L 337.390395 228.732925 
L 340.889752 228.732925 
L 344.389109 228.732925 
L 347.888466 228.732925 
L 351.387824 228.732925 
L 354.887181 228.732925 
L 358.386538 228.732925 
L 361.885895 228.732925 
L 365.385253 228.732925 
L 368.88461 228.732925 
L 372.383967 228.732925 
L 375.883324 228.732925 
L 379.382681 228.732925 
L 382.882039 228.732925 
L 386.381396 228.732925 
L 389.880753 228.732925 
L 393.38011 228.732925 
L 396.879467 228.732925 
L 400.378825 228.732925 
L 403.878182 228.732925 
" style="fill:none;stroke:#1f77b4;stroke-linecap:square;stroke-width:1.5;"/>
   </g>
   <g id="line2d_18">
    <path clip-path="url(#pba9fea0571)" d="M 57.441818 228.732151 
L 60.941175 228.731517 
L 64.440533 228.7304 
L 67.93989 228.728462 
L 71.439247 228.725154 
L 74.938604 228.719592 
L 78.437961 228.71038 
L 81.937319 228.69536 
L 85.436676 228.671246 
L 88.936033 228.63313 
L 92.43539 228.573814 
L 95.934747 228.482943 
L 99.434105 228.3459 
L 102.933462 228.14247 
L 106.432819 227.845249 
L 109.932176 227.417877 
L 113.431534 226.813162 
L 116.930891 225.971248 
L 120.430248 224.818056 
L 123.929605 223.264265 
L 127.428962 221.205201 
L 130.92832 218.521986 
L 134.427677 215.084364 
L 137.927034 210.755511 
L 141.426391 205.399056 
L 144.925748 198.888345 
L 148.425106 191.117726 
L 151.924463 182.015334 
L 155.42382 171.55654 
L 158.923177 159.776913 
L 162.422534 146.78334 
L 165.921892 132.761806 
L 169.421249 117.980424 
L 172.920606 102.786539 
L 176.419963 87.597169 
L 179.91932 72.882647 
L 183.418678 59.144077 
L 186.918035 46.885909 
L 190.417392 36.585641 
L 193.916749 28.663142 
L 197.416107 23.452313 
L 200.915464 21.177758 
L 204.414821 21.93873 
L 207.914178 25.701941 
L 211.413535 32.303983 
L 214.912893 41.463095 
L 218.41225 52.799103 
L 221.911607 65.859572 
L 225.410964 80.149652 
L 228.910321 95.162907 
L 232.409679 110.410455 
L 235.909036 125.446165 
L 239.408393 139.886233 
L 242.90775 153.422162 
L 246.407107 165.826932 
L 249.906465 176.954818 
L 253.405822 186.735806 
L 256.905179 195.165965 
L 260.404536 202.295223 
L 263.903893 208.214001 
L 267.403251 213.039973 
L 270.902608 216.905944 
L 274.401965 219.949532 
L 277.901322 222.305013 
L 281.40068 224.097424 
L 284.900037 225.43878 
L 288.399394 226.426136 
L 291.898751 227.141112 
L 295.398108 227.650505 
L 298.897466 228.007624 
L 302.396823 228.254008 
L 305.89618 228.421308 
L 309.395537 228.533122 
L 312.894894 228.606684 
L 316.394252 228.654325 
L 319.893609 228.684701 
L 323.392966 228.70377 
L 326.892323 228.715555 
L 330.39168 228.722728 
L 333.891038 228.727026 
L 337.390395 228.729562 
L 340.889752 228.731036 
L 344.389109 228.731879 
L 347.888466 228.732354 
L 351.387824 228.732618 
L 354.887181 228.732762 
L 358.386538 228.73284 
L 361.885895 228.732881 
L 365.385253 228.732903 
L 368.88461 228.732914 
L 372.383967 228.732919 
L 375.883324 228.732922 
L 379.382681 228.732924 
L 382.882039 228.732924 
L 386.381396 228.732925 
L 389.880753 228.732925 
L 393.38011 228.732925 
L 396.879467 228.732925 
L 400.378825 228.732925 
L 403.878182 228.732925 
" style="fill:none;stroke:#ff7f0e;stroke-dasharray:1.5,2.475;stroke-dashoffset:0;stroke-width:1.5;"/>
   </g>
   <g id="line2d_19">
    <path clip-path="url(#pba9fea0571)" d="M 57.441818 228.732925 
L 60.941175 228.732925 
L 64.440533 228.732925 
L 67.93989 228.732925 
L 71.439247 228.732925 
L 74.938604 228.732925 
L 78.437961 228.732924 
L 81.937319 228.732924 
L 85.436676 228.732922 
L 88.936033 228.732919 
L 92.43539 228.732914 
L 95.934747 228.732903 
L 99.434105 228.732881 
L 102.933462 228.73284 
L 106.432819 228.732762 
L 109.932176 228.732618 
L 113.431534 228.732354 
L 116.930891 228.731879 
L 120.430248 228.731036 
L 123.929605 228.729562 
L 127.428962 228.727026 
L 130.92832 228.722728 
L 134.427677 228.715555 
L 137.927034 228.70377 
L 141.426391 228.684701 
L 144.925748 228.654325 
L 148.425106 228.606684 
L 151.924463 228.533122 
L 155.42382 228.421308 
L 158.923177 228.254008 
L 162.422534 228.007624 
L 165.921892 227.650505 
L 169.421249 227.141112 
L 172.920606 226.426136 
L 176.419963 225.43878 
L 179.91932 224.097424 
L 183.418678 222.305013 
L 186.918035 219.949532 
L 190.417392 216.905944 
L 193.916749 213.039973 
L 197.416107 208.214001 
L 200.915464 202.295223 
L 204.414821 195.165965 
L 207.914178 186.735806 
L 211.413535 176.954818 
L 214.912893 165.826932 
L 218.41225 153.422162 
L 221.911607 139.886233 
L 225.410964 125.446165 
L 228.910321 110.410455 
L 232.409679 95.162907 
L 235.909036 80.149652 
L 239.408393 65.859572 
L 242.90775 52.799103 
L 246.407107 41.463095 
L 249.906465 32.303983 
L 253.405822 25.701941 
L 256.905179 21.93873 
L 260.404536 21.177758 
L 263.903893 23.452313 
L 267.403251 28.663142 
L 270.902608 36.585641 
L 274.401965 46.885909 
L 277.901322 59.144077 
L 281.40068 72.882647 
L 284.900037 87.597169 
L 288.399394 102.786539 
L 291.898751 117.980424 
L 295.398108 132.761806 
L 298.897466 146.78334 
L 302.396823 159.776913 
L 305.89618 171.55654 
L 309.395537 182.015334 
L 312.894894 191.117726 
L 316.394252 198.888345 
L 319.893609 205.399056 
L 323.392966 210.755511 
L 326.892323 215.084364 
L 330.39168 218.521986 
L 333.891038 221.205201 
L 337.390395 223.264265 
L 340.889752 224.818056 
L 344.389109 225.971248 
L 347.888466 226.813162 
L 351.387824 227.417877 
L 354.887181 227.845249 
L 358.386538 228.14247 
L 361.885895 228.3459 
L 365.385253 228.482943 
L 368.88461 228.573814 
L 372.383967 228.63313 
L 375.883324 228.671246 
L 379.382681 228.69536 
L 382.882039 228.71038 
L 386.381396 228.719592 
L 389.880753 228.725154 
L 393.38011 228.728462 
L 396.879467 228.7304 
L 400.378825 228.731517 
L 403.878182 228.732151 
" style="fill:none;stroke:#2ca02c;stroke-dasharray:5.55,2.4;stroke-dashoffset:0;stroke-width:1.5;"/>
   </g>
   <g id="line2d_20">
    <path clip-path="url(#pba9fea0571)" d="M 57.441818 228.732925 
L 60.941175 228.732925 
L 64.440533 228.732925 
L 67.93989 228.732925 
L 71.439247 228.732925 
L 74.938604 228.732925 
L 78.437961 228.732925 
L 81.937319 228.732925 
L 85.436676 228.732925 
L 88.936033 228.732925 
L 92.43539 228.732925 
L 95.934747 228.732925 
L 99.434105 228.732925 
L 102.933462 228.732925 
L 106.432819 228.732925 
L 109.932176 228.732925 
L 113.431534 228.732925 
L 116.930891 228.732925 
L 120.430248 228.732925 
L 123.929605 228.732925 
L 127.428962 228.732925 
L 130.92832 228.732925 
L 134.427677 228.732924 
L 137.927034 228.732924 
L 141.426391 228.732923 
L 144.925748 228.732921 
L 148.425106 228.732917 
L 151.924463 228.732909 
L 155.42382 228.732894 
L 158.923177 228.732864 
L 162.422534 228.732807 
L 165.921892 228.732701 
L 169.421249 228.732506 
L 172.920606 228.732151 
L 176.419963 228.731517 
L 179.91932 228.7304 
L 183.418678 228.728462 
L 186.918035 228.725154 
L 190.417392 228.719592 
L 193.916749 228.71038 
L 197.416107 228.69536 
L 200.915464 228.671246 
L 204.414821 228.63313 
L 207.914178 228.573814 
L 211.413535 228.482943 
L 214.912893 228.3459 
L 218.41225 228.14247 
L 221.911607 227.845249 
L 225.410964 227.417877 
L 228.910321 226.813162 
L 232.409679 225.971248 
L 235.909036 224.818056 
L 239.408393 223.264265 
L 242.90775 221.205201 
L 246.407107 218.521986 
L 249.906465 215.084364 
L 253.405822 210.755511 
L 256.905179 205.399056 
L 260.404536 198.888345 
L 263.903893 191.117726 
L 267.403251 182.015334 
L 270.902608 171.55654 
L 274.401965 159.776913 
L 277.901322 146.78334 
L 281.40068 132.761806 
L 284.900037 117.980424 
L 288.399394 102.786539 
L 291.898751 87.597169 
L 295.398108 72.882647 
L 298.897466 59.144077 
L 302.396823 46.885909 
L 305.89618 36.585641 
L 309.395537 28.663142 
L 312.894894 23.452313 
L 316.394252 21.177758 
L 319.893609 21.93873 
L 323.392966 25.701941 
L 326.892323 32.303983 
L 330.39168 41.463095 
L 333.891038 52.799103 
L 337.390395 65.859572 
L 340.889752 80.149652 
L 344.389109 95.162907 
L 347.888466 110.410455 
L 351.387824 125.446165 
L 354.887181 139.886233 
L 358.386538 153.422162 
L 361.885895 165.826932 
L 365.385253 176.954818 
L 368.88461 186.735806 
L 372.383967 195.165965 
L 375.883324 202.295223 
L 379.382681 208.214001 
L 382.882039 213.039973 
L 386.381396 216.905944 
L 389.880753 219.949532 
L 393.38011 222.305013 
L 396.879467 224.097424 
L 400.378825 225.43878 
L 403.878182 226.426136 
" style="fill:none;stroke:#d62728;stroke-dasharray:9.6,2.4,1.5,2.4;stroke-dashoffset:0;stroke-width:1.5;"/>
   </g>
   <g id="patch_3">
    <path d="M 40.12 239.110683 
L 40.12 10.8 
" style="fill:none;stroke:#000000;stroke-linecap:square;stroke-linejoin:miter;stroke-width:0.8;"/>
   </g>
   <g id="patch_4">
    <path d="M 421.2 239.110683 
L 421.2 10.8 
" style="fill:none;stroke:#000000;stroke-linecap:square;stroke-linejoin:miter;stroke-width:0.8;"/>
   </g>
   <g id="patch_5">
    <path d="M 40.12 239.110683 
L 421.2 239.110683 
" style="fill:none;stroke:#000000;stroke-linecap:square;stroke-linejoin:miter;stroke-width:0.8;"/>
   </g>
   <g id="patch_6">
    <path d="M 40.12 10.8 
L 421.2 10.8 
" style="fill:none;stroke:#000000;stroke-linecap:square;stroke-linejoin:miter;stroke-width:0.8;"/>
   </g>
  </g>
 </g>
 <defs>
  <clipPath id="pba9fea0571">
   <rect height="228.310683" width="381.08" x="40.12" y="10.8"/>
  </clipPath>
 </defs>
</svg>
